<svg width="274" height="289" viewBox="0 0 274 289" fill="none" xmlns="http://www.w3.org/2000/svg">
<g clip-path="url(#clip0_3734_25888)" filter="url(#filter0_d_3734_25888)">
<path d="M255.962 109.443C256.867 111.392 256.98 113.727 257.048 115.947C257.59 134.871 258.133 153.885 255.6 172.65C253.066 191.415 247.298 210.066 236.282 225.432C218.796 249.794 189.389 263.664 159.688 267.472C124.559 271.959 87.393 263.007 59.7506 240.82C28.6246 215.823 16.5 178.95 16.5 140.219C16.5 114.882 21.4992 92.6727 31.4522 73.5905C41.5184 54.3724 55.8146 39.4149 74.3409 28.6727C92.9803 17.9531 115.216 12.582 141.026 12.582C162.607 12.582 178.712 18.6104 194.728 26.2704C196.221 26.9956 196.832 28.8087 196.085 30.2817L171.836 78.4177C170.569 80.9106 167.606 81.7492 165.298 80.1401C155.051 73.0466 141.321 71.2562 129.286 74.8143C115.601 78.871 104.223 89.2733 97.4818 101.874C85.1309 124.967 86.2167 157.398 99.1331 180.083C107.548 194.86 123.269 206.282 140.257 205.987C178.826 205.307 188.439 153.885 182.784 124.061C181.721 118.418 180.432 111.664 184.594 107.698C187.489 104.933 191.9 104.775 195.881 104.752C211.987 104.707 228.116 104.684 244.222 104.639C248.135 104.639 252.637 104.888 255.057 107.97C255.419 108.423 255.69 108.899 255.917 109.398L255.962 109.443Z" fill="#F9F9F9"/>
<path d="M219.769 97.5907C235.622 97.5907 248.474 84.7147 248.474 68.8315C248.474 52.9482 235.622 40.0723 219.769 40.0723C203.915 40.0723 191.063 52.9482 191.063 68.8315C191.063 84.7147 203.915 97.5907 219.769 97.5907Z" fill="#F9BF08"/>
<path d="M219.769 93.6474C233.449 93.6474 244.538 82.5369 244.538 68.8315C244.538 55.1261 233.449 44.0156 219.769 44.0156C206.089 44.0156 194.999 55.1261 194.999 68.8315C194.999 82.5369 206.089 93.6474 219.769 93.6474Z" fill="#FFCA00"/>
<path d="M219.769 113.024C237.421 113.024 251.732 111.867 251.732 110.44C251.732 109.013 237.421 107.856 219.769 107.856C202.116 107.856 187.806 109.013 187.806 110.44C187.806 111.867 202.116 113.024 219.769 113.024Z" fill="#B1B7DD"/>
</g>
<defs>
<filter id="filter0_d_3734_25888" x="0.8" y="0.882031" width="272.4" height="287.4" filterUnits="userSpaceOnUse" color-interpolation-filters="sRGB">
<feFlood flood-opacity="0" result="BackgroundImageFix"/>
<feColorMatrix in="SourceAlpha" type="matrix" values="0 0 0 0 0 0 0 0 0 0 0 0 0 0 0 0 0 0 127 0" result="hardAlpha"/>
<feOffset dy="4"/>
<feGaussianBlur stdDeviation="7.85"/>
<feComposite in2="hardAlpha" operator="out"/>
<feColorMatrix type="matrix" values="0 0 0 0 0 0 0 0 0 0 0 0 0 0 0 0 0 0 0.4 0"/>
<feBlend mode="normal" in2="BackgroundImageFix" result="effect1_dropShadow_3734_25888"/>
<feBlend mode="normal" in="SourceGraphic" in2="effect1_dropShadow_3734_25888" result="shape"/>
</filter>
<clipPath id="clip0_3734_25888">
<rect width="241" height="256" fill="white" transform="translate(16.5 12.582)"/>
</clipPath>
</defs>
</svg>
