<svg width="23" height="23" viewBox="0 0 23 23" fill="none" xmlns="http://www.w3.org/2000/svg">
<path d="M11.4281 22.8398C10.9177 22.8398 10.544 22.7669 10.3071 22.6211C10.0883 22.4753 9.97893 22.2292 9.97893 21.8828V13.1875H1.25627C0.909918 13.1875 0.65471 13.0964 0.490647 12.9141C0.344814 12.7318 0.271897 12.3945 0.271897 11.9023V11.5742C0.271897 11.0456 0.353929 10.6445 0.517991 10.3711C0.682054 10.0794 0.928147 9.93359 1.25627 9.93359H9.97893V1.21094C9.97893 0.882812 10.0883 0.636719 10.3071 0.472656C10.544 0.308594 10.9177 0.226562 11.4281 0.226562H11.7563C12.7224 0.226562 13.2055 0.554688 13.2055 1.21094V9.93359H21.8735C22.2016 9.93359 22.4477 10.0521 22.6117 10.2891C22.7758 10.5078 22.8578 10.8724 22.8578 11.3828V11.7109C22.8578 12.6953 22.5297 13.1875 21.8735 13.1875H13.2055V21.8828C13.2055 22.2292 13.087 22.4753 12.85 22.6211C12.6313 22.7669 12.2667 22.8398 11.7563 22.8398H11.4281Z" fill="#6775F4"/>
</svg>
