<svg width="328" height="663" viewBox="0 0 328 663" fill="none" xmlns="http://www.w3.org/2000/svg">
<path opacity="0.3" d="M120.007 660.703C120.849 662.13 122.689 662.604 124.116 661.763C125.543 660.921 126.017 659.081 125.175 657.654L120.007 660.703ZM-46.2813 10.6954C-45.0622 11.8174 -43.1643 11.7388 -42.0423 10.5198C-40.9202 9.30071 -40.9988 7.40284 -42.2179 6.28076L-46.2813 10.6954ZM-31.0107 16.8634C-32.2007 15.7106 -34.1 15.7408 -35.2528 16.9308C-36.4056 18.1209 -36.3754 20.0201 -35.1853 21.1729L-31.0107 16.8634ZM-23.6486 32.6614C-22.4911 33.8468 -20.5917 33.8693 -19.4063 32.7117C-18.2209 31.5542 -18.1983 29.6548 -19.3559 28.4694L-23.6486 32.6614ZM-8.72781 39.6512C-9.85265 38.4346 -11.7507 38.3603 -12.9672 39.4852C-14.1837 40.61 -14.258 42.508 -13.1332 43.7246L-8.72781 39.6512ZM-2.26951 55.8412C-1.18299 57.092 0.711823 57.2253 1.96268 56.1388C3.21355 55.0523 3.34678 53.1574 2.26027 51.9066L-2.26951 55.8412ZM12.2025 63.7194C11.156 62.4348 9.26638 62.2418 7.98181 63.2883C6.69725 64.3347 6.50421 66.2244 7.55066 67.5089L12.2025 63.7194ZM17.5855 80.296C18.5836 81.6185 20.4648 81.8815 21.7873 80.8834C23.1098 79.8853 23.3728 78.0041 22.3747 76.6816L17.5855 80.296ZM31.4501 89.1945C30.5039 87.8344 28.6343 87.4987 27.2742 88.4449C25.914 89.391 25.5784 91.2606 26.5245 92.6207L31.4501 89.1945ZM35.4822 106.146C36.3639 107.549 38.2159 107.971 39.6186 107.089C41.0214 106.207 41.4438 104.356 40.562 102.953L35.4822 106.146ZM48.4845 116.266C47.6738 114.821 45.8452 114.307 44.4002 115.118C42.9553 115.929 42.4412 117.757 43.2519 119.202L48.4845 116.266ZM50.7439 133.542C51.4646 135.034 53.2582 135.659 54.7501 134.939C56.242 134.218 56.8672 132.424 56.1465 130.932L50.7439 133.542ZM62.4472 145.14C61.8278 143.603 60.0799 142.86 58.5432 143.479C57.0065 144.099 56.2629 145.846 56.8823 147.383L62.4472 145.14ZM62.2933 162.556C62.7824 164.139 64.4622 165.025 66.0452 164.536C67.6283 164.047 68.5151 162.367 68.026 160.784L62.2933 162.556ZM71.9627 175.892C71.6207 174.27 70.0293 173.233 68.4081 173.575C66.7869 173.917 65.7499 175.509 66.0919 177.13L71.9627 175.892ZM68.5213 192.955C68.6765 194.604 70.1397 195.816 71.7892 195.66C73.4388 195.505 74.6501 194.042 74.4948 192.392L68.5213 192.955ZM75.0274 208.081C75.0743 206.424 73.7697 205.044 72.1135 204.997C70.4573 204.95 69.0767 206.255 69.0298 207.911L75.0274 208.081ZM67.5592 223.321C67.2979 224.957 68.4124 226.495 70.0485 226.757C71.6846 227.018 73.2228 225.904 73.4841 224.267L67.5592 223.321ZM70.4256 238.67C70.847 237.068 69.8897 235.427 68.2873 235.006C66.685 234.584 65.0444 235.542 64.623 237.144L70.4256 238.67ZM60.1268 251.601C59.5707 253.162 60.3852 254.878 61.9459 255.434C63.5067 255.99 65.2227 255.176 65.7788 253.615L60.1268 251.601ZM60.4358 267.22C61.086 265.696 60.3778 263.933 58.8538 263.283C57.3299 262.633 55.5674 263.341 54.9172 264.865L60.4358 267.22ZM48.5837 278.743C47.8631 280.235 48.4883 282.028 49.9803 282.749C51.4722 283.47 53.2658 282.844 53.9865 281.352L48.5837 278.743ZM47.472 294.33C48.2343 292.859 47.6597 291.048 46.1887 290.286C44.7176 289.524 42.9071 290.098 42.1448 291.569L47.472 294.33ZM34.9624 305.142C34.1786 306.602 34.7266 308.421 36.1863 309.204C37.6461 309.988 39.4648 309.44 40.2486 307.98L34.9624 305.142ZM33.4055 320.691C34.1893 319.232 33.6414 317.413 32.1816 316.629C30.7219 315.845 28.9031 316.393 28.1193 317.853L33.4055 320.691ZM20.896 331.504C20.1337 332.975 20.7082 334.785 22.1793 335.548C23.6504 336.31 25.4609 335.735 26.2232 334.264L20.896 331.504ZM19.7842 347.091C20.5049 345.599 19.8796 343.805 18.3877 343.085C16.8958 342.364 15.1021 342.989 14.3815 344.481L19.7842 347.091ZM7.93213 358.614C7.2819 360.138 7.99019 361.9 9.51413 362.55C11.0381 363.201 12.8006 362.492 13.4508 360.968L7.93213 358.614ZM8.24113 374.232C8.79721 372.672 7.98277 370.956 6.42202 370.399C4.86127 369.843 3.14524 370.658 2.58916 372.219L8.24113 374.232ZM-2.05767 387.163C-2.4791 388.766 -1.52176 390.406 0.0806005 390.828C1.68296 391.249 3.32357 390.292 3.745 388.689L-2.05767 387.163ZM0.808756 402.512C1.07008 400.876 -0.0444123 399.338 -1.68053 399.077C-3.31664 398.815 -4.85482 399.93 -5.11615 401.566L0.808756 402.512ZM-6.6178 417.759C-6.64922 419.416 -5.33178 420.784 -3.67522 420.816C-2.01866 420.847 -0.650295 419.53 -0.618878 417.873L-6.6178 417.759ZM0.0944343 432.744C-0.0880244 431.097 -1.57091 429.91 -3.21769 430.092C-4.86446 430.275 -6.05153 431.758 -5.86907 433.404L0.0944343 432.744ZM-3.08981 449.803C-2.72626 451.419 -1.12114 452.435 0.495344 452.072C2.11182 451.708 3.12753 450.103 2.76398 448.486L-3.08981 449.803ZM6.69097 463.002C6.19479 461.422 4.51105 460.542 2.93024 461.038C1.34943 461.535 0.470147 463.218 0.966324 464.799L6.69097 463.002ZM6.49427 480.381C7.1013 481.922 8.84315 482.68 10.3848 482.073C11.9264 481.466 12.6841 479.724 12.0771 478.182L6.49427 480.381ZM18.0107 492.104C17.3217 490.597 15.5417 489.934 14.0349 490.623C12.5281 491.312 11.8651 493.092 12.5541 494.599L18.0107 492.104ZM19.7556 509.39C20.5145 510.863 22.3236 511.442 23.7965 510.683C25.2693 509.924 25.8482 508.115 25.0894 506.642L19.7556 509.39ZM32.2996 520.019C31.488 518.574 29.6591 518.061 28.2147 518.873C26.7702 519.684 26.2571 521.513 27.0687 522.958L32.2996 520.019ZM35.3389 537.127C36.196 538.545 38.0403 539 39.4582 538.143C40.8761 537.286 41.3308 535.441 40.4737 534.024L35.3389 537.127ZM48.5139 546.952C47.6222 545.555 45.7673 545.146 44.3709 546.038C42.9744 546.929 42.5652 548.784 43.4569 550.181L48.5139 546.952ZM52.4243 563.887C53.3456 565.264 55.2088 565.634 56.5859 564.713C57.963 563.791 58.3325 561.928 57.4112 560.551L52.4243 563.887ZM65.9983 573.16C65.0553 571.798 63.1865 571.458 61.8242 572.401C60.4619 573.344 60.1219 575.213 61.0649 576.575L65.9983 573.16ZM70.4546 589.949C71.4146 591.3 73.2875 591.616 74.6379 590.656C75.9883 589.696 76.3048 587.823 75.3448 586.473L70.4546 589.949ZM84.2551 598.898C83.285 597.555 81.4098 597.252 80.0666 598.222C78.7234 599.192 78.4209 601.068 79.391 602.411L84.2551 598.898ZM88.9771 615.634C89.9505 616.975 91.8265 617.273 93.1672 616.3C94.508 615.326 94.8058 613.45 93.8324 612.109L88.9771 615.634ZM102.807 624.512C101.84 623.167 99.9651 622.861 98.6199 623.828C97.2748 624.796 96.9685 626.67 97.9359 628.015L102.807 624.512ZM107.346 641.295C108.291 642.656 110.161 642.993 111.522 642.048C112.883 641.103 113.22 639.234 112.275 637.873L107.346 641.295ZM120.86 650.665C119.965 649.271 118.11 648.865 116.715 649.759C115.32 650.654 114.915 652.509 115.809 653.904L120.86 650.665ZM-52.2955 5.23489C-50.3209 7.00314 -48.3143 8.82406 -46.2813 10.6954L-42.2179 6.28076C-44.2713 4.39069 -46.2981 2.55138 -48.2929 0.765112L-52.2955 5.23489ZM-35.1853 21.1729C-31.3823 24.8569 -27.526 28.6909 -23.6486 32.6614L-19.3559 28.4694C-23.2737 24.4575 -27.1695 20.5844 -31.0107 16.8634L-35.1853 21.1729ZM-13.1332 43.7246C-9.49554 47.6587 -5.8655 51.7012 -2.26951 55.8412L2.26027 51.9066C-1.37848 47.7174 -5.05011 43.6286 -8.72781 39.6512L-13.1332 43.7246ZM7.55066 67.5089C10.9592 71.693 14.3121 75.9587 17.5855 80.296L22.3747 76.6816C19.0541 72.2818 15.6552 67.9577 12.2025 63.7194L7.55066 67.5089ZM26.5245 92.6207C29.6205 97.0715 32.6143 101.583 35.4822 106.146L40.562 102.953C37.6414 98.3064 34.5959 93.717 31.4501 89.1945L26.5245 92.6207ZM43.2519 119.202C45.9125 123.944 48.418 128.728 50.7439 133.542L56.1465 130.932C53.7638 126 51.2009 121.108 48.4845 116.266L43.2519 119.202ZM56.8823 147.383C58.9141 152.424 60.7268 157.485 62.2933 162.556L68.026 160.784C66.4066 155.543 64.5369 150.324 62.4472 145.14L56.8823 147.383ZM66.0919 177.13C67.2062 182.413 68.0258 187.692 68.5213 192.955L74.4948 192.392C73.9766 186.888 73.1209 181.383 71.9627 175.892L66.0919 177.13ZM69.0298 207.911C68.9546 210.569 68.788 213.221 68.5261 215.864L74.4969 216.456C74.773 213.669 74.9483 210.877 75.0274 208.081L69.0298 207.911ZM68.5261 215.864C68.2789 218.36 67.9547 220.845 67.5592 223.321L73.4841 224.267C73.8977 221.678 74.2374 219.074 74.4969 216.456L68.5261 215.864ZM64.623 237.144C63.3488 241.989 61.8357 246.805 60.1268 251.601L65.7788 253.615C67.5378 248.678 69.1032 243.698 70.4256 238.67L64.623 237.144ZM54.9172 264.865C52.938 269.504 50.8134 274.127 48.5837 278.743L53.9865 281.352C56.2488 276.669 58.4135 271.96 60.4358 267.22L54.9172 264.865ZM42.1448 291.569C39.7996 296.095 37.393 300.615 34.9624 305.142L40.2486 307.98C42.6849 303.443 45.1072 298.893 47.472 294.33L42.1448 291.569ZM28.1193 317.853C25.6831 322.39 23.2607 326.94 20.896 331.504L26.2232 334.264C28.5684 329.739 30.975 325.218 33.4055 320.691L28.1193 317.853ZM14.3815 344.481C12.1192 349.165 9.95443 353.874 7.93213 358.614L13.4508 360.968C15.4299 356.33 17.5546 351.707 19.7842 347.091L14.3815 344.481ZM2.58916 372.219C0.830126 377.156 -0.735264 382.135 -2.05767 387.163L3.745 388.689C5.01914 383.845 6.53226 379.029 8.24113 374.232L2.58916 372.219ZM-5.11615 401.566C-5.52974 404.156 -5.86947 406.759 -6.12894 409.378L-0.158178 409.969C0.089094 407.474 0.41325 404.989 0.808756 402.512L-5.11615 401.566ZM-6.12894 409.378C-6.40363 412.15 -6.56443 414.945 -6.6178 417.759L-0.618878 417.873C-0.568413 415.212 -0.416502 412.577 -0.158178 409.969L-6.12894 409.378ZM-5.86907 433.404C-5.26861 438.824 -4.32819 444.297 -3.08981 449.803L2.76398 448.486C1.56944 443.175 0.668175 437.922 0.0944343 432.744L-5.86907 433.404ZM0.966324 464.799C2.59198 469.979 4.44549 475.177 6.49427 480.381L12.0771 478.182C10.0752 473.098 8.27015 468.034 6.69097 463.002L0.966324 464.799ZM12.5541 494.599C14.8128 499.539 17.2224 504.473 19.7556 509.39L25.0894 506.642C22.595 501.801 20.2269 496.951 18.0107 492.104L12.5541 494.599ZM27.0687 522.958C29.739 527.711 32.504 532.438 35.3389 537.127L40.4737 534.024C37.6685 529.383 34.9358 524.711 32.2996 520.019L27.0687 522.958ZM43.4569 550.181C46.4069 554.8 49.4043 559.373 52.4243 563.887L57.4112 560.551C54.4121 556.068 51.4383 551.531 48.5139 546.952L43.4569 550.181ZM61.0649 576.575C64.2045 581.111 67.3436 585.573 70.4546 589.949L75.3448 586.473C72.2453 582.113 69.121 577.671 65.9983 573.16L61.0649 576.575ZM79.391 602.411C82.6602 606.938 85.8681 611.352 88.9771 615.634L93.8324 612.109C90.7213 607.824 87.5188 603.417 84.2551 598.898L79.391 602.411ZM97.9359 628.015C101.267 632.647 104.42 637.081 107.346 641.295L112.275 637.873C109.323 633.621 106.148 629.159 102.807 624.512L97.9359 628.015ZM115.809 653.904C117.331 656.278 118.735 658.546 120.007 660.703L125.175 657.654C123.858 655.421 122.414 653.089 120.86 650.665L115.809 653.904Z" fill="#6775F4"/>
<path d="M298.937 534.216C298.89 534.131 298.811 534.068 298.718 534.039C298.602 534.013 298.68 534.021 298.652 534.01L298.628 533.973C298.61 533.948 298.59 533.925 298.567 533.904C298.514 533.857 298.454 533.82 298.388 533.795C298.192 533.741 297.999 533.674 297.811 533.594C297.352 533.373 296.954 533.045 296.649 532.638C296.548 532.506 296.455 532.369 296.372 532.226L296.243 531.996L296.086 531.657C296.006 531.448 295.94 531.233 295.889 531.015C295.83 530.773 295.76 530.591 295.71 530.283C295.655 529.998 295.601 529.711 295.545 529.421C295.533 529.324 295.514 529.332 295.497 529.314L295.445 529.269L295.341 529.177L295.239 529.091L295.185 529.067L295.084 529.024L295.038 529.005L295.026 529.001C295.019 528.999 294.982 529.001 294.992 529.002L294.968 529.007C294.955 529.007 294.874 529.032 294.794 529.055C294.722 529.1 294.654 529.151 294.589 529.207C294.547 529.234 294.509 529.268 294.476 529.306L294.349 529.659C294.295 530.312 294.155 530.955 293.934 531.572C293.805 531.865 293.786 531.899 293.728 532.009L293.561 532.294C293.345 532.637 293.069 532.94 292.747 533.187C292.712 533.217 292.674 533.243 292.634 533.267L292.455 533.385C292.221 533.495 291.976 533.58 291.724 533.639C291.601 533.67 291.48 533.709 291.361 533.756L291.045 533.879C290.88 533.973 290.76 534.088 290.792 534.138L290.731 534.306L290.724 534.376C290.721 534.429 290.724 534.481 290.732 534.533L290.787 534.677L290.809 534.734L290.821 534.767L290.906 534.82C291.026 534.894 291.169 534.983 291.341 535.089C291.603 535.148 291.858 535.235 292.177 535.324C292.318 535.364 292.451 535.429 292.569 535.516L292.725 535.616C292.968 535.797 293.187 536.007 293.378 536.241C293.488 536.38 293.589 536.526 293.68 536.678C293.82 536.901 293.936 537.139 294.025 537.387C294.303 538.094 294.377 539.455 294.76 539.606C294.784 539.653 294.82 539.693 294.865 539.721C294.91 539.749 294.962 539.763 295.015 539.762C295.16 539.762 295.417 539.832 295.609 538.917C295.78 538.106 295.842 537.676 295.986 537.208C296.089 536.962 296.13 536.892 296.17 536.801L296.316 536.546C296.47 536.291 296.656 536.057 296.871 535.85C297.402 535.417 298.011 535.089 298.664 534.884C298.682 534.854 298.623 534.697 298.708 534.705C298.761 534.697 298.812 534.677 298.854 534.645C298.897 534.613 298.932 534.571 298.955 534.522C298.977 534.474 298.988 534.421 298.985 534.367C298.982 534.314 298.965 534.262 298.937 534.216Z" fill="#6775F4"/>
<path d="M288.825 539.748C288.807 539.741 288.789 539.737 288.77 539.733L288.765 539.73L288.723 539.7C288.687 539.678 288.65 539.659 288.611 539.642C288.508 539.597 288.401 539.561 288.291 539.534C287.513 539.354 286.787 538.992 286.17 538.477C284.787 537.221 283.901 535.496 283.678 533.624C283.632 533.354 283.598 533.083 283.579 532.81L283.561 532.603L283.552 532.5L283.547 532.448L283.546 532.435C283.544 532.398 283.538 532.361 283.527 532.326C283.503 532.239 283.454 532.162 283.387 532.105C283.319 532.047 283.236 532.012 283.148 532.002C283.061 531.993 282.972 532.011 282.895 532.053C282.817 532.096 282.754 532.161 282.713 532.241C282.681 532.303 282.663 532.371 282.659 532.441L282.655 532.489C282.613 532.491 282.617 532.491 282.655 532.489L282.654 532.493L282.645 532.597L282.625 532.804C282.577 533.359 282.486 533.908 282.353 534.448C282.105 535.493 281.659 536.48 281.041 537.353C280.492 538.112 279.768 538.723 278.933 539.131L278.51 539.301C278.305 539.375 278.021 539.431 277.868 539.498L277.338 539.688L277.079 539.78C277.036 539.804 277.059 539.816 277.045 539.834L277.017 539.933L277.003 539.981C277.001 540.001 277 540.02 277 540.04C276.999 540.053 277.001 540.065 277.005 540.077L277.056 540.252C277.171 540.342 277.292 540.425 277.418 540.5C277.855 540.553 278.283 540.661 278.694 540.821L278.88 540.895C278.932 540.914 278.983 540.938 279.031 540.967L279.351 541.135C279.851 541.434 280.304 541.808 280.696 542.244C281.615 543.342 282.238 544.665 282.502 546.083C282.58 546.475 282.638 546.871 282.675 547.27L282.704 547.568L282.708 547.605C282.71 547.637 282.715 547.67 282.723 547.701C282.744 547.782 282.789 547.855 282.852 547.908C282.915 547.961 282.993 547.993 283.075 547.999C283.157 548.005 283.239 547.984 283.309 547.94C283.379 547.896 283.433 547.831 283.465 547.754C283.484 547.708 283.495 547.659 283.497 547.61L283.499 547.591L283.511 547.443L283.561 546.854C283.65 546.116 283.814 545.389 284.052 544.685C284.385 543.668 284.942 542.742 285.679 541.975C286.283 541.354 287.025 540.89 287.843 540.622C288.394 540.437 288.715 540.42 288.771 540.36C288.804 540.336 288.742 540.235 288.809 540.236C288.869 540.224 288.923 540.188 288.958 540.137C288.993 540.085 289.007 540.021 288.997 539.959C288.989 539.903 288.962 539.851 288.922 539.811C288.895 539.783 288.861 539.762 288.825 539.748Z" fill="#6775F4"/>
<path d="M321.779 86.5075C321.752 86.498 321.725 86.4909 321.697 86.4862L321.69 86.4808L321.626 86.4373C321.572 86.4047 321.516 86.3758 321.459 86.3507C321.303 86.2841 321.142 86.2306 320.977 86.1909C319.807 85.925 318.715 85.3898 317.788 84.628C315.708 82.772 314.376 80.2212 314.042 77.4535C313.971 77.0552 313.921 76.6536 313.892 76.2502L313.865 75.9453L313.851 75.7925L313.845 75.716L313.843 75.697C313.839 75.642 313.83 75.5875 313.814 75.5346C313.778 75.4071 313.704 75.2934 313.603 75.2082C313.501 75.123 313.376 75.0702 313.245 75.0567C313.113 75.0432 312.98 75.0695 312.863 75.1323C312.746 75.195 312.651 75.2914 312.589 75.4089C312.542 75.5011 312.515 75.6022 312.509 75.7056L312.502 75.7758C312.439 75.7793 312.446 75.7795 312.502 75.7758L312.502 75.7822L312.487 75.9354L312.458 76.2422C312.386 77.0617 312.249 77.8741 312.048 78.672C311.675 80.2177 311.006 81.6763 310.076 82.9663C309.251 84.0895 308.162 84.9925 306.906 85.5959L306.27 85.8462C305.962 85.956 305.536 86.0397 305.306 86.1386L304.508 86.419L304.119 86.5555C304.054 86.5902 304.088 86.6085 304.068 86.6355L304.025 86.7814L304.004 86.8519C304.001 86.8811 304 86.9103 304 86.9396C303.999 86.958 304.002 86.9764 304.008 86.9937L304.085 87.2523C304.258 87.3863 304.439 87.5087 304.629 87.6187C305.285 87.6972 305.929 87.8567 306.547 88.0937L306.827 88.2027C306.905 88.232 306.981 88.2676 307.054 88.3091L307.535 88.5575C308.287 89.0006 308.968 89.5535 309.556 90.198C310.94 91.8214 311.876 93.7772 312.273 95.8727C312.391 96.4526 312.477 97.0383 312.532 97.6274L312.576 98.068L312.582 98.123C312.585 98.1712 312.593 98.2191 312.605 98.2659C312.636 98.3855 312.704 98.4923 312.799 98.5712C312.894 98.6501 313.011 98.6972 313.135 98.7058C313.258 98.7144 313.381 98.684 313.486 98.619C313.591 98.554 313.673 98.4577 313.72 98.3435C313.748 98.2757 313.765 98.2038 313.769 98.1305L313.772 98.1031L313.79 97.8837L313.865 97.0128C313.998 95.9213 314.246 94.8468 314.603 93.8066C315.105 92.3033 315.941 90.9336 317.05 89.8007C317.958 88.8824 319.073 88.1963 320.303 87.8003C321.132 87.5264 321.614 87.5005 321.698 87.4128C321.748 87.377 321.654 87.2278 321.755 87.2297C321.847 87.2117 321.927 87.1588 321.98 87.0824C322.033 87.0059 322.053 86.9118 322.038 86.8202C322.026 86.7367 321.986 86.6594 321.926 86.6004C321.884 86.5594 321.834 86.5278 321.779 86.5075Z" fill="#6775F4"/>
<path d="M327.937 78.2164C327.89 78.1314 327.811 78.0677 327.718 78.0386C327.602 78.0128 327.68 78.0206 327.652 78.0101L327.628 77.9733C327.61 77.9483 327.59 77.9252 327.567 77.9043C327.514 77.8572 327.454 77.82 327.388 77.7946C327.192 77.7407 326.999 77.6736 326.811 77.5936C326.352 77.3731 325.954 77.0453 325.649 76.6378C325.548 76.5063 325.455 76.3686 325.372 76.2257L325.243 75.9959L325.086 75.6571C325.006 75.4477 324.94 75.2331 324.889 75.0148C324.83 74.7725 324.76 74.591 324.71 74.2828C324.655 73.9982 324.601 73.711 324.545 73.4214C324.533 73.3242 324.514 73.3321 324.497 73.3143L324.445 73.2686L324.341 73.177L324.239 73.0908L324.185 73.0668L324.084 73.0242L324.038 73.0055L324.026 73.0011C324.019 72.9986 323.982 73.0009 323.992 73.0017L323.968 73.0072C323.955 73.0073 323.874 73.0321 323.794 73.0551C323.722 73.1005 323.654 73.1511 323.589 73.2066C323.547 73.2344 323.509 73.2677 323.476 73.3055L323.349 73.6585C323.295 74.3119 323.155 74.9552 322.934 75.5721C322.805 75.8652 322.786 75.8989 322.728 76.0094L322.561 76.2935C322.345 76.6374 322.069 76.9399 321.747 77.1866C321.712 77.2165 321.674 77.2434 321.634 77.267L321.455 77.3851C321.221 77.4953 320.976 77.5804 320.724 77.6388C320.601 77.6702 320.48 77.7093 320.361 77.756L320.045 77.8794C319.88 77.9728 319.76 78.0879 319.792 78.1375L319.731 78.3059L319.724 78.3763C319.721 78.4287 319.724 78.4813 319.732 78.5331L319.787 78.6772L319.809 78.734L319.821 78.7668L319.906 78.8199C320.026 78.8945 320.169 78.983 320.341 79.0894C320.603 79.1478 320.858 79.2352 321.177 79.3243C321.318 79.3644 321.451 79.4294 321.569 79.5161L321.725 79.6164C321.968 79.7968 322.187 80.0066 322.378 80.2409C322.488 80.3799 322.589 80.5258 322.68 80.6779C322.82 80.9013 322.936 81.1391 323.025 81.3873C323.303 82.0942 323.377 83.4546 323.76 83.6058C323.784 83.6534 323.82 83.6933 323.865 83.7209C323.91 83.7485 323.962 83.7626 324.015 83.7615C324.16 83.7615 324.417 83.8319 324.609 82.9171C324.78 82.1059 324.842 81.6761 324.986 81.2079C325.089 80.9617 325.13 80.8917 325.17 80.8009L325.316 80.5464C325.47 80.2908 325.656 80.0566 325.871 79.85C326.402 79.4168 327.011 79.0889 327.664 78.884C327.682 78.8536 327.623 78.6975 327.708 78.7051C327.761 78.6974 327.812 78.6767 327.854 78.6448C327.897 78.6129 327.932 78.5709 327.955 78.5225C327.977 78.474 327.988 78.4207 327.985 78.3673C327.982 78.3139 327.965 78.262 327.937 78.2164Z" fill="#6775F4"/>
<path d="M23.932 153.182C23.896 153.169 23.8589 153.159 23.8212 153.153L23.8118 153.146L23.7257 153.087C23.6532 153.044 23.578 153.005 23.5004 152.971C23.2907 152.881 23.0738 152.809 22.852 152.756C21.2771 152.398 19.8074 151.677 18.5598 150.652C15.7597 148.154 13.9667 144.72 13.5166 140.995C13.4219 140.459 13.3547 139.918 13.3154 139.375L13.279 138.964L13.2607 138.759L13.2515 138.656L13.2491 138.63C13.2444 138.556 13.2316 138.483 13.2109 138.412C13.162 138.24 13.0628 138.087 12.926 137.972C12.7893 137.858 12.6213 137.787 12.4437 137.768C12.2662 137.75 12.0873 137.786 11.9301 137.87C11.7729 137.955 11.6446 138.084 11.5619 138.242C11.4983 138.367 11.4614 138.503 11.4536 138.642L11.4445 138.736C11.3593 138.741 11.3685 138.741 11.4445 138.736L11.4437 138.745L11.4241 138.951L11.3849 139.364C11.2876 140.467 11.1032 141.561 10.8333 142.635C10.3316 144.715 9.42997 146.679 8.17871 148.415C7.06804 149.927 5.60272 151.143 3.91177 151.955L3.05594 152.292C2.64088 152.44 2.06734 152.552 1.75753 152.685L0.68315 153.063L0.160715 153.246C0.0723992 153.293 0.118892 153.318 0.0916209 153.354L0.033861 153.551L0.00601096 153.646C0.00177396 153.685 -6.43832e-05 153.724 0.00050577 153.764C-0.00140222 153.788 0.00210249 153.813 0.0107761 153.836L0.114127 154.184C0.347006 154.365 0.59155 154.53 0.846159 154.678C1.72981 154.783 2.59696 154.998 3.42779 155.317L3.80546 155.464C3.91097 155.503 4.0131 155.551 4.11084 155.607L4.7583 155.941C5.77027 156.538 6.68743 157.282 7.47938 158.15C9.3413 160.335 10.6016 162.967 11.1361 165.788C11.2943 166.569 11.4108 167.357 11.485 168.15L11.5443 168.743L11.5517 168.817C11.5558 168.882 11.5662 168.947 11.5827 169.01C11.6246 169.17 11.716 169.314 11.844 169.42C11.972 169.527 12.1301 169.59 12.296 169.602C12.4619 169.613 12.6273 169.572 12.7687 169.485C12.9102 169.397 13.0206 169.268 13.0844 169.114C13.1221 169.023 13.1443 168.926 13.1502 168.827L13.1533 168.79L13.1784 168.495L13.2786 167.323C13.4586 165.854 13.7914 164.407 14.2718 163.007C14.9474 160.983 16.0736 159.14 17.5655 157.615C18.7879 156.379 20.2898 155.455 21.9445 154.922C23.0608 154.553 23.7096 154.519 23.8225 154.4C23.8902 154.352 23.7641 154.151 23.8999 154.154C24.0226 154.13 24.131 154.059 24.2021 153.956C24.2731 153.853 24.3011 153.726 24.2801 153.603C24.2639 153.49 24.211 153.386 24.1298 153.307C24.0734 153.252 24.006 153.209 23.932 153.182Z" fill="#6775F4"/>
<path d="M32.2216 142.022C32.1571 141.907 32.0515 141.822 31.9261 141.782C31.7705 141.748 31.8756 141.758 31.8371 141.744L31.8055 141.694C31.7811 141.661 31.7533 141.63 31.7226 141.602C31.6522 141.538 31.5708 141.488 31.4824 141.454C31.2175 141.381 30.9578 141.291 30.7051 141.183C30.0877 140.887 29.551 140.445 29.1405 139.897C29.005 139.72 28.8804 139.534 28.7677 139.342L28.5942 139.033L28.3829 138.577C28.2753 138.295 28.1868 138.006 28.1181 137.712C28.0389 137.386 27.9444 137.142 27.8769 136.727C27.8038 136.344 27.73 135.957 27.6555 135.567C27.6388 135.436 27.6138 135.447 27.5909 135.423L27.521 135.362L27.3803 135.238L27.2438 135.122L27.1704 135.09L27.0351 135.033L26.9724 135.007L26.9566 135.002C26.9468 134.998 26.8973 135.001 26.9106 135.002L26.879 135.01C26.8604 135.01 26.7519 135.043 26.6447 135.074C26.5476 135.135 26.4552 135.203 26.3682 135.278C26.312 135.316 26.2611 135.36 26.2167 135.411L26.0458 135.886C25.9728 136.766 25.7846 137.632 25.486 138.462C25.3128 138.857 25.2872 138.902 25.2092 139.051L24.985 139.433C24.6942 139.896 24.3229 140.303 23.8887 140.635C23.841 140.676 23.79 140.712 23.7363 140.744L23.4955 140.903C23.1805 141.051 22.8506 141.165 22.5115 141.244C22.3457 141.286 22.1827 141.339 22.0236 141.402L21.5975 141.568C21.3758 141.694 21.214 141.849 21.2577 141.915L21.1756 142.142L21.1662 142.237C21.1621 142.307 21.1657 142.378 21.1769 142.448L21.2501 142.642L21.2797 142.718L21.2968 142.762L21.4107 142.834C21.5728 142.934 21.765 143.053 21.9959 143.197C22.3494 143.275 22.6926 143.393 23.1218 143.513C23.3116 143.567 23.4903 143.654 23.6493 143.771L23.8597 143.906C24.186 144.149 24.481 144.431 24.7379 144.747C24.8859 144.934 25.0216 145.13 25.1442 145.335C25.3329 145.636 25.4888 145.956 25.6093 146.29C25.9836 147.241 26.083 149.073 26.599 149.276C26.6302 149.34 26.6791 149.394 26.7398 149.431C26.8006 149.468 26.8707 149.487 26.9419 149.486C27.1373 149.486 27.4823 149.581 27.7414 148.349C27.971 147.257 28.055 146.679 28.2491 146.048C28.3876 145.717 28.4424 145.623 28.497 145.501L28.6931 145.158C28.8999 144.814 29.1512 144.499 29.4406 144.221C30.1549 143.637 30.9738 143.196 31.8536 142.92C31.8781 142.879 31.7989 142.669 31.9132 142.679C31.9845 142.669 32.0521 142.641 32.1099 142.598C32.1677 142.555 32.214 142.499 32.2446 142.434C32.2751 142.368 32.289 142.297 32.285 142.225C32.281 142.153 32.2592 142.083 32.2216 142.022Z" fill="#6775F4"/>
</svg>
