<svg width="35" height="34" viewBox="0 0 35 34" fill="none" xmlns="http://www.w3.org/2000/svg">
<path d="M15.6111 0C23.9568 0 30.7222 6.76547 30.7222 15.1111C30.7222 15.4852 30.7086 15.8561 30.682 16.2234C29.275 15.5119 27.6843 15.1111 26 15.1111C21.526 15.1111 17.7125 17.9393 16.2498 21.9053C14.0957 22.0864 11.8795 21.3494 10.2366 19.696C9.86893 19.326 9.27094 19.3241 8.90096 19.6919C8.53097 20.0594 8.52908 20.6575 8.89673 21.0275C10.781 22.9236 13.2689 23.8552 15.7462 23.82C15.6573 24.3669 15.6111 24.928 15.6111 25.5C15.6111 27.1843 16.0119 28.775 16.7234 30.182C16.3561 30.2086 15.9852 30.2222 15.6111 30.2222C7.26547 30.2222 0.5 23.4568 0.5 15.1111C0.5 6.76547 7.26547 0 15.6111 0ZM20.3333 10.3889C19.2901 10.3889 18.4444 11.2346 18.4444 12.2778C18.4444 13.321 19.2901 14.1667 20.3333 14.1667C21.3766 14.1667 22.2222 13.321 22.2222 12.2778C22.2222 11.2346 21.3766 10.3889 20.3333 10.3889ZM10.8889 10.3889C9.84569 10.3889 9 11.2346 9 12.2778C9 13.321 9.84569 14.1667 10.8889 14.1667C11.9321 14.1667 12.7778 13.321 12.7778 12.2778C12.7778 11.2346 11.9321 10.3889 10.8889 10.3889Z" fill="#6775F4"/>
<path d="M34.5 25.5C34.5 30.1945 30.6945 34 26 34C21.3055 34 17.5 30.1945 17.5 25.5C17.5 20.8055 21.3055 17 26 17C30.6945 17 34.5 20.8055 34.5 25.5ZM26.9444 21.7222C26.9444 21.2007 26.5215 20.7778 26 20.7778C25.4785 20.7778 25.0556 21.2007 25.0556 21.7222V24.5556H22.2222C21.7007 24.5556 21.2778 24.9785 21.2778 25.5C21.2778 26.0215 21.7007 26.4444 22.2222 26.4444H25.0556V29.2778C25.0556 29.7993 25.4785 30.2222 26 30.2222C26.5215 30.2222 26.9444 29.7993 26.9444 29.2778V26.4444H29.7778C30.2993 26.4444 30.7222 26.0215 30.7222 25.5C30.7222 24.9785 30.2993 24.5556 29.7778 24.5556H26.9444V21.7222Z" fill="#6775F4"/>
</svg>
