<svg width="24" height="23" viewBox="0 0 24 23" fill="none" xmlns="http://www.w3.org/2000/svg">
<path d="M11.9281 22.8398C11.4177 22.8398 11.044 22.7669 10.8071 22.6211C10.5883 22.4753 10.4789 22.2292 10.4789 21.8828V13.1875H1.75627C1.40992 13.1875 1.15471 13.0964 0.990647 12.9141C0.844814 12.7318 0.771897 12.3945 0.771897 11.9023V11.5742C0.771897 11.0456 0.853929 10.6445 1.01799 10.3711C1.18205 10.0794 1.42815 9.93359 1.75627 9.93359H10.4789V1.21094C10.4789 0.882812 10.5883 0.636719 10.8071 0.472656C11.044 0.308594 11.4177 0.226562 11.9281 0.226562H12.2563C13.2224 0.226562 13.7055 0.554688 13.7055 1.21094V9.93359H22.3735C22.7016 9.93359 22.9477 10.0521 23.1117 10.2891C23.2758 10.5078 23.3578 10.8724 23.3578 11.3828V11.7109C23.3578 12.6953 23.0297 13.1875 22.3735 13.1875H13.7055V21.8828C13.7055 22.2292 13.587 22.4753 13.35 22.6211C13.1313 22.7669 12.7667 22.8398 12.2563 22.8398H11.9281Z" fill="#F9F9F9"/>
</svg>
