<svg width="134" height="50" viewBox="0 0 134 50" fill="none" xmlns="http://www.w3.org/2000/svg">
<rect x="0.5" y="1.07129" width="132.719" height="48.0457" rx="5.5" fill="#F9F9F9" stroke="#6775F4" stroke-dasharray="6 6"/>
<path d="M66.7406 37.082C66.2302 37.082 65.8565 37.0091 65.6196 36.8633C65.4008 36.7174 65.2914 36.4714 65.2914 36.125V27.4297H56.5688C56.2224 27.4297 55.9672 27.3385 55.8031 27.1562C55.6573 26.974 55.5844 26.6367 55.5844 26.1445V25.8164C55.5844 25.2878 55.6664 24.8867 55.8305 24.6133C55.9946 24.3216 56.2406 24.1758 56.5688 24.1758H65.2914V15.4531C65.2914 15.125 65.4008 14.8789 65.6196 14.7148C65.8565 14.5508 66.2302 14.4688 66.7406 14.4688H67.0688C68.0349 14.4688 68.518 14.7969 68.518 15.4531V24.1758H77.186C77.5141 24.1758 77.7602 24.2943 77.9242 24.5312C78.0883 24.75 78.1703 25.1146 78.1703 25.625V25.9531C78.1703 26.9375 77.8422 27.4297 77.186 27.4297H68.518V36.125C68.518 36.4714 68.3995 36.7174 68.1625 36.8633C67.9438 37.0091 67.5792 37.082 67.0688 37.082H66.7406Z" fill="#6775F4"/>
</svg>
