<svg width="354" height="663" viewBox="0 0 354 663" fill="none" xmlns="http://www.w3.org/2000/svg">
<path opacity="0.5" d="M166.007 660.703C166.849 662.13 168.689 662.604 170.116 661.763C171.543 660.921 172.017 659.081 171.175 657.654L166.007 660.703ZM-0.281267 10.6954C0.937791 11.8174 2.83566 11.7388 3.95774 10.5198C5.07982 9.30071 5.0012 7.40284 3.78215 6.28076L-0.281267 10.6954ZM14.9893 16.8634C13.7993 15.7106 11.9 15.7408 10.7472 16.9308C9.59443 18.1209 9.62462 20.0201 10.8147 21.1729L14.9893 16.8634ZM22.3514 32.6614C23.5089 33.8468 25.4083 33.8693 26.5937 32.7117C27.7791 31.5542 27.8017 29.6548 26.6441 28.4694L22.3514 32.6614ZM37.2722 39.6512C36.1474 38.4346 34.2493 38.3603 33.0328 39.4852C31.8163 40.61 31.742 42.508 32.8668 43.7246L37.2722 39.6512ZM43.7305 55.8412C44.817 57.092 46.7118 57.2253 47.9627 56.1388C49.2135 55.0523 49.3468 53.1574 48.2603 51.9066L43.7305 55.8412ZM58.2025 63.7194C57.156 62.4348 55.2664 62.2418 53.9818 63.2883C52.6972 64.3347 52.5042 66.2244 53.5507 67.5089L58.2025 63.7194ZM63.5855 80.296C64.5836 81.6185 66.4648 81.8815 67.7873 80.8834C69.1098 79.8853 69.3728 78.0041 68.3747 76.6816L63.5855 80.296ZM77.4501 89.1945C76.5039 87.8344 74.6343 87.4987 73.2742 88.4449C71.914 89.391 71.5784 91.2606 72.5245 92.6207L77.4501 89.1945ZM81.4822 106.146C82.3639 107.549 84.2159 107.971 85.6186 107.089C87.0214 106.207 87.4438 104.356 86.562 102.953L81.4822 106.146ZM94.4845 116.266C93.6738 114.821 91.8452 114.307 90.4002 115.118C88.9553 115.929 88.4412 117.757 89.2519 119.202L94.4845 116.266ZM96.7439 133.542C97.4646 135.034 99.2582 135.659 100.75 134.939C102.242 134.218 102.867 132.424 102.147 130.932L96.7439 133.542ZM108.447 145.14C107.828 143.603 106.08 142.86 104.543 143.479C103.006 144.099 102.263 145.846 102.882 147.383L108.447 145.14ZM108.293 162.556C108.782 164.139 110.462 165.025 112.045 164.536C113.628 164.047 114.515 162.367 114.026 160.784L108.293 162.556ZM117.963 175.892C117.621 174.27 116.029 173.233 114.408 173.575C112.787 173.917 111.75 175.509 112.092 177.13L117.963 175.892ZM114.521 192.955C114.677 194.604 116.14 195.816 117.789 195.66C119.439 195.505 120.65 194.042 120.495 192.392L114.521 192.955ZM121.027 208.081C121.074 206.424 119.77 205.044 118.113 204.997C116.457 204.95 115.077 206.255 115.03 207.911L121.027 208.081ZM113.559 223.321C113.298 224.957 114.412 226.495 116.048 226.757C117.685 227.018 119.223 225.904 119.484 224.267L113.559 223.321ZM116.426 238.67C116.847 237.068 115.89 235.427 114.287 235.006C112.685 234.584 111.044 235.542 110.623 237.144L116.426 238.67ZM106.127 251.601C105.571 253.162 106.385 254.878 107.946 255.434C109.507 255.99 111.223 255.176 111.779 253.615L106.127 251.601ZM106.436 267.22C107.086 265.696 106.378 263.933 104.854 263.283C103.33 262.633 101.567 263.341 100.917 264.865L106.436 267.22ZM94.5837 278.743C93.8631 280.235 94.4883 282.028 95.9803 282.749C97.4722 283.47 99.2658 282.844 99.9865 281.352L94.5837 278.743ZM93.472 294.33C94.2343 292.859 93.6597 291.048 92.1887 290.286C90.7176 289.524 88.9071 290.098 88.1448 291.569L93.472 294.33ZM80.9624 305.142C80.1786 306.602 80.7266 308.421 82.1863 309.204C83.6461 309.988 85.4648 309.44 86.2486 307.98L80.9624 305.142ZM79.4055 320.691C80.1893 319.232 79.6414 317.413 78.1816 316.629C76.7219 315.845 74.9031 316.393 74.1193 317.853L79.4055 320.691ZM66.896 331.504C66.1337 332.975 66.7082 334.785 68.1793 335.548C69.6504 336.31 71.4609 335.735 72.2232 334.264L66.896 331.504ZM65.7842 347.091C66.5049 345.599 65.8796 343.805 64.3877 343.085C62.8958 342.364 61.1021 342.989 60.3815 344.481L65.7842 347.091ZM53.9321 358.614C53.2819 360.138 53.9902 361.9 55.5141 362.55C57.0381 363.201 58.8006 362.492 59.4508 360.968L53.9321 358.614ZM54.2411 374.232C54.7972 372.672 53.9828 370.956 52.422 370.399C50.8613 369.843 49.1452 370.658 48.5892 372.219L54.2411 374.232ZM43.9423 387.163C43.5209 388.766 44.4782 390.406 46.0806 390.828C47.683 391.249 49.3236 390.292 49.745 388.689L43.9423 387.163ZM46.8088 402.512C47.0701 400.876 45.9556 399.338 44.3195 399.077C42.6834 398.815 41.1452 399.93 40.8839 401.566L46.8088 402.512ZM39.3822 417.759C39.3508 419.416 40.6682 420.784 42.3248 420.816C43.9813 420.847 45.3497 419.53 45.3811 417.873L39.3822 417.759ZM46.0944 432.744C45.912 431.097 44.4291 429.91 42.7823 430.092C41.1355 430.275 39.9485 431.758 40.1309 433.404L46.0944 432.744ZM42.9102 449.803C43.2737 451.419 44.8789 452.435 46.4953 452.072C48.1118 451.708 49.1275 450.103 48.764 448.486L42.9102 449.803ZM52.691 463.002C52.1948 461.422 50.5111 460.542 48.9302 461.038C47.3494 461.535 46.4701 463.218 46.9663 464.799L52.691 463.002ZM52.4943 480.381C53.1013 481.922 54.8431 482.68 56.3848 482.073C57.9264 481.466 58.6841 479.724 58.0771 478.182L52.4943 480.381ZM64.0107 492.104C63.3217 490.597 61.5417 489.934 60.0349 490.623C58.5281 491.312 57.8651 493.092 58.5541 494.599L64.0107 492.104ZM65.7556 509.39C66.5145 510.863 68.3236 511.442 69.7965 510.683C71.2693 509.924 71.8482 508.115 71.0894 506.642L65.7556 509.39ZM78.2996 520.019C77.488 518.574 75.6591 518.061 74.2147 518.873C72.7702 519.684 72.2571 521.513 73.0687 522.958L78.2996 520.019ZM81.3389 537.127C82.196 538.545 84.0403 539 85.4582 538.143C86.8761 537.286 87.3308 535.441 86.4737 534.024L81.3389 537.127ZM94.5139 546.952C93.6222 545.555 91.7673 545.146 90.3709 546.038C88.9744 546.929 88.5652 548.784 89.4569 550.181L94.5139 546.952ZM98.4243 563.887C99.3456 565.264 101.209 565.634 102.586 564.713C103.963 563.791 104.333 561.928 103.411 560.551L98.4243 563.887ZM111.998 573.16C111.055 571.798 109.187 571.458 107.824 572.401C106.462 573.344 106.122 575.213 107.065 576.575L111.998 573.16ZM116.455 589.949C117.415 591.3 119.288 591.616 120.638 590.656C121.988 589.696 122.305 587.823 121.345 586.473L116.455 589.949ZM130.255 598.898C129.285 597.555 127.41 597.252 126.067 598.222C124.723 599.192 124.421 601.068 125.391 602.411L130.255 598.898ZM134.977 615.634C135.95 616.975 137.826 617.273 139.167 616.3C140.508 615.326 140.806 613.45 139.832 612.109L134.977 615.634ZM148.807 624.512C147.84 623.167 145.965 622.861 144.62 623.828C143.275 624.796 142.969 626.67 143.936 628.015L148.807 624.512ZM153.346 641.295C154.291 642.656 156.161 642.993 157.522 642.048C158.883 641.103 159.22 639.234 158.275 637.873L153.346 641.295ZM166.86 650.665C165.965 649.271 164.11 648.865 162.715 649.759C161.32 650.654 160.915 652.509 161.809 653.904L166.86 650.665ZM-6.29551 5.23489C-4.32088 7.00314 -2.31429 8.82406 -0.281267 10.6954L3.78215 6.28076C1.72873 4.39069 -0.298132 2.55138 -2.29287 0.765112L-6.29551 5.23489ZM10.8147 21.1729C14.6177 24.8569 18.474 28.6909 22.3514 32.6614L26.6441 28.4694C22.7263 24.4575 18.8305 20.5844 14.9893 16.8634L10.8147 21.1729ZM32.8668 43.7246C36.5045 47.6587 40.1345 51.7012 43.7305 55.8412L48.2603 51.9066C44.6215 47.7174 40.9499 43.6286 37.2722 39.6512L32.8668 43.7246ZM53.5507 67.5089C56.9592 71.693 60.3121 75.9587 63.5855 80.296L68.3747 76.6816C65.0541 72.2818 61.6552 67.9577 58.2025 63.7194L53.5507 67.5089ZM72.5245 92.6207C75.6205 97.0715 78.6143 101.583 81.4822 106.146L86.562 102.953C83.6414 98.3064 80.5959 93.717 77.4501 89.1945L72.5245 92.6207ZM89.2519 119.202C91.9125 123.944 94.418 128.728 96.7439 133.542L102.147 130.932C99.7638 126 97.2009 121.108 94.4845 116.266L89.2519 119.202ZM102.882 147.383C104.914 152.424 106.727 157.485 108.293 162.556L114.026 160.784C112.407 155.543 110.537 150.324 108.447 145.14L102.882 147.383ZM112.092 177.13C113.206 182.413 114.026 187.692 114.521 192.955L120.495 192.392C119.977 186.888 119.121 181.383 117.963 175.892L112.092 177.13ZM115.03 207.911C114.955 210.569 114.788 213.221 114.526 215.864L120.497 216.456C120.773 213.669 120.948 210.877 121.027 208.081L115.03 207.911ZM114.526 215.864C114.279 218.36 113.955 220.845 113.559 223.321L119.484 224.267C119.898 221.678 120.237 219.074 120.497 216.456L114.526 215.864ZM110.623 237.144C109.349 241.989 107.836 246.805 106.127 251.601L111.779 253.615C113.538 248.678 115.103 243.698 116.426 238.67L110.623 237.144ZM100.917 264.865C98.938 269.504 96.8134 274.127 94.5837 278.743L99.9865 281.352C102.249 276.669 104.414 271.96 106.436 267.22L100.917 264.865ZM88.1448 291.569C85.7996 296.095 83.393 300.615 80.9624 305.142L86.2486 307.98C88.6849 303.443 91.1072 298.893 93.472 294.33L88.1448 291.569ZM74.1193 317.853C71.6831 322.39 69.2607 326.94 66.896 331.504L72.2232 334.264C74.5684 329.739 76.975 325.218 79.4055 320.691L74.1193 317.853ZM60.3815 344.481C58.1192 349.165 55.9544 353.874 53.9321 358.614L59.4508 360.968C61.4299 356.33 63.5546 351.707 65.7842 347.091L60.3815 344.481ZM48.5892 372.219C46.8301 377.156 45.2647 382.135 43.9423 387.163L49.745 388.689C51.0191 383.845 52.5323 379.029 54.2411 374.232L48.5892 372.219ZM40.8839 401.566C40.4703 404.156 40.1305 406.759 39.8711 409.378L45.8418 409.969C46.0891 407.474 46.4132 404.989 46.8088 402.512L40.8839 401.566ZM39.8711 409.378C39.5964 412.15 39.4356 414.945 39.3822 417.759L45.3811 417.873C45.4316 415.212 45.5835 412.577 45.8418 409.969L39.8711 409.378ZM40.1309 433.404C40.7314 438.824 41.6718 444.297 42.9102 449.803L48.764 448.486C47.5694 443.175 46.6682 437.922 46.0944 432.744L40.1309 433.404ZM46.9663 464.799C48.592 469.979 50.4455 475.177 52.4943 480.381L58.0771 478.182C56.0752 473.098 54.2701 468.034 52.691 463.002L46.9663 464.799ZM58.5541 494.599C60.8128 499.539 63.2224 504.473 65.7556 509.39L71.0894 506.642C68.595 501.801 66.2269 496.951 64.0107 492.104L58.5541 494.599ZM73.0687 522.958C75.739 527.711 78.504 532.438 81.3389 537.127L86.4737 534.024C83.6685 529.383 80.9358 524.711 78.2996 520.019L73.0687 522.958ZM89.4569 550.181C92.4069 554.8 95.4043 559.373 98.4243 563.887L103.411 560.551C100.412 556.068 97.4383 551.531 94.5139 546.952L89.4569 550.181ZM107.065 576.575C110.205 581.111 113.344 585.573 116.455 589.949L121.345 586.473C118.245 582.113 115.121 577.671 111.998 573.16L107.065 576.575ZM125.391 602.411C128.66 606.938 131.868 611.352 134.977 615.634L139.832 612.109C136.721 607.824 133.519 603.417 130.255 598.898L125.391 602.411ZM143.936 628.015C147.267 632.647 150.42 637.081 153.346 641.295L158.275 637.873C155.323 633.621 152.148 629.159 148.807 624.512L143.936 628.015ZM161.809 653.904C163.331 656.278 164.735 658.546 166.007 660.703L171.175 657.654C169.858 655.421 168.414 653.089 166.86 650.665L161.809 653.904Z" fill="#6775F4"/>
<path d="M347.351 67.7956C347.324 67.7861 347.297 67.7789 347.269 67.7742L347.262 67.7689L347.198 67.7254C347.144 67.6928 347.088 67.6639 347.031 67.6388C346.875 67.5722 346.714 67.5187 346.549 67.479C345.379 67.2131 344.287 66.6779 343.36 65.9161C341.28 64.0601 339.948 61.5093 339.614 58.7416C339.543 58.3433 339.493 57.9417 339.464 57.5383L339.437 57.2334L339.423 57.0806L339.417 57.0041L339.415 56.9851C339.411 56.9301 339.402 56.8756 339.386 56.8227C339.35 56.6952 339.276 56.5815 339.175 56.4963C339.073 56.4111 338.948 56.3583 338.817 56.3448C338.685 56.3312 338.552 56.3576 338.435 56.4203C338.318 56.4831 338.223 56.5795 338.161 56.697C338.114 56.7892 338.087 56.8903 338.081 56.9937L338.074 57.0639C338.011 57.0674 338.018 57.0676 338.074 57.0639L338.074 57.0703L338.059 57.2235L338.03 57.5303C337.958 58.3497 337.821 59.1622 337.62 59.9601C337.247 61.5058 336.578 62.9644 335.648 64.2544C334.823 65.3775 333.734 66.2806 332.478 66.884L331.842 67.1343C331.534 67.2441 331.108 67.3278 330.878 67.4267L330.08 67.7071L329.691 67.8435C329.626 67.8783 329.66 67.8965 329.64 67.9235L329.597 68.0695L329.576 68.14C329.573 68.1691 329.572 68.1984 329.572 68.2277C329.571 68.2461 329.574 68.2645 329.58 68.2818L329.657 68.5404C329.83 68.6743 330.011 68.7967 330.201 68.9068C330.857 68.9853 331.501 69.1448 332.119 69.3818L332.399 69.4908C332.477 69.5201 332.553 69.5557 332.626 69.5972L333.107 69.8456C333.859 70.2887 334.54 70.8416 335.128 71.4861C336.512 73.1095 337.448 75.0653 337.845 77.1608C337.963 77.7407 338.049 78.3264 338.104 78.9155L338.148 79.3561L338.154 79.411C338.157 79.4593 338.165 79.5072 338.177 79.554C338.208 79.6736 338.276 79.7804 338.371 79.8593C338.466 79.9382 338.584 79.9853 338.707 79.9939C338.83 80.0024 338.953 79.9721 339.058 79.9071C339.163 79.8421 339.245 79.7457 339.292 79.6316C339.32 79.5638 339.337 79.4918 339.341 79.4186L339.344 79.3912L339.362 79.1718L339.437 78.3009C339.57 77.2094 339.818 76.1348 340.175 75.0947C340.677 73.5914 341.513 72.2217 342.622 71.0888C343.53 70.1705 344.645 69.4844 345.875 69.0884C346.704 68.8145 347.186 68.7886 347.27 68.7009C347.32 68.6651 347.227 68.5159 347.327 68.5177C347.419 68.4998 347.499 68.4469 347.552 68.3705C347.605 68.294 347.625 68.1999 347.61 68.1083C347.598 68.0248 347.559 67.9475 347.498 67.8885C347.456 67.8475 347.406 67.8158 347.351 67.7956Z" fill="#6775F4"/>
<path d="M353.509 59.5045C353.462 59.4194 353.383 59.3558 353.29 59.3267C353.174 59.3009 353.252 59.3087 353.224 59.2982L353.2 59.2614C353.182 59.2364 353.162 59.2133 353.139 59.1924C353.086 59.1453 353.026 59.1081 352.96 59.0827C352.764 59.0288 352.571 58.9617 352.383 58.8817C351.924 58.6612 351.526 58.3333 351.221 57.9259C351.12 57.7943 351.027 57.6567 350.944 57.5137L350.815 57.284L350.658 56.9452C350.578 56.7358 350.512 56.5212 350.461 56.3029C350.402 56.0606 350.332 55.8791 350.282 55.5708C350.228 55.2862 350.173 54.9991 350.117 54.7095C350.105 54.6123 350.086 54.6202 350.069 54.6023L350.017 54.5567L349.913 54.4651L349.811 54.3789L349.757 54.3549L349.656 54.3123L349.61 54.2936L349.598 54.2892C349.591 54.2867 349.554 54.289 349.564 54.2898L349.54 54.2953C349.527 54.2954 349.446 54.3202 349.366 54.3432C349.294 54.3886 349.226 54.4392 349.161 54.4947C349.119 54.5225 349.081 54.5558 349.048 54.5936L348.921 54.9466C348.867 55.5999 348.727 56.2433 348.506 56.8602C348.377 57.1533 348.358 57.187 348.3 57.2975L348.133 57.5816C347.917 57.9255 347.642 58.2279 347.319 58.4747C347.284 58.5046 347.246 58.5315 347.206 58.5551L347.027 58.6732C346.793 58.7834 346.548 58.8685 346.296 58.9269C346.173 58.9583 346.052 58.9974 345.933 59.0441L345.617 59.1675C345.452 59.2609 345.332 59.376 345.364 59.4256L345.303 59.594L345.296 59.6644C345.293 59.7168 345.296 59.7693 345.304 59.8212L345.359 59.9653L345.381 60.0221L345.393 60.0549L345.478 60.108C345.598 60.1826 345.741 60.2711 345.913 60.3774C346.175 60.4359 346.43 60.5233 346.749 60.6124C346.89 60.6525 347.023 60.7174 347.141 60.8042L347.297 60.9045C347.54 61.0849 347.759 61.2947 347.95 61.529C348.06 61.668 348.161 61.8139 348.252 61.9659C348.392 62.1894 348.508 62.4272 348.597 62.6754C348.875 63.3823 348.949 64.7427 349.332 64.8939C349.356 64.9415 349.392 64.9814 349.437 65.009C349.482 65.0366 349.534 65.0507 349.587 65.0496C349.732 65.0496 349.989 65.12 350.181 64.2051C350.352 63.3939 350.414 62.9641 350.558 62.496C350.661 62.2498 350.702 62.1798 350.743 62.089L350.888 61.8345C351.042 61.5789 351.229 61.3447 351.443 61.138C351.974 60.7049 352.583 60.377 353.236 60.172C353.254 60.1416 353.196 59.9856 353.28 59.9932C353.333 59.9855 353.384 59.9648 353.427 59.9329C353.469 59.901 353.504 59.859 353.527 59.8105C353.549 59.7621 353.56 59.7088 353.557 59.6554C353.554 59.602 353.537 59.5501 353.509 59.5045Z" fill="#6775F4"/>
<path d="M60.5675 243.286C60.5315 243.273 60.4944 243.263 60.4567 243.257L60.4473 243.25L60.3612 243.191C60.2887 243.148 60.2135 243.109 60.1359 243.075C59.9261 242.985 59.7093 242.913 59.4875 242.86C57.9126 242.502 56.4429 241.781 55.1953 240.756C52.3952 238.258 50.6022 234.824 50.1521 231.099C50.0574 230.563 49.9902 230.022 49.9509 229.479L49.9145 229.068L49.8962 228.863L49.887 228.76L49.8845 228.734C49.8799 228.66 49.8671 228.587 49.8464 228.516C49.7975 228.344 49.6983 228.191 49.5615 228.076C49.4248 227.962 49.2568 227.891 49.0792 227.872C48.9017 227.854 48.7228 227.89 48.5656 227.974C48.4083 228.059 48.2801 228.188 48.1974 228.346C48.1338 228.471 48.0969 228.607 48.0891 228.746L48.08 228.84C47.9948 228.845 48.004 228.845 48.08 228.84L48.0792 228.849L48.0596 229.055L48.0204 229.468C47.9231 230.571 47.7387 231.665 47.4688 232.739C46.9671 234.819 46.0655 236.783 44.8142 238.519C43.7035 240.031 42.2382 241.247 40.5473 242.059L39.6914 242.396C39.2764 242.544 38.7028 242.656 38.393 242.789L37.3186 243.167L36.7962 243.35C36.7079 243.397 36.7544 243.422 36.7271 243.458L36.6694 243.655L36.6415 243.75C36.6373 243.789 36.6354 243.828 36.636 243.868C36.6341 243.892 36.6376 243.917 36.6463 243.94L36.7496 244.288C36.9825 244.469 37.227 244.634 37.4817 244.782C38.3653 244.887 39.2325 245.102 40.0633 245.421L40.441 245.568C40.5465 245.607 40.6486 245.655 40.7463 245.711L41.3938 246.045C42.4058 246.642 43.3229 247.386 44.1149 248.254C45.9768 250.439 47.2371 253.071 47.7716 255.892C47.9298 256.673 48.0463 257.461 48.1205 258.254L48.1798 258.847L48.1872 258.921C48.1913 258.986 48.2017 259.051 48.2182 259.114C48.2601 259.274 48.3515 259.418 48.4795 259.524C48.6074 259.631 48.7656 259.694 48.9315 259.706C49.0974 259.717 49.2628 259.676 49.4042 259.589C49.5457 259.501 49.6561 259.372 49.7199 259.218C49.7576 259.127 49.7798 259.03 49.7857 258.931L49.7888 258.894L49.8139 258.599L49.9141 257.427C50.094 255.958 50.4269 254.511 50.9073 253.111C51.5829 251.087 52.7091 249.244 54.201 247.719C55.4233 246.483 56.9253 245.559 58.58 245.026C59.6963 244.657 60.3451 244.623 60.458 244.504C60.5257 244.456 60.3996 244.255 60.5354 244.258C60.6581 244.234 60.7665 244.163 60.8376 244.06C60.9086 243.957 60.9366 243.83 60.9156 243.707C60.8994 243.594 60.8465 243.49 60.7653 243.411C60.7089 243.356 60.6415 243.313 60.5675 243.286Z" fill="#6775F4"/>
<path d="M68.8571 232.126C68.7926 232.011 68.687 231.926 68.5616 231.886C68.4059 231.852 68.5111 231.862 68.4726 231.848L68.441 231.798C68.4166 231.765 68.3888 231.734 68.3581 231.706C68.2877 231.642 68.2063 231.592 68.1179 231.558C67.853 231.485 67.5933 231.395 67.3406 231.287C66.7232 230.991 66.1865 230.549 65.776 230.001C65.6405 229.824 65.5159 229.638 65.4032 229.446L65.2296 229.137L65.0184 228.681C64.9108 228.399 64.8223 228.11 64.7536 227.816C64.6744 227.49 64.5799 227.246 64.5124 226.831C64.4393 226.448 64.3655 226.061 64.291 225.671C64.2743 225.54 64.2493 225.551 64.2264 225.527L64.1565 225.466L64.0158 225.342L63.8793 225.226L63.8059 225.194L63.6706 225.137L63.6079 225.111L63.5921 225.106C63.5823 225.102 63.5328 225.105 63.5461 225.106L63.5145 225.114C63.4959 225.114 63.3874 225.147 63.2802 225.178C63.1831 225.239 63.0907 225.307 63.0037 225.382C62.9475 225.42 62.8966 225.464 62.8522 225.515L62.6813 225.99C62.6083 226.87 62.4201 227.736 62.1215 228.566C61.9483 228.961 61.9227 229.006 61.8447 229.155L61.6205 229.537C61.3297 230 60.9584 230.407 60.5242 230.739C60.4765 230.78 60.4255 230.816 60.3718 230.848L60.131 231.007C59.816 231.155 59.4861 231.269 59.147 231.348C58.9812 231.39 58.8182 231.443 58.6591 231.506L58.233 231.672C58.0113 231.798 57.8495 231.953 57.8932 232.019L57.8111 232.246L57.8017 232.341C57.7976 232.411 57.8012 232.482 57.8124 232.552L57.8856 232.746L57.9152 232.822L57.9323 232.866L58.0462 232.938C58.2083 233.038 58.4005 233.157 58.6314 233.301C58.9849 233.379 59.3281 233.497 59.7573 233.617C59.9471 233.671 60.1258 233.758 60.2848 233.875L60.4952 234.01C60.8215 234.253 61.1165 234.535 61.3734 234.851C61.5214 235.038 61.6571 235.234 61.7797 235.439C61.9684 235.74 62.1243 236.06 62.2448 236.394C62.6191 237.345 62.7185 239.177 63.2345 239.38C63.2657 239.444 63.3146 239.498 63.3753 239.535C63.4361 239.572 63.5062 239.591 63.5774 239.59C63.7728 239.59 64.1178 239.685 64.3768 238.453C64.6065 237.361 64.6905 236.783 64.8846 236.152C65.0231 235.821 65.0779 235.727 65.1325 235.605L65.3286 235.262C65.5354 234.918 65.7867 234.603 66.0761 234.325C66.7904 233.741 67.6093 233.3 68.4891 233.024C68.5136 232.983 68.4344 232.773 68.5487 232.783C68.62 232.773 68.6876 232.745 68.7454 232.702C68.8032 232.659 68.8495 232.603 68.8801 232.538C68.9106 232.472 68.9245 232.401 68.9205 232.329C68.9165 232.257 68.8947 232.187 68.8571 232.126Z" fill="#6775F4"/>
</svg>
