<svg width="15" height="22" viewBox="0 0 15 22" fill="none" xmlns="http://www.w3.org/2000/svg">
<path d="M1.13501 3.24365H14.26" stroke="black" stroke-linejoin="round"/>
<path fill-rule="evenodd" clip-rule="evenodd" d="M1.63491 1.93105C1.63491 1.48232 1.99868 1.11855 2.44741 1.11855H12.9474C13.3961 1.11855 13.7599 1.48232 13.7599 1.93105V17.8373H1.63491V1.93105ZM1.63491 18.8373V19.6498C1.63491 20.0985 1.99868 20.4623 2.44741 20.4623H12.9474C13.3961 20.4623 13.7599 20.0985 13.7599 19.6498V18.8373H1.63491ZM2.44741 0.118555C1.4464 0.118555 0.634912 0.930039 0.634912 1.93105V19.6498C0.634912 20.6508 1.4464 21.4623 2.44741 21.4623H12.9474C13.9484 21.4623 14.7599 20.6508 14.7599 19.6498V1.93105C14.7599 0.930039 13.9484 0.118555 12.9474 0.118555H2.44741Z" fill="black"/>
<path d="M9.01001 1.96777H6.38501" stroke="black" stroke-width="0.9" stroke-linejoin="round"/>
<path fill-rule="evenodd" clip-rule="evenodd" d="M9.3335 7.00942H4.09257C3.9405 7.00701 3.78946 7.03497 3.6483 7.0917C3.50527 7.14918 3.37535 7.235 3.26636 7.34399C3.15736 7.45299 3.07154 7.58291 3.01406 7.72594C2.95734 7.86709 2.92937 8.01814 2.93178 8.1702V10.4625H3.93178V8.16567H3.9319L3.93167 8.15509C3.93127 8.13584 3.93476 8.1167 3.94194 8.09883C3.94912 8.08095 3.95985 8.06472 3.97346 8.0511C3.98708 8.03748 4.00332 8.02676 4.02119 8.01958C4.03906 8.01239 4.0582 8.0089 4.07746 8.00931L4.07746 8.00942H4.08803H9.33803V8.00953L9.34861 8.00931C9.36787 8.0089 9.38701 8.01239 9.40488 8.01958C9.42275 8.02676 9.43898 8.03748 9.4526 8.0511C9.46622 8.06472 9.47695 8.08095 9.48413 8.09883C9.49131 8.1167 9.4948 8.13584 9.4944 8.15509L9.49428 8.15509V8.16567V9.91145L8.70731 9.12447L8.00021 9.83158L9.64083 11.4722C9.83609 11.6675 10.1527 11.6675 10.3479 11.4722L11.9886 9.83158L11.2815 9.12447L10.4943 9.91165V8.17019C10.4967 8.01813 10.4687 7.86709 10.412 7.72594C10.3545 7.58291 10.2687 7.45299 10.1597 7.34399C10.0507 7.235 9.9208 7.14918 9.77777 7.0917C9.63661 7.03497 9.48557 7.00701 9.3335 7.00942Z" fill="black"/>
<path fill-rule="evenodd" clip-rule="evenodd" d="M5.75421 10.7651C5.55894 10.5698 5.24236 10.5698 5.0471 10.7651L3.40648 12.4057L4.11358 13.1128L4.90055 12.3259V14.0672C4.89814 14.2193 4.92611 14.3704 4.98283 14.5115C5.04031 14.6545 5.12613 14.7845 5.23513 14.8935C5.34412 15.0024 5.47404 15.0883 5.61707 15.1457C5.75822 15.2025 5.90926 15.2304 6.06133 15.228H8.6818H11.3023C11.4543 15.2304 11.6054 15.2025 11.7465 15.1457C11.8896 15.0883 12.0195 15.0024 12.1285 14.8935C12.2375 14.7845 12.3233 14.6545 12.3808 14.5115C12.4375 14.3704 12.4655 14.2193 12.4631 14.0673V11.7749H11.4631V14.0718H11.4629L11.4632 14.0824C11.4636 14.1016 11.4601 14.1207 11.4529 14.1386C11.4457 14.1565 11.435 14.1727 11.4214 14.1863C11.4078 14.2 11.3915 14.2107 11.3736 14.2179C11.3558 14.2251 11.3366 14.2285 11.3174 14.2281L11.3174 14.228H11.3068H8.6818H6.0568V14.2279L6.04623 14.2281C6.02697 14.2285 6.00783 14.2251 5.98996 14.2179C5.97209 14.2107 5.95585 14.2 5.94223 14.1863C5.92861 14.1727 5.91789 14.1565 5.91071 14.1386C5.90353 14.1208 5.90003 14.1016 5.90044 14.0824L5.90055 14.0824V14.0718V12.3257L6.68773 13.1128L7.39483 12.4057L5.75421 10.7651Z" fill="black"/>
</svg>
