<svg width="50" height="50" viewBox="0 0 75 75" fill="none" xmlns="http://www.w3.org/2000/svg">
<g clip-path="url(#clip0_1392_14217)">
<path d="M64.9201 29.389L63.1409 24.3797L61.6081 24.9091C55.5178 19.6147 43.7205 18.42 31.8138 22.5877C19.907 26.7418 11.4627 35.0093 10.0668 42.9102L8.53394 43.4397L10.3131 48.449C10.3815 48.6662 10.4363 48.8834 10.5184 49.1006C13.8441 58.4677 28.7755 61.7937 43.8574 56.5264C58.9393 51.2591 68.4785 39.3942 65.1528 30.0135C65.0706 29.7963 64.9885 29.5927 64.9064 29.389H64.9201Z" fill="#FFC09D"/>
<g opacity="0.7">
<mask id="mask0_1392_14217" style="mask-type:luminance" maskUnits="userSpaceOnUse" x="8" y="20" width="58" height="40">
<path d="M64.9201 29.389L63.1409 24.3797L61.6081 24.9091C55.5178 19.6147 43.7205 18.42 31.8138 22.5877C19.907 26.7418 11.4627 35.0093 10.0668 42.9102L8.53394 43.4397L10.3131 48.449C10.3815 48.6662 10.4363 48.8834 10.5184 49.1006C13.8441 58.4677 28.7755 61.7937 43.8574 56.5264C58.9393 51.2591 68.4785 39.3942 65.1528 30.0135C65.0706 29.7963 64.9885 29.5927 64.9064 29.389H64.9201Z" fill="white"/>
</mask>
<g mask="url(#mask0_1392_14217)">
<path d="M0.486572 19.0312L20.0028 74.012" stroke="#E6A98F" stroke-width="0.5" stroke-miterlimit="10"/>
<path d="M1.37622 18.7188L20.8924 73.6995" stroke="#E6A98F" stroke-width="0.5" stroke-miterlimit="10"/>
<path d="M2.27954 18.4067L21.7957 73.3875" stroke="#E6A98F" stroke-width="0.5" stroke-miterlimit="10"/>
<path d="M3.16895 18.0942L22.6851 73.075" stroke="#E6A98F" stroke-width="0.5" stroke-miterlimit="10"/>
<path d="M4.07227 17.7822L23.5884 72.763" stroke="#E6A98F" stroke-width="0.5" stroke-miterlimit="10"/>
<path d="M4.96191 17.4697L24.4781 72.4505" stroke="#E6A98F" stroke-width="0.5" stroke-miterlimit="10"/>
<path d="M5.86523 17.1577L25.3814 72.1385" stroke="#E6A98F" stroke-width="0.5" stroke-miterlimit="10"/>
<path d="M6.75464 16.8452L26.2708 71.826" stroke="#E6A98F" stroke-width="0.5" stroke-miterlimit="10"/>
<path d="M7.65796 16.5332L27.1741 71.5139" stroke="#E6A98F" stroke-width="0.5" stroke-miterlimit="10"/>
<path d="M8.56128 16.2075L28.0775 71.1883" stroke="#E6A98F" stroke-width="0.5" stroke-miterlimit="10"/>
<path d="M9.45093 15.895L28.9671 70.8758" stroke="#E6A98F" stroke-width="0.5" stroke-miterlimit="10"/>
<path d="M10.3542 15.583L29.8704 70.5637" stroke="#E6A98F" stroke-width="0.5" stroke-miterlimit="10"/>
<path d="M11.2437 15.2705L30.7598 70.2512" stroke="#E6A98F" stroke-width="0.5" stroke-miterlimit="10"/>
<path d="M12.147 14.9585L31.6632 69.9392" stroke="#E6A98F" stroke-width="0.5" stroke-miterlimit="10"/>
<path d="M13.0366 14.646L32.5528 69.6267" stroke="#E6A98F" stroke-width="0.5" stroke-miterlimit="10"/>
<path d="M13.9399 14.334L33.4561 69.3147" stroke="#E6A98F" stroke-width="0.5" stroke-miterlimit="10"/>
<path d="M14.8293 14.0215L34.3455 69.0022" stroke="#E6A98F" stroke-width="0.5" stroke-miterlimit="10"/>
<path d="M15.7327 13.7095L35.2488 68.6902" stroke="#E6A98F" stroke-width="0.5" stroke-miterlimit="10"/>
<path d="M16.636 13.3975L36.1522 68.3782" stroke="#E6A98F" stroke-width="0.5" stroke-miterlimit="10"/>
<path d="M17.5256 13.085L37.0418 68.0657" stroke="#E6A98F" stroke-width="0.5" stroke-miterlimit="10"/>
<path d="M18.429 12.7729L37.9451 67.7537" stroke="#E6A98F" stroke-width="0.5" stroke-miterlimit="10"/>
<path d="M19.3184 12.4468L38.8345 67.4275" stroke="#E6A98F" stroke-width="0.5" stroke-miterlimit="10"/>
<path d="M20.2217 12.1348L39.7379 67.1155" stroke="#E6A98F" stroke-width="0.5" stroke-miterlimit="10"/>
<path d="M21.1113 11.8223L40.6275 66.803" stroke="#E6A98F" stroke-width="0.5" stroke-miterlimit="10"/>
<path d="M22.0146 11.5103L41.5308 66.491" stroke="#E6A98F" stroke-width="0.5" stroke-miterlimit="10"/>
<path d="M22.9043 11.1982L42.4205 66.179" stroke="#E6A98F" stroke-width="0.5" stroke-miterlimit="10"/>
<path d="M23.8074 10.8857L43.3236 65.8665" stroke="#E6A98F" stroke-width="0.5" stroke-miterlimit="10"/>
<path d="M24.7107 10.5737L44.2269 65.5545" stroke="#E6A98F" stroke-width="0.5" stroke-miterlimit="10"/>
<path d="M25.6003 10.2612L45.1165 65.242" stroke="#E6A98F" stroke-width="0.5" stroke-miterlimit="10"/>
<path d="M26.5037 9.94922L46.0198 64.93" stroke="#E6A98F" stroke-width="0.5" stroke-miterlimit="10"/>
<path d="M27.3931 9.63672L46.9093 64.6175" stroke="#E6A98F" stroke-width="0.5" stroke-miterlimit="10"/>
<path d="M28.2964 9.32471L47.8126 64.3054" stroke="#E6A98F" stroke-width="0.5" stroke-miterlimit="10"/>
<path d="M29.186 9.01221L48.7022 63.9929" stroke="#E6A98F" stroke-width="0.5" stroke-miterlimit="10"/>
<path d="M30.0894 8.7002L49.6055 63.6674" stroke="#E6A98F" stroke-width="0.5" stroke-miterlimit="10"/>
<path d="M30.9927 8.37451L50.4952 63.3552" stroke="#E6A98F" stroke-width="0.5" stroke-miterlimit="10"/>
<path d="M31.8821 8.06201L51.3983 63.0427" stroke="#E6A98F" stroke-width="0.5" stroke-miterlimit="10"/>
<path d="M32.7854 7.75L52.3016 62.7307" stroke="#E6A98F" stroke-width="0.5" stroke-miterlimit="10"/>
<path d="M33.675 7.4375L53.1912 62.4182" stroke="#E6A98F" stroke-width="0.5" stroke-miterlimit="10"/>
<path d="M34.5784 7.12549L54.0946 62.1062" stroke="#E6A98F" stroke-width="0.5" stroke-miterlimit="10"/>
<path d="M35.4678 6.81299L54.984 61.7937" stroke="#E6A98F" stroke-width="0.5" stroke-miterlimit="10"/>
<path d="M36.3711 6.50098L55.8873 61.4817" stroke="#E6A98F" stroke-width="0.5" stroke-miterlimit="10"/>
<path d="M37.2607 6.18848L56.7769 61.1692" stroke="#E6A98F" stroke-width="0.5" stroke-miterlimit="10"/>
<path d="M38.1641 5.87646L57.6802 60.8572" stroke="#E6A98F" stroke-width="0.5" stroke-miterlimit="10"/>
<path d="M39.0674 5.56396L58.5699 60.5447" stroke="#E6A98F" stroke-width="0.5" stroke-miterlimit="10"/>
<path d="M39.9568 5.25195L59.473 60.2327" stroke="#E6A98F" stroke-width="0.5" stroke-miterlimit="10"/>
<path d="M40.8601 4.93994L60.3763 59.9071" stroke="#E6A98F" stroke-width="0.5" stroke-miterlimit="10"/>
<path d="M41.7498 4.61377L61.2659 59.5945" stroke="#E6A98F" stroke-width="0.5" stroke-miterlimit="10"/>
<path d="M42.6531 4.30176L62.1693 59.2825" stroke="#E6A98F" stroke-width="0.5" stroke-miterlimit="10"/>
<path d="M43.5427 3.98926L63.0589 58.97" stroke="#E6A98F" stroke-width="0.5" stroke-miterlimit="10"/>
<path d="M44.4458 3.67725L63.962 58.658" stroke="#E6A98F" stroke-width="0.5" stroke-miterlimit="10"/>
<path d="M45.3354 3.36475L64.8516 58.3455" stroke="#E6A98F" stroke-width="0.5" stroke-miterlimit="10"/>
<path d="M46.2388 3.05273L65.755 58.0335" stroke="#E6A98F" stroke-width="0.5" stroke-miterlimit="10"/>
<path d="M47.1421 2.74023L66.6446 57.721" stroke="#E6A98F" stroke-width="0.5" stroke-miterlimit="10"/>
<path d="M48.0315 2.42822L67.5477 57.409" stroke="#E6A98F" stroke-width="0.5" stroke-miterlimit="10"/>
<path d="M48.9348 2.11621L68.451 57.0969" stroke="#E6A98F" stroke-width="0.5" stroke-miterlimit="10"/>
<path d="M49.8245 1.80371L69.3406 56.7844" stroke="#E6A98F" stroke-width="0.5" stroke-miterlimit="10"/>
<path d="M50.7278 1.4917L70.244 56.4724" stroke="#E6A98F" stroke-width="0.5" stroke-miterlimit="10"/>
<path d="M51.6174 1.1792L71.1336 56.1599" stroke="#E6A98F" stroke-width="0.5" stroke-miterlimit="10"/>
<path d="M52.5205 0.853516L72.0367 55.8343" stroke="#E6A98F" stroke-width="0.5" stroke-miterlimit="10"/>
<path d="M53.4102 0.541016L72.9263 55.5218" stroke="#E6A98F" stroke-width="0.5" stroke-miterlimit="10"/>
<path d="M54.3135 0.229004L73.8297 55.2097" stroke="#E6A98F" stroke-width="0.5" stroke-miterlimit="10"/>
</g>
</g>
<g style="mix-blend-mode:multiply" opacity="0.5">
<path d="M13.4198 48.0958C13.3377 47.8786 13.283 47.6614 13.2145 47.4442L11.4353 42.4348L12.9682 41.9054C14.3094 34.3302 22.1378 26.4157 33.2781 22.1123C32.7991 22.2616 32.3064 22.4245 31.8274 22.5874C19.9206 26.7415 11.4764 35.009 10.0804 42.91L8.54761 43.4394L10.3268 48.4488C10.3952 48.666 10.45 48.8832 10.5321 49.1004C13.8578 58.4675 28.7891 61.7935 43.8711 56.5262C44.3501 56.3633 44.8291 56.1868 45.3081 55.9967C30.7326 60.5581 16.636 57.1642 13.4198 48.0958Z" fill="#FFC09D"/>
</g>
<g style="mix-blend-mode:screen" opacity="0.5">
<path d="M62.2787 31.0316C62.1966 30.8144 62.1144 30.6107 62.0323 30.4071L60.2532 25.3978L58.7203 25.9272C52.8764 20.85 41.7908 19.5467 30.3904 23.1171C30.8694 22.9406 31.3347 22.7505 31.8274 22.5876C43.7342 18.4335 55.5315 19.6282 61.6217 24.909L63.1546 24.3796L64.9338 29.3889C65.0159 29.5926 65.1117 29.8098 65.1801 30.0134C68.5058 39.3805 58.9667 51.2455 43.8847 56.5264C43.4057 56.6893 42.913 56.8522 42.434 57.0015C56.6811 51.5034 65.5086 40.0864 62.2924 31.018L62.2787 31.0316Z" fill="#FFC09D"/>
</g>
<path d="M42.0683 51.4637C57.1541 46.194 66.6868 34.326 63.3602 24.9558C60.0336 15.5857 45.1073 12.2615 30.0216 17.5312C14.9358 22.8008 5.40306 34.6688 8.72968 44.039C12.0563 53.4092 26.9825 56.7333 42.0683 51.4637Z" fill="#E8B59E"/>
<g style="mix-blend-mode:multiply" opacity="0.5">
<path d="M41.8457 50.838C26.928 56.051 12.1745 52.8472 8.62988 43.7244C8.65725 43.833 8.68463 43.9281 8.72568 44.0367C12.0514 53.4038 26.9828 56.7298 42.0647 51.4625C57.1466 46.1952 66.6857 34.3302 63.36 24.9495C63.319 24.8409 63.2779 24.7459 63.2369 24.6509C66.2478 33.9637 56.7634 45.6386 41.8457 50.838Z" fill="#E8B59E"/>
</g>
<g style="mix-blend-mode:multiply" opacity="0.2">
<path d="M10.1899 43.5212C6.91897 34.3034 16.1022 22.6693 30.7599 17.2798C30.5136 17.3612 30.2672 17.4427 30.0209 17.5241C14.9389 22.7914 5.39982 34.6564 8.72551 44.0371C12.0512 53.4042 26.9826 56.7302 42.0645 51.4629C42.3109 51.3814 42.5435 51.2864 42.7899 51.1914C27.9543 56.1057 13.4609 52.739 10.1899 43.5212Z" fill="#E8B59E"/>
</g>
<g style="mix-blend-mode:screen" opacity="0.5">
<path d="M61.9093 25.4656C58.6383 16.2478 44.1312 12.8946 29.3093 17.7954C29.5557 17.7004 29.7883 17.6189 30.0347 17.5239C45.1166 12.2566 60.048 15.5826 63.3737 24.9497C66.6994 34.3168 57.1603 46.1818 42.0783 51.4626C41.832 51.5441 41.5856 51.6255 41.3393 51.707C55.997 46.3175 65.1802 34.6833 61.9093 25.4656Z" fill="#E8B59E"/>
</g>
<g style="mix-blend-mode:screen">
<path d="M30.2125 18.0398C45.1575 12.8132 59.9384 16.0306 63.4557 25.2076C63.4283 25.1262 63.4009 25.0311 63.3736 24.9497C60.0479 15.5826 45.1165 12.2566 30.0345 17.5239C14.9526 22.7912 5.4135 34.6562 8.73919 44.0368C8.76656 44.1183 8.80762 44.1997 8.83499 44.2948C5.76933 34.9684 15.2674 23.2663 30.2125 18.0533V18.0398Z" fill="#E8B59E"/>
</g>
<g style="mix-blend-mode:screen" opacity="0.7">
<path d="M41.1347 48.8058C53.8749 44.3554 62.0088 34.5677 59.3024 26.9443C56.5959 19.3208 44.0738 16.7485 31.3336 21.1988C18.5934 25.6491 10.4594 35.4369 13.1659 43.0603C15.8724 50.6838 28.3944 53.2561 41.1347 48.8058Z" fill="#E8B59E"/>
</g>
<path d="M40.7216 47.6754C53.4618 43.2251 61.5958 33.4373 58.8893 25.8139C56.1828 18.1904 43.6607 15.6181 30.9205 20.0684C18.1803 24.5188 10.0463 34.3065 12.7528 41.9299C15.4593 49.5534 27.9813 52.1257 40.7216 47.6754Z" fill="#E6A98F"/>
<g style="mix-blend-mode:multiply" opacity="0.2">
<path d="M30.9241 20.0762C21.2345 23.4565 14.2136 29.932 12.5986 36.1903C15.4316 31.0724 21.604 26.1988 29.5692 23.4158C42.3109 18.963 54.8335 21.5424 57.5296 29.1582C58.1729 30.9773 58.2003 32.9322 57.6939 34.9007C59.3909 31.8326 59.8973 28.6831 58.8846 25.8186C56.1747 18.2028 43.6658 15.6235 30.9241 20.0762Z" fill="#E6A98F"/>
</g>
<path d="M31.5811 21.9226C43.8027 17.6599 55.8189 19.8455 59.1583 26.769C59.0899 26.4568 58.9941 26.131 58.8846 25.8323C56.1748 18.2165 43.6658 15.6371 30.9242 20.0899C18.1825 24.5426 10.0531 34.3306 12.7629 41.9464C12.8724 42.2587 13.0093 42.5573 13.1461 42.856C11.3943 35.3895 19.3595 26.2124 31.5811 21.9362V21.9226Z" fill="#DF9677"/>
<path d="M22.4253 39.7472L28.324 25.1807L40.9835 30.0543L38.6021 36.5569C38.479 36.8827 38.3421 37.2221 38.1642 37.5615C37.9863 37.9009 37.7947 38.2403 37.5757 38.5661C37.3567 38.8919 37.2883 39.0005 37.0282 39.272L34.6058 38.8648L34.1268 38.7833C34.4142 38.3489 34.6879 37.8737 34.948 37.3579C35.208 36.842 35.4407 36.299 35.6323 35.7695L37.1788 31.5476L29.6515 28.8325L25.7784 40.9825L22.3979 39.7607L22.4253 39.7472ZM27.7492 41.6613L31.896 31.9005L34.1542 33.0273L31.5265 40.1952L34.9753 41.4441C36.1387 41.8785 37.2335 41.9057 38.2463 41.5256C39.2591 41.159 39.9844 40.3716 40.4224 39.1634L44.0355 30.8416L46.2936 31.9684L43.2964 40.1273C42.8311 41.4305 42.1468 42.4623 41.2435 43.2089C40.3402 43.9556 39.2727 44.39 38.041 44.5122C36.7956 44.6343 35.4407 44.4307 33.9489 43.9013L27.7218 41.6613H27.7492Z" fill="#DF9677"/>
<path d="M23.0273 39.6521L28.3238 25.1807L41.5855 29.9592L39.2042 36.4619C39.081 36.7877 38.9441 37.1271 38.7662 37.4665C38.5883 37.8059 38.3967 38.1453 38.1777 38.4711C37.9587 38.7969 37.7261 39.082 37.4797 39.3535L34.852 38.8648L34.7562 38.6883C35.0436 38.2539 35.3173 37.7787 35.5774 37.2629C35.8374 36.747 36.0701 36.204 36.2617 35.6745L37.8082 31.4525L30.2809 28.7374L25.9014 40.6975L23.041 39.6657L23.0273 39.6521ZM28.3512 41.5663L31.8959 31.9005L34.7562 32.9323L32.1285 40.1001L35.5774 41.3491C36.7407 41.7835 37.8356 41.8106 38.8483 41.4305C39.8611 41.064 40.5864 40.2766 41.0244 39.0684L44.0353 30.8416L46.8957 31.8734L43.8984 40.0323C43.4331 41.3355 42.7488 42.3672 41.8455 43.1139C40.9423 43.8605 39.8748 44.295 38.643 44.4171C37.3976 44.5393 36.0427 44.3357 34.5509 43.8062L28.3238 41.5663H28.3512Z" fill="#FFC09D"/>
</g>
<defs>
<clipPath id="clip0_1392_14217">
<rect width="74" height="74" fill="white" transform="translate(0.158203 0.120117)"/>
</clipPath>
</defs>
</svg>
