<svg width="350" height="344" viewBox="0 0 350 344" fill="none" xmlns="http://www.w3.org/2000/svg">
<g clip-path="url(#clip0_3963_13002)">
<path opacity="0.64" d="M266.236 246.002C268.372 234.514 268.493 222.637 271.924 211.445C279.175 187.77 300.425 169.732 305.03 145.41C309.475 121.999 295.265 96.4242 273.047 87.844C265.008 84.7364 256.336 83.6994 248.047 81.3386C224.628 74.6568 205.467 57.7988 182.904 48.619C170.945 43.7567 157.335 41.1505 145.185 45.4715C133.996 49.4648 125.463 58.7872 119.635 69.1149C113.807 79.4426 110.299 90.8812 106.1 101.975C98.1005 123.06 86.751 143.945 68.1732 156.732C59.4614 162.731 49.2112 166.94 42.4005 175.048C38.0839 180.13 35.6498 186.244 34.5559 192.77C32.8457 203.159 42.6429 226.057 47.6926 234.994C51.0517 240.945 72.7766 262.938 84.5144 270.212C101.089 280.494 136.688 296.318 161.024 299.156L189.507 302.482C258.727 304.638 258.538 283.168 265.836 248.012C265.981 247.337 266.115 246.672 266.236 246.002Z" fill="#D7D9EF"/>
<path d="M253.233 223.423L264.881 196.604" stroke="#F2E9DA" stroke-width="1.3" stroke-miterlimit="10" stroke-linecap="round"/>
<path d="M242.158 226.322L248.072 212.705" stroke="#F2E9DA" stroke-width="1.3" stroke-miterlimit="10" stroke-linecap="round"/>
<path d="M214.566 238.603L224.287 216.222" stroke="#F2E9DA" stroke-width="1.3" stroke-miterlimit="10" stroke-linecap="round"/>
<path d="M242.116 213.733L249.767 196.119" stroke="#F2E9DA" stroke-width="1.3" stroke-miterlimit="10" stroke-linecap="round"/>
</g>
<g clip-path="url(#clip1_3963_13002)">
<path d="M260.536 130.015L255.246 115.123L250.689 116.697C232.583 100.956 197.51 97.4047 162.112 109.795C126.713 122.145 101.609 146.724 97.4584 170.213L92.9014 171.787L98.1908 186.68C98.3942 187.326 98.557 187.972 98.8011 188.617C108.688 216.465 153.079 226.354 197.917 210.694C242.755 195.035 271.115 159.76 261.228 131.872C260.984 131.226 260.739 130.621 260.495 130.015H260.536Z" fill="#FFC09D"/>
<g opacity="0.7">
<mask id="mask0_3963_13002" style="mask-type:luminance" maskUnits="userSpaceOnUse" x="92" y="102" width="172" height="117">
<path d="M260.536 130.015L255.246 115.123L250.689 116.697C232.583 100.956 197.51 97.4047 162.112 109.795C126.713 122.145 101.609 146.724 97.4584 170.213L92.9014 171.787L98.1908 186.68C98.3942 187.326 98.557 187.972 98.8011 188.617C108.688 216.465 153.079 226.354 197.917 210.694C242.755 195.035 271.115 159.76 261.228 131.872C260.984 131.226 260.739 130.621 260.495 130.015H260.536Z" fill="white"/>
</mask>
<g mask="url(#mask0_3963_13002)">
<path d="M68.9766 99.2209L126.998 262.677" stroke="#E6A98F" stroke-width="0.5" stroke-miterlimit="10"/>
<path d="M71.6211 98.2927L129.642 261.749" stroke="#E6A98F" stroke-width="0.5" stroke-miterlimit="10"/>
<path d="M74.3066 97.3645L132.328 260.821" stroke="#E6A98F" stroke-width="0.5" stroke-miterlimit="10"/>
<path d="M76.9512 96.4363L134.972 259.893" stroke="#E6A98F" stroke-width="0.5" stroke-miterlimit="10"/>
<path d="M79.6367 95.5078L137.658 258.964" stroke="#E6A98F" stroke-width="0.5" stroke-miterlimit="10"/>
<path d="M82.2812 94.5796L140.302 258.036" stroke="#E6A98F" stroke-width="0.5" stroke-miterlimit="10"/>
<path d="M84.9668 93.6514L142.988 257.108" stroke="#E6A98F" stroke-width="0.5" stroke-miterlimit="10"/>
<path d="M87.6113 92.7231L145.632 256.179" stroke="#E6A98F" stroke-width="0.5" stroke-miterlimit="10"/>
<path d="M90.2969 91.7949L148.318 255.251" stroke="#E6A98F" stroke-width="0.5" stroke-miterlimit="10"/>
<path d="M92.9824 90.8262L151.004 254.282" stroke="#E6A98F" stroke-width="0.5" stroke-miterlimit="10"/>
<path d="M95.627 89.8979L153.648 253.354" stroke="#E6A98F" stroke-width="0.5" stroke-miterlimit="10"/>
<path d="M98.3125 88.9697L156.334 252.426" stroke="#E6A98F" stroke-width="0.5" stroke-miterlimit="10"/>
<path d="M100.957 88.0415L158.978 251.498" stroke="#E6A98F" stroke-width="0.5" stroke-miterlimit="10"/>
<path d="M103.643 87.113L161.664 250.569" stroke="#E6A98F" stroke-width="0.5" stroke-miterlimit="10"/>
<path d="M106.287 86.1848L164.308 249.641" stroke="#E6A98F" stroke-width="0.5" stroke-miterlimit="10"/>
<path d="M108.973 85.2566L166.994 248.713" stroke="#E6A98F" stroke-width="0.5" stroke-miterlimit="10"/>
<path d="M111.617 84.3284L169.638 247.785" stroke="#E6A98F" stroke-width="0.5" stroke-miterlimit="10"/>
<path d="M114.303 83.4001L172.324 246.856" stroke="#E6A98F" stroke-width="0.5" stroke-miterlimit="10"/>
<path d="M116.988 82.4717L175.009 245.928" stroke="#E6A98F" stroke-width="0.5" stroke-miterlimit="10"/>
<path d="M119.633 81.5435L177.654 245" stroke="#E6A98F" stroke-width="0.5" stroke-miterlimit="10"/>
<path d="M122.318 80.6152L180.339 244.071" stroke="#E6A98F" stroke-width="0.5" stroke-miterlimit="10"/>
<path d="M124.963 79.6467L182.984 243.103" stroke="#E6A98F" stroke-width="0.5" stroke-miterlimit="10"/>
<path d="M127.648 78.7183L185.67 242.175" stroke="#E6A98F" stroke-width="0.5" stroke-miterlimit="10"/>
<path d="M130.293 77.79L188.314 241.246" stroke="#E6A98F" stroke-width="0.5" stroke-miterlimit="10"/>
<path d="M132.979 76.8618L191 240.318" stroke="#E6A98F" stroke-width="0.5" stroke-miterlimit="10"/>
<path d="M135.623 75.9336L193.644 239.39" stroke="#E6A98F" stroke-width="0.5" stroke-miterlimit="10"/>
<path d="M138.309 75.0054L196.33 238.462" stroke="#E6A98F" stroke-width="0.5" stroke-miterlimit="10"/>
<path d="M140.994 74.0769L199.015 237.533" stroke="#E6A98F" stroke-width="0.5" stroke-miterlimit="10"/>
<path d="M143.639 73.1487L201.66 236.605" stroke="#E6A98F" stroke-width="0.5" stroke-miterlimit="10"/>
<path d="M146.324 72.2205L204.345 235.677" stroke="#E6A98F" stroke-width="0.5" stroke-miterlimit="10"/>
<path d="M148.969 71.2922L206.99 234.748" stroke="#E6A98F" stroke-width="0.5" stroke-miterlimit="10"/>
<path d="M151.654 70.364L209.675 233.82" stroke="#E6A98F" stroke-width="0.5" stroke-miterlimit="10"/>
<path d="M154.299 69.4355L212.32 232.892" stroke="#E6A98F" stroke-width="0.5" stroke-miterlimit="10"/>
<path d="M156.984 68.5073L215.005 231.923" stroke="#E6A98F" stroke-width="0.5" stroke-miterlimit="10"/>
<path d="M159.67 67.5388L217.65 230.995" stroke="#E6A98F" stroke-width="0.5" stroke-miterlimit="10"/>
<path d="M162.314 66.6104L220.336 230.067" stroke="#E6A98F" stroke-width="0.5" stroke-miterlimit="10"/>
<path d="M165 65.6821L223.021 229.138" stroke="#E6A98F" stroke-width="0.5" stroke-miterlimit="10"/>
<path d="M167.645 64.7539L225.666 228.21" stroke="#E6A98F" stroke-width="0.5" stroke-miterlimit="10"/>
<path d="M170.33 63.8257L228.351 227.282" stroke="#E6A98F" stroke-width="0.5" stroke-miterlimit="10"/>
<path d="M172.975 62.8975L230.996 226.354" stroke="#E6A98F" stroke-width="0.5" stroke-miterlimit="10"/>
<path d="M175.66 61.9692L233.681 225.425" stroke="#E6A98F" stroke-width="0.5" stroke-miterlimit="10"/>
<path d="M178.306 61.0408L236.327 224.497" stroke="#E6A98F" stroke-width="0.5" stroke-miterlimit="10"/>
<path d="M180.99 60.1125L239.011 223.569" stroke="#E6A98F" stroke-width="0.5" stroke-miterlimit="10"/>
<path d="M183.676 59.1843L241.656 222.641" stroke="#E6A98F" stroke-width="0.5" stroke-miterlimit="10"/>
<path d="M186.32 58.2561L244.341 221.712" stroke="#E6A98F" stroke-width="0.5" stroke-miterlimit="10"/>
<path d="M189.006 57.3279L247.027 220.744" stroke="#E6A98F" stroke-width="0.5" stroke-miterlimit="10"/>
<path d="M191.65 56.3591L249.671 219.815" stroke="#E6A98F" stroke-width="0.5" stroke-miterlimit="10"/>
<path d="M194.336 55.4309L252.357 218.887" stroke="#E6A98F" stroke-width="0.5" stroke-miterlimit="10"/>
<path d="M196.981 54.5027L255.003 217.959" stroke="#E6A98F" stroke-width="0.5" stroke-miterlimit="10"/>
<path d="M199.666 53.5742L257.687 217.03" stroke="#E6A98F" stroke-width="0.5" stroke-miterlimit="10"/>
<path d="M202.312 52.646L260.333 216.102" stroke="#E6A98F" stroke-width="0.5" stroke-miterlimit="10"/>
<path d="M204.996 51.7178L263.017 215.174" stroke="#E6A98F" stroke-width="0.5" stroke-miterlimit="10"/>
<path d="M207.682 50.7896L265.662 214.246" stroke="#E6A98F" stroke-width="0.5" stroke-miterlimit="10"/>
<path d="M210.326 49.8613L268.347 213.318" stroke="#E6A98F" stroke-width="0.5" stroke-miterlimit="10"/>
<path d="M213.012 48.9329L271.033 212.389" stroke="#E6A98F" stroke-width="0.5" stroke-miterlimit="10"/>
<path d="M215.657 48.0046L273.678 211.461" stroke="#E6A98F" stroke-width="0.5" stroke-miterlimit="10"/>
<path d="M218.342 47.0764L276.363 210.533" stroke="#E6A98F" stroke-width="0.5" stroke-miterlimit="10"/>
<path d="M220.987 46.1482L279.008 209.604" stroke="#E6A98F" stroke-width="0.5" stroke-miterlimit="10"/>
<path d="M223.672 45.1794L281.693 208.636" stroke="#E6A98F" stroke-width="0.5" stroke-miterlimit="10"/>
<path d="M226.317 44.2512L284.338 207.707" stroke="#E6A98F" stroke-width="0.5" stroke-miterlimit="10"/>
<path d="M229.003 43.323L287.024 206.779" stroke="#E6A98F" stroke-width="0.5" stroke-miterlimit="10"/>
</g>
</g>
<g style="mix-blend-mode:multiply" opacity="0.5">
<path d="M107.426 185.631C107.182 184.985 107.019 184.339 106.816 183.694L101.527 168.801L106.084 167.227C110.071 144.706 133.345 121.177 166.465 108.383C165.041 108.827 163.576 109.311 162.152 109.795C126.753 122.145 101.649 146.724 97.4985 170.213L92.9414 171.787L98.2308 186.68C98.4343 187.326 98.597 187.972 98.8412 188.617C108.728 216.465 153.119 226.354 197.957 210.694C199.381 210.21 200.805 209.685 202.229 209.12C158.897 222.681 116.988 212.591 107.426 185.631Z" fill="#FFC09D"/>
</g>
<g style="mix-blend-mode:screen" opacity="0.5">
<path d="M252.683 134.899C252.439 134.253 252.195 133.648 251.951 133.042L246.661 118.15L242.104 119.724C224.73 104.629 191.773 100.755 157.88 111.369C159.304 110.845 160.687 110.279 162.152 109.795C197.551 97.4452 232.624 100.997 250.73 116.697L255.287 115.123L260.576 130.015C260.821 130.621 261.105 131.266 261.309 131.872C271.196 159.72 242.836 194.994 197.998 210.694C196.574 211.178 195.109 211.663 193.685 212.107C236.042 195.761 262.285 161.819 252.724 134.858L252.683 134.899Z" fill="#FFC09D"/>
</g>
<path d="M192.597 195.643C237.447 179.977 265.788 144.694 255.898 116.836C246.008 88.979 201.632 79.0965 156.783 94.763C111.933 110.43 83.5926 145.713 93.4825 173.57C103.372 201.427 147.748 211.31 192.597 195.643Z" fill="#E8B59E"/>
<g style="mix-blend-mode:multiply" opacity="0.5">
<path d="M191.935 193.784C147.585 209.282 103.724 199.757 93.1855 172.635C93.2669 172.958 93.3483 173.241 93.4704 173.563C103.358 201.411 147.748 211.3 192.586 195.64C237.424 179.981 265.784 144.706 255.897 116.818C255.775 116.495 255.653 116.212 255.531 115.93C264.482 143.617 236.285 178.326 191.935 193.784Z" fill="#E8B59E"/>
</g>
<g style="mix-blend-mode:multiply" opacity="0.2">
<path d="M97.8243 172.03C88.0999 144.626 115.402 110.037 158.978 94.0146C158.246 94.2568 157.514 94.499 156.781 94.7411C111.943 110.401 83.5835 145.675 93.4707 173.563C103.358 201.411 147.748 211.3 192.587 195.64C193.319 195.398 194.011 195.115 194.743 194.833C150.637 209.443 107.549 199.434 97.8243 172.03Z" fill="#E8B59E"/>
</g>
<g style="mix-blend-mode:screen" opacity="0.5">
<path d="M251.584 118.351C241.859 90.9474 198.73 80.9785 154.665 95.5483C155.397 95.2658 156.089 95.0237 156.822 94.7411C201.66 79.0816 246.05 88.9697 255.937 116.818C265.825 144.666 237.465 179.94 192.627 195.64C191.895 195.882 191.162 196.124 190.43 196.367C234.007 180.344 261.308 145.756 251.584 118.351Z" fill="#E8B59E"/>
</g>
<g style="mix-blend-mode:screen">
<path d="M157.351 96.2748C201.782 80.7364 245.725 90.3016 256.182 117.585C256.101 117.343 256.02 117.06 255.938 116.818C246.051 88.9697 201.66 79.0816 156.822 94.7411C111.984 110.401 83.6245 145.675 93.5117 173.563C93.5931 173.806 93.7151 174.048 93.7965 174.33C84.6824 146.603 112.92 111.813 157.351 96.3152V96.2748Z" fill="#E8B59E"/>
</g>
<g style="mix-blend-mode:screen" opacity="0.7">
<path d="M189.822 187.741C227.698 174.511 251.88 145.412 243.834 122.748C235.788 100.083 198.56 92.436 160.684 105.667C122.807 118.897 98.6254 147.996 106.672 170.66C114.718 193.325 151.946 200.972 189.822 187.741Z" fill="#E8B59E"/>
</g>
<path d="M188.593 184.381C226.47 171.15 250.652 142.052 242.606 119.387C234.559 96.7231 197.332 89.0757 159.455 102.306C121.579 115.537 97.3968 144.636 105.443 167.3C113.489 189.964 150.717 197.612 188.593 184.381Z" fill="#E6A98F"/>
<g style="mix-blend-mode:multiply" opacity="0.2">
<path d="M159.467 102.329C130.659 112.378 109.787 131.63 104.985 150.235C113.408 135.02 131.758 120.531 155.438 112.257C193.319 99.0191 230.549 106.687 238.564 129.329C240.476 134.737 240.558 140.549 239.052 146.401C244.098 137.28 245.603 127.917 242.592 119.401C234.536 96.759 197.347 89.0906 159.467 102.329Z" fill="#E6A98F"/>
</g>
<path d="M161.42 107.818C197.754 95.1447 233.478 101.643 243.406 122.226C243.202 121.298 242.918 120.329 242.592 119.441C234.536 96.7995 197.347 89.1312 159.467 102.369C121.586 115.607 97.4174 144.706 105.474 167.348C105.799 168.276 106.206 169.164 106.613 170.052C101.405 147.854 125.085 120.571 161.42 107.858V107.818Z" fill="#DF9677"/>
<path d="M134.2 160.81L151.736 117.504L189.372 131.993L182.293 151.325C181.927 152.294 181.52 153.303 180.991 154.312C180.462 155.321 179.892 156.33 179.241 157.298C178.59 158.267 178.387 158.59 177.614 159.397L170.412 158.186L168.988 157.944C169.842 156.653 170.656 155.24 171.429 153.706C172.202 152.173 172.894 150.558 173.463 148.984L178.061 136.433L155.683 128.361L144.168 164.482L134.118 160.85L134.2 160.81ZM150.027 166.5L162.356 137.482L169.069 140.832L161.257 162.142L171.51 165.855C174.969 167.146 178.224 167.227 181.235 166.097C184.246 165.007 186.402 162.666 187.704 159.074L198.446 134.334L205.159 137.684L196.249 161.94C194.865 165.814 192.831 168.882 190.146 171.101C187.46 173.321 184.286 174.613 180.625 174.976C176.922 175.339 172.894 174.734 168.459 173.16L149.946 166.5H150.027Z" fill="#DF9677"/>
<path d="M135.989 160.527L151.736 117.504L191.162 131.71L184.082 151.043C183.716 152.011 183.309 153.02 182.78 154.029C182.252 155.038 181.682 156.047 181.031 157.016C180.38 157.985 179.688 158.832 178.956 159.639L171.144 158.186L170.859 157.662C171.713 156.37 172.527 154.958 173.3 153.424C174.073 151.89 174.765 150.276 175.335 148.702L179.932 136.15L157.554 128.078L144.534 163.635L136.03 160.568L135.989 160.527ZM151.817 166.218L162.355 137.482L170.859 140.549L163.047 161.859L173.3 165.572C176.759 166.864 180.014 166.944 183.025 165.814C186.035 164.725 188.192 162.384 189.494 158.792L198.445 134.334L206.949 137.401L198.038 161.657C196.655 165.532 194.621 168.599 191.935 170.819C189.25 173.039 186.076 174.33 182.414 174.693C178.712 175.057 174.684 174.451 170.249 172.877L151.736 166.218H151.817Z" fill="#FFC09D"/>
<path d="M106.516 52.3269C106.455 52.2204 106.356 52.1412 106.238 52.1055C106.093 52.0743 106.191 52.0833 106.155 52.0703L106.125 52.0243C106.102 51.993 106.076 51.9642 106.047 51.9382C105.981 51.8794 105.904 51.8333 105.821 51.8021C105.573 51.7364 105.33 51.6539 105.093 51.5553C104.514 51.2827 104.009 50.8745 103.621 50.3652C103.493 50.2007 103.375 50.0286 103.268 49.8496L103.104 49.562L102.903 49.1376C102.8 48.875 102.715 48.6057 102.649 48.3317C102.572 48.0275 102.482 47.7999 102.416 47.4128C102.344 47.0553 102.272 46.6948 102.2 46.3311C102.183 46.2089 102.16 46.2191 102.138 46.1968L102.072 46.1399L101.94 46.0258L101.811 45.9184L101.743 45.8888L101.616 45.8363L101.557 45.8132L101.542 45.8079C101.533 45.8048 101.487 45.8081 101.499 45.8089L101.47 45.8161C101.452 45.8163 101.351 45.8484 101.251 45.8782C101.161 45.936 101.075 46.0004 100.994 46.0708C100.942 46.1063 100.895 46.1486 100.854 46.1964L100.698 46.6418C100.637 47.4641 100.467 48.2748 100.195 49.0531C100.036 49.4231 100.012 49.4657 99.9407 49.6052L99.7342 49.9643C99.466 50.3991 99.1222 50.7824 98.7191 51.0961C98.6749 51.1342 98.6275 51.1684 98.5775 51.1984L98.3537 51.3489C98.0606 51.49 97.7532 51.5995 97.4369 51.6756C97.2823 51.7164 97.1304 51.7669 96.9822 51.8269L96.5853 51.9853C96.3792 52.1046 96.2292 52.2505 96.2705 52.3126L96.1956 52.5251L96.1875 52.6137C96.1842 52.6796 96.1882 52.7457 96.1992 52.8108L96.2691 52.9915L96.2974 53.0627L96.3137 53.1038L96.4206 53.1697C96.5729 53.2623 96.7534 53.3721 96.9703 53.5041C97.3012 53.5749 97.6228 53.6822 98.0248 53.7909C98.2026 53.8399 98.3702 53.9202 98.5197 54.0281L98.7173 54.1526C99.0241 54.377 99.302 54.6386 99.5445 54.9313C99.6843 55.1049 99.8126 55.2875 99.9287 55.4778C100.107 55.7573 100.256 56.0553 100.371 56.3665C100.728 57.2527 100.835 58.9631 101.319 59.1493C101.348 59.2089 101.394 59.2587 101.451 59.293C101.509 59.3272 101.574 59.3444 101.641 59.3425C101.823 59.341 102.146 59.4269 102.379 58.2741C102.585 57.252 102.659 56.7107 102.836 56.1204C102.962 55.8097 103.013 55.7212 103.063 55.6066L103.244 55.2849C103.434 54.9618 103.667 54.6653 103.935 54.4031C104.598 53.8528 105.36 53.434 106.179 53.1694C106.202 53.1309 106.126 52.9353 106.233 52.9439C106.3 52.9337 106.363 52.9071 106.416 52.8666C106.47 52.826 106.513 52.7728 106.541 52.7116C106.569 52.6505 106.582 52.5833 106.577 52.5162C106.573 52.449 106.552 52.384 106.516 52.3269Z" fill="#6775F4"/>
<path d="M237.067 72.9575C237.006 72.851 236.907 72.7718 236.789 72.7361C236.643 72.7049 236.742 72.7139 236.706 72.7009L236.676 72.655C236.653 72.6236 236.627 72.5948 236.598 72.5688C236.531 72.51 236.455 72.4639 236.372 72.4327C236.124 72.367 235.881 72.2845 235.644 72.1859C235.064 71.9133 234.559 71.5051 234.172 70.9958C234.044 70.8314 233.926 70.6592 233.819 70.4803L233.654 70.1926L233.453 69.7682C233.351 69.5056 233.266 69.2363 233.199 68.9623C233.123 68.6581 233.033 68.4305 232.966 68.0434C232.895 67.686 232.823 67.3254 232.75 66.9617C232.734 66.8395 232.711 66.8497 232.689 66.8274L232.623 66.7705L232.491 66.6564L232.362 66.549L232.293 66.5194L232.167 66.4669L232.108 66.4438L232.093 66.4385C232.084 66.4354 232.038 66.4387 232.05 66.4395L232.021 66.4467C232.003 66.447 231.902 66.479 231.802 66.5088C231.712 66.5666 231.626 66.631 231.545 66.7014C231.493 66.7369 231.446 66.7792 231.405 66.8271L231.249 67.2724C231.187 68.0947 231.018 68.9054 230.746 69.6837C230.587 70.0537 230.563 70.0963 230.492 70.2358L230.285 70.595C230.017 71.0297 229.673 71.413 229.27 71.7268C229.226 71.7648 229.178 71.799 229.128 71.829L228.905 71.9795C228.611 72.1206 228.304 72.2301 227.988 72.3062C227.833 72.347 227.681 72.3975 227.533 72.4575L227.136 72.6159C226.93 72.7352 226.78 72.8812 226.821 72.9432L226.746 73.1557L226.738 73.2443C226.735 73.3102 226.739 73.3763 226.75 73.4414L226.82 73.6221L226.848 73.6933L226.864 73.7344L226.971 73.8003C227.124 73.8929 227.304 74.0027 227.521 74.1347C227.852 74.2056 228.174 74.3128 228.576 74.4215C228.753 74.4705 228.921 74.5508 229.071 74.6587L229.268 74.7832C229.575 75.0076 229.853 75.2692 230.095 75.5619C230.235 75.7356 230.363 75.9181 230.479 76.1084C230.658 76.388 230.806 76.6859 230.921 76.9971C231.279 77.8833 231.386 79.5937 231.869 79.7799C231.899 79.8395 231.945 79.8894 232.002 79.9236C232.059 79.9578 232.125 79.975 232.191 79.9731C232.374 79.9716 232.697 80.0575 232.93 78.9047C233.136 77.8826 233.21 77.3414 233.386 76.7511C233.513 76.4403 233.564 76.3518 233.614 76.2372L233.794 75.9155C233.985 75.5924 234.217 75.2959 234.486 75.0337C235.148 74.4834 235.91 74.0646 236.73 73.8C236.753 73.7616 236.677 73.5659 236.784 73.5745C236.851 73.5643 236.914 73.5377 236.967 73.4972C237.021 73.4567 237.064 73.4034 237.092 73.3423C237.12 73.2811 237.132 73.2139 237.128 73.1468C237.124 73.0796 237.103 73.0146 237.067 72.9575Z" fill="#6775F4"/>
<path d="M98.8564 62.8195C98.8226 62.8078 98.7879 62.7991 98.7527 62.7935L98.7438 62.7868L98.6629 62.7327C98.5948 62.6924 98.5242 62.6566 98.4515 62.6256C98.2548 62.5434 98.0516 62.4778 97.8439 62.4296C96.3695 62.1073 94.9906 61.4456 93.8168 60.497C91.181 58.1842 89.4789 54.9897 89.0295 51.512C88.9368 51.0118 88.8698 50.5071 88.8288 50L88.7917 49.6167L88.773 49.4247L88.7636 49.3286L88.7611 49.3047C88.7562 49.2355 88.7437 49.1671 88.7238 49.1007C88.6768 48.9407 88.5829 48.7985 88.4542 48.6924C88.3255 48.5863 88.168 48.5212 88.0019 48.5056C87.8359 48.4899 87.6689 48.5244 87.5227 48.6046C87.3765 48.6848 87.2576 48.807 87.1815 48.9554C87.1231 49.0719 87.0896 49.1993 87.0834 49.3295L87.0757 49.4178C86.9961 49.4229 87.0047 49.423 87.0757 49.4178L87.075 49.4258L87.0583 49.6187L87.0249 50.0049C86.9425 51.0364 86.7786 52.0597 86.5348 53.0654C86.0821 55.0136 85.2548 56.8551 84.0991 58.4875C83.0729 59.9087 81.7131 61.0559 80.1393 61.828L79.3422 62.1494C78.9555 62.2908 78.4204 62.4005 78.132 62.5274L77.131 62.8884L76.6442 63.064C76.5621 63.1085 76.6057 63.131 76.5805 63.1652L76.528 63.3492L76.5027 63.4382C76.4991 63.4748 76.4977 63.5116 76.4985 63.5485C76.4969 63.5716 76.5004 63.5948 76.5087 63.6164L76.608 63.9409C76.827 64.1076 77.0567 64.2596 77.2958 64.3961C78.1223 64.488 78.9343 64.6819 79.7131 64.9735L80.0672 65.1078C80.1661 65.1437 80.2619 65.1877 80.3536 65.2392L80.9612 65.5466C81.9115 66.0961 82.7743 66.7844 83.521 67.5889C85.2778 69.6164 86.4759 72.0667 86.9972 74.6983C87.1511 75.4265 87.266 76.1623 87.3416 76.9027L87.4015 77.4564L87.409 77.5255C87.4133 77.5862 87.4235 77.6463 87.4395 77.705C87.4799 77.8551 87.5664 77.9887 87.6868 78.087C87.8072 78.1853 87.9555 78.2433 88.1106 78.2528C88.2657 78.2623 88.4199 78.2228 88.5515 78.14C88.683 78.0571 88.7851 77.9351 88.8435 77.791C88.878 77.7055 88.8981 77.6148 88.9028 77.5226L88.9054 77.488L88.9266 77.2119L89.0111 76.1157C89.1679 74.7414 89.4677 73.3873 89.9058 72.0753C90.5214 70.1792 91.5595 68.4476 92.9417 67.011C94.0743 65.8465 95.4707 64.9718 97.0127 64.4609C98.0529 64.1078 98.6589 64.0702 98.7636 63.959C98.8265 63.9134 98.7071 63.7267 98.834 63.728C98.9484 63.7045 99.0492 63.6372 99.1148 63.5404C99.1803 63.4437 99.2055 63.3252 99.185 63.2101C99.1689 63.1052 99.1187 63.0084 99.0422 62.9348C98.9891 62.8836 98.9258 62.8444 98.8564 62.8195Z" fill="#6775F4"/>
<path d="M283.474 225.908C283.414 225.804 283.317 225.726 283.202 225.691C283.059 225.661 283.155 225.67 283.12 225.657L283.091 225.612C283.068 225.581 283.042 225.553 283.014 225.528C282.949 225.47 282.874 225.425 282.793 225.394C282.55 225.33 282.312 225.249 282.08 225.153C281.512 224.886 281.018 224.486 280.638 223.987C280.513 223.826 280.397 223.657 280.293 223.482L280.131 223.2L279.935 222.785C279.834 222.528 279.751 222.264 279.686 221.996C279.611 221.698 279.522 221.475 279.458 221.096C279.388 220.746 279.317 220.392 279.246 220.036C279.23 219.917 279.207 219.927 279.186 219.905L279.122 219.849L278.992 219.737L278.866 219.632L278.799 219.603L278.674 219.552L278.617 219.529L278.602 219.524C278.593 219.521 278.548 219.524 278.56 219.525L278.531 219.532C278.514 219.532 278.415 219.564 278.317 219.593C278.229 219.649 278.145 219.712 278.066 219.781C278.015 219.816 277.969 219.858 277.928 219.904L277.775 220.341C277.715 221.146 277.55 221.94 277.283 222.702C277.127 223.064 277.104 223.106 277.034 223.243L276.832 223.594C276.569 224.02 276.232 224.396 275.837 224.703C275.794 224.74 275.748 224.774 275.699 224.803L275.48 224.95C275.193 225.089 274.892 225.196 274.582 225.27C274.43 225.31 274.282 225.36 274.136 225.419L273.748 225.574C273.546 225.691 273.399 225.833 273.439 225.894L273.366 226.102L273.358 226.189C273.355 226.254 273.359 226.318 273.37 226.382L273.438 226.559L273.466 226.629L273.482 226.669L273.586 226.734C273.736 226.824 273.912 226.932 274.125 227.061C274.449 227.131 274.764 227.236 275.158 227.342C275.332 227.39 275.496 227.469 275.642 227.574L275.836 227.696C276.136 227.916 276.408 228.172 276.646 228.459C276.783 228.629 276.908 228.808 277.022 228.994C277.197 229.268 277.342 229.56 277.455 229.864C277.805 230.732 277.91 232.407 278.383 232.59C278.412 232.648 278.458 232.697 278.513 232.73C278.569 232.764 278.634 232.781 278.699 232.779C278.878 232.778 279.194 232.862 279.422 231.733C279.624 230.732 279.696 230.202 279.869 229.623C279.993 229.319 280.043 229.232 280.092 229.12L280.269 228.805C280.455 228.489 280.683 228.198 280.945 227.942C281.595 227.403 282.341 226.993 283.144 226.733C283.166 226.696 283.092 226.504 283.197 226.513C283.262 226.503 283.323 226.477 283.376 226.437C283.429 226.397 283.47 226.345 283.498 226.285C283.525 226.225 283.538 226.159 283.533 226.094C283.529 226.028 283.509 225.964 283.474 225.908Z" fill="#6775F4"/>
<path d="M275.972 236.184C275.939 236.173 275.905 236.164 275.871 236.159L275.862 236.152L275.783 236.099C275.716 236.06 275.647 236.025 275.576 235.994C275.383 235.914 275.184 235.85 274.981 235.802C273.537 235.487 272.186 234.839 271.037 233.91C268.455 231.645 266.788 228.516 266.348 225.11C266.257 224.62 266.192 224.126 266.152 223.629L266.115 223.254L266.097 223.066L266.088 222.972L266.085 222.949C266.081 222.881 266.068 222.814 266.049 222.749C266.003 222.592 265.911 222.453 265.785 222.349C265.659 222.245 265.504 222.181 265.342 222.166C265.179 222.151 265.016 222.184 264.873 222.263C264.729 222.341 264.613 222.461 264.538 222.606C264.481 222.721 264.448 222.845 264.442 222.973L264.435 223.059C264.357 223.064 264.365 223.064 264.435 223.059L264.434 223.067L264.418 223.256L264.385 223.634C264.304 224.644 264.144 225.647 263.905 226.632C263.462 228.54 262.651 230.343 261.52 231.942C260.515 233.334 259.183 234.457 257.642 235.213L256.861 235.528C256.482 235.667 255.958 235.774 255.676 235.898L254.695 236.252L254.219 236.424C254.138 236.467 254.181 236.489 254.156 236.523L254.105 236.703L254.08 236.79C254.077 236.826 254.075 236.862 254.076 236.898C254.074 236.921 254.078 236.944 254.086 236.965L254.183 237.282C254.398 237.446 254.623 237.595 254.857 237.728C255.666 237.818 256.462 238.008 257.224 238.294L257.571 238.425C257.668 238.461 257.762 238.504 257.852 238.554L258.447 238.855C259.377 239.393 260.222 240.067 260.954 240.855C262.674 242.841 263.847 245.241 264.358 247.818C264.509 248.531 264.621 249.252 264.695 249.977L264.754 250.519L264.761 250.587C264.765 250.646 264.775 250.705 264.791 250.762C264.831 250.909 264.915 251.04 265.033 251.137C265.151 251.233 265.296 251.29 265.448 251.299C265.6 251.308 265.751 251.27 265.88 251.188C266.009 251.107 266.109 250.988 266.166 250.847C266.2 250.763 266.22 250.674 266.224 250.584L266.227 250.55L266.247 250.279L266.33 249.206C266.484 247.86 266.777 246.534 267.206 245.249C267.809 243.392 268.826 241.696 270.18 240.289C271.289 239.149 272.656 238.292 274.167 237.792C275.185 237.446 275.779 237.409 275.881 237.3C275.943 237.256 275.826 237.073 275.95 237.074C276.062 237.051 276.161 236.985 276.225 236.89C276.289 236.796 276.314 236.679 276.294 236.567C276.278 236.464 276.229 236.369 276.154 236.297C276.102 236.247 276.04 236.209 275.972 236.184Z" fill="#6775F4"/>
</g>
<defs>
<clipPath id="clip0_3963_13002">
<rect width="270" height="256" fill="white" transform="translate(102.175 0.814941) rotate(23.4766)"/>
</clipPath>
<clipPath id="clip1_3963_13002">
<rect width="220" height="220" fill="white" transform="translate(68 43)"/>
</clipPath>
</defs>
</svg>
