<svg width="24" height="25" viewBox="0 0 24 25" fill="none" xmlns="http://www.w3.org/2000/svg">
<path d="M5 4.5C3.8954 4.5 3 5.4 3 6.5V20.5C3 21.6 3.8954 22.5 5 22.5H11H13H19C20.105 22.5 21 21.6 21 20.5V6.5C21 5.4 20.105 4.5 19 4.5H13H11H5Z" fill="#BDC3C7"/>
<path d="M5 3.5C3.8954 3.5 3 4.3954 3 5.5V19.5C3 20.605 3.8954 21.5 5 21.5H11H13H19C20.105 21.5 21 20.605 21 19.5V5.5C21 4.3954 20.105 3.5 19 3.5H13H11H5Z" fill="#ECF0F1"/>
<path d="M5 3.5C3.8954 3.5 3 4.4 3 5.5V8.5H12H21V5.5C21 4.4 20.105 3.5 19 3.5H13H11H5Z" fill="#6775F4"/>
<path d="M7.5 6C7.5 6.19698 7.4612 6.39204 7.38582 6.57403C7.31044 6.75601 7.19995 6.92137 7.06066 7.06066C6.92137 7.19995 6.75601 7.31044 6.57403 7.38582C6.39204 7.4612 6.19698 7.5 6 7.5C5.80302 7.5 5.60796 7.4612 5.42597 7.38582C5.24399 7.31044 5.07863 7.19995 4.93934 7.06066C4.80005 6.92137 4.68956 6.75601 4.61418 6.57403C4.5388 6.39204 4.5 6.19698 4.5 6C4.5 5.80302 4.5388 5.60796 4.61418 5.42597C4.68956 5.24399 4.80005 5.07863 4.93934 4.93934C5.07863 4.80005 5.24399 4.68956 5.42597 4.61418C5.60796 4.5388 5.80302 4.5 6 4.5C6.19698 4.5 6.39204 4.5388 6.57403 4.61418C6.75601 4.68956 6.92137 4.80005 7.06066 4.93934C7.19995 5.07863 7.31044 5.24399 7.38582 5.42597C7.4612 5.60796 7.5 5.80302 7.5 6Z" fill="#4353E4"/>
<path d="M6 1.5C5.4477 1.5 5 1.9477 5 2.5V5.5C5 6.0523 5.4477 6.5 6 6.5C6.5523 6.5 7 6.0523 7 5.5V2.5C7 1.9477 6.5523 1.5 6 1.5Z" fill="#BDC3C7"/>
<path d="M19.5 6C19.5 6.19698 19.4612 6.39204 19.3858 6.57403C19.3104 6.75601 19.1999 6.92137 19.0607 7.06066C18.9214 7.19995 18.756 7.31044 18.574 7.38582C18.392 7.4612 18.197 7.5 18 7.5C17.803 7.5 17.608 7.4612 17.426 7.38582C17.244 7.31044 17.0786 7.19995 16.9393 7.06066C16.8001 6.92137 16.6896 6.75601 16.6142 6.57403C16.5388 6.39204 16.5 6.19698 16.5 6C16.5 5.80302 16.5388 5.60796 16.6142 5.42597C16.6896 5.24399 16.8001 5.07863 16.9393 4.93934C17.0786 4.80005 17.244 4.68956 17.426 4.61418C17.608 4.5388 17.803 4.5 18 4.5C18.197 4.5 18.392 4.5388 18.574 4.61418C18.756 4.68956 18.9214 4.80005 19.0607 4.93934C19.1999 5.07863 19.3104 5.24399 19.3858 5.42597C19.4612 5.60796 19.5 5.80302 19.5 6Z" fill="#4353E4"/>
<path d="M18 1.5C17.448 1.5 17 1.9 17 2.5V5.5C17 6 17.448 6.5 18 6.5C18.552 6.5 19 6 19 5.5V2.5C19 1.9 18.552 1.5 18 1.5Z" fill="#BDC3C7"/>
<path d="M5 11.5V13.5H7V11.5H5ZM8 11.5V13.5H10V11.5H8ZM11 11.5V13.5H13V11.5H11ZM14 11.5V13.5H16V11.5H14ZM17 11.5V13.5H19V11.5H17Z" fill="#BDC3C7"/>
<path d="M5 14.5V16.5H7V14.5H5ZM8 14.5V16.5H10V14.5H8ZM11 14.5V16.5H13V14.5H11ZM14 14.5V16.5H16V14.5H14ZM17 14.5V16.5H19V14.5H17Z" fill="#BDC3C7"/>
<path d="M5 17.5V19.5H7V17.5H5ZM8 17.5V19.5H10V17.5H8ZM11 17.5V19.5H13V17.5H11ZM14 17.5V19.5H16V17.5H14ZM17 17.5V19.5H19V17.5H17Z" fill="#BDC3C7"/>
<path d="M21 8.5H3V9.5H21V8.5Z" fill="#4353E4"/>
</svg>
