<svg width="24" height="15" viewBox="0 0 24 15" fill="none" xmlns="http://www.w3.org/2000/svg">
<path d="M21.6986 0.154785H1.60952C1.19968 0.154785 0.806624 0.317595 0.516821 0.607397C0.227019 0.8972 0.064209 1.29026 0.064209 1.7001V12.5173C0.064209 12.9271 0.227019 13.3202 0.516821 13.61C0.806624 13.8998 1.19968 14.0626 1.60952 14.0626H21.6986C22.1085 14.0626 22.5015 13.8998 22.7913 13.61C23.0811 13.3202 23.2439 12.9271 23.2439 12.5173V1.7001C23.2439 1.29026 23.0811 0.8972 22.7913 0.607397C22.5015 0.317595 22.1085 0.154785 21.6986 0.154785ZM6.53522 12.5173L1.60952 8.29666V5.92074L6.53522 1.7001H16.7729L21.6986 5.92074V8.29666L16.7729 12.5173H6.53522ZM15.5174 7.1087C15.5174 7.87279 15.2908 8.61972 14.8663 9.25503C14.4418 9.89035 13.8384 10.3855 13.1325 10.6779C12.4266 10.9703 11.6498 11.0468 10.9004 10.8978C10.151 10.7487 9.46261 10.3808 8.92231 9.84046C8.38202 9.30017 8.01408 8.6118 7.86502 7.86239C7.71595 7.11299 7.79246 6.33621 8.08486 5.63029C8.37726 4.92436 8.87243 4.321 9.50774 3.8965C10.1431 3.47199 10.89 3.24542 11.6541 3.24542C12.6787 3.24542 13.6613 3.65244 14.3858 4.37695C15.1103 5.10145 15.5174 6.0841 15.5174 7.1087Z" fill="#030942"/>
</svg>
