<svg width="82" height="51" viewBox="0 0 82 51" fill="none" xmlns="http://www.w3.org/2000/svg">
<g clip-path="url(#clip0_1392_13429)">
<path opacity="0.91" d="M54.3556 16.8369C50.2356 16.3469 46.1356 15.6269 42.0556 14.8269C37.1956 13.8769 32.3456 12.8169 27.4756 11.9069C20.8656 10.6769 14.2156 9.74689 7.45557 9.78689C6.41557 9.78689 5.37557 9.81689 4.33557 9.87689L0.455566 42.7069C5.16557 42.4669 9.82557 42.7369 14.4456 43.3069C21.2756 44.1369 28.0256 45.6069 34.7956 46.9869C39.6156 47.9669 44.4356 48.9069 49.2956 49.5269C53.2856 50.0369 57.2856 50.3469 61.3356 50.2969C62.2256 50.2869 63.1156 50.2569 64.0056 50.2169C65.2956 39.2769 66.5856 28.3269 67.8856 17.3869C63.3256 17.6169 58.8256 17.3769 54.3556 16.8469V16.8369Z" fill="#DFB108"/>
<path d="M34.0955 43.6266L33.5155 40.8666C33.3155 40.8566 33.1055 40.8366 32.8955 40.8066C29.9255 40.4566 27.3655 38.9266 25.6555 36.7566C23.9355 34.5766 23.0455 31.7366 23.3955 28.7666C23.7455 25.7966 25.2755 23.2366 27.4455 21.5266C28.0055 21.0866 28.5955 20.7066 29.2355 20.3766L28.1755 15.3066C24.9255 14.7166 21.6755 14.1966 18.4055 13.8066C16.4055 13.5666 14.3955 13.3866 12.3855 13.2666C11.7355 15.0666 10.5755 16.5866 9.10547 17.6966L10.5155 24.4266C11.5455 23.2666 13.0955 22.6066 14.7555 22.8066C17.4355 23.1266 19.3555 25.5566 19.0355 28.2366C18.7155 30.9166 16.2855 32.8366 13.6055 32.5166C13.0755 32.4566 12.5755 32.3066 12.1155 32.0966L13.8155 40.2266C14.3055 40.2766 14.7955 40.3366 15.2755 40.3866C21.5955 41.1366 27.8455 42.3866 34.0955 43.6066V43.6266Z" fill="#FDD510"/>
<path d="M18.5056 12.9869C21.6856 13.3669 24.8456 13.8669 27.9956 14.4269L27.4656 11.9069C20.8556 10.6769 14.2056 9.74689 7.44556 9.78689L7.97556 12.3169C11.5156 12.3169 15.0256 12.5769 18.5056 12.9869Z" fill="#FDD510"/>
<path d="M25.3155 28.9968C25.6555 26.1168 27.3355 23.7168 29.6555 22.3568L29.4255 21.2368C28.9155 21.5168 28.4355 21.8268 27.9755 22.1868C25.9655 23.7768 24.5555 26.1268 24.2355 28.8668C23.9155 31.6168 24.7255 34.2268 26.3155 36.2368C27.9055 38.2468 30.2555 39.6568 32.9955 39.9768C33.1055 39.9868 33.2255 40.0068 33.3355 40.0068L33.1055 38.8868C28.2255 38.2968 24.7455 33.8768 25.3155 28.9868V28.9968Z" fill="#FDD510"/>
<path d="M15.1756 41.2369C14.7756 41.1869 14.3856 41.1469 13.9856 41.1069L14.4456 43.3069C21.2756 44.1369 28.0256 45.6069 34.7956 46.9869L34.2856 44.5169C27.9256 43.2869 21.5756 41.9969 15.1856 41.2469L15.1756 41.2369Z" fill="#FDD510"/>
<path d="M53.1657 18.8467C53.7157 18.9067 54.2657 18.9767 54.8057 19.0267L54.3457 16.8367C50.2257 16.3467 46.1257 15.6267 42.0457 14.8267L42.5357 17.1967C46.0657 17.8467 49.6057 18.4267 53.1557 18.8467H53.1657Z" fill="#FDD510"/>
<path d="M44.9156 28.5269L48.5856 46.0969C49.0356 46.1569 49.4856 46.2069 49.9356 46.2669C51.4856 46.4469 53.0456 46.6069 54.6056 46.7169C55.7056 44.6669 57.5156 43.0869 59.6656 42.2669L58.1556 35.0469C57.1756 36.5669 55.3856 37.4769 53.4756 37.2569C50.7956 36.9369 48.8756 34.5069 49.1956 31.8269C49.5156 29.1469 51.9456 27.2269 54.6256 27.5469C55.4156 27.6369 56.1356 27.9169 56.7556 28.3269L54.9956 19.8969C54.3556 19.8369 53.7156 19.7669 53.0756 19.6869C49.6156 19.2769 46.1656 18.7169 42.7356 18.0869L44.6256 27.1369C44.7556 27.5869 44.8456 28.0569 44.9156 28.5269Z" fill="#FDD510"/>
<path d="M49.8356 47.0968C49.4756 47.0568 49.1256 47.0068 48.7656 46.9668L49.2956 49.5268C53.2856 50.0368 57.2856 50.3468 61.3356 50.2968L60.8056 47.7768C57.1156 47.7968 53.4556 47.5368 49.8256 47.1068L49.8356 47.0968Z" fill="#FDD510"/>
<g opacity="0.31">
<path d="M66.4455 19.4669L65.9555 19.4869C62.2155 19.6069 58.4955 19.4169 54.8055 19.0369C54.2555 18.9769 53.7055 18.9169 53.1655 18.8569C49.6155 18.4369 46.0755 17.8569 42.5455 17.2069C37.6955 16.3169 32.8555 15.3069 27.9955 14.4469C24.8455 13.8869 21.6855 13.3769 18.5055 13.0069C15.0155 12.5969 11.5155 12.3369 7.9755 12.3369C7.1855 12.3369 6.3855 12.3369 5.5855 12.3669H5.2255L1.8855 40.6369L2.3755 40.6169C6.2755 40.4969 10.1355 40.7069 13.9855 41.1169C14.3855 41.1569 14.7755 41.2069 15.1755 41.2469C21.5655 41.9969 27.9155 43.2869 34.2755 44.5169C39.0855 45.4469 43.9055 46.3469 48.7555 46.9669C49.1155 47.0169 49.4655 47.0569 49.8255 47.0969C53.4555 47.5269 57.1155 47.7869 60.8055 47.7669C61.4555 47.7669 62.0955 47.7569 62.7455 47.7369H63.1055L63.1455 47.3669C63.6855 42.7969 64.2255 38.2269 64.7655 33.6569C65.3055 29.0869 65.8455 24.5169 66.3855 19.9469L66.4455 19.4669ZM4.2855 34.3469C4.0355 34.2069 3.7855 34.0669 3.5155 33.9469L5.2255 19.4569C5.5055 19.3969 5.7855 19.3269 6.0655 19.2469L4.2855 34.3469ZM61.3755 41.7769C60.7855 41.8869 60.2055 42.0469 59.6555 42.2569C57.5055 43.0769 55.6955 44.6569 54.5955 46.7069C53.0355 46.5969 51.4755 46.4469 49.9255 46.2569C49.4755 46.2069 49.0255 46.1469 48.5755 46.0869C43.7355 45.4569 38.9155 44.5469 34.0855 43.6169C27.8455 42.4069 21.5855 41.1469 15.2655 40.3969C14.7755 40.3369 14.2855 40.2869 13.8055 40.2369C12.0955 40.0569 10.3855 39.9169 8.6755 39.8369C8.0455 37.7969 6.7455 36.0269 5.0155 34.8069L6.8855 18.9669C7.6855 18.6469 8.4255 18.2269 9.1055 17.7169C10.5855 16.6069 11.7355 15.0769 12.3855 13.2869C14.3955 13.3969 16.4055 13.5869 18.4055 13.8269C21.6755 14.2169 24.9255 14.7369 28.1755 15.3269C33.0255 16.1969 37.8655 17.2069 42.7255 18.0969C46.1555 18.7169 49.5955 19.2869 53.0655 19.6969C53.7055 19.7769 54.3455 19.8469 54.9855 19.9069C55.8655 19.9969 56.7455 20.0769 57.6255 20.1369C58.2955 23.0969 60.3455 25.5969 63.1455 26.8269L62.3655 33.3969L61.3755 41.8069V41.7769ZM62.9855 41.6269C62.7155 41.6269 62.4355 41.6469 62.1655 41.6669C62.4855 38.9269 62.8155 36.1969 63.1355 33.4569C63.3855 31.3369 63.6355 29.2069 63.8855 27.0869C64.1455 27.1769 64.4055 27.2569 64.6755 27.3169L63.9355 33.5469L62.9855 41.6169V41.6269Z" fill="#96750C"/>
<path d="M44.6156 27.1368C44.2256 25.7368 43.5656 24.4468 42.6756 23.3268C40.9556 21.1468 38.4056 19.6268 35.4356 19.2768C33.2256 19.0168 31.0856 19.4368 29.2356 20.3868C28.6056 20.7068 28.0056 21.0968 27.4456 21.5368C25.2656 23.2568 23.7456 25.8068 23.3956 28.7768C23.0456 31.7468 23.9356 34.5868 25.6556 36.7668C27.3756 38.9468 29.9256 40.4668 32.8956 40.8168C33.1056 40.8368 33.3056 40.8568 33.5156 40.8768C36.2656 41.0468 38.8556 40.1668 40.8856 38.5668C43.0656 36.8468 44.5856 34.2968 44.9356 31.3268C45.0456 30.3768 45.0356 29.4468 44.9056 28.5368C44.8356 28.0668 44.7456 27.5968 44.6156 27.1468V27.1368ZM40.3656 37.8968C38.4356 39.4168 35.9556 40.2368 33.3356 40.0168C33.2256 40.0168 33.1056 39.9968 32.9956 39.9868C30.2456 39.6668 27.8956 38.2568 26.3156 36.2468C24.7256 34.2368 23.9056 31.6168 24.2356 28.8768C24.5556 26.1268 25.9656 23.7768 27.9756 22.1968C28.4256 21.8368 28.9156 21.5168 29.4256 21.2468C31.1756 20.2968 33.2256 19.8668 35.3556 20.1168C38.1056 20.4368 40.4556 21.8468 42.0356 23.8568C43.6256 25.8668 44.4456 28.4868 44.1156 31.2268C43.7956 33.9768 42.3856 36.3268 40.3756 37.9068L40.3656 37.8968Z" fill="#96750C"/>
<path d="M35.2154 21.1871C33.2054 20.9471 31.2754 21.3971 29.6554 22.3571C27.3354 23.7271 25.6554 26.1171 25.3154 28.9971C24.7354 33.8771 28.2254 38.3071 33.1054 38.8971C33.1054 38.8971 33.1154 38.8971 33.1254 38.8971C38.0154 39.4771 42.4454 35.9771 43.0254 31.0871C43.6054 26.1971 40.1054 21.7671 35.2154 21.1871Z" fill="#96750C"/>
<path d="M56.7555 28.3168C56.1355 27.9068 55.4155 27.6268 54.6255 27.5368C51.9455 27.2168 49.5155 29.1368 49.1955 31.8168C48.8755 34.4968 50.7955 36.9268 53.4755 37.2468C55.3955 37.4768 57.1755 36.5568 58.1555 35.0368C58.5455 34.4268 58.8055 33.7268 58.8955 32.9668C59.1155 31.0768 58.2355 29.3168 56.7555 28.3268V28.3168Z" fill="#96750C"/>
<path d="M14.7455 22.827C13.0955 22.627 11.5355 23.287 10.5055 24.447C9.86553 25.167 9.43553 26.077 9.31553 27.107C9.06553 29.257 10.2455 31.247 12.1055 32.107C12.5655 32.317 13.0655 32.467 13.5955 32.527C16.2755 32.847 18.7055 30.927 19.0255 28.247C19.3455 25.567 17.4255 23.137 14.7455 22.817V22.827Z" fill="#96750C"/>
</g>
<path opacity="0.91" d="M64.3456 13.2267C60.3156 12.2567 56.3356 11.0467 52.3656 9.7667C47.6556 8.2467 42.9656 6.6067 38.2356 5.1367C31.8156 3.1367 25.3256 1.4167 18.6056 0.646699C17.5756 0.526699 16.5356 0.436699 15.4956 0.366699L7.74561 32.5067C12.4556 32.8267 17.0456 33.6467 21.5656 34.7567C28.2456 36.3967 34.7756 38.6567 41.3256 40.8267C45.9956 42.3767 50.6756 43.8767 55.4256 45.0767C59.3256 46.0567 63.2656 46.8367 67.2956 47.2767C68.1756 47.3767 69.0656 47.4467 69.9556 47.5067C72.5356 36.7967 75.1256 26.0867 77.7056 15.3667C73.1556 15.0567 68.7156 14.2767 64.3356 13.2167L64.3456 13.2267Z" fill="#DFB108"/>
<path d="M41.0357 37.4165L40.7957 34.6165C40.5957 34.5765 40.3957 34.5365 40.1857 34.4865C37.2757 33.7865 34.9257 31.9665 33.4757 29.5965C32.0257 27.2265 31.4857 24.3065 32.1857 21.3965C32.8857 18.4865 34.7057 16.1365 37.0757 14.6865C37.6757 14.3165 38.3157 14.0065 38.9857 13.7565L38.5357 8.60654C35.3757 7.63654 32.2057 6.72654 29.0157 5.95654C27.0557 5.48654 25.0857 5.06654 23.0957 4.70654C22.2357 6.41654 20.9057 7.79654 19.3057 8.71654L19.8957 15.5665C21.0557 14.5365 22.6757 14.0665 24.2957 14.4565C26.9157 15.0865 28.5357 17.7265 27.8957 20.3565C27.2657 22.9765 24.6257 24.5965 21.9957 23.9565C21.4757 23.8265 20.9957 23.6265 20.5657 23.3565L21.2857 31.6365C21.7657 31.7465 22.2457 31.8565 22.7257 31.9765C28.9157 33.4665 34.9757 35.4665 41.0257 37.4065L41.0357 37.4165Z" fill="#FDD510"/>
<path d="M29.2055 5.14648C32.3155 5.89648 35.3955 6.77648 38.4555 7.70648L38.2355 5.14648C31.8155 3.13648 25.3255 1.41648 18.6055 0.646484L18.8255 3.21648C22.3355 3.64648 25.7855 4.31648 29.2055 5.13648V5.14648Z" fill="#FDD510"/>
<path d="M34.0656 21.8465C34.7456 19.0265 36.6956 16.8465 39.1656 15.7665L39.0656 14.6265C38.5256 14.8365 38.0056 15.0965 37.5156 15.3965C35.3256 16.7365 33.6556 18.8965 33.0056 21.5865C32.3556 24.2765 32.8556 26.9665 34.1956 29.1565C35.5356 31.3465 37.6956 33.0165 40.3856 33.6665C40.4956 33.6965 40.6056 33.7165 40.7156 33.7365L40.6156 32.5965C35.8356 31.4365 32.9056 26.6265 34.0556 21.8465H34.0656Z" fill="#FDD510"/>
<path d="M22.5355 32.7969C22.1455 32.7069 21.7655 32.6169 21.3755 32.5269L21.5655 34.7569C28.2455 36.3969 34.7755 38.6569 41.3255 40.8269L41.1055 38.3169C34.9355 36.3369 28.7855 34.3069 22.5255 32.7969H22.5355Z" fill="#FDD510"/>
<path d="M62.9255 15.0766C63.4655 15.2066 63.9955 15.3266 64.5355 15.4566L64.3455 13.2266C60.3155 12.2566 56.3355 11.0466 52.3655 9.7666L52.5755 12.1766C56.0055 13.2366 59.4455 14.2366 62.9255 15.0766Z" fill="#FDD510"/>
<path d="M53.5755 23.7067L55.1255 41.5867C55.5655 41.6967 56.0055 41.8067 56.4455 41.9167C57.9655 42.2867 59.4955 42.6167 61.0255 42.9167C62.3555 41.0067 64.3455 39.6567 66.5755 39.0967L65.9355 31.7467C64.7855 33.1367 62.8955 33.8367 61.0255 33.3767C58.4055 32.7467 56.7855 30.1067 57.4255 27.4767C58.0555 24.8567 60.6955 23.2367 63.3255 23.8767C64.0955 24.0667 64.7855 24.4267 65.3555 24.9067L64.6055 16.3267C63.9755 16.1867 63.3455 16.0367 62.7255 15.8867C59.3355 15.0667 55.9855 14.0967 52.6555 13.0767L53.4555 22.2867C53.5255 22.7567 53.5655 23.2267 53.5755 23.6967V23.7067Z" fill="#FDD510"/>
<path d="M56.2556 42.7366C55.9056 42.6566 55.5556 42.5666 55.2056 42.4766L55.4356 45.0766C59.3356 46.0566 63.2756 46.8366 67.3056 47.2766L67.0856 44.7066C63.4156 44.2866 59.8156 43.5866 56.2656 42.7366H56.2556Z" fill="#FDD510"/>
<g opacity="0.31">
<path d="M76.0355 17.2668L75.5555 17.2268C71.8255 16.8968 68.1655 16.2668 64.5355 15.4568C63.9955 15.3368 63.4555 15.2068 62.9255 15.0768C59.4455 14.2368 56.0055 13.2368 52.5755 12.1768C47.8655 10.7168 43.1855 9.14678 38.4555 7.70678C35.3955 6.77678 32.3155 5.89678 29.2055 5.14678C25.7955 4.32678 22.3455 3.65678 18.8255 3.22678C18.0355 3.12678 17.2455 3.04678 16.4455 2.97678L16.0855 2.94678L9.41553 30.6068L9.89553 30.6468C13.7855 30.9868 17.5955 31.6568 21.3655 32.5268C21.7555 32.6168 22.1455 32.7068 22.5255 32.7968C28.7855 34.3068 34.9355 36.3368 41.1055 38.3168C45.7655 39.8168 50.4455 41.2768 55.1955 42.4768C55.5455 42.5668 55.8955 42.6468 56.2455 42.7368C59.8055 43.5968 63.3955 44.2868 67.0655 44.7068C67.7055 44.7768 68.3455 44.8468 68.9955 44.9068L69.3555 44.9368L69.4355 44.5868C70.5155 40.1168 71.5955 35.6368 72.6755 31.1668C73.7555 26.6968 74.8355 22.2168 75.9155 17.7468L76.0255 17.2768L76.0355 17.2668ZM12.5555 24.6568C12.3255 24.4868 12.0855 24.3268 11.8455 24.1668L15.2655 9.97678C15.5555 9.95678 15.8355 9.91678 16.1255 9.86678L12.5655 24.6468L12.5555 24.6568ZM68.3555 38.8268C67.7555 38.8668 67.1655 38.9568 66.5955 39.0968C64.3555 39.6568 62.3755 41.0168 61.0455 42.9168C59.5055 42.6168 57.9855 42.2868 56.4655 41.9168C56.0255 41.8068 55.5855 41.6968 55.1455 41.5868C50.4055 40.3868 45.7355 38.9168 41.0555 37.4068C34.9955 35.4568 28.9455 33.4668 22.7555 31.9768C22.2755 31.8568 21.7955 31.7468 21.3155 31.6368C19.6455 31.2568 17.9655 30.9168 16.2655 30.6268C15.8855 28.5268 14.8055 26.6168 13.2255 25.1968L16.9655 9.68678C17.7955 9.46678 18.5855 9.13678 19.3155 8.71678C20.9155 7.79678 22.2455 6.41678 23.1055 4.70678C25.0955 5.05678 27.0655 5.47678 29.0255 5.95678C32.2255 6.72678 35.3955 7.63678 38.5455 8.60678C43.2555 10.0468 47.9455 11.6268 52.6655 13.0868C55.9955 14.1168 59.3455 15.0868 62.7355 15.8968C63.3655 16.0468 63.9855 16.1968 64.6155 16.3368C65.4755 16.5268 66.3355 16.7068 67.2055 16.8768C67.5155 19.8968 69.2555 22.6268 71.8855 24.1768L70.3355 30.6068C69.6755 33.3468 69.0155 36.0968 68.3555 38.8368V38.8268ZM69.9655 38.8668C69.6955 38.8368 69.4155 38.8168 69.1455 38.8168L71.0855 30.7868L72.5855 24.5568C72.8255 24.6768 73.0855 24.7868 73.3355 24.8768L71.8655 30.9768L69.9555 38.8768L69.9655 38.8668Z" fill="#96750C"/>
<path d="M53.4556 22.2967C53.2356 20.8667 52.7256 19.4967 51.9856 18.2867C50.5356 15.9167 48.1856 14.1067 45.2756 13.3967C43.1056 12.8767 40.9356 13.0467 38.9856 13.7567C38.3156 14.0067 37.6756 14.3167 37.0756 14.6867C34.7056 16.1367 32.8956 18.4867 32.1856 21.3967C31.4856 24.3067 32.0256 27.2267 33.4756 29.5967C34.9256 31.9667 37.2756 33.7767 40.1856 34.4867C40.3856 34.5367 40.5856 34.5767 40.7956 34.6167C43.5056 35.1067 46.1856 34.5467 48.3856 33.1967C50.7556 31.7467 52.5656 29.3967 53.2756 26.4867C53.4956 25.5567 53.5956 24.6267 53.5756 23.7167C53.5756 23.2367 53.5256 22.7667 53.4556 22.3067V22.2967ZM47.9456 32.4767C45.8456 33.7567 43.2856 34.2667 40.7156 33.7367C40.6056 33.7167 40.4956 33.6867 40.3856 33.6667C37.6956 33.0167 35.5356 31.3467 34.1956 29.1567C32.8556 26.9667 32.3556 24.2767 33.0056 21.5867C33.6556 18.8967 35.3256 16.7367 37.5156 15.3967C38.0056 15.0967 38.5256 14.8367 39.0656 14.6267C40.9156 13.8967 43.0056 13.7067 45.0856 14.2067C47.7756 14.8567 49.9356 16.5267 51.2756 18.7167C52.6156 20.9067 53.1156 23.5967 52.4656 26.2867C51.8156 28.9767 50.1456 31.1367 47.9556 32.4767H47.9456Z" fill="#96750C"/>
<path d="M44.8254 15.2669C42.8554 14.7969 40.8854 15.0069 39.1654 15.7669C36.6954 16.8469 34.7454 19.0269 34.0654 21.8469C32.9154 26.6269 35.8454 31.4369 40.6254 32.5969C40.6254 32.5969 40.6354 32.5969 40.6454 32.5969C45.4354 33.7469 50.2454 30.8069 51.4054 26.0169C52.5554 21.2269 49.6154 16.4169 44.8254 15.2569V15.2669Z" fill="#96750C"/>
<path d="M65.3556 24.917C64.7856 24.437 64.1056 24.067 63.3256 23.887C60.7056 23.257 58.0656 24.867 57.4256 27.487C56.7956 30.107 58.4056 32.747 61.0256 33.387C62.8956 33.837 64.7856 33.147 65.9356 31.757C66.3956 31.197 66.7356 30.537 66.9156 29.787C67.3656 27.937 66.6956 26.077 65.3356 24.927L65.3556 24.917Z" fill="#96750C"/>
<path d="M24.3056 14.4668C22.6856 14.0768 21.0656 14.5368 19.9056 15.5768C19.1856 16.2168 18.6556 17.0668 18.4156 18.0768C17.9056 20.1768 18.8456 22.2968 20.5856 23.3768C21.0156 23.6468 21.4956 23.8468 22.0156 23.9768C24.6356 24.6068 27.2756 22.9968 27.9156 20.3768C28.5456 17.7568 26.9356 15.1168 24.3156 14.4768L24.3056 14.4668Z" fill="#96750C"/>
</g>
<path d="M76.5657 10.0467L81.4557 11.0967L76.5657 12.1467L75.5157 17.0367L74.4657 12.1467L69.5757 11.0967L74.4657 10.0467L75.5157 5.15674L76.5657 10.0467Z" fill="white"/>
<path d="M70.4156 19.6966L74.0556 20.4766L70.4156 21.2566L69.6356 24.8866L68.8556 21.2566L65.2256 20.4766L68.8556 19.6966L69.6356 16.0566L70.4156 19.6966Z" fill="white"/>
</g>
<defs>
<clipPath id="clip0_1392_13429">
<rect width="81" height="49.93" fill="white" transform="translate(0.455566 0.366699)"/>
</clipPath>
</defs>
</svg>
