<svg width="49" height="36" viewBox="0 0 49 36" fill="none" xmlns="http://www.w3.org/2000/svg">
<path d="M47.8776 1.04179C47.5534 0.711681 47.1678 0.449667 46.7429 0.270862C46.3181 0.0920569 45.8623 0 45.4021 0C44.9418 0 44.4861 0.0920569 44.0612 0.270862C43.6363 0.449667 43.2507 0.711681 42.9266 1.04179L16.9515 27.3156L6.0385 16.2566C5.70197 15.9283 5.3047 15.67 4.86938 15.4967C4.43407 15.3235 3.96922 15.2385 3.50139 15.2466C3.03355 15.2548 2.5719 15.356 2.14277 15.5444C1.71365 15.7328 1.32546 16.0047 1.00038 16.3447C0.675295 16.6846 0.41968 17.0859 0.248126 17.5257C0.0765722 17.9654 -0.00756083 18.435 0.000533163 18.9075C0.00862716 19.3801 0.108789 19.8464 0.295299 20.2799C0.481809 20.7134 0.751014 21.1055 1.08754 21.4339L14.476 34.9582C14.8002 35.2883 15.1858 35.5503 15.6107 35.7291C16.0355 35.9079 16.4913 36 16.9515 36C17.4118 36 17.8675 35.9079 18.2924 35.7291C18.7173 35.5503 19.1029 35.2883 19.427 34.9582L47.8776 6.21906C48.2315 5.88926 48.5139 5.48898 48.7071 5.04346C48.9003 4.59793 49 4.11681 49 3.63043C49 3.14404 48.9003 2.66292 48.7071 2.21739C48.5139 1.77187 48.2315 1.37159 47.8776 1.04179Z" fill="#6775F4"/>
</svg>
