<svg width="17" height="17" viewBox="0 0 17 17" fill="none" xmlns="http://www.w3.org/2000/svg">
<path id="close x" fill-rule="evenodd" clip-rule="evenodd" d="M0.395402 0.395402C0.922617 -0.1318 1.77738 -0.1318 2.3046 0.395402L8.1 6.19082L13.8954 0.395402C14.4226 -0.1318 15.2774 -0.1318 15.8046 0.395402C16.3318 0.922617 16.3318 1.77738 15.8046 2.3046L10.0092 8.1L15.8046 13.8954C16.3318 14.4226 16.3318 15.2774 15.8046 15.8046C15.2774 16.3318 14.4226 16.3318 13.8954 15.8046L8.1 10.0092L2.3046 15.8046C1.77738 16.3318 0.922617 16.3318 0.395402 15.8046C-0.1318 15.2774 -0.1318 14.4226 0.395402 13.8954L6.19082 8.1L0.395402 2.3046C-0.1318 1.77738 -0.1318 0.922617 0.395402 0.395402Z" fill="#030942"/>
</svg>
