<svg width="22" height="16" viewBox="0 0 22 16" fill="none" xmlns="http://www.w3.org/2000/svg">
<path d="M18.8708 0.0253906H3.13665C1.89513 0.0253906 0.888916 1.03195 0.888916 2.27312V3.39699H21.1185V2.27312C21.1185 1.03195 20.1105 0.0253906 18.8708 0.0253906ZM0.888916 13.5118C0.888916 14.7529 1.89513 15.7595 3.13665 15.7595H18.8708C20.1123 15.7595 21.1185 14.7529 21.1185 13.5118V6.76858H0.888916V13.5118ZM7.6005 11.545C7.6005 11.3897 7.7263 11.264 7.88147 11.264H12.9073C13.0624 11.264 13.1882 11.3897 13.1882 11.545L13.2514 12.1069C13.2514 12.2621 13.1256 12.3879 12.9705 12.3879H7.91308C7.75854 12.3879 7.63211 12.2615 7.63211 12.1069L7.6005 11.545ZM3.10504 11.545C3.10504 11.3897 3.23084 11.264 3.386 11.264H6.19567C6.35083 11.264 6.47663 11.3897 6.47663 11.545L6.50824 12.1069C6.50824 12.2615 6.38181 12.3879 6.22728 12.3879H3.41761C3.26238 12.3879 3.13665 12.2615 3.13665 12.1069L3.10504 11.545Z" fill="#030942"/>
</svg>
