<svg width="43" height="40" viewBox="0 0 53 50" fill="none" xmlns="http://www.w3.org/2000/svg">
<g clip-path="url(#clip0_1392_12821)">
<path d="M41.7849 18.5015L26.5149 49.5615L11.2549 18.5015H41.7849Z" fill="#ACE4FF"/>
<path d="M11.2548 18.5014L0.654785 15.2314L26.5148 49.5614L11.2548 18.5014Z" fill="#D1F0FF"/>
<path d="M41.7849 18.5014L52.3749 15.2314L26.5149 49.5614L41.7849 18.5014Z" fill="#7ECCF2"/>
<path d="M35.8849 0.371582H26.5149H17.1449L11.2549 18.5016H26.5149H41.7849L35.8849 0.371582Z" fill="#D1F0FF"/>
<path d="M41.7848 18.5016L52.3748 15.2316L42.4948 0.371582H35.8848L41.7848 18.5016Z" fill="#ACE4FF"/>
<path d="M11.2548 18.5016L17.1448 0.371582H10.5348L0.654785 15.2316L11.2548 18.5016Z" fill="#ACE4FF"/>
<path d="M12.9049 17.3514L18.2749 18.5014L12.9049 19.6514L11.7549 25.0214L10.5949 19.6514L5.22485 18.5014L10.5949 17.3514L11.7549 11.9814L12.9049 17.3514Z" fill="white"/>
</g>
<defs>
<clipPath id="clip0_1392_12821">
<rect width="51.72" height="49.19" fill="white" transform="translate(0.654785 0.371582)"/>
</clipPath>
</defs>
</svg>
