<svg width="351" height="344" viewBox="0 0 351 344" fill="none" xmlns="http://www.w3.org/2000/svg">
<g clip-path="url(#clip0_3963_12939)">
<path opacity="0.64" d="M266.863 246.002C268.999 234.514 269.12 222.637 272.551 211.445C279.802 187.77 301.051 169.732 305.657 145.41C310.102 121.999 295.892 96.4242 273.673 87.844C265.635 84.7364 256.963 83.6994 248.674 81.3386C225.255 74.6568 206.094 57.7988 183.531 48.619C171.572 43.7567 157.962 41.1505 145.812 45.4715C134.623 49.4648 126.09 58.7872 120.262 69.1149C114.434 79.4426 110.926 90.8812 106.727 101.975C98.7274 123.06 87.378 143.945 68.8002 156.732C60.0884 162.731 49.8382 166.94 43.0274 175.048C38.7109 180.13 36.2768 186.244 35.1828 192.77C33.4727 203.159 43.2699 226.057 48.3196 234.994C51.6787 240.945 73.4036 262.938 85.1413 270.212C101.716 280.494 137.315 296.318 161.651 299.156L190.133 302.482C259.354 304.638 259.165 283.168 266.462 248.012C266.608 247.337 266.742 246.672 266.863 246.002Z" fill="#D7D9EF"/>
<path d="M253.86 223.423L265.508 196.604" stroke="#F2E9DA" stroke-width="1.3" stroke-miterlimit="10" stroke-linecap="round"/>
<path d="M242.785 226.322L248.699 212.705" stroke="#F2E9DA" stroke-width="1.3" stroke-miterlimit="10" stroke-linecap="round"/>
<path d="M215.193 238.603L224.914 216.222" stroke="#F2E9DA" stroke-width="1.3" stroke-miterlimit="10" stroke-linecap="round"/>
<path d="M242.743 213.733L250.394 196.119" stroke="#F2E9DA" stroke-width="1.3" stroke-miterlimit="10" stroke-linecap="round"/>
</g>
<path d="M107.143 52.3269C107.082 52.2204 106.983 52.1412 106.865 52.1055C106.72 52.0743 106.818 52.0833 106.782 52.0703L106.752 52.0243C106.729 51.993 106.703 51.9642 106.674 51.9382C106.608 51.8794 106.531 51.8333 106.448 51.8021C106.2 51.7364 105.957 51.6539 105.72 51.5553C105.141 51.2827 104.636 50.8745 104.248 50.3652C104.12 50.2007 104.002 50.0286 103.895 49.8496L103.731 49.562L103.53 49.1376C103.427 48.875 103.342 48.6057 103.276 48.3317C103.199 48.0275 103.109 47.7999 103.042 47.4128C102.971 47.0553 102.899 46.6948 102.827 46.3311C102.81 46.2089 102.787 46.2191 102.765 46.1968L102.699 46.1399L102.567 46.0258L102.438 45.9184L102.37 45.8888L102.243 45.8363L102.184 45.8132L102.169 45.8079C102.16 45.8048 102.114 45.8081 102.126 45.8089L102.097 45.8161C102.079 45.8163 101.978 45.8484 101.878 45.8782C101.788 45.936 101.702 46.0004 101.621 46.0708C101.569 46.1063 101.522 46.1486 101.481 46.1964L101.325 46.6418C101.263 47.4641 101.094 48.2748 100.822 49.0531C100.663 49.4231 100.639 49.4657 100.568 49.6052L100.361 49.9643C100.093 50.3991 99.7492 50.7824 99.346 51.0961C99.3018 51.1342 99.2545 51.1684 99.2045 51.1984L98.9807 51.3489C98.6875 51.49 98.3802 51.5995 98.0639 51.6756C97.9092 51.7164 97.7574 51.7669 97.6092 51.8269L97.2123 51.9853C97.0061 52.1046 96.8561 52.2505 96.8975 52.3126L96.8225 52.5251L96.8144 52.6137C96.8112 52.6796 96.8151 52.7457 96.8261 52.8108L96.896 52.9915L96.9243 53.0627L96.9406 53.1038L97.0476 53.1697C97.1998 53.2623 97.3803 53.3721 97.5972 53.5041C97.9282 53.5749 98.2498 53.6822 98.6517 53.7909C98.8295 53.8399 98.9971 53.9202 99.1467 54.0281L99.3443 54.1526C99.6511 54.377 99.9289 54.6386 100.171 54.9313C100.311 55.1049 100.44 55.2875 100.556 55.4778C100.734 55.7573 100.883 56.0553 100.998 56.3665C101.355 57.2527 101.462 58.9631 101.946 59.1493C101.975 59.2089 102.021 59.2587 102.078 59.293C102.135 59.3272 102.201 59.3444 102.268 59.3425C102.45 59.341 102.773 59.4269 103.006 58.2741C103.212 57.252 103.286 56.7107 103.463 56.1204C103.589 55.8097 103.64 55.7212 103.69 55.6066L103.871 55.2849C104.061 54.9618 104.293 54.6653 104.562 54.4031C105.225 53.8528 105.986 53.434 106.806 53.1694C106.829 53.1309 106.753 52.9353 106.86 52.9439C106.927 52.9337 106.99 52.9071 107.043 52.8666C107.097 52.826 107.14 52.7728 107.168 52.7116C107.196 52.6505 107.209 52.5833 107.204 52.5162C107.2 52.449 107.179 52.384 107.143 52.3269Z" fill="#6775F4"/>
<path d="M237.694 72.9575C237.633 72.851 237.534 72.7718 237.416 72.7361C237.27 72.7049 237.369 72.7139 237.333 72.7009L237.303 72.655C237.28 72.6236 237.254 72.5948 237.225 72.5688C237.158 72.51 237.082 72.4639 236.999 72.4327C236.751 72.367 236.508 72.2845 236.271 72.1859C235.691 71.9133 235.186 71.5051 234.799 70.9958C234.671 70.8314 234.553 70.6592 234.446 70.4803L234.281 70.1926L234.08 69.7682C233.978 69.5056 233.893 69.2363 233.826 68.9623C233.75 68.6581 233.66 68.4305 233.593 68.0434C233.522 67.686 233.45 67.3254 233.377 66.9617C233.361 66.8395 233.337 66.8497 233.316 66.8274L233.25 66.7705L233.118 66.6564L232.989 66.549L232.92 66.5194L232.794 66.4669L232.735 66.4438L232.72 66.4385C232.711 66.4354 232.665 66.4387 232.677 66.4395L232.647 66.4467C232.63 66.447 232.529 66.479 232.429 66.5088C232.339 66.5666 232.253 66.631 232.172 66.7014C232.12 66.7369 232.073 66.7792 232.032 66.8271L231.876 67.2724C231.814 68.0947 231.645 68.9054 231.373 69.6837C231.214 70.0537 231.19 70.0963 231.118 70.2358L230.912 70.595C230.644 71.0297 230.3 71.413 229.897 71.7268C229.853 71.7648 229.805 71.799 229.755 71.829L229.531 71.9795C229.238 72.1206 228.931 72.2301 228.615 72.3062C228.46 72.347 228.308 72.3975 228.16 72.4575L227.763 72.6159C227.557 72.7352 227.407 72.8812 227.448 72.9432L227.373 73.1557L227.365 73.2443C227.362 73.3102 227.366 73.3763 227.377 73.4414L227.447 73.6221L227.475 73.6933L227.491 73.7344L227.598 73.8003C227.751 73.8929 227.931 74.0027 228.148 74.1347C228.479 74.2056 228.801 74.3128 229.203 74.4215C229.38 74.4705 229.548 74.5508 229.697 74.6587L229.895 74.7832C230.202 75.0076 230.48 75.2692 230.722 75.5619C230.862 75.7356 230.99 75.9181 231.106 76.1084C231.285 76.388 231.433 76.6859 231.548 76.9971C231.906 77.8833 232.013 79.5937 232.496 79.7799C232.526 79.8395 232.572 79.8894 232.629 79.9236C232.686 79.9578 232.752 79.975 232.818 79.9731C233.001 79.9716 233.324 80.0575 233.557 78.9047C233.763 77.8826 233.837 77.3414 234.013 76.7511C234.14 76.4403 234.191 76.3518 234.241 76.2372L234.421 75.9155C234.612 75.5924 234.844 75.2959 235.113 75.0337C235.775 74.4834 236.537 74.0646 237.357 73.8C237.38 73.7616 237.304 73.5659 237.411 73.5745C237.478 73.5643 237.541 73.5377 237.594 73.4972C237.648 73.4567 237.691 73.4034 237.719 73.3423C237.747 73.2811 237.759 73.2139 237.755 73.1468C237.751 73.0796 237.73 73.0146 237.694 72.9575Z" fill="#6775F4"/>
<path d="M99.4833 62.8195C99.4496 62.8078 99.4149 62.7991 99.3796 62.7935L99.3708 62.7868L99.2898 62.7327C99.2218 62.6924 99.1512 62.6566 99.0784 62.6256C98.8817 62.5434 98.6785 62.4778 98.4709 62.4296C96.9965 62.1073 95.6176 61.4456 94.4438 60.497C91.8079 58.1842 90.1058 54.9897 89.6564 51.512C89.5638 51.0118 89.4968 50.5071 89.4558 50L89.4187 49.6167L89.3999 49.4247L89.3905 49.3286L89.3881 49.3047C89.3832 49.2355 89.3706 49.1671 89.3507 49.1007C89.3037 48.9407 89.2098 48.7985 89.0811 48.6924C88.9524 48.5863 88.7949 48.5212 88.6289 48.5056C88.4628 48.4899 88.2959 48.5244 88.1496 48.6046C88.0034 48.6848 87.8846 48.807 87.8085 48.9554C87.75 49.0719 87.7166 49.1993 87.7104 49.3295L87.7027 49.4178C87.623 49.4229 87.6316 49.423 87.7027 49.4178L87.702 49.4258L87.6852 49.6187L87.6518 50.0049C87.5694 51.0364 87.4056 52.0597 87.1617 53.0654C86.709 55.0136 85.8818 56.8551 84.726 58.4875C83.6999 59.9087 82.3401 61.0559 80.7663 61.828L79.9692 62.1494C79.5825 62.2908 79.0474 62.4005 78.7589 62.5274L77.7579 62.8884L77.2712 63.064C77.189 63.1085 77.2326 63.131 77.2074 63.1652L77.155 63.3492L77.1297 63.4382C77.126 63.4748 77.1246 63.5116 77.1255 63.5485C77.1239 63.5716 77.1273 63.5948 77.1356 63.6164L77.2349 63.9409C77.4539 64.1076 77.6837 64.2596 77.9228 64.3961C78.7493 64.488 79.5613 64.6819 80.3401 64.9735L80.6941 65.1078C80.793 65.1437 80.8888 65.1877 80.9806 65.2392L81.5882 65.5466C82.5384 66.0961 83.4012 66.7844 84.148 67.5889C85.9048 69.6164 87.1029 72.0667 87.6242 74.6983C87.778 75.4265 87.893 76.1623 87.9685 76.9027L88.0285 77.4564L88.0359 77.5255C88.0403 77.5862 88.0505 77.6463 88.0665 77.705C88.1069 77.8551 88.1934 77.9887 88.3138 78.087C88.4342 78.1853 88.5824 78.2433 88.7376 78.2528C88.8927 78.2623 89.0469 78.2228 89.1784 78.14C89.3099 78.0571 89.4121 77.9351 89.4705 77.791C89.505 77.7055 89.525 77.6148 89.5298 77.5226L89.5324 77.488L89.5535 77.2119L89.6381 76.1157C89.7948 74.7414 90.0947 73.3873 90.5327 72.0753C91.1484 70.1792 92.1864 68.4476 93.5687 67.011C94.7013 65.8465 96.0976 64.9718 97.6397 64.4609C98.6799 64.1078 99.2859 64.0702 99.3905 63.959C99.4534 63.9134 99.334 63.7267 99.4609 63.728C99.5754 63.7045 99.6762 63.6372 99.7417 63.5404C99.8073 63.4437 99.8325 63.3252 99.8119 63.2101C99.7959 63.1052 99.7457 63.0084 99.6692 62.9348C99.616 62.8836 99.5527 62.8444 99.4833 62.8195Z" fill="#6775F4"/>
<path d="M284.101 225.908C284.041 225.804 283.944 225.726 283.828 225.691C283.686 225.661 283.782 225.67 283.747 225.657L283.718 225.612C283.695 225.581 283.669 225.553 283.641 225.528C283.576 225.47 283.501 225.425 283.42 225.394C283.177 225.33 282.939 225.249 282.707 225.153C282.139 224.886 281.645 224.486 281.265 223.987C281.14 223.826 281.024 223.657 280.92 223.482L280.758 223.2L280.562 222.785C280.461 222.528 280.378 222.264 280.313 221.996C280.238 221.698 280.149 221.475 280.085 221.096C280.015 220.746 279.944 220.392 279.873 220.036C279.857 219.917 279.834 219.927 279.813 219.905L279.748 219.849L279.619 219.737L279.493 219.632L279.426 219.603L279.301 219.552L279.244 219.529L279.229 219.524C279.22 219.521 279.175 219.524 279.187 219.525L279.158 219.532C279.141 219.532 279.042 219.564 278.944 219.593C278.856 219.649 278.772 219.712 278.693 219.781C278.642 219.816 278.596 219.858 278.555 219.904L278.402 220.341C278.342 221.146 278.177 221.94 277.91 222.702C277.754 223.064 277.731 223.106 277.661 223.243L277.459 223.594C277.196 224.02 276.859 224.396 276.464 224.703C276.421 224.74 276.375 224.774 276.326 224.803L276.107 224.95C275.82 225.089 275.519 225.196 275.209 225.27C275.057 225.31 274.909 225.36 274.763 225.419L274.375 225.574C274.173 225.691 274.026 225.833 274.066 225.894L273.993 226.102L273.985 226.189C273.982 226.254 273.986 226.318 273.997 226.382L274.065 226.559L274.093 226.629L274.109 226.669L274.213 226.734C274.363 226.824 274.539 226.932 274.752 227.061C275.076 227.131 275.391 227.236 275.784 227.342C275.959 227.39 276.123 227.469 276.269 227.574L276.463 227.696C276.763 227.916 277.035 228.172 277.273 228.459C277.41 228.629 277.535 228.808 277.649 228.994C277.824 229.268 277.969 229.56 278.082 229.864C278.432 230.732 278.537 232.407 279.01 232.59C279.039 232.648 279.085 232.697 279.14 232.73C279.196 232.764 279.261 232.781 279.326 232.779C279.505 232.778 279.821 232.862 280.049 231.733C280.251 230.732 280.323 230.202 280.496 229.623C280.62 229.319 280.67 229.232 280.719 229.12L280.896 228.805C281.082 228.489 281.31 228.198 281.572 227.942C282.222 227.403 282.968 226.993 283.771 226.733C283.793 226.696 283.719 226.504 283.824 226.513C283.889 226.503 283.95 226.477 284.003 226.437C284.055 226.397 284.097 226.345 284.125 226.285C284.152 226.225 284.165 226.159 284.16 226.094C284.156 226.028 284.136 225.964 284.101 225.908Z" fill="#6775F4"/>
<path d="M276.599 236.184C276.566 236.173 276.532 236.164 276.498 236.159L276.489 236.152L276.41 236.099C276.343 236.06 276.274 236.025 276.203 235.994C276.01 235.914 275.811 235.85 275.608 235.802C274.164 235.487 272.813 234.839 271.664 233.91C269.082 231.645 267.415 228.516 266.975 225.11C266.884 224.62 266.819 224.126 266.779 223.629L266.742 223.254L266.724 223.066L266.715 222.972L266.712 222.949C266.708 222.881 266.695 222.814 266.676 222.749C266.63 222.592 266.538 222.453 266.412 222.349C266.286 222.245 266.131 222.181 265.969 222.166C265.806 222.151 265.643 222.184 265.5 222.263C265.356 222.341 265.24 222.461 265.165 222.606C265.108 222.721 265.075 222.845 265.069 222.973L265.062 223.059C264.984 223.064 264.992 223.064 265.062 223.059L265.061 223.067L265.045 223.256L265.012 223.634C264.931 224.644 264.771 225.647 264.532 226.632C264.089 228.54 263.278 230.343 262.147 231.942C261.142 233.334 259.81 234.457 258.269 235.213L257.488 235.528C257.109 235.667 256.585 235.774 256.303 235.898L255.322 236.252L254.846 236.424C254.765 236.467 254.808 236.489 254.783 236.523L254.732 236.703L254.707 236.79C254.704 236.826 254.702 236.862 254.703 236.898C254.701 236.921 254.705 236.944 254.713 236.965L254.81 237.282C255.025 237.446 255.25 237.595 255.484 237.728C256.293 237.818 257.088 238.008 257.851 238.294L258.198 238.425C258.295 238.461 258.389 238.504 258.478 238.554L259.074 238.855C260.004 239.393 260.849 240.067 261.58 240.855C263.301 242.841 264.474 245.241 264.985 247.818C265.136 248.531 265.248 249.252 265.322 249.977L265.381 250.519L265.388 250.587C265.392 250.646 265.402 250.705 265.418 250.762C265.458 250.909 265.542 251.04 265.66 251.137C265.778 251.233 265.923 251.29 266.075 251.299C266.227 251.308 266.378 251.27 266.507 251.188C266.636 251.107 266.736 250.988 266.793 250.847C266.827 250.763 266.846 250.674 266.851 250.584L266.854 250.55L266.874 250.279L266.957 249.206C267.111 247.86 267.404 246.534 267.833 245.249C268.436 243.392 269.453 241.696 270.807 240.289C271.916 239.149 273.283 238.292 274.794 237.792C275.812 237.446 276.406 237.409 276.508 237.3C276.57 237.256 276.453 237.073 276.577 237.074C276.689 237.051 276.788 236.985 276.852 236.89C276.916 236.796 276.941 236.679 276.921 236.567C276.905 236.464 276.856 236.369 276.781 236.297C276.729 236.247 276.667 236.209 276.599 236.184Z" fill="#6775F4"/>
<g clip-path="url(#clip1_3963_12939)">
<path d="M217.895 152.001L178.627 232.824L139.386 152.001H217.895Z" fill="#ACE4FF"/>
<path d="M139.385 152.001L112.127 143.492L178.627 232.824L139.385 152.001Z" fill="#D1F0FF"/>
<path d="M217.894 152.001L245.127 143.492L178.627 232.824L217.894 152.001Z" fill="#7ECCF2"/>
<path d="M202.723 104.824H178.627H154.532L139.386 152.002H178.627H217.895L202.723 104.824Z" fill="#D1F0FF"/>
<path d="M217.895 152.002L245.127 143.492L219.721 104.824H202.723L217.895 152.002Z" fill="#ACE4FF"/>
<path d="M139.385 152.002L154.532 104.824H137.534L112.127 143.492L139.385 152.002Z" fill="#ACE4FF"/>
<path d="M143.628 149.009L157.437 152.001L143.628 154.994L140.671 168.968L137.688 154.994L123.879 152.001L137.688 149.009L140.671 135.035L143.628 149.009Z" fill="white"/>
</g>
<defs>
<clipPath id="clip0_3963_12939">
<rect width="270" height="256" fill="white" transform="translate(102.802 0.814941) rotate(23.4766)"/>
</clipPath>
<clipPath id="clip1_3963_12939">
<rect width="133" height="128" fill="white" transform="translate(112.127 104.824)"/>
</clipPath>
</defs>
</svg>
