<svg width="14" height="14" viewBox="0 0 14 14" fill="none" xmlns="http://www.w3.org/2000/svg">
<path d="M8.49207 2.1287L11.8377 5.4743L5.00541 12.3072C4.83108 12.4814 4.62135 12.6154 4.39111 12.7002L4.25063 12.7452L0.803901 13.6852C0.509299 13.7655 0.23724 13.5202 0.269157 13.2308L0.282052 13.1633L1.22207 9.71661C1.28693 9.47869 1.40259 9.25838 1.56041 9.07053L1.66008 8.96181L8.49207 2.1287ZM9.82504 0.796845C10.7488 -0.126943 12.2466 -0.126943 13.1704 0.796845C14.0557 1.68214 14.0925 3.09457 13.2811 4.02379L13.1704 4.14216L12.4386 4.87335L9.09302 1.52775L9.82504 0.796845Z" fill="#6775F4"/>
</svg>
