<svg width="33" height="34" viewBox="0 0 33 34" fill="none" xmlns="http://www.w3.org/2000/svg">
<g filter="url(#filter0_dddd_1189_28912)">
<path d="M29.8294 2.50394C29.4984 1.78394 28.7974 1.33594 28.0004 1.33594H4.02838C3.23138 1.33594 2.53038 1.78394 2.19838 2.50394C1.86938 3.21794 1.98338 4.03394 2.49538 4.63194L2.49638 4.63294L12.0144 15.7069V24.3359C12.0144 24.7049 12.2174 25.0439 12.5424 25.2179C12.6904 25.2969 12.8524 25.3359 13.0144 25.3359C13.2084 25.3359 13.4014 25.2789 13.5694 25.1679L19.5694 21.1679C19.8474 20.9819 20.0144 20.6699 20.0144 20.3359V15.7069L29.5334 4.63294C30.0454 4.03394 30.1594 3.21794 29.8294 2.50394Z" fill="#6775F4"/>
</g>
<defs>
<filter id="filter0_dddd_1189_28912" x="0.0127563" y="0.335938" width="32.003" height="33" filterUnits="userSpaceOnUse" color-interpolation-filters="sRGB">
<feFlood flood-opacity="0" result="BackgroundImageFix"/>
<feColorMatrix in="SourceAlpha" type="matrix" values="0 0 0 0 0 0 0 0 0 0 0 0 0 0 0 0 0 0 127 0" result="hardAlpha"/>
<feOffset/>
<feGaussianBlur stdDeviation="0.5"/>
<feColorMatrix type="matrix" values="0 0 0 0 0.403922 0 0 0 0 0.458824 0 0 0 0 0.956863 0 0 0 0.2 0"/>
<feBlend mode="normal" in2="BackgroundImageFix" result="effect1_dropShadow_1189_28912"/>
<feColorMatrix in="SourceAlpha" type="matrix" values="0 0 0 0 0 0 0 0 0 0 0 0 0 0 0 0 0 0 127 0" result="hardAlpha"/>
<feOffset dy="1"/>
<feGaussianBlur stdDeviation="0.5"/>
<feColorMatrix type="matrix" values="0 0 0 0 0.403922 0 0 0 0 0.458824 0 0 0 0 0.956863 0 0 0 0.17 0"/>
<feBlend mode="normal" in2="effect1_dropShadow_1189_28912" result="effect2_dropShadow_1189_28912"/>
<feColorMatrix in="SourceAlpha" type="matrix" values="0 0 0 0 0 0 0 0 0 0 0 0 0 0 0 0 0 0 127 0" result="hardAlpha"/>
<feOffset dy="3"/>
<feGaussianBlur stdDeviation="1"/>
<feColorMatrix type="matrix" values="0 0 0 0 0.403922 0 0 0 0 0.458824 0 0 0 0 0.956863 0 0 0 0.1 0"/>
<feBlend mode="normal" in2="effect2_dropShadow_1189_28912" result="effect3_dropShadow_1189_28912"/>
<feColorMatrix in="SourceAlpha" type="matrix" values="0 0 0 0 0 0 0 0 0 0 0 0 0 0 0 0 0 0 127 0" result="hardAlpha"/>
<feOffset dy="6"/>
<feGaussianBlur stdDeviation="1"/>
<feColorMatrix type="matrix" values="0 0 0 0 0.403922 0 0 0 0 0.458824 0 0 0 0 0.956863 0 0 0 0.03 0"/>
<feBlend mode="normal" in2="effect3_dropShadow_1189_28912" result="effect4_dropShadow_1189_28912"/>
<feBlend mode="normal" in="SourceGraphic" in2="effect4_dropShadow_1189_28912" result="shape"/>
</filter>
</defs>
</svg>
