<svg width="22" height="23" viewBox="0 0 22 23" fill="none" xmlns="http://www.w3.org/2000/svg">
<path d="M19.7168 11.162C19.7172 13.0489 19.1834 14.8936 18.1829 16.4626C17.1824 18.0317 15.7602 19.2546 14.0961 19.9767C12.4321 20.6989 10.601 20.8878 8.83448 20.5196C7.06795 20.1513 5.44534 19.2425 4.17191 17.9081C3.3238 17.0242 2.65148 15.9728 2.19385 14.8148C1.73623 13.6568 1.5024 12.4153 1.5059 11.162H2.73309C2.73309 15.7128 6.2674 19.4154 10.6114 19.4154C14.9553 19.4154 18.4896 15.7128 18.4896 11.162C18.4896 6.61117 14.9553 2.90855 10.6114 2.90855C9.54068 2.90853 8.48126 3.13748 7.49798 3.58138C6.5147 4.02528 5.62827 4.67478 4.89297 5.49011H7.2891V6.77574H2.98246V2.26746H4.21006V4.38582C5.48665 3.06177 7.10866 2.16304 8.87184 1.8028C10.635 1.44257 12.4605 1.63693 14.1185 2.36142C15.7764 3.08592 17.1927 4.30814 18.1889 5.87418C19.1851 7.44022 19.7167 9.28005 19.7168 11.162ZM10.3653 6.13464V12.1932H15.4102V10.9042H11.5957V6.13464H10.3653Z" fill="#6775F4"/>
</svg>
