<svg width="50" height="59" viewBox="0 0 50 59" fill="none" xmlns="http://www.w3.org/2000/svg">
<g clip-path="url(#clip0_1392_12968)">
<path d="M24.5878 58.8847C34.9402 58.8847 43.3325 58.6521 43.3325 58.3652C43.3325 58.0783 34.9402 57.8457 24.5878 57.8457C14.2353 57.8457 5.84302 58.0783 5.84302 58.3652C5.84302 58.6521 14.2353 58.8847 24.5878 58.8847Z" fill="#D8DFEA"/>
<path d="M49.0235 9.89368V14.9619C49.0235 23.1915 42.2522 29.869 33.8991 29.869H31.7834L34.1306 27.4806C41.0304 27.3602 46.5992 21.7914 46.5992 14.9619V11.0847H37.5258L37.8281 8.70264H47.8081C48.4769 8.70264 49.017 9.2348 49.017 9.89368H49.0235Z" fill="#FFCC0A"/>
<path d="M32.3878 44.2313V46.8668H16.6589V44.2313C16.6589 44.0159 16.7747 43.8195 16.9676 43.7118L18.1572 43.053C20.2214 41.9063 21.4946 39.7586 21.4946 37.4209V34.6396H27.5457V37.4209C27.5457 39.7523 28.8189 41.9063 30.8831 43.053L32.0727 43.7118C32.2656 43.8132 32.3814 44.0159 32.3814 44.2313H32.3878Z" fill="#FFCC0A"/>
<path d="M32.3879 44.2313V46.8668H30.8767V44.2313C30.8767 44.0159 30.761 43.8195 30.5681 43.7118L29.3784 43.053C27.3142 41.9063 26.041 39.7586 26.041 37.4209V34.6396H27.5522V37.4209C27.5522 39.7523 28.8254 41.9063 30.8896 43.053L32.0792 43.7118C32.2721 43.8132 32.3879 44.0159 32.3879 44.2313Z" fill="#B7791D"/>
<path d="M29.3656 32.3145V34.044C29.3656 34.8676 28.6904 35.5328 27.8544 35.5328H21.1989C20.3629 35.5328 19.6877 34.8676 19.6877 34.044V32.3145H29.3656Z" fill="#FFCC0A"/>
<path d="M27.5523 35.5327H21.5012V36.407H27.5523V35.5327Z" fill="#B7791D"/>
<path d="M34.8058 46.265V56.6993H14.2412V46.265C14.2412 45.9355 14.5113 45.6694 14.8457 45.6694H34.2013C34.5357 45.6694 34.8058 45.9355 34.8058 46.265Z" fill="#6775F4"/>
<path d="M34.8058 46.265V56.6993H33.5969V46.265C33.5969 45.9355 33.3268 45.6694 32.9924 45.6694H34.2014C34.5357 45.6694 34.8058 45.9355 34.8058 46.265Z" fill="#2F428E"/>
<path d="M36.0147 55.8057H13.0258C12.692 55.8057 12.4214 56.0723 12.4214 56.4012V57.5922C12.4214 57.9211 12.692 58.1877 13.0258 58.1877H36.0147C36.3485 58.1877 36.6192 57.9211 36.6192 57.5922V56.4012C36.6192 56.0723 36.3485 55.8057 36.0147 55.8057Z" fill="#4359DD"/>
<path d="M36.619 56.4075V57.5986C36.619 57.928 36.349 58.1941 36.0146 58.1941H34.8057C35.14 58.1941 35.4101 57.928 35.4101 57.5986V56.4075C35.4101 56.0781 35.14 55.812 34.8057 55.812H36.0146C36.349 55.812 36.619 56.0781 36.619 56.4075Z" fill="#2F428E"/>
<path d="M31.1789 48.0576H17.8679C17.5341 48.0576 17.2634 48.3242 17.2634 48.6531V52.8281C17.2634 53.157 17.5341 53.4236 17.8679 53.4236H31.1789C31.5127 53.4236 31.7834 53.157 31.7834 52.8281V48.6531C31.7834 48.3242 31.5127 48.0576 31.1789 48.0576Z" fill="#FFCC0A"/>
<path d="M29.3656 32.3145V34.044C29.3656 34.8676 28.6904 35.5328 27.8544 35.5328H26.6455C27.4815 35.5328 28.1567 34.8676 28.1567 34.044V32.3145H29.3656Z" fill="#B7791D"/>
<path d="M18.1702 29.869H15.1478C6.7947 29.869 0.0234375 23.1915 0.0234375 14.9619V9.89368C0.0234375 9.2348 0.563595 8.70264 1.23236 8.70264H11.2124V11.0847H2.44129V14.9619C2.44129 21.7914 8.01005 27.3602 14.9099 27.4806L18.1702 29.869Z" fill="#FFCC0A"/>
<path d="M39.3455 6.31396V7.50501C39.3455 21.9939 32.7093 33.7396 24.5234 33.7396C16.3374 33.7396 9.70117 22.0003 9.70117 7.50501V6.31396H39.3455Z" fill="#FFCC0A"/>
<path d="M9.83623 11.0847H8.62731C8.56943 10.2991 8.52442 9.50722 8.50513 8.70264H9.71405C9.73334 9.50722 9.77193 10.3055 9.83623 11.0847Z" fill="#B7791D"/>
<path d="M16.7684 29.8687H15.5595C14.8843 29.1338 14.2413 28.3039 13.6497 27.3916C14.0676 27.4423 14.4856 27.4676 14.9165 27.4803C15.4952 28.3609 16.1189 29.1592 16.7684 29.8687Z" fill="#B7791D"/>
<path d="M29.3657 32.3145V32.91C27.8481 33.8349 26.2212 34.3418 24.5235 34.3418C22.8259 34.3418 21.2054 33.8349 19.6814 32.91V32.3145C21.199 33.2394 22.8259 33.7462 24.5235 33.7462C26.2212 33.7462 27.8416 33.2394 29.3657 32.3145Z" fill="#B7791D"/>
<path d="M39.3455 6.31396V7.50501C39.3455 21.5441 33.1209 33.0047 25.2886 33.708C32.8958 32.9984 35.7188 21.5314 35.7188 7.50501V6.31396H39.3455Z" fill="#B7791D"/>
<path d="M40.8569 6.01615C40.8569 6.42794 40.6897 6.80173 40.4132 7.07415C40.1366 7.34023 39.7572 7.51129 39.3393 7.51129H9.70134C8.86538 7.51129 8.19019 6.84608 8.19019 6.02248C8.19019 5.61069 8.35738 5.2369 8.63389 4.96448C8.9104 4.6984 9.28979 4.52734 9.70777 4.52734H39.3521C40.1881 4.52734 40.8633 5.19255 40.8633 6.01615H40.8569Z" fill="#FFCC0A"/>
<path d="M39.3457 7.50537C39.3457 7.9045 39.3457 8.30362 39.3328 8.69641H9.72062C9.71419 8.29729 9.70776 7.9045 9.70776 7.50537H39.3521H39.3457Z" fill="#B7791D"/>
<path d="M40.8568 6.01615C40.8568 6.42794 40.6896 6.80173 40.4131 7.07415C40.1366 7.34023 39.7572 7.51129 39.3392 7.51129H36.0146C36.4326 7.51129 36.812 7.34657 37.0885 7.07415C37.3586 6.80173 37.5322 6.42794 37.5322 6.01615C37.5322 5.19255 36.857 4.52734 36.0211 4.52734H39.3456C40.1816 4.52734 40.8568 5.19255 40.8568 6.01615Z" fill="#B7791D"/>
<path d="M31.7834 48.6531V52.8281C31.7834 53.1576 31.5134 53.4236 31.179 53.4236H19.1733C21.6169 53.373 29.6678 52.8661 29.6678 48.0576H31.179C31.5134 48.0576 31.7834 48.3237 31.7834 48.6531Z" fill="#B7791D"/>
<path opacity="0.6" d="M17.868 51.3332V48.8941C17.868 48.761 17.9773 48.6533 18.1124 48.6533H23.5332C23.5332 48.6533 19.2248 49.1031 17.8616 51.3395L17.868 51.3332Z" fill="#FFE388"/>
<path d="M14.9227 48.9508V46.5117C14.9227 46.3787 15.032 46.271 15.167 46.271H20.5879C20.5879 46.271 16.2795 46.7208 14.9163 48.9572L14.9227 48.9508Z" fill="#4D5BAD"/>
<path opacity="0.6" d="M24.5234 32.8528C21.2374 32.8528 12.1255 26.0233 11.0259 9.89355H14.6205C15.5272 29.6281 24.5234 32.8528 24.5234 32.8528Z" fill="#FFE388"/>
<path opacity="0.6" d="M18.1702 44.478C18.1702 44.478 22.4078 41.7918 22.4078 37.9209V44.478H18.1702Z" fill="#FFE388"/>
<path d="M10.3058 5.12305V6.01633H8.79468C8.79468 5.52217 9.1998 5.12305 9.70137 5.12305H10.3058Z" fill="#FFCC66"/>
<path d="M40.2394 8.70264C40.2202 9.50722 40.1816 10.3055 40.1173 11.0847H37.5322L37.8345 8.70264H40.2394Z" fill="#B7791D"/>
<path d="M35.0758 27.4297C34.4842 28.3293 33.8541 29.1466 33.1853 29.8688H31.7834L32.8573 28.7854L34.137 27.4804C34.4521 27.4804 34.7672 27.455 35.0823 27.4297H35.0758Z" fill="#B7791D"/>
<path d="M13.791 3.98274L16.9355 4.64796L13.791 5.31317L13.1158 8.41114L12.4406 5.31317L9.29614 4.64796L12.4406 3.98274L13.1158 0.884766L13.791 3.98274Z" fill="white"/>
<path d="M9.83618 10.0961L12.1769 10.5903L9.83618 11.0844L9.33461 13.3842L8.83303 11.0844L6.49878 10.5903L8.83303 10.0961L9.33461 7.79639L9.83618 10.0961Z" fill="white"/>
</g>
<defs>
<clipPath id="clip0_1392_12968">
<rect width="49" height="58" fill="white" transform="translate(0.0234375 0.884766)"/>
</clipPath>
</defs>
</svg>
