<svg width="351" height="344" viewBox="0 0 351 344" fill="none" xmlns="http://www.w3.org/2000/svg">
<g clip-path="url(#clip0_3963_12408)">
<path opacity="0.64" d="M266.481 246.002C268.616 234.514 268.738 222.637 272.168 211.445C279.419 187.77 300.669 169.732 305.274 145.41C309.719 121.999 295.509 96.4242 273.291 87.844C265.252 84.7364 256.58 83.6994 248.291 81.3386C224.872 74.6568 205.711 57.7988 183.149 48.619C171.189 43.7567 157.579 41.1505 145.429 45.4715C134.24 49.4648 125.707 58.7872 119.879 69.1149C114.051 79.4426 110.544 90.8812 106.345 101.975C98.3446 123.06 86.9952 143.945 68.4174 156.732C59.7056 162.731 49.4553 166.94 42.6446 175.048C38.3281 180.13 35.894 186.244 34.8 192.77C33.0899 203.159 42.8871 226.057 47.9368 234.994C51.2959 240.945 73.0208 262.938 84.7585 270.212C101.333 280.494 136.932 296.318 161.268 299.156L189.751 302.482C258.971 304.638 258.782 283.168 266.08 248.012C266.225 247.337 266.359 246.672 266.481 246.002Z" fill="#D7D9EF"/>
<path d="M253.477 223.423L265.125 196.604" stroke="#F2E9DA" stroke-width="1.3" stroke-miterlimit="10" stroke-linecap="round"/>
<path d="M242.402 226.322L248.316 212.705" stroke="#F2E9DA" stroke-width="1.3" stroke-miterlimit="10" stroke-linecap="round"/>
<path d="M214.811 238.603L224.531 216.222" stroke="#F2E9DA" stroke-width="1.3" stroke-miterlimit="10" stroke-linecap="round"/>
<path d="M242.36 213.733L250.011 196.119" stroke="#F2E9DA" stroke-width="1.3" stroke-miterlimit="10" stroke-linecap="round"/>
</g>
<path d="M106.761 52.3269C106.699 52.2204 106.6 52.1412 106.483 52.1055C106.337 52.0743 106.435 52.0833 106.399 52.0703L106.369 52.0243C106.346 51.993 106.32 51.9642 106.291 51.9382C106.225 51.8794 106.148 51.8333 106.065 51.8021C105.817 51.7364 105.574 51.6539 105.337 51.5553C104.758 51.2827 104.253 50.8745 103.865 50.3652C103.737 50.2007 103.619 50.0286 103.512 49.8496L103.348 49.562L103.147 49.1376C103.044 48.875 102.959 48.6057 102.893 48.3317C102.816 48.0275 102.726 47.7999 102.66 47.4128C102.588 47.0553 102.516 46.6948 102.444 46.3311C102.427 46.2089 102.404 46.2191 102.382 46.1968L102.316 46.1399L102.184 46.0258L102.056 45.9184L101.987 45.8888L101.86 45.8363L101.801 45.8132L101.786 45.8079C101.777 45.8048 101.731 45.8081 101.743 45.8089L101.714 45.8161C101.696 45.8163 101.595 45.8484 101.495 45.8782C101.405 45.936 101.319 46.0004 101.239 46.0708C101.186 46.1063 101.139 46.1486 101.098 46.1964L100.942 46.6418C100.881 47.4641 100.712 48.2748 100.439 49.0531C100.28 49.4231 100.257 49.4657 100.185 49.6052L99.9783 49.9643C99.7102 50.3991 99.3664 50.7824 98.9632 51.0961C98.919 51.1342 98.8716 51.1684 98.8217 51.1984L98.5979 51.3489C98.3047 51.49 97.9974 51.5995 97.681 51.6756C97.5264 51.7164 97.3746 51.7669 97.2263 51.8269L96.8295 51.9853C96.6233 52.1046 96.4733 52.2505 96.5147 52.3126L96.4397 52.5251L96.4316 52.6137C96.4284 52.6796 96.4323 52.7457 96.4433 52.8108L96.5132 52.9915L96.5415 53.0627L96.5578 53.1038L96.6648 53.1697C96.817 53.2623 96.9975 53.3721 97.2144 53.5041C97.5454 53.5749 97.867 53.6822 98.2689 53.7909C98.4467 53.8399 98.6143 53.9202 98.7639 54.0281L98.9615 54.1526C99.2683 54.377 99.5461 54.6386 99.7887 54.9313C99.9284 55.1049 100.057 55.2875 100.173 55.4778C100.352 55.7573 100.5 56.0553 100.615 56.3665C100.972 57.2527 101.079 58.9631 101.563 59.1493C101.592 59.2089 101.639 59.2587 101.696 59.293C101.753 59.3272 101.818 59.3444 101.885 59.3425C102.067 59.341 102.391 59.4269 102.623 58.2741C102.829 57.252 102.903 56.7107 103.08 56.1204C103.207 55.8097 103.257 55.7212 103.307 55.6066L103.488 55.2849C103.678 54.9618 103.911 54.6653 104.179 54.4031C104.842 53.8528 105.604 53.434 106.424 53.1694C106.446 53.1309 106.371 52.9353 106.477 52.9439C106.544 52.9337 106.607 52.9071 106.661 52.8666C106.714 52.826 106.757 52.7728 106.785 52.7116C106.813 52.6505 106.826 52.5833 106.821 52.5162C106.817 52.449 106.796 52.384 106.761 52.3269Z" fill="#6775F4"/>
<path d="M237.311 72.9575C237.25 72.851 237.151 72.7718 237.033 72.7361C236.888 72.7049 236.986 72.7139 236.95 72.7009L236.92 72.655C236.897 72.6236 236.871 72.5948 236.842 72.5688C236.776 72.51 236.699 72.4639 236.616 72.4327C236.368 72.367 236.125 72.2845 235.888 72.1859C235.309 71.9133 234.804 71.5051 234.416 70.9958C234.288 70.8314 234.17 70.6592 234.063 70.4803L233.899 70.1926L233.698 69.7682C233.595 69.5056 233.51 69.2363 233.443 68.9623C233.367 68.6581 233.277 68.4305 233.21 68.0434C233.139 67.686 233.067 67.3254 232.995 66.9617C232.978 66.8395 232.955 66.8497 232.933 66.8274L232.867 66.7705L232.735 66.6564L232.606 66.549L232.538 66.5194L232.411 66.4669L232.352 66.4438L232.337 66.4385C232.328 66.4354 232.282 66.4387 232.294 66.4395L232.265 66.4467C232.247 66.447 232.146 66.479 232.046 66.5088C231.956 66.5666 231.87 66.631 231.789 66.7014C231.737 66.7369 231.69 66.7792 231.649 66.8271L231.493 67.2724C231.431 68.0947 231.262 68.9054 230.99 69.6837C230.831 70.0537 230.807 70.0963 230.736 70.2358L230.529 70.595C230.261 71.0297 229.917 71.413 229.514 71.7268C229.47 71.7648 229.422 71.799 229.372 71.829L229.149 71.9795C228.855 72.1206 228.548 72.2301 228.232 72.3062C228.077 72.347 227.925 72.3975 227.777 72.4575L227.38 72.6159C227.174 72.7352 227.024 72.8812 227.065 72.9432L226.99 73.1557L226.982 73.2443C226.979 73.3102 226.983 73.3763 226.994 73.4414L227.064 73.6221L227.092 73.6933L227.109 73.7344L227.216 73.8003C227.368 73.8929 227.548 74.0027 227.765 74.1347C228.096 74.2056 228.418 74.3128 228.82 74.4215C228.997 74.4705 229.165 74.5508 229.315 74.6587L229.512 74.7832C229.819 75.0076 230.097 75.2692 230.339 75.5619C230.479 75.7356 230.608 75.9181 230.724 76.1084C230.902 76.388 231.05 76.6859 231.166 76.9971C231.523 77.8833 231.63 79.5937 232.114 79.7799C232.143 79.8395 232.189 79.8894 232.246 79.9236C232.303 79.9578 232.369 79.975 232.436 79.9731C232.618 79.9716 232.941 80.0575 233.174 78.9047C233.38 77.8826 233.454 77.3414 233.63 76.7511C233.757 76.4403 233.808 76.3518 233.858 76.2372L234.039 75.9155C234.229 75.5924 234.461 75.2959 234.73 75.0337C235.393 74.4834 236.154 74.0646 236.974 73.8C236.997 73.7616 236.921 73.5659 237.028 73.5745C237.095 73.5643 237.158 73.5377 237.211 73.4972C237.265 73.4567 237.308 73.4034 237.336 73.3423C237.364 73.2811 237.376 73.2139 237.372 73.1468C237.368 73.0796 237.347 73.0146 237.311 72.9575Z" fill="#6775F4"/>
<path d="M99.1005 62.8195C99.0668 62.8078 99.0321 62.7991 98.9968 62.7935L98.988 62.7868L98.907 62.7327C98.839 62.6924 98.7684 62.6566 98.6956 62.6256C98.4989 62.5434 98.2957 62.4778 98.0881 62.4296C96.6137 62.1073 95.2348 61.4456 94.061 60.497C91.4251 58.1842 89.723 54.9897 89.2736 51.512C89.181 51.0118 89.114 50.5071 89.073 50L89.0358 49.6167L89.0171 49.4247L89.0077 49.3286L89.0052 49.3047C89.0004 49.2355 88.9878 49.1671 88.9679 49.1007C88.9209 48.9407 88.827 48.7985 88.6983 48.6924C88.5696 48.5863 88.4121 48.5212 88.246 48.5056C88.08 48.4899 87.9131 48.5244 87.7668 48.6046C87.6206 48.6848 87.5018 48.807 87.4257 48.9554C87.3672 49.0719 87.3338 49.1993 87.3276 49.3295L87.3199 49.4178C87.2402 49.4229 87.2488 49.423 87.3199 49.4178L87.3192 49.4258L87.3024 49.6187L87.269 50.0049C87.1866 51.0364 87.0228 52.0597 86.7789 53.0654C86.3262 55.0136 85.4989 56.8551 84.3432 58.4875C83.3171 59.9087 81.9572 61.0559 80.3835 61.828L79.5864 62.1494C79.1997 62.2908 78.6646 62.4005 78.3761 62.5274L77.3751 62.8884L76.8884 63.064C76.8062 63.1085 76.8498 63.131 76.8246 63.1652L76.7722 63.3492L76.7469 63.4382C76.7432 63.4748 76.7418 63.5116 76.7427 63.5485C76.7411 63.5716 76.7445 63.5948 76.7528 63.6164L76.8521 63.9409C77.0711 64.1076 77.3009 64.2596 77.54 64.3961C78.3665 64.488 79.1784 64.6819 79.9573 64.9735L80.3113 65.1078C80.4102 65.1437 80.506 65.1877 80.5978 65.2392L81.2054 65.5466C82.1556 66.0961 83.0184 66.7844 83.7652 67.5889C85.5219 69.6164 86.72 72.0667 87.2414 74.6983C87.3952 75.4265 87.5102 76.1623 87.5857 76.9027L87.6457 77.4564L87.6531 77.5255C87.6575 77.5862 87.6677 77.6463 87.6836 77.705C87.724 77.8551 87.8105 77.9887 87.931 78.087C88.0514 78.1853 88.1996 78.2433 88.3547 78.2528C88.5099 78.2623 88.6641 78.2228 88.7956 78.14C88.9271 78.0571 89.0293 77.9351 89.0877 77.791C89.1222 77.7055 89.1422 77.6148 89.1469 77.5226L89.1496 77.488L89.1707 77.2119L89.2553 76.1157C89.412 74.7414 89.7119 73.3873 90.1499 72.0753C90.7656 70.1792 91.8036 68.4476 93.1858 67.011C94.3185 65.8465 95.7148 64.9718 97.2568 64.4609C98.2971 64.1078 98.9031 64.0702 99.0077 63.959C99.0706 63.9134 98.9512 63.7267 99.0781 63.728C99.1926 63.7045 99.2933 63.6372 99.3589 63.5404C99.4245 63.4437 99.4497 63.3252 99.4291 63.2101C99.413 63.1052 99.3629 63.0084 99.2863 62.9348C99.2332 62.8836 99.1699 62.8444 99.1005 62.8195Z" fill="#6775F4"/>
<path d="M283.718 225.908C283.658 225.804 283.561 225.726 283.446 225.691C283.303 225.661 283.399 225.67 283.364 225.657L283.335 225.612C283.312 225.581 283.286 225.553 283.258 225.528C283.193 225.47 283.118 225.425 283.037 225.394C282.794 225.33 282.556 225.249 282.324 225.153C281.757 224.886 281.262 224.486 280.882 223.987C280.757 223.826 280.641 223.657 280.537 223.482L280.376 223.2L280.179 222.785C280.078 222.528 279.995 222.264 279.93 221.996C279.855 221.698 279.767 221.475 279.702 221.096C279.632 220.746 279.561 220.392 279.49 220.036C279.474 219.917 279.451 219.927 279.43 219.905L279.366 219.849L279.236 219.737L279.11 219.632L279.043 219.603L278.919 219.552L278.861 219.529L278.846 219.524C278.837 219.521 278.792 219.524 278.804 219.525L278.775 219.532C278.758 219.532 278.659 219.564 278.562 219.593C278.473 219.649 278.389 219.712 278.31 219.781C278.259 219.816 278.213 219.858 278.172 219.904L278.02 220.341C277.959 221.146 277.794 221.94 277.527 222.702C277.371 223.064 277.348 223.106 277.278 223.243L277.076 223.594C276.813 224.02 276.476 224.396 276.082 224.703C276.038 224.74 275.992 224.774 275.943 224.803L275.724 224.95C275.437 225.089 275.136 225.196 274.826 225.27C274.675 225.31 274.526 225.36 274.381 225.419L273.992 225.574C273.79 225.691 273.643 225.833 273.684 225.894L273.61 226.102L273.602 226.189C273.599 226.254 273.603 226.318 273.614 226.382L273.682 226.559L273.71 226.629L273.726 226.669L273.831 226.734C273.98 226.824 274.157 226.932 274.369 227.061C274.693 227.131 275.008 227.236 275.402 227.342C275.576 227.39 275.74 227.469 275.886 227.574L276.08 227.696C276.38 227.916 276.652 228.172 276.89 228.459C277.027 228.629 277.153 228.808 277.266 228.994C277.441 229.268 277.586 229.56 277.699 229.864C278.049 230.732 278.154 232.407 278.628 232.59C278.657 232.648 278.702 232.697 278.758 232.73C278.813 232.764 278.878 232.781 278.943 232.779C279.122 232.778 279.438 232.862 279.666 231.733C279.868 230.732 279.94 230.202 280.113 229.623C280.237 229.319 280.287 229.232 280.336 229.12L280.513 228.805C280.699 228.489 280.927 228.198 281.19 227.942C281.839 227.403 282.585 226.993 283.388 226.733C283.41 226.696 283.336 226.504 283.441 226.513C283.506 226.503 283.567 226.477 283.62 226.437C283.673 226.397 283.715 226.345 283.742 226.285C283.77 226.225 283.782 226.159 283.778 226.094C283.773 226.028 283.753 225.964 283.718 225.908Z" fill="#6775F4"/>
<path d="M276.216 236.184C276.183 236.173 276.149 236.164 276.115 236.159L276.106 236.152L276.027 236.099C275.96 236.06 275.891 236.025 275.82 235.994C275.627 235.914 275.428 235.85 275.225 235.802C273.781 235.487 272.43 234.839 271.281 233.91C268.699 231.645 267.032 228.516 266.592 225.11C266.502 224.62 266.436 224.126 266.396 223.629L266.359 223.254L266.341 223.066L266.332 222.972L266.33 222.949C266.325 222.881 266.312 222.814 266.293 222.749C266.247 222.592 266.155 222.453 266.029 222.349C265.903 222.245 265.749 222.181 265.586 222.166C265.423 222.151 265.26 222.184 265.117 222.263C264.973 222.341 264.857 222.461 264.783 222.606C264.725 222.721 264.693 222.845 264.687 222.973L264.679 223.059C264.601 223.064 264.609 223.064 264.679 223.059L264.678 223.067L264.662 223.256L264.629 223.634C264.548 224.644 264.388 225.647 264.149 226.632C263.706 228.54 262.896 230.343 261.764 231.942C260.759 233.334 259.427 234.457 257.886 235.213L257.105 235.528C256.726 235.667 256.202 235.774 255.92 235.898L254.94 236.252L254.463 236.424C254.382 236.467 254.425 236.489 254.4 236.523L254.349 236.703L254.324 236.79C254.321 236.826 254.319 236.862 254.32 236.898C254.319 236.921 254.322 236.944 254.33 236.965L254.427 237.282C254.642 237.446 254.867 237.595 255.101 237.728C255.91 237.818 256.706 238.008 257.468 238.294L257.815 238.425C257.912 238.461 258.006 238.504 258.096 238.554L258.691 238.855C259.621 239.393 260.466 240.067 261.198 240.855C262.918 242.841 264.092 245.241 264.602 247.818C264.753 248.531 264.865 249.252 264.939 249.977L264.998 250.519L265.005 250.587C265.01 250.646 265.02 250.705 265.035 250.762C265.075 250.909 265.16 251.04 265.277 251.137C265.395 251.233 265.541 251.29 265.692 251.299C265.844 251.308 265.995 251.27 266.124 251.188C266.253 251.107 266.353 250.988 266.41 250.847C266.444 250.763 266.464 250.674 266.468 250.584L266.471 250.55L266.492 250.279L266.574 249.206C266.728 247.86 267.022 246.534 267.451 245.249C268.053 243.392 269.07 241.696 270.424 240.289C271.533 239.149 272.901 238.292 274.411 237.792C275.429 237.446 276.023 237.409 276.125 237.3C276.187 237.256 276.07 237.073 276.194 237.074C276.307 237.051 276.405 236.985 276.469 236.89C276.534 236.796 276.558 236.679 276.538 236.567C276.522 236.464 276.473 236.369 276.398 236.297C276.346 236.247 276.284 236.209 276.216 236.184Z" fill="#6775F4"/>
<path d="M260.724 129.767L255.44 114.932L250.888 116.5C232.803 100.821 197.771 97.2833 162.413 109.625C127.056 121.927 101.98 146.411 97.835 169.808L93.2832 171.376L98.5665 186.211C98.7697 186.854 98.9323 187.497 99.1761 188.141C109.052 215.88 153.391 225.73 198.177 210.131C242.963 194.533 271.29 159.396 261.414 131.616C261.171 130.973 260.927 130.37 260.683 129.767H260.724Z" fill="#FFCC0A"/>
<g opacity="0.7">
<mask id="mask0_3963_12408" style="mask-type:luminance" maskUnits="userSpaceOnUse" x="93" y="102" width="171" height="116">
<path d="M260.724 129.767L255.44 114.932L250.888 116.5C232.803 100.821 197.771 97.2833 162.413 109.625C127.056 121.927 101.98 146.411 97.835 169.808L93.2832 171.376L98.5665 186.211C98.7697 186.854 98.9323 187.497 99.1761 188.141C109.052 215.88 153.391 225.73 198.177 210.131C242.963 194.533 271.29 159.396 261.414 131.616C261.171 130.973 260.927 130.37 260.683 129.767H260.724Z" fill="white"/>
</mask>
<g mask="url(#mask0_3963_12408)">
<path d="M69.3867 99.0918L127.341 261.911" stroke="#DFB108" stroke-width="0.5" stroke-miterlimit="10"/>
<path d="M72.0293 98.1677L129.983 260.987" stroke="#DFB108" stroke-width="0.5" stroke-miterlimit="10"/>
<path d="M74.7109 97.2427L132.665 260.062" stroke="#DFB108" stroke-width="0.5" stroke-miterlimit="10"/>
<path d="M77.3535 96.3186L135.307 259.138" stroke="#DFB108" stroke-width="0.5" stroke-miterlimit="10"/>
<path d="M80.0342 95.3936L137.988 258.213" stroke="#DFB108" stroke-width="0.5" stroke-miterlimit="10"/>
<path d="M82.6768 94.4688L140.631 257.288" stroke="#DFB108" stroke-width="0.5" stroke-miterlimit="10"/>
<path d="M85.3584 93.5447L143.312 256.364" stroke="#DFB108" stroke-width="0.5" stroke-miterlimit="10"/>
<path d="M88.001 92.6196L145.955 255.439" stroke="#DFB108" stroke-width="0.5" stroke-miterlimit="10"/>
<path d="M90.6816 91.6948L148.636 254.514" stroke="#DFB108" stroke-width="0.5" stroke-miterlimit="10"/>
<path d="M93.3652 90.7302L151.319 253.55" stroke="#DFB108" stroke-width="0.5" stroke-miterlimit="10"/>
<path d="M96.0059 89.8054L153.96 252.625" stroke="#DFB108" stroke-width="0.5" stroke-miterlimit="10"/>
<path d="M98.6895 88.8811L156.643 251.701" stroke="#DFB108" stroke-width="0.5" stroke-miterlimit="10"/>
<path d="M101.329 87.9563L159.283 250.776" stroke="#DFB108" stroke-width="0.5" stroke-miterlimit="10"/>
<path d="M104.013 87.0312L161.967 249.851" stroke="#DFB108" stroke-width="0.5" stroke-miterlimit="10"/>
<path d="M106.656 86.1072L164.61 248.927" stroke="#DFB108" stroke-width="0.5" stroke-miterlimit="10"/>
<path d="M109.337 85.1821L167.291 248.002" stroke="#DFB108" stroke-width="0.5" stroke-miterlimit="10"/>
<path d="M111.979 84.2573L169.933 247.077" stroke="#DFB108" stroke-width="0.5" stroke-miterlimit="10"/>
<path d="M114.66 83.333L172.614 246.152" stroke="#DFB108" stroke-width="0.5" stroke-miterlimit="10"/>
<path d="M117.345 82.4082L175.299 245.228" stroke="#DFB108" stroke-width="0.5" stroke-miterlimit="10"/>
<path d="M119.984 81.4839L177.938 244.303" stroke="#DFB108" stroke-width="0.5" stroke-miterlimit="10"/>
<path d="M122.668 80.5591L180.622 243.379" stroke="#DFB108" stroke-width="0.5" stroke-miterlimit="10"/>
<path d="M125.308 79.5938L183.261 242.413" stroke="#DFB108" stroke-width="0.5" stroke-miterlimit="10"/>
<path d="M127.992 78.6697L185.946 241.489" stroke="#DFB108" stroke-width="0.5" stroke-miterlimit="10"/>
<path d="M130.632 77.7446L188.586 240.564" stroke="#DFB108" stroke-width="0.5" stroke-miterlimit="10"/>
<path d="M133.315 76.8206L191.269 239.64" stroke="#DFB108" stroke-width="0.5" stroke-miterlimit="10"/>
<path d="M135.955 75.8955L193.909 238.715" stroke="#DFB108" stroke-width="0.5" stroke-miterlimit="10"/>
<path d="M138.64 74.9707L196.594 237.79" stroke="#DFB108" stroke-width="0.5" stroke-miterlimit="10"/>
<path d="M141.32 74.0464L199.274 236.866" stroke="#DFB108" stroke-width="0.5" stroke-miterlimit="10"/>
<path d="M143.963 73.1216L201.917 235.941" stroke="#DFB108" stroke-width="0.5" stroke-miterlimit="10"/>
<path d="M146.644 72.1965L204.597 235.016" stroke="#DFB108" stroke-width="0.5" stroke-miterlimit="10"/>
<path d="M149.287 71.2725L207.241 234.092" stroke="#DFB108" stroke-width="0.5" stroke-miterlimit="10"/>
<path d="M151.968 70.3477L209.922 233.167" stroke="#DFB108" stroke-width="0.5" stroke-miterlimit="10"/>
<path d="M154.61 69.4226L212.564 232.242" stroke="#DFB108" stroke-width="0.5" stroke-miterlimit="10"/>
<path d="M157.294 68.4985L215.248 231.278" stroke="#DFB108" stroke-width="0.5" stroke-miterlimit="10"/>
<path d="M159.976 67.5332L217.889 230.353" stroke="#DFB108" stroke-width="0.5" stroke-miterlimit="10"/>
<path d="M162.618 66.6091L220.572 229.429" stroke="#DFB108" stroke-width="0.5" stroke-miterlimit="10"/>
<path d="M165.299 65.6841L223.253 228.504" stroke="#DFB108" stroke-width="0.5" stroke-miterlimit="10"/>
<path d="M167.941 64.7593L225.895 227.579" stroke="#DFB108" stroke-width="0.5" stroke-miterlimit="10"/>
<path d="M170.623 63.835L228.577 226.654" stroke="#DFB108" stroke-width="0.5" stroke-miterlimit="10"/>
<path d="M173.266 62.9102L231.219 225.73" stroke="#DFB108" stroke-width="0.5" stroke-miterlimit="10"/>
<path d="M175.946 61.9851L233.9 224.805" stroke="#DFB108" stroke-width="0.5" stroke-miterlimit="10"/>
<path d="M178.589 61.061L236.543 223.88" stroke="#DFB108" stroke-width="0.5" stroke-miterlimit="10"/>
<path d="M181.271 60.136L239.224 222.955" stroke="#DFB108" stroke-width="0.5" stroke-miterlimit="10"/>
<path d="M183.954 59.2119L241.867 222.031" stroke="#DFB108" stroke-width="0.5" stroke-miterlimit="10"/>
<path d="M186.594 58.2869L244.548 221.106" stroke="#DFB108" stroke-width="0.5" stroke-miterlimit="10"/>
<path d="M189.277 57.3621L247.231 220.141" stroke="#DFB108" stroke-width="0.5" stroke-miterlimit="10"/>
<path d="M191.918 56.3975L249.872 219.217" stroke="#DFB108" stroke-width="0.5" stroke-miterlimit="10"/>
<path d="M194.602 55.4727L252.555 218.292" stroke="#DFB108" stroke-width="0.5" stroke-miterlimit="10"/>
<path d="M197.244 54.5476L255.198 217.367" stroke="#DFB108" stroke-width="0.5" stroke-miterlimit="10"/>
<path d="M199.925 53.6235L257.879 216.443" stroke="#DFB108" stroke-width="0.5" stroke-miterlimit="10"/>
<path d="M202.568 52.6985L260.522 215.518" stroke="#DFB108" stroke-width="0.5" stroke-miterlimit="10"/>
<path d="M205.249 51.7744L263.203 214.594" stroke="#DFB108" stroke-width="0.5" stroke-miterlimit="10"/>
<path d="M207.933 50.8494L265.846 213.669" stroke="#DFB108" stroke-width="0.5" stroke-miterlimit="10"/>
<path d="M210.572 49.9246L268.526 212.744" stroke="#DFB108" stroke-width="0.5" stroke-miterlimit="10"/>
<path d="M213.257 49.0005L271.211 211.82" stroke="#DFB108" stroke-width="0.5" stroke-miterlimit="10"/>
<path d="M215.896 48.0754L273.85 210.895" stroke="#DFB108" stroke-width="0.5" stroke-miterlimit="10"/>
<path d="M218.58 47.1506L276.534 209.97" stroke="#DFB108" stroke-width="0.5" stroke-miterlimit="10"/>
<path d="M221.22 46.2263L279.174 209.046" stroke="#DFB108" stroke-width="0.5" stroke-miterlimit="10"/>
<path d="M223.904 45.2612L281.858 208.081" stroke="#DFB108" stroke-width="0.5" stroke-miterlimit="10"/>
<path d="M226.544 44.3369L284.498 207.156" stroke="#DFB108" stroke-width="0.5" stroke-miterlimit="10"/>
<path d="M229.228 43.4121L287.181 206.232" stroke="#DFB108" stroke-width="0.5" stroke-miterlimit="10"/>
</g>
</g>
<g style="mix-blend-mode:multiply" opacity="0.5">
<path d="M107.792 185.166C107.549 184.523 107.386 183.88 107.183 183.236L101.899 168.402L106.451 166.834C110.434 144.401 133.681 120.963 166.762 108.219C165.34 108.661 163.877 109.143 162.454 109.626C127.097 121.928 102.021 146.411 97.876 169.809L93.3242 171.377L98.6075 186.211C98.8107 186.855 98.9733 187.498 99.2171 188.141C109.093 215.881 153.432 225.73 198.218 210.132C199.641 209.649 201.063 209.127 202.486 208.564C159.203 222.072 117.343 212.021 107.792 185.166Z" fill="#FFCC0A"/>
</g>
<g style="mix-blend-mode:screen" opacity="0.5">
<path d="M252.878 134.631C252.634 133.988 252.39 133.385 252.146 132.782L246.863 117.947L242.311 119.515C224.957 104.48 192.038 100.62 158.185 111.194C159.607 110.671 160.989 110.108 162.452 109.626C197.809 97.3237 232.842 100.862 250.927 116.5L255.479 114.932L260.762 129.767C261.006 130.37 261.29 131.013 261.494 131.616C271.369 159.356 243.043 194.493 198.256 210.131C196.834 210.614 195.371 211.096 193.949 211.539C236.256 195.257 262.469 161.446 252.918 134.591L252.878 134.631Z" fill="#FFCC0A"/>
</g>
<path d="M192.864 195.139C237.662 179.534 265.969 144.388 256.091 116.639C246.212 88.8904 201.889 79.0463 157.091 94.6519C112.293 110.257 83.9856 145.403 93.8641 173.152C103.743 200.901 148.066 210.745 192.864 195.139Z" fill="#F0C009"/>
<g style="mix-blend-mode:multiply" opacity="0.5">
<path d="M192.204 193.287C147.905 208.725 104.094 199.237 93.5684 172.221C93.6496 172.543 93.7309 172.824 93.8528 173.146C103.729 200.885 148.068 210.735 192.854 195.136C237.64 179.538 265.967 144.401 256.091 116.621C255.969 116.3 255.847 116.018 255.725 115.737C264.666 143.316 236.502 177.89 192.204 193.287Z" fill="#F0C009"/>
</g>
<g style="mix-blend-mode:multiply" opacity="0.2">
<path d="M98.1998 171.618C88.4866 144.32 115.757 109.867 159.283 93.9065C158.551 94.1477 157.82 94.3889 157.088 94.6301C112.302 110.229 83.9755 145.365 93.8512 173.145C103.727 200.885 148.066 210.734 192.852 195.136C193.584 194.895 194.275 194.613 195.006 194.332C150.952 208.885 107.913 198.915 98.1998 171.618Z" fill="#F0C009"/>
</g>
<g style="mix-blend-mode:screen" opacity="0.5">
<path d="M251.781 118.149C242.068 90.8514 198.989 80.9214 154.975 95.4345C155.706 95.153 156.397 94.9118 157.129 94.6304C201.915 79.0319 246.254 88.8815 256.13 116.621C266.005 144.361 237.679 179.498 192.893 195.136C192.161 195.377 191.429 195.619 190.698 195.86C234.224 179.9 261.494 145.446 251.781 118.149Z" fill="#F0C009"/>
</g>
<g style="mix-blend-mode:screen">
<path d="M157.658 96.1581C202.038 80.6802 245.93 90.2081 256.374 117.385C256.293 117.144 256.212 116.862 256.131 116.621C246.255 88.8815 201.916 79.0319 157.129 94.6304C112.343 110.229 84.0165 145.366 93.8922 173.146C93.9735 173.387 94.0954 173.628 94.1767 173.909C85.0732 146.29 113.278 111.636 157.658 96.1983V96.1581Z" fill="#F0C009"/>
</g>
<g style="mix-blend-mode:screen" opacity="0.7">
<path d="M190.093 187.269C227.925 174.09 252.079 145.104 244.042 122.528C236.005 99.9522 198.821 92.3346 160.988 105.514C123.156 118.693 99.0016 147.678 107.039 170.254C115.076 192.83 152.26 200.448 190.093 187.269Z" fill="#F0C009"/>
</g>
<path d="M188.864 183.921C226.697 170.742 250.851 141.756 242.814 119.18C234.777 96.6043 197.592 88.9867 159.76 102.166C121.927 115.345 97.7731 144.33 105.81 166.906C113.847 189.482 151.032 197.1 188.864 183.921Z" fill="#DFB108"/>
<g style="mix-blend-mode:multiply" opacity="0.2">
<path d="M159.772 102.188C130.998 112.198 110.149 131.375 105.354 149.908C113.766 134.752 132.095 120.319 155.748 112.078C193.585 98.8912 230.771 106.53 238.777 129.083C240.688 134.47 240.769 140.259 239.265 146.089C244.305 137.003 245.808 127.676 242.801 119.193C234.754 96.6399 197.608 89.0015 159.772 102.188Z" fill="#DFB108"/>
</g>
<path d="M161.723 107.655C198.015 95.0319 233.698 101.504 243.614 122.008C243.411 121.083 243.127 120.118 242.802 119.234C234.755 96.6802 197.609 89.0417 159.772 102.228C121.936 115.414 97.795 144.4 105.842 166.954C106.167 167.879 106.573 168.763 106.98 169.647C101.778 147.536 125.431 120.359 161.723 107.696V107.655Z" fill="#CCA208"/>
<path d="M134.534 160.442L152.051 117.304L189.643 131.737L182.572 150.994C182.206 151.959 181.8 152.964 181.271 153.969C180.743 154.974 180.174 155.979 179.524 156.944C178.874 157.909 178.67 158.23 177.898 159.034L170.705 157.828L169.282 157.587C170.136 156.301 170.949 154.894 171.721 153.366C172.493 151.838 173.184 150.23 173.753 148.662L178.345 136.159L155.993 128.119L144.491 164.1L134.453 160.482L134.534 160.442ZM150.344 166.11L162.658 137.205L169.364 140.541L161.561 161.768L171.802 165.467C175.257 166.753 178.508 166.834 181.515 165.708C184.523 164.623 186.677 162.291 187.977 158.713L198.706 134.069L205.412 137.406L196.512 161.567C195.13 165.427 193.098 168.482 190.416 170.693C187.733 172.904 184.563 174.191 180.906 174.553C177.207 174.914 173.184 174.311 168.754 172.743L150.262 166.11H150.344Z" fill="#CCA208"/>
<path d="M136.323 160.16L151.97 117.505C151.97 117.505 152.133 117.345 152.254 117.385L191.432 131.456L184.361 150.713C183.995 151.677 183.589 152.683 183.06 153.688C182.532 154.693 181.963 155.698 181.313 156.663C180.662 157.627 179.972 158.472 179.24 159.276L171.437 157.828L171.152 157.306C172.006 156.019 172.819 154.612 173.591 153.085C174.363 151.557 175.054 149.949 175.623 148.381L180.215 135.878L157.863 127.837L144.858 163.256L136.364 160.2L136.323 160.16ZM152.133 165.829L162.659 137.205L171.152 140.26L163.349 161.487L173.591 165.185C177.045 166.472 180.297 166.552 183.304 165.427C186.311 164.341 188.465 162.009 189.766 158.431L198.707 134.069L207.201 137.124L198.301 161.286C196.919 165.145 194.887 168.201 192.204 170.412C189.522 172.623 186.352 173.909 182.694 174.271C178.996 174.633 174.973 174.03 170.543 172.462L152.051 165.829H152.133Z" fill="#FFCC0A"/>
<defs>
<clipPath id="clip0_3963_12408">
<rect width="270" height="256" fill="white" transform="translate(102.419 0.814941) rotate(23.4766)"/>
</clipPath>
</defs>
</svg>
