<svg width="69" height="61" viewBox="0 0 69 61" fill="none" xmlns="http://www.w3.org/2000/svg">
<path d="M64.1564 28.9404L62.4013 23.9988L60.8892 24.5211C54.8812 19.2982 43.2433 18.1197 31.4975 22.231C19.7516 26.329 11.4214 34.4848 10.0443 42.2789L8.53223 42.8012L10.2874 47.7429C10.3549 47.9571 10.4089 48.1714 10.4899 48.3857C13.7706 57.6262 28.5002 60.9072 43.3784 55.7111C58.2565 50.515 67.6667 38.8104 64.3859 29.5565C64.3049 29.3422 64.2239 29.1413 64.1429 28.9404H64.1564Z" fill="#FFCC0A"/>
<g opacity="0.7">
<mask id="mask0_1392_13706" style="mask-type:luminance" maskUnits="userSpaceOnUse" x="8" y="19" width="58" height="40">
<path d="M64.1564 28.9404L62.4013 23.9988L60.8892 24.5211C54.8812 19.2982 43.2433 18.1197 31.4975 22.231C19.7516 26.329 11.4214 34.4848 10.0443 42.2789L8.53223 42.8012L10.2874 47.7429C10.3549 47.9571 10.4089 48.1714 10.4899 48.3857C13.7706 57.6262 28.5002 60.9072 43.3784 55.7111C58.2565 50.515 67.6667 38.8104 64.3859 29.5565C64.3049 29.3422 64.2239 29.1413 64.1429 28.9404H64.1564Z" fill="white"/>
</mask>
<g mask="url(#mask0_1392_13706)">
<path d="M0.59375 18.7222L19.8462 72.9599" stroke="#DFB108" stroke-width="0.5" stroke-miterlimit="10"/>
<path d="M1.47144 18.4141L20.7239 72.6518" stroke="#DFB108" stroke-width="0.5" stroke-miterlimit="10"/>
<path d="M2.3623 18.1064L21.6148 72.3442" stroke="#DFB108" stroke-width="0.5" stroke-miterlimit="10"/>
<path d="M3.23999 17.7983L22.4924 72.0361" stroke="#DFB108" stroke-width="0.5" stroke-miterlimit="10"/>
<path d="M4.1311 17.4902L23.3836 71.728" stroke="#DFB108" stroke-width="0.5" stroke-miterlimit="10"/>
<path d="M5.00854 17.1821L24.261 71.4199" stroke="#DFB108" stroke-width="0.5" stroke-miterlimit="10"/>
<path d="M5.89966 16.874L25.1521 71.1118" stroke="#DFB108" stroke-width="0.5" stroke-miterlimit="10"/>
<path d="M6.7771 16.5664L26.0296 70.8042" stroke="#DFB108" stroke-width="0.5" stroke-miterlimit="10"/>
<path d="M7.66821 16.2583L26.9207 70.4961" stroke="#DFB108" stroke-width="0.5" stroke-miterlimit="10"/>
<path d="M8.55933 15.9365L27.8118 70.1743" stroke="#DFB108" stroke-width="0.5" stroke-miterlimit="10"/>
<path d="M9.43701 15.6289L28.6895 69.8667" stroke="#DFB108" stroke-width="0.5" stroke-miterlimit="10"/>
<path d="M10.3279 15.3208L29.5803 69.5586" stroke="#DFB108" stroke-width="0.5" stroke-miterlimit="10"/>
<path d="M11.2056 15.0127L30.458 69.2505" stroke="#DFB108" stroke-width="0.5" stroke-miterlimit="10"/>
<path d="M12.0967 14.7046L31.3491 68.9423" stroke="#DFB108" stroke-width="0.5" stroke-miterlimit="10"/>
<path d="M12.9741 14.3965L32.2266 68.6342" stroke="#DFB108" stroke-width="0.5" stroke-miterlimit="10"/>
<path d="M13.8652 14.0889L33.1177 68.3266" stroke="#DFB108" stroke-width="0.5" stroke-miterlimit="10"/>
<path d="M14.7429 13.7808L33.9954 68.0185" stroke="#DFB108" stroke-width="0.5" stroke-miterlimit="10"/>
<path d="M15.6338 13.4727L34.8862 67.7104" stroke="#DFB108" stroke-width="0.5" stroke-miterlimit="10"/>
<path d="M16.5249 13.1646L35.7774 67.4023" stroke="#DFB108" stroke-width="0.5" stroke-miterlimit="10"/>
<path d="M17.4026 12.8564L36.655 67.0942" stroke="#DFB108" stroke-width="0.5" stroke-miterlimit="10"/>
<path d="M18.2937 12.5483L37.5462 66.7861" stroke="#DFB108" stroke-width="0.5" stroke-miterlimit="10"/>
<path d="M19.1711 12.2271L38.4236 66.4648" stroke="#DFB108" stroke-width="0.5" stroke-miterlimit="10"/>
<path d="M20.0623 11.9189L39.3147 66.1567" stroke="#DFB108" stroke-width="0.5" stroke-miterlimit="10"/>
<path d="M20.9397 11.6113L40.1921 65.8491" stroke="#DFB108" stroke-width="0.5" stroke-miterlimit="10"/>
<path d="M21.8308 11.3032L41.0833 65.541" stroke="#DFB108" stroke-width="0.5" stroke-miterlimit="10"/>
<path d="M22.7085 10.9951L41.9609 65.2329" stroke="#DFB108" stroke-width="0.5" stroke-miterlimit="10"/>
<path d="M23.5994 10.687L42.8518 64.9248" stroke="#DFB108" stroke-width="0.5" stroke-miterlimit="10"/>
<path d="M24.4905 10.3789L43.7429 64.6167" stroke="#DFB108" stroke-width="0.5" stroke-miterlimit="10"/>
<path d="M25.3682 10.0708L44.6206 64.3086" stroke="#DFB108" stroke-width="0.5" stroke-miterlimit="10"/>
<path d="M26.2593 9.76318L45.5117 64.0009" stroke="#DFB108" stroke-width="0.5" stroke-miterlimit="10"/>
<path d="M27.1367 9.45508L46.3892 63.6928" stroke="#DFB108" stroke-width="0.5" stroke-miterlimit="10"/>
<path d="M28.0278 9.14697L47.2803 63.3847" stroke="#DFB108" stroke-width="0.5" stroke-miterlimit="10"/>
<path d="M28.9053 8.83887L48.1577 63.0766" stroke="#DFB108" stroke-width="0.5" stroke-miterlimit="10"/>
<path d="M29.7964 8.53076L49.0488 62.7551" stroke="#DFB108" stroke-width="0.5" stroke-miterlimit="10"/>
<path d="M30.6875 8.20947L49.9264 62.4472" stroke="#DFB108" stroke-width="0.5" stroke-miterlimit="10"/>
<path d="M31.5652 7.90137L50.8176 62.1391" stroke="#DFB108" stroke-width="0.5" stroke-miterlimit="10"/>
<path d="M32.4561 7.59326L51.7085 61.831" stroke="#DFB108" stroke-width="0.5" stroke-miterlimit="10"/>
<path d="M33.3337 7.28564L52.5862 61.5234" stroke="#DFB108" stroke-width="0.5" stroke-miterlimit="10"/>
<path d="M34.2249 6.97754L53.4773 61.2153" stroke="#DFB108" stroke-width="0.5" stroke-miterlimit="10"/>
<path d="M35.1023 6.66943L54.3547 60.9072" stroke="#DFB108" stroke-width="0.5" stroke-miterlimit="10"/>
<path d="M35.9934 6.36133L55.2459 60.5991" stroke="#DFB108" stroke-width="0.5" stroke-miterlimit="10"/>
<path d="M36.8711 6.05322L56.1235 60.291" stroke="#DFB108" stroke-width="0.5" stroke-miterlimit="10"/>
<path d="M37.762 5.74561L57.0144 59.9834" stroke="#DFB108" stroke-width="0.5" stroke-miterlimit="10"/>
<path d="M38.6531 5.4375L57.892 59.6753" stroke="#DFB108" stroke-width="0.5" stroke-miterlimit="10"/>
<path d="M39.5308 5.12939L58.7832 59.3671" stroke="#DFB108" stroke-width="0.5" stroke-miterlimit="10"/>
<path d="M40.4216 4.82129L59.6741 59.0457" stroke="#DFB108" stroke-width="0.5" stroke-miterlimit="10"/>
<path d="M41.2993 4.5L60.5518 58.7378" stroke="#DFB108" stroke-width="0.5" stroke-miterlimit="10"/>
<path d="M42.1904 4.19189L61.4429 58.4296" stroke="#DFB108" stroke-width="0.5" stroke-miterlimit="10"/>
<path d="M43.0679 3.88379L62.3203 58.1215" stroke="#DFB108" stroke-width="0.5" stroke-miterlimit="10"/>
<path d="M43.959 3.57568L63.2114 57.8134" stroke="#DFB108" stroke-width="0.5" stroke-miterlimit="10"/>
<path d="M44.8367 3.26807L64.0891 57.5058" stroke="#DFB108" stroke-width="0.5" stroke-miterlimit="10"/>
<path d="M45.7275 2.95996L64.98 57.1977" stroke="#DFB108" stroke-width="0.5" stroke-miterlimit="10"/>
<path d="M46.6187 2.65186L65.8576 56.8896" stroke="#DFB108" stroke-width="0.5" stroke-miterlimit="10"/>
<path d="M47.4963 2.34375L66.7488 56.5815" stroke="#DFB108" stroke-width="0.5" stroke-miterlimit="10"/>
<path d="M48.3875 2.03564L67.6399 56.2734" stroke="#DFB108" stroke-width="0.5" stroke-miterlimit="10"/>
<path d="M49.2649 1.72803L68.5173 55.9658" stroke="#DFB108" stroke-width="0.5" stroke-miterlimit="10"/>
<path d="M50.156 1.41992L69.4085 55.6577" stroke="#DFB108" stroke-width="0.5" stroke-miterlimit="10"/>
<path d="M51.0334 1.11182L70.2859 55.3496" stroke="#DFB108" stroke-width="0.5" stroke-miterlimit="10"/>
<path d="M51.9246 0.790527L71.177 55.0283" stroke="#DFB108" stroke-width="0.5" stroke-miterlimit="10"/>
<path d="M52.8022 0.482422L72.0547 54.7202" stroke="#DFB108" stroke-width="0.5" stroke-miterlimit="10"/>
<path d="M53.6934 0.174316L72.9458 54.4121" stroke="#DFB108" stroke-width="0.5" stroke-miterlimit="10"/>
</g>
</g>
<g style="mix-blend-mode:multiply" opacity="0.5">
<path d="M13.352 47.3946C13.271 47.1803 13.217 46.966 13.1495 46.7518L11.3944 41.8101L12.9065 41.2878C14.2296 33.815 21.9522 26.0075 32.942 21.7622C32.4695 21.9095 31.9834 22.0702 31.5109 22.2309C19.765 26.3289 11.4349 34.4846 10.0578 42.2788L8.54565 42.8011L10.3008 47.7428C10.3683 47.957 10.4223 48.1713 10.5033 48.3856C13.784 57.6261 28.5137 60.9071 43.3918 55.711C43.8643 55.5503 44.3369 55.3762 44.8094 55.1887C30.4308 59.6885 16.5248 56.3405 13.352 47.3946Z" fill="#FFCC0A"/>
</g>
<g style="mix-blend-mode:screen" opacity="0.5">
<path d="M61.5506 30.5605C61.4696 30.3462 61.3886 30.1453 61.3076 29.9444L59.5525 25.0028L58.0404 25.5251C52.2754 20.5164 41.3396 19.2308 30.0933 22.7529C30.5658 22.5788 31.0248 22.3913 31.5109 22.2306C43.2568 18.1326 54.8946 19.3111 60.9026 24.5206L62.4147 23.9984L64.1698 28.94C64.2508 29.1409 64.3453 29.3552 64.4128 29.5561C67.6936 38.7966 58.2834 50.5012 43.4053 55.7107C42.9327 55.8714 42.4467 56.0321 41.9742 56.1794C56.0287 50.7557 64.7369 39.4929 61.5641 30.5471L61.5506 30.5605Z" fill="#FFCC0A"/>
</g>
<path d="M41.6133 50.7171C56.4952 45.5186 65.8991 33.811 62.6174 24.5675C59.3358 15.3239 44.6113 12.0447 29.7293 17.2431C14.8474 22.4416 5.44352 34.1492 8.72518 43.3927C12.0068 52.6363 26.7314 55.9155 41.6133 50.7171Z" fill="#F0C009"/>
<g style="mix-blend-mode:multiply" opacity="0.5">
<path d="M41.3937 50.0998C26.6776 55.2424 12.1235 52.0819 8.62671 43.0824C8.65371 43.1896 8.68071 43.2833 8.72122 43.3904C12.002 52.6309 26.7316 55.912 41.6097 50.7159C56.4878 45.5198 65.898 33.8151 62.6173 24.5612C62.5768 24.4541 62.5363 24.3603 62.4958 24.2666C65.466 33.4535 56.1098 44.9707 41.3937 50.0998Z" fill="#F0C009"/>
</g>
<g style="mix-blend-mode:multiply" opacity="0.2">
<path d="M10.1658 42.8814C6.93908 33.7882 15.9983 22.3113 30.4579 16.9946C30.2148 17.075 29.9718 17.1553 29.7288 17.2357C14.8507 22.4318 5.44046 34.1364 8.72121 43.3903C12.002 52.6308 26.7316 55.9119 41.6097 50.7158C41.8527 50.6354 42.0822 50.5417 42.3252 50.4479C27.6901 55.2959 13.3926 51.9746 10.1658 42.8814Z" fill="#F0C009"/>
</g>
<g style="mix-blend-mode:screen" opacity="0.5">
<path d="M61.186 25.07C57.9593 15.9769 43.6482 12.669 29.0266 17.5035C29.2696 17.4098 29.4991 17.3294 29.7422 17.2357C44.6203 12.0396 59.3499 15.3206 62.6306 24.5612C65.9114 33.8017 56.5012 45.5063 41.6231 50.7158C41.38 50.7962 41.137 50.8765 40.894 50.9569C55.3536 45.6402 64.4128 34.1632 61.186 25.07Z" fill="#F0C009"/>
</g>
<g style="mix-blend-mode:screen">
<path d="M29.9177 17.7446C44.6608 12.5887 59.2419 15.7626 62.7117 24.8156C62.6847 24.7352 62.6577 24.6415 62.6307 24.5612C59.35 15.3206 44.6203 12.0396 29.7422 17.2357C14.8641 22.4318 5.45389 34.1365 8.73464 43.3904C8.76164 43.4707 8.80215 43.5511 8.82915 43.6448C5.80492 34.4445 15.1746 22.9005 29.9177 17.758V17.7446Z" fill="#F0C009"/>
</g>
<g style="mix-blend-mode:screen" opacity="0.7">
<path d="M40.6924 48.0948C53.2605 43.7046 61.2845 34.0492 58.6146 26.5287C55.9447 19.0083 43.5919 16.4707 31.0238 20.8609C18.4558 25.2511 10.4317 34.9066 13.1016 42.427C15.7716 49.9474 28.1244 52.485 40.6924 48.0948Z" fill="#F0C009"/>
</g>
<path d="M40.2847 46.9796C52.8528 42.5894 60.8768 32.9339 58.2069 25.4135C55.537 17.8931 43.1842 15.3555 30.6161 19.7457C18.048 24.1359 10.024 33.7913 12.6939 41.3118C15.3638 48.8322 27.7167 51.3698 40.2847 46.9796Z" fill="#DFB108"/>
<g style="mix-blend-mode:multiply" opacity="0.2">
<path d="M30.6199 19.7533C21.0611 23.0879 14.1351 29.4759 12.542 35.6496C15.3367 30.6008 21.4257 25.7931 29.2833 23.0477C41.8527 18.6551 54.2061 21.1996 56.8658 28.7125C57.5004 30.5071 57.5274 32.4355 57.0278 34.3774C58.702 31.3508 59.2015 28.2438 58.2024 25.4181C55.5292 17.9052 43.1893 15.3607 30.6199 19.7533Z" fill="#DFB108"/>
</g>
<path d="M31.2678 21.5749C43.3242 17.3698 55.1781 19.5259 58.4723 26.3558C58.4048 26.0478 58.3103 25.7264 58.2023 25.4318C55.5291 17.9188 43.1892 15.3743 30.6197 19.7669C18.0503 24.1595 10.0307 33.8152 12.7039 41.3281C12.8119 41.6361 12.9469 41.9308 13.0819 42.2254C11.3538 34.8598 19.2114 25.8067 31.2678 21.5882V21.5749Z" fill="#CCA208"/>
<path d="M22.2357 39.1582L28.0547 24.7886L40.5431 29.5963L38.1939 36.0111C38.0724 36.3325 37.9374 36.6673 37.7619 37.0021C37.5864 37.3369 37.3974 37.6717 37.1814 37.9931C36.9654 38.3145 36.8978 38.4217 36.6413 38.6895L34.2516 38.2878L33.7791 38.2074C34.0626 37.7789 34.3327 37.3101 34.5892 36.8012C34.8457 36.2923 35.0752 35.7567 35.2642 35.2344L36.7898 31.0694L29.3643 28.391L25.5435 40.3769L22.2087 39.1716L22.2357 39.1582ZM27.4876 41.0465L31.5784 31.4176L33.8061 32.5292L31.2139 39.6002L34.6162 40.8322C35.7638 41.2608 36.8438 41.2876 37.8429 40.9126C38.842 40.551 39.5575 39.7743 39.9896 38.5824L43.5539 30.3731L45.7815 31.4846L42.8248 39.5332C42.3658 40.8188 41.6907 41.8366 40.7996 42.5732C39.9086 43.3098 38.8555 43.7383 37.6404 43.8588C36.4118 43.9794 35.0752 43.7785 33.6036 43.2562L27.4606 41.0465H27.4876Z" fill="#CCA208"/>
<path d="M22.8298 39.0648L28.0277 24.8558C28.0277 24.8558 28.0817 24.8022 28.1222 24.8156L41.1372 29.5028L38.788 35.9176C38.6665 36.239 38.5315 36.5738 38.356 36.9086C38.1805 37.2434 37.9915 37.5782 37.7755 37.8996C37.5594 38.2211 37.3299 38.5023 37.0869 38.7701L34.4947 38.288L34.4002 38.1139C34.6837 37.6854 34.9537 37.2167 35.2103 36.7078C35.4668 36.1989 35.6963 35.6632 35.8853 35.1409L37.4109 30.976L29.9854 28.2976L25.665 40.0959L22.8433 39.0781L22.8298 39.0648ZM28.0817 40.953L31.5785 31.4179L34.4002 32.4357L31.808 39.5067L35.2103 40.7388C36.3579 41.1673 37.4379 41.1941 38.437 40.8191C39.4361 40.4575 40.1516 39.6808 40.5837 38.4889L43.5539 30.3733L46.3756 31.3911L43.4189 39.4397C42.9599 40.7254 42.2848 41.7432 41.3937 42.4797C40.5027 43.2163 39.4496 43.6448 38.2345 43.7654C37.0059 43.8859 35.6693 43.685 34.1977 43.1627L28.0547 40.953H28.0817Z" fill="#FFCC0A"/>
</svg>
