<svg width="20" height="21" viewBox="0 0 20 21" fill="none" xmlns="http://www.w3.org/2000/svg">
<path d="M10.1704 0.75C8.24205 0.75 6.35698 1.32183 4.7536 2.39317C3.15023 3.46451 1.90054 4.98726 1.16259 6.76884C0.424635 8.55042 0.231552 10.5108 0.607758 12.4021C0.983964 14.2934 1.91256 16.0307 3.27612 17.3943C4.63969 18.7579 6.37697 19.6865 8.26828 20.0627C10.1596 20.4389 12.12 20.2458 13.9016 19.5078C15.6832 18.7699 17.2059 17.5202 18.2772 15.9168C19.3486 14.3134 19.9204 12.4284 19.9204 10.5C19.9155 7.91566 18.8866 5.43859 17.0592 3.61118C15.2318 1.78378 12.7548 0.754956 10.1704 0.75ZM9.98291 5.25C10.2054 5.25 10.4229 5.31598 10.6079 5.4396C10.7929 5.56321 10.9371 5.73891 11.0223 5.94448C11.1074 6.15005 11.1297 6.37625 11.0863 6.59448C11.0429 6.81271 10.9357 7.01316 10.7784 7.1705C10.6211 7.32783 10.4206 7.43498 10.2024 7.47838C9.98416 7.52179 9.75796 7.49951 9.5524 7.41436C9.34683 7.32922 9.17113 7.18502 9.04751 7.00002C8.92389 6.81501 8.85791 6.5975 8.85791 6.375C8.85791 6.07663 8.97644 5.79048 9.18742 5.5795C9.3984 5.36853 9.68455 5.25 9.98291 5.25ZM10.9204 15.75H10.1704C9.9715 15.75 9.78074 15.671 9.64008 15.5303C9.49943 15.3897 9.42041 15.1989 9.42041 15V10.5C9.2215 10.5 9.03074 10.421 8.89008 10.2803C8.74943 10.1397 8.67041 9.94891 8.67041 9.75C8.67041 9.55109 8.74943 9.36032 8.89008 9.21967C9.03074 9.07902 9.2215 9 9.42041 9H10.1704C10.3693 9 10.5601 9.07902 10.7007 9.21967C10.8414 9.36032 10.9204 9.55109 10.9204 9.75V14.25C11.1193 14.25 11.3101 14.329 11.4507 14.4697C11.5914 14.6103 11.6704 14.8011 11.6704 15C11.6704 15.1989 11.5914 15.3897 11.4507 15.5303C11.3101 15.671 11.1193 15.75 10.9204 15.75Z" fill="#6775F4"/>
</svg>
