<svg width="24" height="25" viewBox="0 0 24 25" fill="none" xmlns="http://www.w3.org/2000/svg">
<path d="M12.21 0.95752C5.79684 0.95752 0.584961 6.16939 0.584961 12.5825C0.584961 18.9956 5.79684 24.2075 12.21 24.2075C18.6231 24.2075 23.835 18.9956 23.835 12.5825C23.835 6.16939 18.6231 0.95752 12.21 0.95752ZM12.21 22.27C6.86246 22.27 2.52246 17.93 2.52246 12.5825C2.52246 7.23502 6.86246 2.89502 12.21 2.89502C17.5575 2.89502 21.8975 7.23502 21.8975 12.5825C21.8975 17.93 17.5575 22.27 12.21 22.27Z" fill="black"/>
<path d="M12.21 10.3545C11.6675 10.3545 11.2412 10.7807 11.2412 11.3232V17.9107C11.2412 18.4532 11.6675 18.8795 12.21 18.8795C12.7525 18.8795 13.1787 18.4532 13.1787 17.9107V11.3232C13.1787 10.8001 12.7525 10.3545 12.21 10.3545Z" fill="black"/>
<path d="M12.2293 6.3824C11.7256 6.34365 11.2606 6.86677 11.2412 7.3899C11.2412 7.40927 11.2412 7.52552 11.2412 7.5449C11.2412 8.06802 11.6481 8.45552 12.1906 8.4749H12.21C12.7331 8.4749 13.1593 8.0099 13.1787 7.50615C13.1787 7.48677 13.1787 7.29302 13.1787 7.29302C13.1787 6.73115 12.7718 6.3824 12.2293 6.3824Z" fill="black"/>
</svg>
