<svg width="84" height="89" viewBox="0 0 84 89" fill="none" xmlns="http://www.w3.org/2000/svg">
<g clip-path="url(#clip0_4037_13183)">
<path d="M82.9705 33.3351C83.2821 34.0051 83.3211 34.8075 83.3444 35.5709C83.5314 42.0759 83.7184 48.612 82.8458 55.0624C81.9733 61.5129 79.9867 67.9243 76.1928 73.2062C70.1707 81.5808 60.043 86.3486 49.8141 87.6573C37.7155 89.1998 24.9157 86.1226 15.3957 78.4959C4.67595 69.9031 0.500244 57.2282 0.500244 43.9144C0.500244 35.2048 2.22195 27.5702 5.64977 21.0107C9.11654 14.4045 14.0401 9.26286 20.4206 5.57022C26.8399 1.88538 34.498 0.0390625 43.387 0.0390625C50.8191 0.0390625 56.3659 2.1113 61.8816 4.74444C62.3958 4.99374 62.6061 5.61697 62.349 6.12334L53.9976 22.6701C53.5613 23.527 52.5408 23.8153 51.7462 23.2621C48.2171 20.8238 43.4882 20.2083 39.3437 21.4314C34.6304 22.8259 30.7118 26.4017 28.3902 30.7331C24.1366 38.6715 24.5106 49.8195 28.9589 57.6177C31.857 62.697 37.2714 66.6233 43.1221 66.5221C56.4049 66.2884 59.7158 48.612 57.7682 38.3599C57.4021 36.4201 56.958 34.0986 58.3915 32.7352C59.3886 31.7848 60.9078 31.7303 62.2789 31.7225C67.8258 31.7069 73.3804 31.6991 78.9272 31.6835C80.275 31.6835 81.8253 31.7692 82.6589 32.8287C82.7835 32.9845 82.877 33.1481 82.9549 33.3195L82.9705 33.3351Z" fill="#F9F9F9"/>
<path d="M70.5057 29.2612C75.9656 29.2612 80.3918 24.8351 80.3918 19.3752C80.3918 13.9154 75.9656 9.48926 70.5057 9.48926C65.0457 9.48926 60.6195 13.9154 60.6195 19.3752C60.6195 24.8351 65.0457 29.2612 70.5057 29.2612Z" fill="#F9BF08"/>
<path d="M70.5057 27.9056C75.217 27.9056 79.0363 24.0864 79.0363 19.3752C79.0363 14.6639 75.217 10.8447 70.5057 10.8447C65.7944 10.8447 61.9751 14.6639 61.9751 19.3752C61.9751 24.0864 65.7944 27.9056 70.5057 27.9056Z" fill="#FFCA00"/>
<path d="M70.5057 34.5662C76.5852 34.5662 81.5136 34.1686 81.5136 33.6781C81.5136 33.1877 76.5852 32.79 70.5057 32.79C64.4261 32.79 59.4977 33.1877 59.4977 33.6781C59.4977 34.1686 64.4261 34.5662 70.5057 34.5662Z" fill="#B1B7DD"/>
</g>
<defs>
<clipPath id="clip0_4037_13183">
<rect width="83" height="88" fill="white" transform="translate(0.500244 0.0390625)"/>
</clipPath>
</defs>
</svg>
