<svg width="116" height="120" viewBox="0 0 116 120" fill="none" xmlns="http://www.w3.org/2000/svg">
<g clip-path="url(#clip0_4037_13183)" filter="url(#filter0_d_4037_13183)">
<path d="M98.9705 45.3351C99.2821 46.0051 99.3211 46.8075 99.3444 47.5709C99.5314 54.0759 99.7184 60.612 98.8458 67.0624C97.9733 73.5129 95.9867 79.9243 92.1928 85.2062C86.1707 93.5808 76.043 98.3486 65.8141 99.6573C53.7155 101.2 40.9157 98.1226 31.3957 90.4959C20.676 81.9031 16.5002 69.2282 16.5002 55.9144C16.5002 47.2048 18.2219 39.5702 21.6498 33.0107C25.1165 26.4045 30.0401 21.2629 36.4206 17.5702C42.8399 13.8854 50.498 12.0391 59.387 12.0391C66.8191 12.0391 72.3659 14.1113 77.8816 16.7444C78.3958 16.9937 78.6061 17.617 78.349 18.1233L69.9976 34.6701C69.5613 35.527 68.5408 35.8153 67.7462 35.2622C64.2171 32.8238 59.4882 32.2083 55.3437 33.4314C50.6304 34.8259 46.7118 38.4017 44.3902 42.7331C40.1366 50.6715 40.5106 61.8195 44.9589 69.6177C47.857 74.697 53.2714 78.6233 59.1221 78.5221C72.4049 78.2884 75.7158 60.612 73.7682 50.3599C73.4021 48.4201 72.958 46.0986 74.3915 44.7352C75.3886 43.7848 76.9078 43.7303 78.2789 43.7225C83.8258 43.7069 89.3804 43.6991 94.9272 43.6835C96.275 43.6835 97.8253 43.7692 98.6589 44.8287C98.7835 44.9845 98.877 45.1481 98.9549 45.3195L98.9705 45.3351Z" fill="#F9F9F9"/>
<path d="M86.5058 41.2612C91.9657 41.2612 96.3919 36.8351 96.3919 31.3752C96.3919 25.9154 91.9657 21.4893 86.5058 21.4893C81.0458 21.4893 76.6196 25.9154 76.6196 31.3752C76.6196 36.8351 81.0458 41.2612 86.5058 41.2612Z" fill="#F9BF08"/>
<path d="M86.5057 39.9056C91.217 39.9056 95.0363 36.0864 95.0363 31.3752C95.0363 26.6639 91.217 22.8447 86.5057 22.8447C81.7944 22.8447 77.9751 26.6639 77.9751 31.3752C77.9751 36.0864 81.7944 39.9056 86.5057 39.9056Z" fill="#FFCA00"/>
<path d="M86.5058 46.5662C92.5853 46.5662 97.5138 46.1686 97.5138 45.6781C97.5138 45.1877 92.5853 44.79 86.5058 44.79C80.4262 44.79 75.4978 45.1877 75.4978 45.6781C75.4978 46.1686 80.4262 46.5662 86.5058 46.5662Z" fill="#B1B7DD"/>
</g>
<defs>
<filter id="filter0_d_4037_13183" x="0.800244" y="0.339063" width="114.4" height="119.4" filterUnits="userSpaceOnUse" color-interpolation-filters="sRGB">
<feFlood flood-opacity="0" result="BackgroundImageFix"/>
<feColorMatrix in="SourceAlpha" type="matrix" values="0 0 0 0 0 0 0 0 0 0 0 0 0 0 0 0 0 0 127 0" result="hardAlpha"/>
<feOffset dy="4"/>
<feGaussianBlur stdDeviation="7.85"/>
<feComposite in2="hardAlpha" operator="out"/>
<feColorMatrix type="matrix" values="0 0 0 0 0 0 0 0 0 0 0 0 0 0 0 0 0 0 0.4 0"/>
<feBlend mode="normal" in2="BackgroundImageFix" result="effect1_dropShadow_4037_13183"/>
<feBlend mode="normal" in="SourceGraphic" in2="effect1_dropShadow_4037_13183" result="shape"/>
</filter>
<clipPath id="clip0_4037_13183">
<rect width="83" height="88" fill="white" transform="translate(16.5002 12.0391)"/>
</clipPath>
</defs>
</svg>
