<svg width="21" height="32" viewBox="0 0 21 32" fill="none" xmlns="http://www.w3.org/2000/svg">
<path d="M16.7889 3.02939C14.4214 1.07836 11.3048 0.301993 8.23985 0.898742C4.11357 1.70197 0.799564 5.18515 0.180848 9.36938C-0.323821 12.7839 0.889198 16.1938 3.42579 18.4915C4.56871 19.5267 5.25823 21.0177 5.36774 22.6904C5.36983 22.7207 5.37576 22.75 5.38239 22.779V28.0242C5.38239 28.3129 5.61641 28.5473 5.90554 28.5473H6.42695C6.63935 30.0676 7.75681 31.2318 9.10271 31.2318H11.4778C12.8237 31.2318 13.9408 30.0676 14.1532 28.5473H14.6746C14.9634 28.5473 15.1978 28.3129 15.1978 28.0242V22.6953L15.1981 22.6918C15.1981 21.1356 15.9047 19.6327 17.1882 18.4601C19.3025 16.5286 20.5148 13.7813 20.5148 10.9232C20.5151 7.85815 19.157 4.98077 16.7889 3.02939ZM8.44039 12.9582H7.63648C7.19319 12.9582 6.83257 12.5976 6.83257 12.1543C6.83257 11.711 7.19319 11.3504 7.63648 11.3504C8.07976 11.3504 8.44039 11.711 8.44039 12.1543V12.9582ZM12.1405 12.1543C12.1405 11.711 12.5011 11.3504 12.9447 11.3504C13.388 11.3504 13.7487 11.711 13.7487 12.1543C13.7487 12.5976 13.388 12.9582 12.9447 12.9582H12.1415L12.1405 12.1543ZM11.8255 23.1776H14.1518V27.501H13.673L13.6695 27.5007L13.666 27.501H6.91453L6.91104 27.5007L6.90755 27.501H6.42904V23.1776H11.4395M9.4867 22.1313V14.0046H11.097L11.1088 22.1313H9.4867ZM11.4778 30.1855H9.10271C8.32216 30.1855 7.66682 29.4866 7.48546 28.5473H13.0947C12.9137 29.4866 12.2584 30.1855 11.4778 30.1855ZM16.4827 17.6879C15.1322 18.9216 14.3328 20.4827 14.1832 22.1313H12.1548L12.1433 14.0046H12.9447C13.9649 14.0046 14.795 13.1745 14.795 12.1543C14.795 11.1342 13.9649 10.3041 12.9447 10.3041C11.9242 10.3041 11.0942 11.1342 11.0942 12.155L11.0952 12.9582H9.4867V12.1543C9.4867 11.1342 8.65663 10.3041 7.63648 10.3041C6.61633 10.3041 5.78626 11.1342 5.78626 12.1543C5.78626 13.1745 6.61633 14.0046 7.63648 14.0046H8.44039V22.1313H6.35754C6.13573 20.3857 5.35867 18.8302 4.12787 17.7158C1.8511 15.6532 0.762246 12.5903 1.21565 9.52214C1.77054 5.76935 4.741 2.64574 8.43935 1.92553C11.1974 1.38912 13.998 2.08527 16.1227 3.8368C18.2488 5.58868 19.4681 8.17169 19.4681 10.9235C19.4688 13.4884 18.3803 15.9542 16.4827 17.6879Z" fill="#6775F4"/>
</svg>
