<svg width="41" height="40" viewBox="0 0 41 40" fill="none" xmlns="http://www.w3.org/2000/svg">
<g clip-path="url(#clip0_1392_15250)">
<path d="M20.4465 23.415C21.4821 23.415 22.3215 22.5966 22.3215 21.5869C22.3215 20.5773 21.4821 19.7588 20.4465 19.7588C19.411 19.7588 18.5715 20.5773 18.5715 21.5869C18.5715 22.5966 19.411 23.415 20.4465 23.415Z" fill="black"/>
<path d="M32.9465 12.4463H27.3215V8.18066C27.3215 6.40288 26.5972 4.69792 25.3079 3.44084C24.0186 2.18376 22.2699 1.47754 20.4465 1.47754C18.6232 1.47754 16.8745 2.18376 15.5852 3.44084C14.2959 4.69792 13.5715 6.40288 13.5715 8.18066V12.4463H7.94653C7.28349 12.4463 6.64761 12.7031 6.17877 13.1602C5.70993 13.6173 5.44653 14.2373 5.44653 14.8838V31.9463C5.44653 32.5928 5.70993 33.2127 6.17877 33.6699C6.64761 34.127 7.28349 34.3838 7.94653 34.3838H32.9465C33.6096 34.3838 34.2455 34.127 34.7143 33.6699C35.1831 33.2127 35.4465 32.5928 35.4465 31.9463V14.8838C35.4465 14.2373 35.1831 13.6173 34.7143 13.1602C34.2455 12.7031 33.6096 12.4463 32.9465 12.4463ZM21.6965 25.6697V28.29C21.6965 28.6133 21.5648 28.9233 21.3304 29.1518C21.096 29.3804 20.7781 29.5088 20.4465 29.5088C20.115 29.5088 19.7971 29.3804 19.5626 29.1518C19.3282 28.9233 19.1965 28.6133 19.1965 28.29V25.6697C18.1895 25.377 17.3241 24.7406 16.7587 23.8769C16.1933 23.0132 15.9657 21.98 16.1174 20.9661C16.2691 19.9522 16.79 19.0254 17.585 18.3553C18.3799 17.6851 19.3956 17.3163 20.4465 17.3163C21.4974 17.3163 22.5132 17.6851 23.3081 18.3553C24.103 19.0254 24.624 19.9522 24.7757 20.9661C24.9274 21.98 24.6998 23.0132 24.1344 23.8769C23.569 24.7406 22.7036 25.377 21.6965 25.6697ZM24.8215 12.4463H16.0715V8.18066C16.0715 7.04935 16.5325 5.96437 17.3529 5.16441C18.1734 4.36445 19.2862 3.91504 20.4465 3.91504C21.6069 3.91504 22.7197 4.36445 23.5401 5.16441C24.3606 5.96437 24.8215 7.04935 24.8215 8.18066V12.4463Z" fill="#EDEFF7"/>
</g>
<defs>
<clipPath id="clip0_1392_15250">
<rect width="40" height="39" fill="white" transform="translate(0.446533 0.258789)"/>
</clipPath>
</defs>
</svg>
