<?xml version="1.0" encoding="UTF-8"?><svg id="Layer_2" xmlns="http://www.w3.org/2000/svg" viewBox="0 0 106.54 112.96"><defs><style>.cls-1{fill:#f9bf08;}.cls-1,.cls-2,.cls-3,.cls-4{stroke-width:0px;}.cls-2{fill:#d6d9f1;}.cls-3{fill:#b1b7dd;}.cls-4{fill:#ffca00;}</style></defs><g id="Layer_1-2"><path class="cls-2" d="M105.86,42.74c.4.86.45,1.89.48,2.87.24,8.35.48,16.74-.64,25.02s-3.67,16.51-8.54,23.29c-7.73,10.75-20.73,16.87-33.86,18.55-15.53,1.98-31.96-1.97-44.18-11.76C5.36,89.68,0,73.41,0,56.32c0-11.18,2.21-20.98,6.61-29.4,4.45-8.48,10.77-15.08,18.96-19.82C33.81,2.37,43.64,0,55.05,0c9.54,0,16.66,2.66,23.74,6.04.66.32.93,1.12.6,1.77l-10.72,21.24c-.56,1.1-1.87,1.47-2.89.76-4.53-3.13-10.6-3.92-15.92-2.35-6.05,1.79-11.08,6.38-14.06,11.94-5.46,10.19-4.98,24.5.73,34.51,3.72,6.52,10.67,11.56,18.18,11.43,17.05-.3,21.3-22.99,18.8-36.15-.47-2.49-1.04-5.47.8-7.22,1.28-1.22,3.23-1.29,4.99-1.3,7.12-.02,14.25-.03,21.37-.05,1.73,0,3.72.11,4.79,1.47.16.2.28.41.38.63Z"/><path class="cls-3" d="M103.99,43.18c0,.33-1.73.63-4.5.84-.79.06-1.67.11-2.62.16-2.07.09-4.46.15-7.01.15s-4.94-.06-7.01-.15c-.95-.05-1.84-.1-2.63-.16-2.77-.21-4.5-.51-4.5-.84,0-.28,1.25-.54,3.34-.74.6-.05,1.28-.11,2.01-.15,2.42-.16,5.47-.25,8.79-.25s6.38.09,8.79.25c.73.04,1.4.1,2,.15,2.09.2,3.34.46,3.34.74Z"/><path class="cls-1" d="M82.86,44.18c2.07.09,4.46.15,7.01.15s4.94-.06,7.01-.15h-14.02ZM89.86,23.08c-7.01,0-12.7,5.68-12.7,12.69,0,2.45.69,4.74,1.9,6.67.34.56.73,1.09,1.16,1.58.79.06,1.68.11,2.63.16,2.07.09,4.46.15,7.01.15s4.94-.06,7.01-.15c.95-.05,1.83-.1,2.62-.16.43-.49.82-1.02,1.16-1.58,1.21-1.93,1.9-4.22,1.9-6.67,0-7.01-5.68-12.69-12.69-12.69Z"/><path class="cls-4" d="M100.81,35.77c0,2.45-.8,4.7-2.16,6.52-.51.7-1.11,1.33-1.78,1.89-2.07.09-4.46.15-7.01.15s-4.94-.06-7.01-.15c-.67-.56-1.27-1.19-1.78-1.89-1.36-1.82-2.16-4.07-2.16-6.52,0-6.05,4.9-10.95,10.95-10.95s10.95,4.9,10.95,10.95Z"/></g></svg>