<svg width="270" height="256" viewBox="0 0 270 256" fill="none" xmlns="http://www.w3.org/2000/svg">
<g clip-path="url(#clip0_1371_23452)">
<path opacity="0.64" d="M248.158 159.533C245.54 148.144 240.92 137.202 239.608 125.57C236.828 100.967 249.132 75.9566 243.667 51.8128C238.417 28.569 215.195 10.7724 191.398 11.7536C182.787 12.1054 174.42 14.6091 165.876 15.746C141.734 18.9466 117.443 11.1175 93.0916 11.6859C80.1852 11.9904 66.6632 15.0219 57.2404 23.8255C48.5685 31.9456 44.4558 43.8957 43.2246 55.6901C41.9935 67.4846 43.3329 79.3738 43.9011 91.2224C44.9631 113.749 42.8729 137.426 30.927 156.555C25.3261 165.528 17.6012 173.472 14.5843 183.622C12.6497 190.003 12.8526 196.581 14.449 203.002C17.0194 213.214 35.1277 230.313 43.3193 236.498C48.7714 240.619 77.4591 252.136 91.1232 254.132C110.422 256.961 149.378 257.292 172.83 250.201L200.28 241.905C264.629 216.306 255.903 196.689 248.591 161.536C248.456 160.859 248.314 160.196 248.158 159.533Z" fill="#D7D9EF"/>
<path d="M250.701 118.418V144.741L164.415 58.4173L119.236 103.606L23.1138 7.44329C21.8572 6.18398 20.3647 5.1849 18.7218 4.50324C17.0788 3.82157 15.3175 3.4707 13.5388 3.4707C11.7601 3.4707 9.99891 3.82157 8.35592 4.50324C6.71293 5.1849 5.22044 6.18398 3.96386 7.44329C2.70499 8.70031 1.70627 10.1933 1.02485 11.8369C0.343424 13.4805 -0.00732422 15.2423 -0.00732422 17.0216C-0.00732422 18.801 0.343424 20.5628 1.02485 22.2064C1.70627 23.8499 2.70499 25.343 3.96386 26.6L119.236 141.919L164.415 96.7239L231.565 163.898H205.258L224.577 183.196H270.027V137.73L250.701 118.418Z" fill="#6976EC"/>
<path d="M142.661 110.203L92.8548 103.599C90.0066 103.217 87.2712 102.239 84.8272 100.727C82.3833 99.2145 80.286 97.2035 78.6725 94.8248C77.0589 92.4462 75.9656 89.7536 75.4639 86.9231C74.9622 84.0927 75.0635 81.1882 75.7612 78.3997L79.5966 62.9309C82.2103 52.4665 88.5833 43.3309 97.5 37.2667C106.417 31.2024 117.253 28.6339 127.942 30.0512C138.63 31.4675 148.424 36.7711 155.453 44.9497C162.482 53.1284 166.255 63.6097 166.052 74.3937L165.727 90.343C165.673 93.2159 165.013 96.045 163.79 98.6453C162.568 101.246 160.811 103.559 158.634 105.433C156.457 107.308 153.909 108.701 151.156 109.523C148.404 110.345 145.509 110.577 142.661 110.203Z" fill="#F2E9DA"/>
<path d="M117.7 0.0880521L145.644 3.79624C147.457 4.02891 149.162 4.79233 150.543 5.99067C151.925 7.18901 152.922 8.76887 153.409 10.5319C153.896 12.295 153.851 14.1627 153.281 15.9006C152.711 17.6385 151.64 19.1691 150.203 20.3004L126.764 38.936L109.001 14.799C107.92 13.332 107.295 11.5793 107.203 9.75917C107.111 7.93907 107.556 6.13214 108.484 4.56359C109.411 2.99505 110.78 1.73428 112.419 0.938416C114.058 0.142557 115.894 -0.153185 117.7 0.0880521Z" fill="#F2E9DA"/>
<path d="M118.803 0.236816L127.847 1.42777L122.909 13.2561C122.803 13.5178 122.613 13.737 122.37 13.8791C122.126 14.0212 121.842 14.0782 121.562 14.041C121.282 14.0038 121.023 13.8745 120.824 13.6736C120.626 13.4727 120.5 13.2116 120.467 12.9313L118.803 0.236816Z" fill="#E8C262"/>
<path d="M135.518 2.44971L144.534 3.64742L139.624 15.4757C139.514 15.7327 139.323 15.9468 139.08 16.085C138.838 16.2233 138.556 16.2782 138.279 16.2414C138.002 16.2045 137.745 16.078 137.547 15.8811C137.349 15.6841 137.22 15.4277 137.182 15.1509L135.518 2.44971Z" fill="#E8C262"/>
<path d="M136.133 33.4344L119.154 31.1811C118.951 31.1569 118.754 31.0925 118.576 30.9917C118.398 30.891 118.241 30.7558 118.115 30.5941C117.989 30.4323 117.897 30.2472 117.843 30.0495C117.789 29.8517 117.775 29.6453 117.802 29.442C117.826 29.2385 117.89 29.0419 117.991 28.8634C118.092 28.6849 118.227 28.5282 118.388 28.4024C118.55 28.2765 118.735 28.184 118.933 28.1301C119.13 28.0763 119.337 28.0622 119.54 28.0887L136.525 30.342C136.729 30.3663 136.925 30.4306 137.104 30.5314C137.282 30.6321 137.439 30.7673 137.565 30.9291C137.691 31.0908 137.783 31.2759 137.837 31.4736C137.891 31.6714 137.905 31.8779 137.878 32.0811C137.853 32.2849 137.788 32.4817 137.687 32.6602C137.585 32.8387 137.449 32.9954 137.287 33.1212C137.125 33.247 136.94 33.3394 136.741 33.3932C136.543 33.4469 136.337 33.461 136.133 33.4344Z" fill="#E8C262"/>
<path d="M133.177 62.9715C132.472 62.3837 131.729 61.8434 130.952 61.3542C130.201 60.8538 129.419 60.4017 128.611 60.0009C127.738 59.5704 126.833 59.2062 125.906 58.9114L125.31 63.4113C125.622 63.529 125.927 63.6645 126.223 63.8173C126.541 63.9797 126.9 64.1286 127.231 64.2775C128.68 64.9333 130.086 65.6815 131.439 66.5173C132.591 67.2224 133.634 68.0908 134.537 69.0954C135.36 70.0357 135.959 71.151 136.289 72.357C136.649 73.7791 136.714 75.26 136.478 76.708C136.298 78.4493 135.719 80.1256 134.787 81.6071C133.975 82.843 132.898 83.883 131.635 84.6522C130.385 85.3937 129.009 85.8984 127.576 86.1409C126.069 86.4032 124.536 86.4827 123.01 86.3777L122.212 92.4678L118.208 91.94L119.026 85.7822C116.727 85.2691 114.488 84.5114 112.35 83.5221C110.301 82.5994 108.368 81.4364 106.593 80.0576L111.937 72.0592C112.801 72.7712 113.704 73.4331 114.643 74.0419C115.564 74.6555 116.519 75.2158 117.504 75.7201C118.58 76.2904 119.714 76.7441 120.886 77.0734L121.468 72.6683C120.467 72.2623 119.479 71.8089 118.492 71.3149C117.156 70.6691 115.877 69.9107 114.67 69.048C113.699 68.3659 112.847 67.5293 112.147 66.5714C111.512 65.6875 111.075 64.6763 110.868 63.6076C110.647 62.4469 110.624 61.2571 110.801 60.0889C110.984 58.445 111.507 56.8573 112.336 55.4266C113.087 54.1598 114.08 53.0537 115.258 52.1717C116.448 51.2969 117.786 50.6457 119.209 50.25C120.698 49.8327 122.242 49.6434 123.788 49.6883L124.465 44.6606L128.469 45.1885L127.793 50.2974C128.857 50.5665 129.901 50.9079 130.918 51.3191C131.919 51.7251 132.866 52.165 133.773 52.6725C134.679 53.18 135.518 53.6334 136.302 54.1273C137.087 54.6213 137.804 55.0882 138.46 55.4807L133.177 62.9715ZM121.116 59.8453C121.08 60.0724 121.091 60.3046 121.15 60.5271C121.208 60.7496 121.312 60.9575 121.455 61.1377C121.839 61.5733 122.297 61.9376 122.807 62.2136L123.308 58.4107C121.989 58.3972 121.245 58.8708 121.116 59.8453ZM125.851 76.2614C125.88 76.0252 125.856 75.7857 125.781 75.5598C125.707 75.334 125.583 75.1276 125.419 74.9554C124.992 74.4963 124.491 74.1121 123.937 73.8186L123.443 77.52C124.048 77.5962 124.663 77.5001 125.216 77.2426C125.395 77.1434 125.547 77.0024 125.66 76.8316C125.774 76.6608 125.844 76.4652 125.865 76.2614H125.851Z" fill="#E8C262"/>
<path opacity="0.12" d="M165.727 90.3427L166.025 74.3935C166.116 70.2994 165.631 66.2128 164.584 62.2539C157.434 70.2914 148.78 76.85 139.109 81.5595C133.15 84.5132 126.903 86.8464 120.467 88.5225C106.37 92.1833 91.8062 93.0021 77.2222 92.3524C78.6989 95.3705 80.8991 97.9761 83.6266 99.9372C86.3542 101.898 89.5244 103.154 92.8546 103.592L142.661 110.196C145.508 110.57 148.403 110.339 151.154 109.517C153.906 108.695 156.454 107.302 158.631 105.428C160.808 103.555 162.565 101.242 163.788 98.6429C165.011 96.0434 165.672 93.2151 165.727 90.3427Z" fill="#C1A584"/>
<path d="M76.228 192.122L152.726 200.539L156.738 198.259L142.607 188.786L151.583 187.128L148.235 184.874L77.8785 177.126L76.228 192.122Z" fill="#040A3F"/>
<path d="M53.9189 229.636H71.3101C72.1223 229.64 72.9134 229.378 73.5622 228.889C74.2109 228.4 74.6816 227.712 74.902 226.93L102.771 125.354H79.265L51.5311 226.504C51.4357 226.871 51.425 227.255 51.4999 227.627C51.5747 227.999 51.7332 228.349 51.9632 228.651C52.1932 228.953 52.4888 229.198 52.8276 229.369C53.1664 229.54 53.5396 229.631 53.9189 229.636Z" fill="#040A3F"/>
<path d="M102.771 125.327L94.8839 154.072L73.894 144.89L79.2582 125.327H102.771Z" fill="#020723"/>
<path d="M212.97 229.055C213.665 229.483 214.481 229.669 215.293 229.586C216.105 229.503 216.867 229.155 217.461 228.595L230.144 216.692C230.425 216.428 230.641 216.104 230.775 215.743C230.91 215.382 230.959 214.995 230.92 214.612C230.881 214.229 230.754 213.861 230.549 213.535C230.344 213.209 230.067 212.935 229.739 212.733L181.529 183.217L168.169 179.833L169.427 185.849L161.797 183.142L166.356 195.323L160.39 196.859L212.97 229.055Z" fill="#040A3F"/>
<path d="M181.529 183.217L168.169 179.833L169.427 185.849L161.797 183.142L166.356 195.323L160.39 196.859L165.443 199.958C174.291 197.488 189.118 193.326 195.139 191.547L181.529 183.217Z" fill="#020723"/>
<path d="M162.934 169.771L165.66 177.404L169.515 172.613L175.373 185.098L168.717 137.203L145.407 134.165L151.421 177.411L156.393 181.045L162.934 169.771Z" fill="#040A3F"/>
<path d="M145.407 134.165L149.513 163.695L171.511 157.3L168.717 137.203L145.407 134.165Z" fill="#020723"/>
<path d="M178.336 139.598L70.3498 125.517C68.7463 125.308 67.1996 124.785 65.798 123.979C64.3965 123.172 63.1675 122.097 62.1813 120.815C61.1951 119.533 60.471 118.07 60.0503 116.508C59.6297 114.946 59.5207 113.316 59.7297 111.712C59.9383 110.108 60.4606 108.561 61.267 107.159C62.0734 105.757 63.148 104.528 64.4295 103.541C65.7109 102.555 67.1741 101.83 68.7354 101.409C70.2967 100.989 71.9256 100.88 73.529 101.089L181.502 115.163C184.741 115.586 187.679 117.279 189.671 119.869C191.662 122.459 192.544 125.734 192.122 128.974C191.697 132.21 190.008 135.145 187.424 137.136C184.84 139.127 181.572 140.013 178.336 139.598Z" fill="#040A3F"/>
<path d="M214.005 170.482C221.312 170.482 227.236 164.556 227.236 157.246C227.236 149.936 221.312 144.01 214.005 144.01C206.697 144.01 200.773 149.936 200.773 157.246C200.773 164.556 206.697 170.482 214.005 170.482Z" fill="#DDB458"/>
<path d="M214.004 168.418C220.172 168.418 225.172 163.416 225.172 157.246C225.172 151.076 220.172 146.074 214.004 146.074C207.837 146.074 202.836 151.076 202.836 157.246C202.836 163.416 207.837 168.418 214.004 168.418Z" stroke="#D3A133" stroke-width="0.65" stroke-miterlimit="10"/>
<path d="M216.758 155.27C216.54 155.13 216.314 155.003 216.081 154.891C215.848 154.774 215.606 154.674 215.357 154.593C215.093 154.501 214.821 154.428 214.546 154.377V155.73L214.823 155.811L215.134 155.906C215.575 156.037 216.007 156.197 216.426 156.386C216.783 156.542 217.114 156.752 217.407 157.009C217.682 157.244 217.898 157.541 218.036 157.875C218.195 158.27 218.271 158.694 218.259 159.12C218.274 159.627 218.17 160.13 217.955 160.589C217.771 160.973 217.503 161.31 217.17 161.576C216.837 161.838 216.459 162.038 216.054 162.165C215.632 162.295 215.196 162.375 214.755 162.402V164.168H213.585V162.375C212.897 162.315 212.217 162.184 211.556 161.983C210.935 161.791 210.338 161.53 209.777 161.204L211.001 158.707C211.273 158.88 211.556 159.036 211.847 159.174C212.135 159.316 212.43 159.44 212.733 159.546C213.065 159.669 213.41 159.755 213.761 159.804V158.518C213.463 158.443 213.159 158.349 212.855 158.24C212.448 158.104 212.052 157.937 211.671 157.74C211.368 157.58 211.094 157.372 210.859 157.124C210.641 156.891 210.475 156.614 210.372 156.312C210.267 155.989 210.216 155.65 210.223 155.31C210.214 154.83 210.304 154.354 210.487 153.91C210.655 153.52 210.896 153.166 211.197 152.868C211.509 152.581 211.868 152.352 212.259 152.191C212.671 152.017 213.107 151.906 213.551 151.859V150.384H214.722V151.873C215.036 151.911 215.348 151.969 215.655 152.049C215.948 152.124 216.237 152.214 216.521 152.32C216.798 152.421 217.062 152.529 217.306 152.638L217.982 152.956L216.758 155.27ZM213.179 154.83C213.176 154.896 213.187 154.963 213.212 155.025C213.236 155.087 213.274 155.142 213.321 155.189C213.45 155.301 213.6 155.389 213.761 155.446V154.336C213.376 154.383 213.179 154.553 213.179 154.83ZM215.161 159.364C215.162 159.295 215.147 159.227 215.118 159.165C215.089 159.103 215.046 159.048 214.992 159.005C214.851 158.889 214.69 158.798 214.519 158.734V159.817C214.696 159.813 214.869 159.762 215.019 159.668C215.064 159.632 215.101 159.585 215.125 159.532C215.15 159.48 215.162 159.422 215.161 159.364Z" stroke="#D3A133" stroke-width="0.65" stroke-miterlimit="10"/>
<path d="M185.209 113.167C182.906 114.411 180.287 114.945 177.682 114.7C175.076 114.455 172.602 113.443 170.572 111.791C168.542 110.14 167.047 107.923 166.276 105.421C165.505 102.92 165.493 100.246 166.241 97.7375C166.989 95.2291 168.464 92.999 170.479 91.3291C172.494 89.6592 174.959 88.6246 177.562 88.356C180.165 88.0874 182.789 88.597 185.103 89.8202C187.416 91.0435 189.315 92.9255 190.559 95.2283C191.386 96.7575 191.903 98.4347 192.081 100.164C192.259 101.893 192.095 103.641 191.598 105.306C191.101 106.972 190.281 108.524 189.185 109.872C188.089 111.221 186.737 112.341 185.209 113.167Z" fill="#E8C262"/>
<path d="M184.228 111.354C182.286 112.406 180.075 112.859 177.876 112.656C175.676 112.452 173.587 111.6 171.871 110.208C170.156 108.816 168.892 106.946 168.238 104.835C167.585 102.725 167.572 100.467 168.201 98.3492C168.831 96.2311 170.073 94.3471 171.773 92.9357C173.472 91.5242 175.552 90.6486 177.749 90.4196C179.946 90.1905 182.162 90.6184 184.116 91.649C186.07 92.6796 187.674 94.2667 188.726 96.2095C190.137 98.8145 190.456 101.873 189.612 104.713C188.769 107.553 186.832 109.942 184.228 111.354Z" stroke="#D3A133" stroke-width="0.65" stroke-miterlimit="10"/>
<path d="M181.962 103.01C181.979 102.745 181.979 102.478 181.962 102.212C181.962 101.975 181.921 101.711 181.881 101.434C181.834 101.158 181.766 100.887 181.678 100.622L180.521 101.244C180.549 101.337 180.57 101.432 180.582 101.529C180.582 101.63 180.623 101.732 180.65 101.84C180.74 102.287 180.804 102.739 180.839 103.193C180.869 103.583 180.841 103.975 180.758 104.357C180.682 104.711 180.524 105.042 180.298 105.325C180.021 105.649 179.683 105.915 179.304 106.11C178.866 106.36 178.379 106.508 177.876 106.543C177.448 106.56 177.021 106.484 176.625 106.319C176.239 106.16 175.886 105.931 175.583 105.643C175.264 105.336 174.985 104.99 174.751 104.614L173.195 105.453L172.641 104.425L174.223 103.572C173.952 102.946 173.748 102.293 173.615 101.623C173.483 100.987 173.429 100.337 173.452 99.688L176.233 99.5797C176.212 99.9019 176.212 100.225 176.233 100.547C176.247 100.867 176.279 101.185 176.327 101.501C176.381 101.852 176.469 102.197 176.591 102.53L177.721 101.914C177.646 101.616 177.585 101.305 177.538 100.987C177.462 100.565 177.421 100.137 177.416 99.7083C177.413 99.3643 177.463 99.0219 177.565 98.6932C177.666 98.4025 177.824 98.1354 178.032 97.9083C178.264 97.6569 178.539 97.4484 178.844 97.2925C179.26 97.0573 179.721 96.9099 180.196 96.8594C180.621 96.8218 181.048 96.8677 181.455 96.9948C181.859 97.1251 182.237 97.3268 182.571 97.5903C182.921 97.8718 183.228 98.2023 183.484 98.5714L184.783 97.8948L185.337 98.9233L183.991 99.5932C184.111 99.8878 184.208 100.191 184.282 100.5C184.356 100.792 184.415 101.088 184.458 101.386C184.499 101.684 184.526 101.962 184.546 102.232C184.566 102.503 184.546 102.747 184.587 102.97L181.962 103.01ZM180.65 99.627C180.59 99.6562 180.537 99.6978 180.495 99.7492C180.453 99.8006 180.423 99.8605 180.406 99.9248C180.374 100.092 180.374 100.265 180.406 100.432L181.387 99.9045C181.13 99.6135 180.893 99.5188 180.643 99.6541L180.65 99.627ZM177.606 103.531C177.667 103.499 177.72 103.453 177.76 103.397C177.799 103.34 177.826 103.275 177.836 103.207C177.867 103.03 177.867 102.849 177.836 102.672L176.889 103.186C176.973 103.341 177.1 103.467 177.254 103.552C177.31 103.578 177.371 103.589 177.432 103.586C177.494 103.582 177.553 103.564 177.606 103.531Z" stroke="#D3A133" stroke-width="0.65" stroke-miterlimit="10"/>
<path d="M149.608 108.478C147.306 109.722 144.686 110.256 142.081 110.011C139.476 109.766 137.002 108.754 134.971 107.102C132.941 105.451 131.446 103.234 130.675 100.732C129.904 98.2309 129.892 95.557 130.64 93.0486C131.388 90.5402 132.863 88.31 134.878 86.6401C136.894 84.9703 139.359 83.9356 141.961 83.667C144.564 83.3984 147.188 83.908 149.502 85.1312C151.815 86.3545 153.714 88.2365 154.959 90.5393C155.785 92.0686 156.302 93.7457 156.48 95.4749C156.659 97.2041 156.495 98.9515 155.998 100.617C155.501 102.283 154.681 103.835 153.584 105.183C152.488 106.532 151.137 107.652 149.608 108.478Z" fill="#E8C262"/>
<path d="M148.627 106.664C146.683 107.714 144.473 108.163 142.274 107.956C140.075 107.749 137.987 106.894 136.274 105.5C134.56 104.106 133.299 102.235 132.649 100.123C131.998 98.0121 131.988 95.7553 132.62 93.6382C133.252 91.5212 134.496 89.6391 136.197 88.2298C137.898 86.8205 139.979 85.9473 142.175 85.7206C144.372 85.4939 146.587 85.9239 148.54 86.9562C150.492 87.9885 152.095 89.5768 153.145 91.5203C153.844 92.8112 154.281 94.2272 154.432 95.6873C154.583 97.1474 154.445 98.623 154.025 100.03C153.606 101.436 152.913 102.746 151.987 103.885C151.06 105.023 149.918 105.968 148.627 106.664Z" stroke="#D3A133" stroke-width="0.65" stroke-miterlimit="10"/>
<path d="M146.361 98.321C146.381 98.0552 146.381 97.7883 146.361 97.5225C146.352 97.2615 146.325 97.0015 146.28 96.7443C146.237 96.4687 146.171 96.1971 146.084 95.9323L144.927 96.5548C144.955 96.6477 144.975 96.7428 144.988 96.8391C144.988 96.9406 145.028 97.0421 145.049 97.1503C145.143 97.5965 145.206 98.0487 145.238 98.5037C145.273 98.8932 145.248 99.2857 145.164 99.6676C145.082 100.021 144.923 100.352 144.697 100.635C144.424 100.959 144.088 101.223 143.709 101.413C143.271 101.668 142.781 101.819 142.275 101.853C141.849 101.871 141.424 101.795 141.031 101.63C140.643 101.47 140.288 101.241 139.982 100.953C139.669 100.643 139.392 100.298 139.157 99.9247L137.601 100.764L137.046 99.7352L138.622 98.8826C138.356 98.2552 138.154 97.6022 138.02 96.9338C137.89 96.2973 137.833 95.6479 137.851 94.9985L140.631 94.8902C140.614 95.2125 140.614 95.5355 140.631 95.8579C140.643 96.1776 140.675 96.4962 140.726 96.812C140.777 97.1634 140.865 97.5083 140.99 97.8405L142.12 97.2248C142.045 96.927 141.984 96.6157 141.93 96.2977C141.856 95.8754 141.818 95.4476 141.815 95.0188C141.809 94.6746 141.859 94.3317 141.964 94.0038C142.063 93.714 142.22 93.447 142.424 93.2188C142.659 92.9704 142.933 92.7624 143.236 92.6031C143.653 92.3687 144.113 92.2214 144.589 92.17C145.013 92.1323 145.44 92.1783 145.847 92.3053C146.255 92.4311 146.636 92.6331 146.97 92.9008C147.321 93.1806 147.629 93.5113 147.883 93.882L149.175 93.2053L149.73 94.2338L148.424 94.9444C148.539 95.2381 148.636 95.5387 148.715 95.8443C148.789 96.1488 148.843 96.4466 148.891 96.7376C148.938 97.0285 148.958 97.3127 148.979 97.5834C148.999 97.8541 148.979 98.0977 149.019 98.321H146.361ZM145.049 94.9376C144.989 94.9677 144.936 95.0096 144.893 95.0608C144.85 95.112 144.818 95.1713 144.798 95.2353C144.766 95.403 144.766 95.5752 144.798 95.7428L145.772 95.215C145.536 94.9173 145.292 94.8293 145.049 94.9647V94.9376ZM142.011 98.8352C142.072 98.8018 142.124 98.7552 142.163 98.699C142.203 98.6428 142.23 98.5784 142.241 98.5104C142.273 98.3314 142.273 98.1482 142.241 97.9691L141.288 98.4834C141.374 98.6375 141.5 98.7659 141.653 98.8555C141.708 98.8856 141.769 98.902 141.831 98.9032C141.894 98.9043 141.956 98.8903 142.011 98.8623V98.8352Z" stroke="#D3A133" stroke-width="0.65" stroke-miterlimit="10"/>
<path d="M150.041 110.156C147.786 108.827 145.977 106.858 144.841 104.5C143.705 102.141 143.293 99.4985 143.659 96.9062C144.024 94.3138 145.15 91.8881 146.894 89.9359C148.637 87.9836 150.921 86.5924 153.455 85.9383C155.989 85.2842 158.66 85.3966 161.13 86.2612C163.6 87.1258 165.759 88.7038 167.332 90.7956C168.906 92.8874 169.824 95.3991 169.971 98.013C170.117 100.627 169.486 103.226 168.156 105.48C166.373 108.503 163.463 110.694 160.066 111.57C156.669 112.447 153.063 111.939 150.041 110.156Z" fill="#DDB458"/>
<path d="M151.082 108.377C149.184 107.25 147.661 105.587 146.707 103.596C145.753 101.605 145.41 99.3756 145.722 97.1898C146.033 95.0039 146.985 92.9594 148.458 91.3144C149.93 89.6694 151.856 88.4978 153.994 87.9474C156.132 87.397 158.384 87.4926 160.467 88.222C162.551 88.9515 164.371 90.2821 165.699 92.0459C167.027 93.8096 167.802 95.9274 167.928 98.1319C168.053 100.336 167.523 102.528 166.404 104.432C165.658 105.699 164.67 106.806 163.496 107.691C162.322 108.575 160.985 109.219 159.562 109.586C158.138 109.952 156.657 110.034 155.202 109.827C153.746 109.619 152.347 109.126 151.082 108.377Z" stroke="#D3A133" stroke-width="0.65" stroke-miterlimit="10"/>
<path d="M157.062 102.13C157.525 101.882 157.963 101.587 158.368 101.251C158.579 101.066 158.778 100.867 158.963 100.655L157.833 99.9785L157.623 100.175C157.54 100.242 157.461 100.314 157.387 100.391C157.045 100.7 156.686 100.989 156.311 101.257C155.994 101.485 155.646 101.666 155.276 101.792C154.932 101.907 154.567 101.942 154.207 101.894C153.789 101.826 153.388 101.674 153.03 101.447C152.587 101.203 152.205 100.86 151.914 100.445C151.68 100.088 151.525 99.6841 151.461 99.2613C151.406 98.8411 151.429 98.4145 151.529 98.0027C151.63 97.5712 151.782 97.1532 151.982 96.7576L150.46 95.8644L151.055 94.8561L152.598 95.7696C152.993 95.2156 153.447 94.7053 153.95 94.2471C154.425 93.8033 154.952 93.4193 155.52 93.1035L157.048 95.4313C156.762 95.5784 156.485 95.7411 156.216 95.9185C155.949 96.0958 155.692 96.2879 155.445 96.4937C155.172 96.7205 154.923 96.9744 154.701 97.2515L155.811 97.9282C156.027 97.7117 156.264 97.4951 156.487 97.2921C156.809 97.0078 157.156 96.752 157.522 96.5275C157.814 96.345 158.134 96.2123 158.469 96.135C158.77 96.0707 159.081 96.0707 159.382 96.135C159.714 96.2098 160.031 96.3377 160.322 96.514C160.74 96.7506 161.103 97.0708 161.391 97.4545C161.645 97.7958 161.826 98.1848 161.926 98.5981C162.026 99.0144 162.049 99.4457 161.993 99.8703C161.937 100.315 161.813 100.748 161.628 101.156L162.9 101.9L162.345 102.854L161.06 102.097C160.867 102.348 160.659 102.587 160.437 102.814C160.214 103.03 159.991 103.24 159.761 103.423C159.531 103.606 159.308 103.781 159.085 103.937L158.476 104.357L157.062 102.13ZM159.254 99.268C159.198 99.2315 159.136 99.2077 159.07 99.1983C159.005 99.189 158.938 99.1943 158.875 99.2139C158.713 99.2687 158.562 99.3512 158.428 99.4575L159.389 100.026C159.545 99.6673 159.497 99.4101 159.254 99.268ZM154.349 98.6793C154.412 98.7084 154.48 98.7234 154.549 98.7234C154.618 98.7234 154.686 98.7084 154.749 98.6793C154.916 98.6117 155.073 98.5205 155.215 98.4087L154.282 97.8605C154.193 98.012 154.151 98.1861 154.16 98.3613C154.16 98.4264 154.178 98.4902 154.212 98.5461C154.245 98.602 154.292 98.648 154.349 98.6793Z" stroke="#D3A133" stroke-width="0.65" stroke-miterlimit="10"/>
<path d="M211.049 123.635C212.753 129.895 210.291 136.235 205.529 138.272C205.286 138.38 202.553 139.124 202.289 139.206C197.04 140.863 193.82 136.228 192.034 129.651C190.248 123.074 190.864 116.963 196.093 115.299C196.485 115.177 199.062 114.52 199.475 114.46C204.352 113.681 209.365 117.552 211.049 123.635Z" fill="#D3A133"/>
<path d="M208.532 124.292C210.318 130.869 207.511 137.548 202.255 139.178C196.999 140.809 191.297 136.857 189.511 130.28C187.725 123.703 190.532 117.024 195.781 115.393C201.031 113.763 206.74 117.741 208.532 124.292Z" fill="#E8C262"/>
<path d="M200.99 137.545C205.547 136.669 208.359 131.371 207.272 125.712C206.184 120.053 201.609 116.176 197.053 117.052C192.496 117.928 189.684 123.226 190.771 128.885C191.858 134.544 196.434 138.422 200.99 137.545Z" stroke="#D3A133" stroke-width="0.55" stroke-miterlimit="10"/>
<path d="M200.516 124.894C200.327 124.826 200.131 124.765 199.921 124.711C199.726 124.661 199.527 124.628 199.326 124.61C199.114 124.589 198.901 124.589 198.69 124.61L199.015 125.794C199.087 125.787 199.159 125.787 199.231 125.794H199.475C199.827 125.817 200.177 125.865 200.523 125.936C200.826 126.001 201.116 126.116 201.382 126.274C201.654 126.431 201.885 126.649 202.059 126.91C202.273 127.238 202.431 127.6 202.525 127.98C202.65 128.419 202.698 128.877 202.667 129.333C202.629 129.709 202.519 130.074 202.343 130.409C202.171 130.71 201.941 130.975 201.666 131.187C201.403 131.4 201.109 131.571 200.794 131.694L201.227 133.285L200.388 133.555L199.948 131.938C199.443 132.04 198.927 132.074 198.413 132.04C197.912 132.01 197.418 131.91 196.945 131.742L197.215 129.218C197.451 129.311 197.693 129.388 197.939 129.448C198.177 129.508 198.419 129.554 198.663 129.583C198.93 129.617 199.201 129.617 199.468 129.583L199.15 128.426C198.91 128.426 198.671 128.412 198.433 128.386C198.103 128.353 197.777 128.29 197.459 128.196C197.192 128.123 196.941 127.999 196.721 127.831C196.506 127.669 196.325 127.467 196.187 127.235C196.029 126.965 195.911 126.673 195.835 126.369C195.711 125.941 195.659 125.495 195.68 125.05C195.703 124.67 195.79 124.297 195.937 123.947C196.08 123.624 196.282 123.33 196.532 123.08C196.773 122.829 197.06 122.627 197.378 122.485L197.012 121.132L197.851 120.868L198.216 122.221C198.454 122.186 198.693 122.168 198.933 122.167C199.16 122.169 199.386 122.185 199.61 122.214C199.833 122.214 200.05 122.282 200.252 122.323L200.807 122.458L200.516 124.894ZM197.811 125.313C197.835 125.433 197.905 125.537 198.007 125.604C198.12 125.673 198.247 125.716 198.379 125.733L198.108 124.738C197.999 124.782 197.91 124.866 197.86 124.973C197.81 125.079 197.802 125.201 197.838 125.313H197.811ZM200.347 128.94C200.314 128.821 200.237 128.72 200.131 128.656C200.008 128.586 199.872 128.54 199.732 128.521L199.995 129.489C200.127 129.447 200.239 129.361 200.313 129.245C200.344 129.201 200.365 129.151 200.376 129.099C200.386 129.047 200.386 128.993 200.374 128.94H200.347Z" stroke="#D3A133" stroke-width="0.55" stroke-miterlimit="10"/>
<path d="M215.304 179.319C212.429 185.132 206.388 188.251 201.47 186.614C201.22 186.532 198.677 185.26 198.427 185.159C193.401 182.919 194.063 177.309 197.074 171.206C200.084 165.102 204.616 160.934 209.649 163.174C210.021 163.343 212.388 164.561 212.726 164.777C216.92 167.47 218.104 173.689 215.304 179.319Z" fill="#D3A133"/>
<path d="M212.459 179.207C215.941 173.335 214.931 166.301 210.205 163.496C205.478 160.692 198.824 163.18 195.342 169.052C191.86 174.925 192.87 181.959 197.597 184.763C202.323 187.568 208.978 185.08 212.459 179.207Z" fill="#E8C262"/>
<path d="M211.59 177.546C209.04 182.702 203.527 185.348 199.279 183.46C195.031 181.572 193.657 175.854 196.214 170.698C198.771 165.542 204.277 162.889 208.519 164.784C212.76 166.679 214.147 172.39 211.59 177.546Z" stroke="#D3A133" stroke-width="0.55" stroke-miterlimit="10"/>
<path d="M206.611 173.317C206.518 173.13 206.409 172.951 206.286 172.783C206.173 172.619 206.049 172.462 205.914 172.316C205.772 172.158 205.613 172.015 205.441 171.889L204.9 172.986L205.055 173.141L205.231 173.31C205.474 173.561 205.7 173.828 205.908 174.109C206.091 174.36 206.233 174.638 206.327 174.934C206.417 175.23 206.443 175.542 206.401 175.848C206.343 176.236 206.22 176.611 206.036 176.958C205.84 177.383 205.565 177.766 205.224 178.088C204.95 178.347 204.625 178.547 204.271 178.676C203.948 178.792 203.605 178.843 203.263 178.825C202.92 178.811 202.581 178.749 202.255 178.643L201.578 180.104L200.773 179.746L201.518 178.243C201.073 177.983 200.664 177.667 200.3 177.303C199.945 176.947 199.64 176.544 199.394 176.105L201.274 174.4C201.386 174.634 201.515 174.86 201.66 175.076C201.8 175.278 201.952 175.473 202.113 175.658C202.293 175.859 202.497 176.036 202.722 176.186L203.249 175.11C203.07 174.951 202.901 174.782 202.742 174.603C202.515 174.361 202.311 174.098 202.133 173.818C201.987 173.583 201.884 173.324 201.829 173.053C201.778 172.789 201.778 172.518 201.829 172.255C201.894 171.947 201.999 171.649 202.14 171.368C202.332 170.968 202.588 170.603 202.898 170.286C203.164 170.007 203.477 169.777 203.824 169.609C204.144 169.461 204.488 169.372 204.839 169.345C205.186 169.324 205.534 169.365 205.867 169.467L206.483 168.229L207.281 168.587L206.665 169.832C206.868 169.962 207.06 170.107 207.24 170.265C207.411 170.421 207.574 170.586 207.727 170.759C207.876 170.931 208.011 171.1 208.133 171.267C208.248 171.436 208.363 171.592 208.465 171.734L206.611 173.317ZM204.332 171.876C204.274 171.981 204.257 172.104 204.284 172.221C204.323 172.349 204.39 172.467 204.48 172.566L204.94 171.639C204.885 171.614 204.825 171.601 204.764 171.599C204.704 171.598 204.643 171.608 204.587 171.631C204.53 171.653 204.478 171.686 204.435 171.728C204.391 171.77 204.356 171.82 204.332 171.876ZM203.824 176.267C203.849 176.212 203.862 176.152 203.862 176.091C203.862 176.031 203.849 175.971 203.824 175.916C203.779 175.779 203.708 175.652 203.615 175.543L203.168 176.45C203.3 176.492 203.442 176.492 203.574 176.45C203.628 176.436 203.678 176.411 203.721 176.376C203.764 176.341 203.799 176.297 203.824 176.247V176.267Z" stroke="#D3A133" stroke-width="0.55" stroke-miterlimit="10"/>
<path d="M227.236 144.003V114.764" stroke="#F2E9DA" stroke-width="1.3" stroke-miterlimit="10" stroke-linecap="round"/>
<path d="M218.232 151.075V136.229" stroke="#F2E9DA" stroke-width="1.3" stroke-miterlimit="10" stroke-linecap="round"/>
<path d="M197.817 173.331V148.93" stroke="#F2E9DA" stroke-width="1.3" stroke-miterlimit="10" stroke-linecap="round"/>
<path d="M213.179 139.544V120.34" stroke="#F2E9DA" stroke-width="1.3" stroke-miterlimit="10" stroke-linecap="round"/>
</g>
<defs>
<clipPath id="clip0_1371_23452">
<rect width="270" height="256" fill="white"/>
</clipPath>
</defs>
</svg>
