<svg width="351" height="344" viewBox="0 0 351 344" fill="none" xmlns="http://www.w3.org/2000/svg">
<g clip-path="url(#clip0_3963_12585)">
<path opacity="0.64" d="M266.953 246.002C269.089 234.514 269.21 222.637 272.641 211.445C279.892 187.77 301.141 169.732 305.746 145.41C310.192 121.999 295.981 96.4242 273.763 87.844C265.725 84.7364 257.053 83.6994 248.764 81.3386C225.345 74.6568 206.184 57.7988 183.621 48.619C171.662 43.7567 158.051 41.1505 145.902 45.4715C134.713 49.4648 126.18 58.7872 120.352 69.1149C114.524 79.4426 111.016 90.8812 106.817 101.975C98.8173 123.06 87.4678 143.945 68.89 156.732C60.1782 162.731 49.928 166.94 43.1173 175.048C38.8007 180.13 36.3666 186.244 35.2726 192.77C33.5625 203.159 43.3597 226.057 48.4094 234.994C51.7685 240.945 73.4934 262.938 85.2312 270.212C101.806 280.494 137.405 296.318 161.741 299.156L190.223 302.482C259.444 304.638 259.255 283.168 266.552 248.012C266.698 247.337 266.832 246.672 266.953 246.002Z" fill="#D7D9EF"/>
<path d="M253.949 223.423L265.598 196.604" stroke="#F2E9DA" stroke-width="1.3" stroke-miterlimit="10" stroke-linecap="round"/>
<path d="M242.875 226.322L248.789 212.705" stroke="#F2E9DA" stroke-width="1.3" stroke-miterlimit="10" stroke-linecap="round"/>
<path d="M215.283 238.603L225.004 216.222" stroke="#F2E9DA" stroke-width="1.3" stroke-miterlimit="10" stroke-linecap="round"/>
<path d="M242.833 213.733L250.483 196.119" stroke="#F2E9DA" stroke-width="1.3" stroke-miterlimit="10" stroke-linecap="round"/>
</g>
<path d="M107.233 52.3269C107.172 52.2204 107.073 52.1412 106.955 52.1055C106.809 52.0743 106.908 52.0833 106.872 52.0703L106.842 52.0243C106.819 51.993 106.793 51.9642 106.764 51.9382C106.697 51.8794 106.621 51.8333 106.538 51.8021C106.29 51.7364 106.047 51.6539 105.81 51.5553C105.23 51.2827 104.725 50.8745 104.338 50.3652C104.21 50.2007 104.092 50.0286 103.985 49.8496L103.82 49.562L103.619 49.1376C103.517 48.875 103.432 48.6057 103.365 48.3317C103.289 48.0275 103.199 47.7999 103.132 47.4128C103.061 47.0553 102.989 46.6948 102.916 46.3311C102.9 46.2089 102.877 46.2191 102.855 46.1968L102.789 46.1399L102.657 46.0258L102.528 45.9184L102.459 45.8888L102.333 45.8363L102.274 45.8132L102.259 45.8079C102.25 45.8048 102.204 45.8081 102.216 45.8089L102.187 45.8161C102.169 45.8163 102.068 45.8484 101.968 45.8782C101.878 45.936 101.792 46.0004 101.711 46.0708C101.659 46.1063 101.612 46.1486 101.571 46.1964L101.415 46.6418C101.353 47.4641 101.184 48.2748 100.912 49.0531C100.753 49.4231 100.729 49.4657 100.658 49.6052L100.451 49.9643C100.183 50.3991 99.839 50.7824 99.4359 51.0961C99.3917 51.1342 99.3443 51.1684 99.2943 51.1984L99.0705 51.3489C98.7773 51.49 98.47 51.5995 98.1537 51.6756C97.9991 51.7164 97.8472 51.7669 97.699 51.8269L97.3021 51.9853C97.096 52.1046 96.946 52.2505 96.9873 52.3126L96.9124 52.5251L96.9043 52.6137C96.901 52.6796 96.905 52.7457 96.916 52.8108L96.9859 52.9915L97.0141 53.0627L97.0305 53.1038L97.1374 53.1697C97.2897 53.2623 97.4702 53.3721 97.6871 53.5041C98.018 53.5749 98.3396 53.6822 98.7416 53.7909C98.9194 53.8399 99.087 53.9202 99.2365 54.0281L99.4341 54.1526C99.7409 54.377 100.019 54.6386 100.261 54.9313C100.401 55.1049 100.529 55.2875 100.646 55.4778C100.824 55.7573 100.972 56.0553 101.088 56.3665C101.445 57.2527 101.552 58.9631 102.036 59.1493C102.065 59.2089 102.111 59.2587 102.168 59.293C102.225 59.3272 102.291 59.3444 102.357 59.3425C102.54 59.341 102.863 59.4269 103.096 58.2741C103.302 57.252 103.376 56.7107 103.552 56.1204C103.679 55.8097 103.73 55.7212 103.78 55.6066L103.96 55.2849C104.151 54.9618 104.383 54.6653 104.652 54.4031C105.314 53.8528 106.076 53.434 106.896 53.1694C106.919 53.1309 106.843 52.9353 106.95 52.9439C107.017 52.9337 107.08 52.9071 107.133 52.8666C107.187 52.826 107.23 52.7728 107.258 52.7116C107.286 52.6505 107.298 52.5833 107.294 52.5162C107.29 52.449 107.269 52.384 107.233 52.3269Z" fill="#6775F4"/>
<path d="M237.784 72.9575C237.723 72.851 237.623 72.7718 237.506 72.7361C237.36 72.7049 237.459 72.7139 237.423 72.7009L237.393 72.655C237.37 72.6236 237.343 72.5948 237.314 72.5688C237.248 72.51 237.172 72.4639 237.089 72.4327C236.841 72.367 236.597 72.2845 236.36 72.1859C235.781 71.9133 235.276 71.5051 234.888 70.9958C234.76 70.8314 234.643 70.6592 234.536 70.4803L234.371 70.1926L234.17 69.7682C234.068 69.5056 233.983 69.2363 233.916 68.9623C233.84 68.6581 233.749 68.4305 233.683 68.0434C233.612 67.686 233.54 67.3254 233.467 66.9617C233.451 66.8395 233.427 66.8497 233.406 66.8274L233.34 66.7705L233.207 66.6564L233.079 66.549L233.01 66.5194L232.883 66.4669L232.825 66.4438L232.81 66.4385C232.801 66.4354 232.754 66.4387 232.767 66.4395L232.737 66.4467C232.72 66.447 232.619 66.479 232.519 66.5088C232.429 66.5666 232.343 66.631 232.262 66.7014C232.21 66.7369 232.163 66.7792 232.122 66.8271L231.966 67.2724C231.904 68.0947 231.735 68.9054 231.462 69.6837C231.304 70.0537 231.28 70.0963 231.208 70.2358L231.002 70.595C230.734 71.0297 230.39 71.413 229.987 71.7268C229.942 71.7648 229.895 71.799 229.845 71.829L229.621 71.9795C229.328 72.1206 229.021 72.2301 228.704 72.3062C228.55 72.347 228.398 72.3975 228.25 72.4575L227.853 72.6159C227.647 72.7352 227.497 72.8812 227.538 72.9432L227.463 73.1557L227.455 73.2443C227.452 73.3102 227.456 73.3763 227.467 73.4414L227.537 73.6221L227.565 73.6933L227.581 73.7344L227.688 73.8003C227.84 73.8929 228.021 74.0027 228.238 74.1347C228.569 74.2056 228.89 74.3128 229.292 74.4215C229.47 74.4705 229.638 74.5508 229.787 74.6587L229.985 74.7832C230.292 75.0076 230.57 75.2692 230.812 75.5619C230.952 75.7356 231.08 75.9181 231.196 76.1084C231.375 76.388 231.523 76.6859 231.638 76.9971C231.995 77.8833 232.102 79.5937 232.586 79.7799C232.616 79.8395 232.662 79.8894 232.719 79.9236C232.776 79.9578 232.842 79.975 232.908 79.9731C233.091 79.9716 233.414 80.0575 233.647 78.9047C233.853 77.8826 233.927 77.3414 234.103 76.7511C234.23 76.4403 234.28 76.3518 234.331 76.2372L234.511 75.9155C234.702 75.5924 234.934 75.2959 235.202 75.0337C235.865 74.4834 236.627 74.0646 237.447 73.8C237.47 73.7616 237.394 73.5659 237.501 73.5745C237.567 73.5643 237.63 73.5377 237.684 73.4972C237.738 73.4567 237.781 73.4034 237.809 73.3423C237.837 73.2811 237.849 73.2139 237.845 73.1468C237.841 73.0796 237.82 73.0146 237.784 72.9575Z" fill="#6775F4"/>
<path d="M99.5732 62.8195C99.5394 62.8078 99.5047 62.7991 99.4695 62.7935L99.4606 62.7868L99.3797 62.7327C99.3116 62.6924 99.241 62.6566 99.1683 62.6256C98.9716 62.5434 98.7683 62.4778 98.5607 62.4296C97.0863 62.1073 95.7074 61.4456 94.5336 60.497C91.8978 58.1842 90.1957 54.9897 89.7463 51.512C89.6536 51.0118 89.5866 50.5071 89.5456 50L89.5085 49.6167L89.4898 49.4247L89.4804 49.3286L89.4779 49.3047C89.473 49.2355 89.4605 49.1671 89.4406 49.1007C89.3936 48.9407 89.2997 48.7985 89.171 48.6924C89.0423 48.5863 88.8847 48.5212 88.7187 48.5056C88.5527 48.4899 88.3857 48.5244 88.2395 48.6046C88.0933 48.6848 87.9744 48.807 87.8983 48.9554C87.8399 49.0719 87.8064 49.1993 87.8002 49.3295L87.7925 49.4178C87.7129 49.4229 87.7215 49.423 87.7925 49.4178L87.7918 49.4258L87.7751 49.6187L87.7417 50.0049C87.6593 51.0364 87.4954 52.0597 87.2516 53.0654C86.7989 55.0136 85.9716 56.8551 84.8159 58.4875C83.7897 59.9087 82.4299 61.0559 80.8561 61.828L80.059 62.1494C79.6723 62.2908 79.1372 62.4005 78.8488 62.5274L77.8478 62.8884L77.361 63.064C77.2789 63.1085 77.3225 63.131 77.2973 63.1652L77.2448 63.3492L77.2195 63.4382C77.2159 63.4748 77.2145 63.5116 77.2153 63.5485C77.2137 63.5716 77.2172 63.5948 77.2255 63.6164L77.3248 63.9409C77.5438 64.1076 77.7735 64.2596 78.0126 64.3961C78.8391 64.488 79.6511 64.6819 80.4299 64.9735L80.784 65.1078C80.8829 65.1437 80.9787 65.1877 81.0704 65.2392L81.678 65.5466C82.6283 66.0961 83.4911 66.7844 84.2378 67.5889C85.9946 69.6164 87.1927 72.0667 87.714 74.6983C87.8679 75.4265 87.9828 76.1623 88.0584 76.9027L88.1183 77.4564L88.1258 77.5255C88.1301 77.5862 88.1403 77.6463 88.1563 77.705C88.1967 77.8551 88.2832 77.9887 88.4036 78.087C88.524 78.1853 88.6723 78.2433 88.8274 78.2528C88.9825 78.2623 89.1367 78.2228 89.2683 78.14C89.3998 78.0571 89.5019 77.9351 89.5603 77.791C89.5948 77.7055 89.6149 77.6148 89.6196 77.5226L89.6222 77.488L89.6434 77.2119L89.7279 76.1157C89.8847 74.7414 90.1845 73.3873 90.6226 72.0753C91.2382 70.1792 92.2763 68.4476 93.6585 67.011C94.7911 65.8465 96.1875 64.9718 97.7295 64.4609C98.7697 64.1078 99.3757 64.0702 99.4804 63.959C99.5433 63.9134 99.4238 63.7267 99.5508 63.728C99.6652 63.7045 99.766 63.6372 99.8316 63.5404C99.8971 63.4437 99.9223 63.3252 99.9018 63.2101C99.8857 63.1052 99.8355 63.0084 99.759 62.9348C99.7059 62.8836 99.6426 62.8444 99.5732 62.8195Z" fill="#6775F4"/>
<path d="M284.191 225.908C284.131 225.804 284.033 225.726 283.918 225.691C283.776 225.661 283.872 225.67 283.837 225.657L283.807 225.612C283.785 225.581 283.759 225.553 283.731 225.528C283.666 225.47 283.591 225.425 283.51 225.394C283.267 225.33 283.029 225.249 282.796 225.153C282.229 224.886 281.735 224.486 281.355 223.987C281.229 223.826 281.114 223.657 281.009 223.482L280.848 223.2L280.652 222.785C280.551 222.528 280.468 222.264 280.403 221.996C280.328 221.698 280.239 221.475 280.174 221.096C280.105 220.746 280.034 220.392 279.963 220.036C279.947 219.917 279.924 219.927 279.903 219.905L279.838 219.849L279.709 219.737L279.583 219.632L279.515 219.603L279.391 219.552L279.334 219.529L279.319 219.524C279.31 219.521 279.265 219.524 279.277 219.525L279.248 219.532C279.231 219.532 279.132 219.564 279.034 219.593C278.946 219.649 278.862 219.712 278.783 219.781C278.732 219.816 278.685 219.858 278.645 219.904L278.492 220.341C278.432 221.146 278.266 221.94 278 222.702C277.844 223.064 277.821 223.106 277.751 223.243L277.548 223.594C277.286 224.02 276.949 224.396 276.554 224.703C276.511 224.74 276.465 224.774 276.416 224.803L276.196 224.95C275.909 225.089 275.608 225.196 275.299 225.27C275.147 225.31 274.998 225.36 274.853 225.419L274.465 225.574C274.263 225.691 274.116 225.833 274.156 225.894L274.083 226.102L274.075 226.189C274.072 226.254 274.076 226.318 274.086 226.382L274.155 226.559L274.183 226.629L274.199 226.669L274.303 226.734C274.452 226.824 274.629 226.932 274.842 227.061C275.166 227.131 275.481 227.236 275.874 227.342C276.048 227.39 276.213 227.469 276.359 227.574L276.553 227.696C276.853 227.916 277.125 228.172 277.363 228.459C277.5 228.629 277.625 228.808 277.739 228.994C277.914 229.268 278.059 229.56 278.172 229.864C278.522 230.732 278.626 232.407 279.1 232.59C279.129 232.648 279.174 232.697 279.23 232.73C279.286 232.764 279.35 232.781 279.416 232.779C279.594 232.778 279.911 232.862 280.139 231.733C280.34 230.732 280.413 230.202 280.586 229.623C280.71 229.319 280.759 229.232 280.809 229.12L280.985 228.805C281.172 228.489 281.4 228.198 281.662 227.942C282.311 227.403 283.058 226.993 283.861 226.733C283.883 226.696 283.809 226.504 283.913 226.513C283.979 226.503 284.04 226.477 284.093 226.437C284.145 226.397 284.187 226.345 284.215 226.285C284.242 226.225 284.254 226.159 284.25 226.094C284.246 226.028 284.225 225.964 284.191 225.908Z" fill="#6775F4"/>
<path d="M276.689 236.184C276.656 236.173 276.622 236.164 276.587 236.159L276.579 236.152L276.499 236.099C276.433 236.06 276.364 236.025 276.292 235.994C276.1 235.914 275.901 235.85 275.697 235.802C274.253 235.487 272.903 234.839 271.753 233.91C269.172 231.645 267.505 228.516 267.065 225.11C266.974 224.62 266.909 224.126 266.869 223.629L266.832 223.254L266.814 223.066L266.805 222.972L266.802 222.949C266.797 222.881 266.785 222.814 266.766 222.749C266.72 222.592 266.628 222.453 266.502 222.349C266.376 222.245 266.221 222.181 266.059 222.166C265.896 222.151 265.733 222.184 265.589 222.263C265.446 222.341 265.33 222.461 265.255 222.606C265.198 222.721 265.165 222.845 265.159 222.973L265.152 223.059C265.074 223.064 265.082 223.064 265.152 223.059L265.151 223.067L265.135 223.256L265.102 223.634C265.021 224.644 264.861 225.647 264.622 226.632C264.178 228.54 263.368 230.343 262.236 231.942C261.231 233.334 259.9 234.457 258.358 235.213L257.578 235.528C257.199 235.667 256.675 235.774 256.393 235.898L255.412 236.252L254.936 236.424C254.855 236.467 254.898 236.489 254.873 236.523L254.822 236.703L254.797 236.79C254.793 236.826 254.792 236.862 254.793 236.898C254.791 236.921 254.795 236.944 254.803 236.965L254.9 237.282C255.114 237.446 255.34 237.595 255.574 237.728C256.383 237.818 257.178 238.008 257.941 238.294L258.288 238.425C258.385 238.461 258.478 238.504 258.568 238.554L259.163 238.855C260.094 239.393 260.939 240.067 261.67 240.855C263.391 242.841 264.564 245.241 265.075 247.818C265.225 248.531 265.338 249.252 265.412 249.977L265.471 250.519L265.478 250.587C265.482 250.646 265.492 250.705 265.508 250.762C265.547 250.909 265.632 251.04 265.75 251.137C265.868 251.233 266.013 251.29 266.165 251.299C266.317 251.308 266.468 251.27 266.597 251.188C266.726 251.107 266.826 250.988 266.883 250.847C266.917 250.763 266.936 250.674 266.941 250.584L266.944 250.55L266.964 250.279L267.047 249.206C267.201 247.86 267.494 246.534 267.923 245.249C268.526 243.392 269.543 241.696 270.896 240.289C272.006 239.149 273.373 238.292 274.883 237.792C275.902 237.446 276.496 237.409 276.598 237.3C276.66 237.256 276.543 237.073 276.667 237.074C276.779 237.051 276.878 236.985 276.942 236.89C277.006 236.796 277.031 236.679 277.011 236.567C276.995 236.464 276.946 236.369 276.871 236.297C276.819 236.247 276.757 236.209 276.689 236.184Z" fill="#6775F4"/>
<g clip-path="url(#clip1_3963_12585)">
<path opacity="0.91" d="M223.064 141.841C213.439 140.704 203.861 139.033 194.33 137.177C182.977 134.972 171.647 132.513 160.27 130.401C144.806 127.57 129.271 125.389 113.479 125.482C111.05 125.482 108.62 125.551 106.191 125.691L97.127 201.87C108.13 201.313 119.016 201.94 129.808 203.262C145.764 205.188 161.532 208.599 177.347 211.801C188.607 214.075 199.867 216.256 211.22 217.695C220.541 218.879 229.885 219.598 239.346 219.482C241.425 219.459 243.504 219.389 245.583 219.296C248.597 193.911 251.61 168.502 254.647 143.117C243.995 143.651 233.482 143.094 223.04 141.864L223.064 141.841Z" fill="#DFB108"/>
<path d="M175.712 204.005L174.357 197.6C173.89 197.577 173.399 197.531 172.909 197.461C165.971 196.649 159.99 193.099 155.996 188.063C151.978 183.005 149.899 176.415 150.716 169.523C151.534 162.632 155.108 156.691 160.177 152.724C161.485 151.703 162.864 150.821 164.359 150.055L161.883 138.291C154.29 136.921 146.698 135.715 139.059 134.81C134.387 134.253 129.692 133.835 124.996 133.557C123.478 137.734 120.768 141.261 117.334 143.836L120.628 159.453C123.034 156.761 126.655 155.23 130.533 155.694C136.793 156.436 141.279 162.075 140.531 168.293C139.783 174.512 134.107 178.967 127.846 178.225C126.608 178.086 125.44 177.738 124.366 177.25L128.337 196.115C129.481 196.231 130.626 196.371 131.747 196.487C146.511 198.227 161.112 201.127 175.712 203.958V204.005Z" fill="#FDD510"/>
<path d="M139.316 132.907C146.745 133.789 154.127 134.949 161.485 136.249L160.247 130.401C144.806 127.57 129.271 125.389 113.479 125.482L114.718 131.353C122.987 131.353 131.187 131.956 139.316 132.907Z" fill="#FDD510"/>
<path d="M155.225 170.057C156.019 163.374 159.944 157.805 165.364 154.65L164.826 152.051C163.635 152.7 162.514 153.42 161.439 154.255C156.744 157.945 153.45 163.398 152.702 169.756C151.955 176.137 153.847 182.193 157.561 186.857C161.276 191.521 166.765 194.793 173.166 195.535C173.423 195.559 173.703 195.605 173.96 195.605L173.423 193.006C162.023 191.637 153.894 181.381 155.225 170.034V170.057Z" fill="#FDD510"/>
<path d="M131.538 198.459C130.603 198.343 129.692 198.25 128.758 198.157L129.832 203.262C145.788 205.188 161.556 208.599 177.371 211.801L176.18 206.07C161.322 203.216 146.488 200.222 131.561 198.482L131.538 198.459Z" fill="#FDD510"/>
<path d="M220.285 146.505C221.569 146.644 222.854 146.806 224.116 146.922L223.041 141.841C213.417 140.704 203.839 139.033 194.308 137.177L195.452 142.676C203.699 144.184 211.968 145.53 220.261 146.505H220.285Z" fill="#FDD510"/>
<path d="M201.012 168.967L209.585 209.736C210.636 209.876 211.687 209.992 212.739 210.131C216.359 210.548 220.004 210.92 223.648 211.175C226.218 206.418 230.446 202.752 235.468 200.849L231.941 184.096C229.652 187.623 225.47 189.734 221.008 189.224C214.748 188.481 210.262 182.843 211.01 176.624C211.757 170.405 217.434 165.95 223.695 166.693C225.54 166.901 227.222 167.551 228.67 168.503L224.559 148.941C223.064 148.802 221.569 148.64 220.074 148.454C211.991 147.503 203.932 146.203 195.919 144.741L200.334 165.741C200.638 166.785 200.848 167.876 201.012 168.967Z" fill="#FDD510"/>
<path d="M212.505 212.057C211.664 211.964 210.847 211.848 210.006 211.755L211.244 217.695C220.565 218.879 229.909 219.598 239.37 219.482L238.132 213.634C229.512 213.681 220.962 213.078 212.482 212.08L212.505 212.057Z" fill="#FDD510"/>
<g opacity="0.31">
<path d="M251.307 147.943L250.162 147.99C241.425 148.268 232.735 147.827 224.115 146.946C222.83 146.806 221.546 146.667 220.284 146.528C211.991 145.553 203.721 144.208 195.475 142.699C184.145 140.634 172.839 138.291 161.486 136.295C154.127 134.996 146.745 133.812 139.316 132.954C131.164 132.002 122.987 131.399 114.718 131.399C112.872 131.399 111.003 131.399 109.135 131.469H108.294L100.491 197.067L101.636 197.02C110.746 196.742 119.764 197.229 128.757 198.18C129.692 198.273 130.603 198.389 131.537 198.482C146.465 200.222 161.299 203.216 176.156 206.07C187.392 208.228 198.652 210.316 209.982 211.755C210.823 211.871 211.641 211.964 212.482 212.057C220.962 213.054 229.511 213.658 238.132 213.611C239.65 213.611 241.145 213.588 242.663 213.542H243.504L243.598 212.683C244.859 202.079 246.121 191.474 247.382 180.87C248.644 170.266 249.905 159.662 251.167 149.057L251.307 147.943ZM106.098 182.471C105.514 182.146 104.93 181.822 104.299 181.543L108.294 147.92C108.948 147.781 109.602 147.619 110.256 147.433L106.098 182.471ZM239.463 199.712C238.085 199.967 236.73 200.338 235.445 200.826C230.423 202.728 226.194 206.395 223.625 211.152C219.98 210.896 216.336 210.548 212.715 210.107C211.664 209.991 210.613 209.852 209.562 209.713C198.255 208.251 186.995 206.139 175.712 203.982C161.135 201.174 146.511 198.25 131.748 196.51C130.603 196.371 129.458 196.255 128.337 196.139C124.342 195.721 120.348 195.396 116.353 195.21C114.881 190.477 111.844 186.37 107.803 183.539L112.171 146.783C114.04 146.041 115.769 145.066 117.358 143.883C120.815 141.307 123.501 137.757 125.02 133.603C129.715 133.859 134.411 134.299 139.083 134.856C146.722 135.761 154.314 136.968 161.906 138.337C173.236 140.356 184.542 142.699 195.896 144.765C203.908 146.203 211.944 147.526 220.05 148.477C221.546 148.663 223.041 148.825 224.536 148.964C226.591 149.173 228.647 149.359 230.703 149.498C232.268 156.367 237.057 162.168 243.598 165.022L241.776 180.267C241.005 186.764 240.234 193.261 239.463 199.782V199.712ZM243.224 199.364C242.593 199.364 241.939 199.41 241.309 199.457L243.575 180.406L245.327 165.625C245.934 165.834 246.541 166.02 247.172 166.159L245.443 180.615L243.224 199.341V199.364Z" fill="#96750C"/>
<path d="M200.31 165.741C199.399 162.493 197.858 159.499 195.778 156.9C191.76 151.842 185.804 148.315 178.865 147.503C173.703 146.899 168.704 147.874 164.382 150.078C162.91 150.821 161.509 151.726 160.2 152.747C155.108 156.738 151.557 162.655 150.739 169.547C149.922 176.438 152.001 183.028 156.019 188.087C160.037 193.145 165.994 196.672 172.932 197.484C173.422 197.531 173.89 197.577 174.38 197.624C180.804 198.018 186.855 195.976 191.597 192.263C196.69 188.272 200.24 182.355 201.058 175.464C201.315 173.259 201.292 171.101 200.988 168.99C200.824 167.899 200.614 166.809 200.31 165.764V165.741ZM190.382 190.709C185.874 194.236 180.08 196.139 173.96 195.628C173.703 195.628 173.422 195.582 173.165 195.558C166.741 194.816 161.252 191.544 157.561 186.88C153.846 182.216 151.931 176.137 152.702 169.779C153.449 163.398 156.743 157.945 161.438 154.278C162.49 153.443 163.634 152.7 164.826 152.074C168.914 149.869 173.703 148.872 178.679 149.452C185.103 150.194 190.592 153.466 194.283 158.13C197.998 162.794 199.913 168.874 199.142 175.232C198.395 181.613 195.101 187.066 190.406 190.732L190.382 190.709Z" fill="#96750C"/>
<path d="M178.352 151.935C173.657 151.378 169.148 152.422 165.364 154.65C159.944 157.829 156.02 163.374 155.225 170.057C153.87 181.381 162.023 191.66 173.423 193.029C173.423 193.029 173.447 193.029 173.47 193.029C184.893 194.375 195.242 186.254 196.597 174.907C197.952 163.56 189.776 153.281 178.352 151.935Z" fill="#96750C"/>
<path d="M228.671 168.479C227.222 167.528 225.54 166.878 223.695 166.669C217.434 165.927 211.758 170.382 211.01 176.601C210.263 182.819 214.748 188.458 221.008 189.2C225.494 189.734 229.652 187.599 231.941 184.072C232.852 182.657 233.46 181.033 233.67 179.269C234.184 174.884 232.128 170.8 228.671 168.502V168.479Z" fill="#96750C"/>
<path d="M130.533 155.74C126.679 155.276 123.034 156.807 120.628 159.499C119.133 161.17 118.129 163.281 117.848 165.671C117.264 170.66 120.021 175.278 124.366 177.273C125.44 177.761 126.608 178.109 127.847 178.248C134.107 178.991 139.784 174.535 140.531 168.317C141.279 162.098 136.794 156.459 130.533 155.717V155.74Z" fill="#96750C"/>
</g>
<path d="M111.401 177.227L121.189 179.316L111.401 181.404L109.299 191.126L107.196 181.404L97.3848 179.316L107.196 177.227L109.299 167.481L111.401 177.227Z" fill="white"/>
<path d="M99.0663 196.417L106.355 197.972L99.0663 199.526L97.5245 206.766L95.9594 199.526L88.6709 197.972L95.9594 196.417L97.5245 189.2L99.0663 196.417Z" fill="white"/>
<path d="M244.649 143.164L251.938 144.718L244.649 146.273L243.084 153.513L241.519 146.273L234.254 144.718L241.519 143.164L243.084 135.947L244.649 143.164Z" fill="white"/>
</g>
<defs>
<clipPath id="clip0_3963_12585">
<rect width="270" height="256" fill="white" transform="translate(102.892 0.814941) rotate(23.4766)"/>
</clipPath>
<clipPath id="clip1_3963_12585">
<rect width="166" height="94" fill="white" transform="translate(88.6709 125.482)"/>
</clipPath>
</defs>
</svg>
