<svg width="48" height="59" viewBox="0 0 48 59" fill="none" xmlns="http://www.w3.org/2000/svg">
<path fill-rule="evenodd" clip-rule="evenodd" d="M22.7591 13.3864C24.1509 11.966 25.0091 10.0207 25.0091 7.875C25.0091 3.52576 21.4833 0 17.1341 0C12.7848 0 9.25908 3.52576 9.25908 7.875C9.25908 10.0207 10.1172 11.966 11.5091 13.3864V7.87722C11.5091 4.79009 14.0275 2.25 17.1341 2.25C20.2623 2.25 22.7591 4.76939 22.7591 7.87722V13.3864ZM29.5091 19.1045C29.5091 17.2519 28.011 15.75 26.1341 15.75C24.2701 15.75 22.7591 17.2715 22.7591 19.1045V23.4732V29.25H20.5091V23.625V7.89443C20.5091 6.01974 19.011 4.5 17.1341 4.5C15.2701 4.5 13.7591 5.99945 13.7591 7.89443V31.0463C9.12768 26.0953 3.03025 20.653 0.531404 23.1654C-1.91473 25.6247 4.38864 32.4016 13.1907 47.212C17.1566 53.885 22.1747 58.499 30.6341 58.5C39.9539 58.5 47.5091 50.9448 47.5091 41.625V34.3053V23.6394C47.5091 21.7675 46.011 20.25 44.1341 20.25C42.2701 20.25 40.7591 21.772 40.7591 23.6394V28.6869V29.25H38.5091V24.0259V21.3553C38.5091 19.5022 37.011 18 35.1341 18C33.2701 18 31.7591 19.4907 31.7591 21.3553V23.6435V27H29.5091V23.6435V19.1045Z" fill="white"/>
</svg>
