<svg width="23" height="21" viewBox="0 0 23 21" fill="none" xmlns="http://www.w3.org/2000/svg">
<path id="Vector" d="M1.19074 18.4881L10.2664 1.63402C10.9097 0.439052 12.6233 0.439052 13.2671 1.63402L22.3422 18.4881C22.4819 18.7475 22.5519 19.0387 22.5455 19.3333C22.539 19.6279 22.4563 19.9157 22.3054 20.1688C22.1545 20.4218 21.9406 20.6314 21.6845 20.7771C21.4284 20.9228 21.1389 20.9996 20.8443 21H2.69137C2.39652 21 2.1067 20.9236 1.85025 20.7781C1.5938 20.6326 1.37949 20.423 1.22827 20.1699C1.07705 19.9168 0.994097 19.6287 0.98752 19.334C0.980942 19.0392 1.05096 18.7477 1.19074 18.4881ZM11.7665 18.3907C11.9771 18.3907 12.1831 18.3282 12.3582 18.2112C12.5333 18.0942 12.6698 17.9278 12.7505 17.7332C12.8311 17.5386 12.8522 17.3245 12.8111 17.1179C12.77 16.9113 12.6685 16.7215 12.5196 16.5726C12.3706 16.4236 12.1809 16.3222 11.9743 16.2811C11.7677 16.24 11.5535 16.2611 11.3589 16.3417C11.1643 16.4223 10.998 16.5588 10.881 16.7339C10.7639 16.9091 10.7015 17.115 10.7015 17.3256C10.7015 17.4655 10.729 17.604 10.7825 17.7332C10.8361 17.8624 10.9145 17.9798 11.0134 18.0787C11.1123 18.1776 11.2297 18.2561 11.3589 18.3096C11.4881 18.3631 11.6266 18.3907 11.7665 18.3907ZM10.6099 7.67913L10.9155 14.1758C10.9155 14.4018 11.0053 14.6185 11.1651 14.7783C11.3249 14.9381 11.5416 15.0278 11.7676 15.0278C11.9935 15.0278 12.2102 14.9381 12.37 14.7783C12.5298 14.6185 12.6196 14.4018 12.6196 14.1758L12.9252 7.68179C12.9321 7.52661 12.9077 7.37164 12.8534 7.2261C12.7991 7.08057 12.716 6.94746 12.6092 6.83471C12.5023 6.72195 12.3739 6.63187 12.2315 6.56981C12.0891 6.50776 11.9357 6.47501 11.7803 6.47352H11.7692C11.6128 6.47343 11.458 6.50504 11.3142 6.56642C11.1703 6.6278 11.0404 6.71769 10.9323 6.83066C10.8241 6.94362 10.74 7.07733 10.685 7.22371C10.6299 7.37008 10.6051 7.52609 10.612 7.68233L10.6099 7.67913Z" fill="#F95050"/>
</svg>
