<svg width="22" height="23" viewBox="0 0 22 23" fill="none" xmlns="http://www.w3.org/2000/svg">
<path d="M1.92965 11.162C1.92929 13.0489 2.46312 14.8936 3.46361 16.4626C4.46411 18.0317 5.88633 19.2546 7.55036 19.9767C9.21439 20.6989 11.0455 20.8878 12.812 20.5196C14.5785 20.1513 16.2011 19.2425 17.4746 17.9081C18.3227 17.0242 18.995 15.9728 19.4526 14.8148C19.9103 13.6568 20.1441 12.4153 20.1406 11.162H18.9134C18.9134 15.7128 15.3791 19.4154 11.0351 19.4154C6.69115 19.4154 3.15684 15.7128 3.15684 11.162C3.15684 6.61117 6.69115 2.90855 11.0351 2.90855C12.1058 2.90853 13.1652 3.13748 14.1485 3.58138C15.1318 4.02528 16.0182 4.67478 16.7535 5.49011H14.3574V6.77574H18.664V2.26746H17.4364V4.38582C16.1598 3.06177 14.5378 2.16304 12.7746 1.8028C11.0115 1.44257 9.18596 1.63693 7.52801 2.36142C5.87007 3.08592 4.45381 4.30814 3.4576 5.87418C2.46138 7.44022 1.92975 9.28005 1.92965 11.162ZM11.2812 6.13464V12.1932H6.23629V10.9042H10.0507V6.13464H11.2812Z" fill="#6775F4"/>
</svg>
