<svg width="39" height="39" viewBox="0 0 39 39" fill="none" xmlns="http://www.w3.org/2000/svg">
<circle cx="19.6975" cy="19.3167" r="19.1057" fill="#EDEFF7"/>
<path d="M17.7974 18.5462H8.31299C8.31299 13.1629 12.5593 8.79883 17.7974 8.79883V18.5462Z" fill="black"/>
<path d="M17.7974 18.5462H8.31299C8.31299 13.1629 12.5593 8.79883 17.7974 8.79883V18.5462Z" fill="black"/>
<path d="M17.7974 18.5462H8.31299C8.31299 13.1629 12.5593 8.79883 17.7974 8.79883V18.5462Z" stroke="black" stroke-width="2" stroke-miterlimit="10" stroke-linecap="round"/>
<path d="M17.7974 20.6996H8.31299C8.31299 26.3242 12.5593 30.8838 17.7974 30.8838V20.6996Z" fill="black"/>
<path d="M17.7974 20.6996H8.31299C8.31299 26.3242 12.5593 30.8838 17.7974 30.8838V20.6996Z" fill="black"/>
<path d="M17.7974 20.6996H8.31299C8.31299 26.3242 12.5593 30.8838 17.7974 30.8838V20.6996Z" stroke="black" stroke-width="2" stroke-miterlimit="10" stroke-linecap="round"/>
<path d="M21.7375 16.3768H31.9216C31.9216 10.9934 27.362 6.62939 21.7375 6.62939V16.3768Z" fill="black"/>
<path d="M21.7375 16.3768H31.9216C31.9216 10.9934 27.362 6.62939 21.7375 6.62939V16.3768Z" fill="black"/>
<path d="M21.7375 16.3768H31.9216C31.9216 10.9934 27.362 6.62939 21.7375 6.62939V16.3768Z" stroke="black" stroke-width="2" stroke-miterlimit="10" stroke-linecap="round"/>
<path d="M19.9792 20.7001H30.1633C30.1633 26.3247 25.6037 30.8843 19.9792 30.8843V20.7001Z" fill="black"/>
<path d="M19.9792 20.7001H30.1633C30.1633 26.3247 25.6037 30.8843 19.9792 30.8843V20.7001Z" fill="black"/>
<path d="M19.9792 20.7001H30.1633C30.1633 26.3247 25.6037 30.8843 19.9792 30.8843V20.7001Z" stroke="black" stroke-width="2" stroke-miterlimit="10" stroke-linecap="round"/>
</svg>
