<svg width="110" height="83" viewBox="0 0 110 83" fill="none" xmlns="http://www.w3.org/2000/svg">
<g id="Isolation_Mode" clip-path="url(#clip0_3170_9702)">
<path id="Vector" d="M96.3858 37.7699H109.923V51.627H96.3858V37.7699Z" fill="white"/>
<path id="Vector_2" d="M59.288 74.4553C35.2121 74.4553 15.6947 59.4298 15.6947 40.8951C15.6947 22.3603 35.2121 7.33484 59.288 7.33484C83.3639 7.33484 102.881 22.3603 102.881 40.8951C102.881 59.4298 83.3639 74.4553 59.288 74.4553Z" fill="white"/>
<path id="Vector_3" d="M75.092 82.8783L81.0001 78.8047L86.9082 82.8783V65.2158H75.092V82.8783Z" fill="#F7EFED"/>
<path id="Vector_4" d="M32.2102 82.8783L38.1183 78.8047L44.0264 82.8783V65.2158H32.2102V82.8783Z" fill="#F7EFED"/>
<path id="Vector_5" d="M17.4531 39.8105C13.5784 40.8988 9.29326 43.0792 4.31901 38.8393C1.28401 36.2508 2.53417 32.0978 7.26742 31.4289C16.1917 30.1705 15.4838 46.3177 1.13339 46.3177" stroke="#F7EFED" stroke-width="6" stroke-miterlimit="10" stroke-linecap="round"/>
<path id="Vector_6" d="M95.1621 25.3185V0C95.1621 0 76.2555 1.96502 76.2555 18.9964" fill="white"/>
<path id="Vector_7" d="M36.13 12.459C35.6668 14.7679 35.4258 17.141 35.4258 19.5633C35.4258 42.3764 56.7687 60.8664 83.0972 60.8664C87.4388 60.8664 91.6412 60.36 95.6401 59.4191C87.8342 68.4808 74.4667 74.4552 59.2879 74.4552C35.2112 74.4552 15.6945 59.4304 15.6945 40.895C15.6945 28.9122 23.8544 18.3956 36.13 12.459Z" fill="#F7EFED"/>
<path id="Vector_8" d="M97.4816 33.8247C97.4816 35.0377 97.9109 36.0202 98.4381 36.0202C98.9653 36.0202 99.3945 35.0377 99.3945 33.8247C99.3945 32.6117 98.9653 31.6292 98.4381 31.6292C97.9109 31.6292 97.4816 32.6117 97.4816 33.8247Z" fill="#49756C"/>
<path id="Vector_9" d="M68.3706 51.3323V35.8464H55.5415V43.6347C55.5415 44.039 55.5603 44.4283 55.6018 44.8024C55.6394 45.1803 55.7034 45.543 55.7863 45.8945C55.8691 46.2459 55.9745 46.5898 56.1063 46.9337L58.0832 47.2473L58.2 47.1415C58.0682 46.6502 57.9703 46.1288 57.9062 45.5733C57.8422 45.0178 57.8083 44.4094 57.8083 43.7556V37.8568H66.1075V51.3361H68.3706V51.3323ZM63.0048 51.3323V40.4415H60.7417V49.3219H56.8933C55.5942 49.3295 54.5248 48.9516 53.6926 48.1845C52.8605 47.4174 52.4425 46.3668 52.4425 45.0253V35.8427H50.1907V44.9838C50.1832 46.2799 50.4505 47.4022 50.9965 48.3545C51.5425 49.3068 52.322 50.0399 53.3387 50.5538C54.3554 51.0715 55.5716 51.3285 56.9837 51.3285H63.0048V51.3323Z" fill="#6775F4"/>
</g>
<defs>
<clipPath id="clip0_3170_9702">
<rect width="109.923" height="82.8783" fill="white" transform="matrix(-1 0 0 1 109.923 0)"/>
</clipPath>
</defs>
</svg>
