<svg width="17" height="17" viewBox="0 0 17 17" fill="none" xmlns="http://www.w3.org/2000/svg">
<path d="M17 8.5C17 13.1945 13.1945 17 8.5 17C3.80554 17 0 13.1945 0 8.5C0 3.80554 3.80554 0 8.5 0C13.1945 0 17 3.80554 17 8.5ZM9.44444 4.72222C9.44444 4.2007 9.02152 3.77778 8.5 3.77778C7.97848 3.77778 7.55556 4.2007 7.55556 4.72222V7.55556H4.72222C4.2007 7.55556 3.77778 7.97848 3.77778 8.5C3.77778 9.02152 4.2007 9.44444 4.72222 9.44444H7.55556V12.2778C7.55556 12.7993 7.97848 13.2222 8.5 13.2222C9.02152 13.2222 9.44444 12.7993 9.44444 12.2778V9.44444H12.2778C12.7993 9.44444 13.2222 9.02152 13.2222 8.5C13.2222 7.97848 12.7993 7.55556 12.2778 7.55556H9.44444V4.72222Z" fill="#6775F4"/>
</svg>
