<svg width="19" height="20" viewBox="0 0 19 20" fill="none" xmlns="http://www.w3.org/2000/svg">
<path d="M14.0847 11.2937H9.60443V15.6768H8.44824V10.1625H14.0847V11.2937Z" fill="#6775F4"/>
<path d="M9.32961 19.7026C14.359 19.7026 18.4346 15.4323 18.4346 10.1626C18.4346 4.89284 14.359 0.622559 9.32961 0.622559C4.30018 0.622559 0.224609 4.89284 0.224609 10.1626C0.224609 15.4323 4.30018 19.7026 9.32961 19.7026ZM9.32961 1.83399C13.7087 1.83399 17.2784 5.57427 17.2784 10.1626C17.2784 14.7508 13.7087 18.4911 9.32961 18.4911C4.95054 18.4911 1.3808 14.7508 1.3808 10.1626C1.3808 5.57427 4.95054 1.83399 9.32961 1.83399Z" fill="#6775F4"/>
</svg>
