<svg width="30" height="30" viewBox="0 0 30 30" fill="none" xmlns="http://www.w3.org/2000/svg">
<circle cx="15" cy="14" r="8.6958" fill="white"/>
<g filter="url(#filter0_d_5329_14)">
<path d="M14.29 17.29C14.247 17.3375 14.2069 17.3876 14.17 17.44C14.1322 17.4957 14.1019 17.5563 14.08 17.62C14.0512 17.6767 14.031 17.7374 14.02 17.8C14.0151 17.8666 14.0151 17.9334 14.02 18C14.0166 18.1312 14.044 18.2613 14.1 18.38C14.1449 18.5041 14.2166 18.6168 14.3099 18.7101C14.4032 18.8034 14.5159 18.8751 14.64 18.92C14.7597 18.9729 14.8891 19.0002 15.02 19.0002C15.1509 19.0002 15.2803 18.9729 15.4 18.92C15.5241 18.8751 15.6368 18.8034 15.7301 18.7101C15.8234 18.6168 15.8951 18.5041 15.94 18.38C15.9844 18.2584 16.0048 18.1294 16 18C16.0008 17.8684 15.9755 17.7379 15.9258 17.6161C15.876 17.4943 15.8027 17.3834 15.71 17.29C15.617 17.1963 15.5064 17.1219 15.3846 17.0711C15.2627 17.0203 15.132 16.9942 15 16.9942C14.868 16.9942 14.7373 17.0203 14.6154 17.0711C14.4936 17.1219 14.383 17.1963 14.29 17.29ZM15 4C13.0222 4 11.0888 4.58649 9.4443 5.6853C7.79981 6.78412 6.51809 8.3459 5.76121 10.1732C5.00433 12.0004 4.8063 14.0111 5.19215 15.9509C5.578 17.8907 6.53041 19.6725 7.92894 21.0711C9.32746 22.4696 11.1093 23.422 13.0491 23.8079C14.9889 24.1937 16.9996 23.9957 18.8268 23.2388C20.6541 22.4819 22.2159 21.2002 23.3147 19.5557C24.4135 17.9112 25 15.9778 25 14C25 12.6868 24.7413 11.3864 24.2388 10.1732C23.7363 8.95991 22.9997 7.85752 22.0711 6.92893C21.1425 6.00035 20.0401 5.26375 18.8268 4.7612C17.6136 4.25866 16.3132 4 15 4ZM15 22C13.4178 22 11.871 21.5308 10.5554 20.6518C9.23985 19.7727 8.21447 18.5233 7.60897 17.0615C7.00347 15.5997 6.84504 13.9911 7.15372 12.4393C7.4624 10.8874 8.22433 9.46197 9.34315 8.34315C10.462 7.22433 11.8874 6.4624 13.4393 6.15372C14.9911 5.84504 16.5997 6.00346 18.0615 6.60896C19.5233 7.21447 20.7727 8.23984 21.6518 9.55544C22.5308 10.871 23 12.4177 23 14C23 16.1217 22.1572 18.1566 20.6569 19.6569C19.1566 21.1571 17.1217 22 15 22ZM15 9C14.4731 8.99966 13.9553 9.13812 13.4989 9.40144C13.0425 9.66476 12.6635 10.0437 12.4 10.5C12.3277 10.6138 12.2791 10.7411 12.2572 10.8742C12.2353 11.0073 12.2405 11.1434 12.2726 11.2744C12.3047 11.4054 12.363 11.5285 12.4439 11.6364C12.5248 11.7443 12.6267 11.8348 12.7435 11.9022C12.8602 11.9697 12.9895 12.0129 13.1233 12.0292C13.2572 12.0454 13.393 12.0345 13.5225 11.9969C13.6521 11.9593 13.7727 11.8959 13.8771 11.8105C13.9814 11.7251 14.0675 11.6195 14.13 11.5C14.2181 11.3474 14.345 11.2208 14.4978 11.133C14.6505 11.0452 14.8238 10.9993 15 11C15.2652 11 15.5196 11.1054 15.7071 11.2929C15.8946 11.4804 16 11.7348 16 12C16 12.2652 15.8946 12.5196 15.7071 12.7071C15.5196 12.8946 15.2652 13 15 13C14.7348 13 14.4804 13.1054 14.2929 13.2929C14.1054 13.4804 14 13.7348 14 14V15C14 15.2652 14.1054 15.5196 14.2929 15.7071C14.4804 15.8946 14.7348 16 15 16C15.2652 16 15.5196 15.8946 15.7071 15.7071C15.8946 15.5196 16 15.2652 16 15V14.82C16.6614 14.58 17.2174 14.1152 17.5708 13.5069C17.9242 12.8985 18.0525 12.1853 17.9334 11.4919C17.8143 10.7985 17.4552 10.169 16.919 9.71352C16.3828 9.25801 15.7035 9.00546 15 9Z" fill="#6775F4"/>
</g>
<defs>
<filter id="filter0_d_5329_14" x="0.6" y="0.6" width="28.8" height="28.8" filterUnits="userSpaceOnUse" color-interpolation-filters="sRGB">
<feFlood flood-opacity="0" result="BackgroundImageFix"/>
<feColorMatrix in="SourceAlpha" type="matrix" values="0 0 0 0 0 0 0 0 0 0 0 0 0 0 0 0 0 0 127 0" result="hardAlpha"/>
<feOffset dy="1"/>
<feGaussianBlur stdDeviation="2.2"/>
<feComposite in2="hardAlpha" operator="out"/>
<feColorMatrix type="matrix" values="0 0 0 0 0 0 0 0 0 0 0 0 0 0 0 0 0 0 0.2 0"/>
<feBlend mode="normal" in2="BackgroundImageFix" result="effect1_dropShadow_5329_14"/>
<feBlend mode="normal" in="SourceGraphic" in2="effect1_dropShadow_5329_14" result="shape"/>
</filter>
</defs>
</svg>
