<svg width="21" height="21" viewBox="0 0 21 21" fill="none" xmlns="http://www.w3.org/2000/svg">
<circle cx="10.2388" cy="10.5015" r="8.6958" fill="white"/>
<path d="M9.52877 13.7915C9.48577 13.839 9.44569 13.8891 9.40877 13.9415C9.37093 13.9972 9.34066 14.0577 9.31877 14.1215C9.28994 14.1782 9.26972 14.2388 9.25877 14.3015C9.25387 14.368 9.25387 14.4349 9.25877 14.5015C9.25539 14.6326 9.28279 14.7628 9.33877 14.8815C9.38369 15.0056 9.45534 15.1183 9.54866 15.2116C9.64198 15.3049 9.75468 15.3766 9.87877 15.4215C9.99848 15.4744 10.1279 15.5017 10.2588 15.5017C10.3896 15.5017 10.5191 15.4744 10.6388 15.4215C10.7629 15.3766 10.8756 15.3049 10.9689 15.2116C11.0622 15.1183 11.1339 15.0056 11.1788 14.8815C11.2232 14.7599 11.2436 14.6308 11.2388 14.5015C11.2395 14.3699 11.2143 14.2394 11.1645 14.1176C11.1148 13.9957 11.0415 13.8849 10.9488 13.7915C10.8558 13.6977 10.7452 13.6233 10.6234 13.5726C10.5015 13.5218 10.3708 13.4957 10.2388 13.4957C10.1068 13.4957 9.97606 13.5218 9.8542 13.5726C9.73234 13.6233 9.62174 13.6977 9.52877 13.7915ZM10.2388 0.501465C8.26096 0.501465 6.32756 1.08795 4.68307 2.18677C3.03858 3.28558 1.75686 4.84737 0.999979 6.67463C0.243102 8.50189 0.045069 10.5126 0.430921 12.4524C0.816773 14.3922 1.76918 16.174 3.16771 17.5725C4.56623 18.9711 6.34806 19.9235 8.28787 20.3093C10.2277 20.6952 12.2383 20.4971 14.0656 19.7403C15.8929 18.9834 17.4547 17.7017 18.5535 16.0572C19.6523 14.4127 20.2388 12.4793 20.2388 10.5015C20.2388 9.18825 19.9801 7.88789 19.4776 6.67463C18.975 5.46137 18.2384 4.35898 17.3098 3.4304C16.3813 2.50181 15.2789 1.76522 14.0656 1.26267C12.8524 0.760123 11.552 0.501465 10.2388 0.501465ZM10.2388 18.5015C8.65652 18.5015 7.10981 18.0323 5.79421 17.1532C4.47862 16.2742 3.45324 15.0247 2.84774 13.5629C2.24224 12.1011 2.08381 10.4926 2.39249 8.94074C2.70117 7.38889 3.4631 5.96343 4.58192 4.84461C5.70074 3.72579 7.1262 2.96386 8.67805 2.65518C10.2299 2.3465 11.8384 2.50493 13.3002 3.11043C14.7621 3.71593 16.0115 4.74131 16.8905 6.0569C17.7696 7.3725 18.2388 8.91921 18.2388 10.5015C18.2388 12.6232 17.3959 14.658 15.8956 16.1583C14.3953 17.6586 12.3605 18.5015 10.2388 18.5015ZM10.2388 5.50146C9.71184 5.50113 9.19411 5.63959 8.73768 5.90291C8.28126 6.16623 7.90224 6.54512 7.63877 7.00146C7.56642 7.11528 7.51784 7.24256 7.49595 7.37564C7.47406 7.50872 7.47932 7.64486 7.5114 7.77585C7.54349 7.90685 7.60174 8.03 7.68266 8.1379C7.76357 8.2458 7.86548 8.33622 7.98224 8.40371C8.09901 8.4712 8.22822 8.51438 8.36211 8.53064C8.49599 8.54691 8.63178 8.53592 8.76131 8.49834C8.89084 8.46076 9.01143 8.39737 9.11582 8.31198C9.22022 8.22659 9.30626 8.12097 9.36877 8.00146C9.45688 7.84886 9.58374 7.72225 9.73652 7.63444C9.8893 7.54664 10.0626 7.50077 10.2388 7.50146C10.504 7.50146 10.7583 7.60682 10.9459 7.79436C11.1334 7.98189 11.2388 8.23625 11.2388 8.50146C11.2388 8.76668 11.1334 9.02104 10.9459 9.20857C10.7583 9.39611 10.504 9.50146 10.2388 9.50146C9.97356 9.50146 9.7192 9.60682 9.53167 9.79436C9.34413 9.98189 9.23877 10.2362 9.23877 10.5015V11.5015C9.23877 11.7667 9.34413 12.021 9.53167 12.2086C9.7192 12.3961 9.97356 12.5015 10.2388 12.5015C10.504 12.5015 10.7583 12.3961 10.9459 12.2086C11.1334 12.021 11.2388 11.7667 11.2388 11.5015V11.3215C11.9001 11.0815 12.4561 10.6167 12.8095 10.0083C13.163 9.39997 13.2913 8.68676 13.1722 7.99335C13.053 7.29995 12.694 6.67048 12.1578 6.21498C11.6216 5.75948 10.9423 5.50692 10.2388 5.50146Z" fill="#6775F4"/>
</svg>
