<?xml version="1.0" encoding="UTF-8"?><svg id="Layer_2" xmlns="http://www.w3.org/2000/svg" viewBox="0 0 512 512"><defs><style>.cls-1{fill:#f9bf08;}.cls-1,.cls-2,.cls-3,.cls-4{stroke-width:0px;}.cls-2{fill:#3c53d6;}.cls-3{fill:#ffca00;}.cls-4{fill:#6775f4;}</style></defs><g id="Layer_1-2"><path class="cls-4" d="M355.77,190.6c.06-4.49,3.94-6.2,25.32-6.2,34.23,0,68.47-.21,102.7-.21,7.36,0,14.74-.42,22.1-.31,1.41.02,3.44-.3,4.24,1.11.4.71.42,1.55.44,2.35.29,17.3.79,34.58,1.21,51.88.66,26.96-.06,54.15-3.89,80.91-5.37,37.52-17.61,74.83-41.05,105.57-37.14,48.72-99.61,76.47-162.72,84.06-74.62,8.97-153.57-8.92-212.28-53.29C25.75,406.5,0,332.75,0,255.28c0-50.67,10.62-95.09,31.76-133.26,21.38-38.44,51.75-68.35,91.11-89.84C162.46,10.74,209.7,0,264.53,0c45.72,0,79.89,12,113.81,27.26,3.33,1.5,4.68,5.29,3.02,8.39l-51.26,95.8c-2.76,5.15-9.22,6.81-14.26,3.55-21.74-14.06-50.8-17.59-76.24-10.49-29.07,8.11-53.24,28.92-67.56,54.12-35.44,62.37-21.51,184.39,64.89,204.04,30.19,6.87,69.91-2.04,89.37-26.2,21.57-26.77,28.24-63.38,30.02-96.12l-.53-69.75Z"/><path class="cls-2" d="M503.02,191.77c0,1.24-5.7,2.37-15.21,3.26-3.14.3-6.69.56-10.6.8-11.58.69-26.2,1.11-42.1,1.11s-30.53-.42-42.11-1.11c-3.9-.24-7.46-.5-10.59-.8-9.51-.89-15.21-2.02-15.21-3.26,0-1.09,4.39-2.09,11.89-2.92,2.59-.3,5.56-.56,8.84-.8,12.22-.91,28.85-1.46,47.18-1.46s34.95.55,47.17,1.45c3.29.25,6.26.51,8.85.81,7.5.83,11.89,1.83,11.89,2.92Z"/><path class="cls-1" d="M496.09,160.9c0,8.09-1.77,15.8-4.97,22.78-.98,2.13-2.08,4.19-3.32,6.18-3.14.3-6.69.56-10.6.8-11.58.69-26.2,1.11-42.1,1.11s-30.53-.42-42.11-1.11c-3.9-.24-7.46-.5-10.59-.8-1.24-1.99-2.35-4.05-3.32-6.18-3.2-6.98-4.97-14.69-4.97-22.78,0-31.78,27.3-57.53,60.99-57.53s60.99,25.75,60.99,57.53Z"/><path class="cls-3" d="M487.71,160.9c0,7.89-1.95,15.35-5.44,21.97-1.43,2.75-3.13,5.36-5.07,7.79-11.58.69-26.2,1.11-42.1,1.11s-30.53-.42-42.11-1.11c-1.93-2.43-3.64-5.03-5.07-7.78-3.49-6.62-5.44-14.09-5.44-21.98,0-27.41,23.56-49.63,52.62-49.63s52.61,22.22,52.61,49.63Z"/></g></svg>