<svg width="18" height="18" viewBox="0 0 18 18" fill="none" xmlns="http://www.w3.org/2000/svg">
<path d="M17.2325 10.6604C17.1341 10.6604 17.0367 10.6797 16.9458 10.7174C16.8549 10.755 16.7723 10.8102 16.7027 10.8798C16.6331 10.9494 16.5779 11.032 16.5403 11.1229C16.5026 11.2138 16.4832 11.3112 16.4833 11.4096C16.4907 11.8429 16.326 12.2614 16.0254 12.5735C15.7247 12.8855 15.3126 13.0657 14.8794 13.0744H5.46758L7.55499 10.9331C7.69185 10.7906 7.76682 10.5997 7.7636 10.4021C7.76037 10.2045 7.6792 10.0161 7.53777 9.87809C7.39634 9.74005 7.20609 9.66348 7.00847 9.66506C6.81085 9.66664 6.62185 9.74624 6.48264 9.88652L3.15433 13.3003C3.01781 13.4403 2.94141 13.6281 2.94141 13.8236C2.94141 14.0192 3.01781 14.207 3.15433 14.347L6.48261 17.7608C6.55112 17.8321 6.63307 17.8892 6.72373 17.9287C6.8144 17.9682 6.91199 17.9893 7.01087 17.9909C7.10975 17.9925 7.20797 17.9745 7.29987 17.938C7.39176 17.9014 7.47551 17.847 7.54629 17.7779C7.61706 17.7089 7.67346 17.6265 7.71223 17.5355C7.751 17.4445 7.77138 17.3467 7.77219 17.2479C7.77299 17.149 7.75421 17.0509 7.71693 16.9593C7.67965 16.8677 7.6246 16.7844 7.55496 16.7141L5.46758 14.5729H14.8899C14.8939 14.5729 14.8971 14.5707 14.901 14.5707C15.7274 14.5562 16.5147 14.2159 17.0916 13.624C17.6686 13.032 17.9884 12.2362 17.9817 11.4096C17.9817 11.3112 17.9624 11.2138 17.9247 11.1229C17.8871 11.032 17.8319 10.9494 17.7623 10.8798C17.6927 10.8102 17.6101 10.755 17.5192 10.7174C17.4283 10.6797 17.3309 10.6604 17.2325 10.6604Z" fill="#F9F9F9"/>
<path d="M12.5143 4.91662L10.4269 7.05786C10.3571 7.12805 10.3019 7.21138 10.2645 7.30302C10.2271 7.39466 10.2082 7.4928 10.209 7.59178C10.2097 7.69075 10.2301 7.7886 10.2688 7.87967C10.3076 7.97074 10.3641 8.05322 10.4349 8.12235C10.5057 8.19149 10.5896 8.2459 10.6815 8.28245C10.7735 8.319 10.8718 8.33696 10.9708 8.3353C11.0698 8.33363 11.1674 8.31238 11.2581 8.27276C11.3488 8.23314 11.4308 8.17594 11.4992 8.10446L14.8275 4.69067C14.964 4.55068 15.0404 4.36289 15.0404 4.16736C15.0404 3.97183 14.964 3.78404 14.8275 3.64405L11.4992 0.230232C11.4307 0.158906 11.3488 0.101849 11.2581 0.0623504C11.1674 0.0228522 11.0699 0.00169454 10.971 9.76828e-05C10.8721 -0.00149917 10.7739 0.0164963 10.682 0.0530464C10.5901 0.0895964 10.5063 0.143978 10.4356 0.213054C10.3648 0.282131 10.3084 0.364536 10.2696 0.455517C10.2308 0.546497 10.2105 0.644254 10.2097 0.743149C10.2089 0.842043 10.2276 0.94012 10.2649 1.03172C10.3022 1.12332 10.3572 1.20664 10.4269 1.27686L12.5143 3.4181H3.0919C3.08799 3.4181 3.08477 3.4203 3.08089 3.4203C2.25444 3.43484 1.46714 3.77509 0.890222 4.36705C0.3133 4.959 -0.00659541 5.7548 0.000103117 6.58137C0.000103117 6.78009 0.0790411 6.97066 0.219552 7.11118C0.360062 7.25169 0.550635 7.33063 0.749347 7.33063C0.948059 7.33063 1.13863 7.25169 1.27914 7.11118C1.41965 6.97066 1.49859 6.78009 1.49859 6.58137C1.49117 6.14811 1.65582 5.72958 1.95647 5.41752C2.25711 5.10546 2.66921 4.92533 3.10244 4.91662H12.5143Z" fill="#F9F9F9"/>
</svg>
