<svg width="19" height="19" viewBox="0 0 19 19" fill="none" xmlns="http://www.w3.org/2000/svg">
<path d="M17.3629 11.4597C17.2645 11.4597 17.167 11.4791 17.0761 11.5167C16.9852 11.5544 16.9026 11.6095 16.8331 11.6791C16.7635 11.7487 16.7083 11.8313 16.6706 11.9222C16.633 12.0131 16.6136 12.1105 16.6136 12.2089C16.6211 12.6422 16.4564 13.0607 16.1558 13.3728C15.8551 13.6849 15.443 13.865 15.0098 13.8737H5.59795L7.68536 11.7325C7.82222 11.5899 7.89719 11.399 7.89397 11.2014C7.89074 11.0038 7.80958 10.8154 7.66814 10.6774C7.52671 10.5394 7.33646 10.4628 7.13884 10.4644C6.94122 10.466 6.75222 10.5456 6.61301 10.6858L3.2847 14.0996C3.14819 14.2396 3.07178 14.4274 3.07178 14.623C3.07178 14.8185 3.14819 15.0063 3.2847 15.1463L6.61298 18.5601C6.68149 18.6314 6.76344 18.6885 6.8541 18.728C6.94477 18.7675 7.04236 18.7886 7.14124 18.7902C7.24012 18.7918 7.33834 18.7738 7.43024 18.7373C7.52213 18.7007 7.60588 18.6463 7.67666 18.5773C7.74743 18.5082 7.80383 18.4258 7.8426 18.3348C7.88137 18.2438 7.90175 18.1461 7.90256 18.0472C7.90336 17.9483 7.88458 17.8502 7.8473 17.7586C7.81002 17.667 7.75497 17.5837 7.68533 17.5135L5.59795 15.3722H15.0203C15.0242 15.3722 15.0274 15.37 15.0313 15.37C15.8578 15.3555 16.6451 15.0152 17.222 14.4233C17.7989 13.8313 18.1188 13.0355 18.1121 12.2089C18.1121 12.1105 18.0927 12.0131 18.0551 11.9222C18.0174 11.8313 17.9623 11.7487 17.8927 11.6791C17.8231 11.6095 17.7405 11.5544 17.6496 11.5167C17.5587 11.4791 17.4613 11.4597 17.3629 11.4597Z" fill="#030942"/>
<path d="M12.6447 5.71593L10.5573 7.85718C10.4875 7.92737 10.4323 8.01069 10.3949 8.10233C10.3575 8.19397 10.3386 8.29212 10.3393 8.39109C10.3401 8.49007 10.3604 8.58792 10.3992 8.67899C10.438 8.77006 10.4944 8.85254 10.5653 8.92167C10.6361 8.9908 10.7199 9.04522 10.8119 9.08177C10.9039 9.11831 11.0022 9.13628 11.1012 9.13461C11.2001 9.13295 11.2978 9.11169 11.3885 9.07207C11.4792 9.03245 11.5611 8.97526 11.6296 8.90378L14.9579 5.48999C15.0944 5.35 15.1708 5.16221 15.1708 4.96668C15.1708 4.77114 15.0944 4.58335 14.9579 4.44337L11.6296 1.02955C11.5611 0.958222 11.4791 0.901165 11.3885 0.861667C11.2978 0.822169 11.2002 0.801011 11.1013 0.799414C11.0025 0.797817 10.9042 0.815813 10.8123 0.852363C10.7205 0.888913 10.6367 0.943294 10.5659 1.01237C10.4952 1.08145 10.4388 1.16385 10.4 1.25483C10.3612 1.34581 10.3408 1.44357 10.34 1.54247C10.3392 1.64136 10.358 1.73944 10.3953 1.83104C10.4326 1.92264 10.4876 2.00595 10.5573 2.07617L12.6447 4.21741H3.22227C3.21836 4.21741 3.21514 4.21961 3.21126 4.21961C2.38481 4.23416 1.59752 4.57441 1.02059 5.16636C0.443671 5.75832 0.123776 6.55411 0.130474 7.38069C0.130474 7.5794 0.209412 7.76998 0.349923 7.91049C0.490433 8.05101 0.681006 8.12995 0.879718 8.12995C1.07843 8.12995 1.269 8.05101 1.40951 7.91049C1.55002 7.76998 1.62896 7.5794 1.62896 7.38069C1.62154 6.94742 1.7862 6.52889 2.08684 6.21683C2.38748 5.90478 2.79958 5.72465 3.23281 5.71593H12.6447Z" fill="#030942"/>
</svg>
