<svg width="31" height="31" viewBox="0 0 31 31" fill="none" xmlns="http://www.w3.org/2000/svg">
<g clip-path="url(#clip0_3926_10387)">
<path d="M9.59519 5.16662C6.03189 7.19977 3.69043 11.1038 3.69043 15.5C3.69043 22.0222 8.97773 27.3095 15.5 27.3095C22.0222 27.3095 27.3095 22.0222 27.3095 15.5C27.3095 8.97773 22.0222 3.69043 15.5 3.69043" stroke="black" stroke-linecap="round" stroke-linejoin="round"/>
<path d="M9.59519 11.0713V5.1665H3.69043" stroke="black" stroke-linecap="round" stroke-linejoin="round"/>
<path d="M9.59519 5.16662C6.03189 7.19977 3.69043 11.1038 3.69043 15.5C3.69043 22.0222 8.97773 27.3095 15.5 27.3095C22.0222 27.3095 27.3095 22.0222 27.3095 15.5C27.3095 8.97773 22.0222 3.69043 15.5 3.69043" stroke="#030942" stroke-width="2" stroke-linecap="round" stroke-linejoin="round"/>
<path d="M9.59519 11.0713V5.1665H3.69043" stroke="#030942" stroke-width="2" stroke-linecap="round" stroke-linejoin="round"/>
</g>
<defs>
<clipPath id="clip0_3926_10387">
<rect width="31" height="31" fill="white"/>
</clipPath>
</defs>
</svg>
