<svg width="29" height="29" viewBox="0 0 29 29" fill="none" xmlns="http://www.w3.org/2000/svg">
<g id="search btn">
<path id="Vector" d="M28.2732 26.5469L21.6686 20.0746H21.5975C23.6332 17.7224 24.6619 14.6899 24.4685 11.6115C24.2751 8.53306 22.8744 5.64718 20.5596 3.55751C18.2448 1.46784 15.1952 0.336265 12.0486 0.399486C8.90196 0.462707 5.90218 1.71583 3.67673 3.89672C1.45127 6.07761 0.172547 9.01732 0.108033 12.1009C0.0435203 15.1845 1.19822 18.1731 3.33059 20.4416C5.46295 22.71 8.4078 24.0826 11.5491 24.2721C14.6904 24.4617 17.7849 23.4536 20.1851 21.4586C20.1851 21.4586 20.1851 21.5084 20.1851 21.5283L26.7897 28.0006C26.8841 28.094 26.9965 28.168 27.1203 28.2186C27.2442 28.2692 27.377 28.2952 27.5111 28.2952C27.6452 28.2952 27.778 28.2692 27.9019 28.2186C28.0257 28.168 28.1381 28.094 28.2325 28.0006C28.3367 27.9103 28.4208 27.7999 28.4797 27.6763C28.5385 27.5528 28.5709 27.4187 28.5747 27.2824C28.5785 27.1461 28.5537 27.0105 28.5018 26.884C28.45 26.7574 28.3721 26.6427 28.2732 26.5469ZM12.3105 22.2751C10.3008 22.2751 8.33634 21.6911 6.66539 20.597C4.99445 19.5029 3.6921 17.9477 2.92305 16.1283C2.154 14.3088 1.95278 12.3067 2.34484 10.3752C2.7369 8.44361 3.70463 6.66937 5.12565 5.2768C6.54667 3.88423 8.35716 2.93588 10.3282 2.55167C12.2992 2.16747 14.3422 2.36466 16.1989 3.11831C18.0555 3.87196 19.6424 5.14822 20.7589 6.78571C21.8754 8.42319 22.4713 10.3484 22.4713 12.3177C22.4713 13.6254 22.2085 14.9202 21.6979 16.1283C21.1872 17.3364 20.4388 18.4341 19.4953 19.3587C18.5518 20.2833 17.4316 21.0168 16.1989 21.5172C14.9661 22.0176 13.6448 22.2751 12.3105 22.2751Z" fill="#030942"/>
</g>
</svg>
