<svg width="351" height="344" viewBox="0 0 351 344" fill="none" xmlns="http://www.w3.org/2000/svg">
<g clip-path="url(#clip0_3963_11792)">
<path opacity="0.64" d="M266.935 246.002C269.07 234.514 269.192 222.637 272.622 211.445C279.874 187.77 301.123 169.732 305.728 145.41C310.173 121.999 295.963 96.4242 273.745 87.844C265.706 84.7364 257.034 83.6994 248.745 81.3386C225.326 74.6568 206.165 57.7988 183.603 48.619C171.643 43.7567 158.033 41.1505 145.883 45.4715C134.694 49.4648 126.161 58.7872 120.333 69.1149C114.506 79.4426 110.998 90.8812 106.799 101.975C98.7987 123.06 87.4493 143.945 68.8715 156.732C60.1597 162.731 49.9094 166.94 43.0987 175.048C38.7822 180.13 36.3481 186.244 35.2541 192.77C33.544 203.159 43.3412 226.057 48.3909 234.994C51.75 240.945 73.4749 262.938 85.2126 270.212C101.787 280.494 137.386 296.318 161.722 299.156L190.205 302.482C259.425 304.638 259.237 283.168 266.534 248.012C266.679 247.337 266.813 246.672 266.935 246.002Z" fill="#D7D9EF"/>
<path d="M253.931 223.423L265.579 196.604" stroke="#F2E9DA" stroke-width="1.3" stroke-miterlimit="10" stroke-linecap="round"/>
<path d="M242.856 226.322L248.771 212.705" stroke="#F2E9DA" stroke-width="1.3" stroke-miterlimit="10" stroke-linecap="round"/>
<path d="M215.265 238.603L224.985 216.222" stroke="#F2E9DA" stroke-width="1.3" stroke-miterlimit="10" stroke-linecap="round"/>
<path d="M242.814 213.733L250.465 196.119" stroke="#F2E9DA" stroke-width="1.3" stroke-miterlimit="10" stroke-linecap="round"/>
</g>
<path d="M107.215 52.3269C107.154 52.2204 107.054 52.1412 106.937 52.1055C106.791 52.0743 106.889 52.0833 106.853 52.0703L106.823 52.0243C106.8 51.993 106.774 51.9642 106.745 51.9382C106.679 51.8794 106.602 51.8333 106.52 51.8021C106.271 51.7364 106.028 51.6539 105.791 51.5553C105.212 51.2827 104.707 50.8745 104.319 50.3652C104.191 50.2007 104.073 50.0286 103.966 49.8496L103.802 49.562L103.601 49.1376C103.498 48.875 103.413 48.6057 103.347 48.3317C103.27 48.0275 103.18 47.7999 103.114 47.4128C103.042 47.0553 102.971 46.6948 102.898 46.3311C102.881 46.2089 102.858 46.2191 102.836 46.1968L102.771 46.1399L102.638 46.0258L102.51 45.9184L102.441 45.8888L102.314 45.8363L102.255 45.8132L102.24 45.8079C102.231 45.8048 102.185 45.8081 102.197 45.8089L102.168 45.8161C102.151 45.8163 102.049 45.8484 101.95 45.8782C101.859 45.936 101.773 46.0004 101.693 46.0708C101.641 46.1063 101.593 46.1486 101.552 46.1964L101.396 46.6418C101.335 47.4641 101.166 48.2748 100.893 49.0531C100.734 49.4231 100.711 49.4657 100.639 49.6052L100.432 49.9643C100.164 50.3991 99.8205 50.7824 99.4173 51.0961C99.3731 51.1342 99.3257 51.1684 99.2758 51.1984L99.052 51.3489C98.7588 51.49 98.4515 51.5995 98.1352 51.6756C97.9805 51.7164 97.8287 51.7669 97.6804 51.8269L97.2836 51.9853C97.0774 52.1046 96.9274 52.2505 96.9688 52.3126L96.8938 52.5251L96.8857 52.6137C96.8825 52.6796 96.8864 52.7457 96.8974 52.8108L96.9673 52.9915L96.9956 53.0627L97.0119 53.1038L97.1189 53.1697C97.2711 53.2623 97.4516 53.3721 97.6685 53.5041C97.9995 53.5749 98.3211 53.6822 98.723 53.7909C98.9008 53.8399 99.0684 53.9202 99.218 54.0281L99.4156 54.1526C99.7224 54.377 100 54.6386 100.243 54.9313C100.383 55.1049 100.511 55.2875 100.627 55.4778C100.806 55.7573 100.954 56.0553 101.069 56.3665C101.426 57.2527 101.533 58.9631 102.017 59.1493C102.047 59.2089 102.093 59.2587 102.15 59.293C102.207 59.3272 102.272 59.3444 102.339 59.3425C102.522 59.341 102.845 59.4269 103.077 58.2741C103.283 57.252 103.357 56.7107 103.534 56.1204C103.661 55.8097 103.711 55.7212 103.761 55.6066L103.942 55.2849C104.132 54.9618 104.365 54.6653 104.633 54.4031C105.296 53.8528 106.058 53.434 106.878 53.1694C106.9 53.1309 106.825 52.9353 106.932 52.9439C106.998 52.9337 107.061 52.9071 107.115 52.8666C107.168 52.826 107.211 52.7728 107.239 52.7116C107.267 52.6505 107.28 52.5833 107.275 52.5162C107.271 52.449 107.25 52.384 107.215 52.3269Z" fill="#6775F4"/>
<path d="M237.765 72.9575C237.704 72.851 237.605 72.7718 237.487 72.7361C237.342 72.7049 237.44 72.7139 237.404 72.7009L237.374 72.655C237.351 72.6236 237.325 72.5948 237.296 72.5688C237.23 72.51 237.153 72.4639 237.07 72.4327C236.822 72.367 236.579 72.2845 236.342 72.1859C235.763 71.9133 235.258 71.5051 234.87 70.9958C234.742 70.8314 234.624 70.6592 234.517 70.4803L234.353 70.1926L234.152 69.7682C234.049 69.5056 233.964 69.2363 233.898 68.9623C233.821 68.6581 233.731 68.4305 233.665 68.0434C233.593 67.686 233.521 67.3254 233.449 66.9617C233.432 66.8395 233.409 66.8497 233.387 66.8274L233.321 66.7705L233.189 66.6564L233.06 66.549L232.992 66.5194L232.865 66.4669L232.806 66.4438L232.791 66.4385C232.782 66.4354 232.736 66.4387 232.748 66.4395L232.719 66.4467C232.701 66.447 232.6 66.479 232.5 66.5088C232.41 66.5666 232.324 66.631 232.243 66.7014C232.191 66.7369 232.144 66.7792 232.103 66.8271L231.947 67.2724C231.886 68.0947 231.716 68.9054 231.444 69.6837C231.285 70.0537 231.261 70.0963 231.19 70.2358L230.983 70.595C230.715 71.0297 230.371 71.413 229.968 71.7268C229.924 71.7648 229.877 71.799 229.827 71.829L229.603 71.9795C229.31 72.1206 229.002 72.2301 228.686 72.3062C228.531 72.347 228.379 72.3975 228.231 72.4575L227.834 72.6159C227.628 72.7352 227.478 72.8812 227.52 72.9432L227.445 73.1557L227.437 73.2443C227.433 73.3102 227.437 73.3763 227.448 73.4414L227.518 73.6221L227.546 73.6933L227.563 73.7344L227.67 73.8003C227.822 73.8929 228.002 74.0027 228.219 74.1347C228.55 74.2056 228.872 74.3128 229.274 74.4215C229.452 74.4705 229.619 74.5508 229.769 74.6587L229.966 74.7832C230.273 75.0076 230.551 75.2692 230.794 75.5619C230.933 75.7356 231.062 75.9181 231.178 76.1084C231.356 76.388 231.505 76.6859 231.62 76.9971C231.977 77.8833 232.084 79.5937 232.568 79.7799C232.597 79.8395 232.643 79.8894 232.7 79.9236C232.758 79.9578 232.823 79.975 232.89 79.9731C233.072 79.9716 233.395 80.0575 233.628 78.9047C233.834 77.8826 233.908 77.3414 234.085 76.7511C234.211 76.4403 234.262 76.3518 234.312 76.2372L234.493 75.9155C234.683 75.5924 234.916 75.2959 235.184 75.0337C235.847 74.4834 236.609 74.0646 237.428 73.8C237.451 73.7616 237.375 73.5659 237.482 73.5745C237.549 73.5643 237.612 73.5377 237.666 73.4972C237.719 73.4567 237.762 73.4034 237.79 73.3423C237.818 73.2811 237.831 73.2139 237.826 73.1468C237.822 73.0796 237.801 73.0146 237.765 72.9575Z" fill="#6775F4"/>
<path d="M99.5546 62.8195C99.5209 62.8078 99.4862 62.7991 99.4509 62.7935L99.4421 62.7868L99.3611 62.7327C99.2931 62.6924 99.2225 62.6566 99.1497 62.6256C98.953 62.5434 98.7498 62.4778 98.5422 62.4296C97.0678 62.1073 95.6889 61.4456 94.5151 60.497C91.8792 58.1842 90.1771 54.9897 89.7277 51.512C89.6351 51.0118 89.5681 50.5071 89.5271 50L89.4899 49.6167L89.4712 49.4247L89.4618 49.3286L89.4593 49.3047C89.4545 49.2355 89.4419 49.1671 89.422 49.1007C89.375 48.9407 89.2811 48.7985 89.1524 48.6924C89.0237 48.5863 88.8662 48.5212 88.7001 48.5056C88.5341 48.4899 88.3672 48.5244 88.2209 48.6046C88.0747 48.6848 87.9559 48.807 87.8798 48.9554C87.8213 49.0719 87.7879 49.1993 87.7817 49.3295L87.774 49.4178C87.6943 49.4229 87.7029 49.423 87.774 49.4178L87.7733 49.4258L87.7565 49.6187L87.7231 50.0049C87.6407 51.0364 87.4769 52.0597 87.233 53.0654C86.7803 55.0136 85.9531 56.8551 84.7973 58.4875C83.7712 59.9087 82.4113 61.0559 80.8376 61.828L80.0405 62.1494C79.6538 62.2908 79.1187 62.4005 78.8302 62.5274L77.8292 62.8884L77.3425 63.064C77.2603 63.1085 77.3039 63.131 77.2787 63.1652L77.2263 63.3492L77.201 63.4382C77.1973 63.4748 77.1959 63.5116 77.1968 63.5485C77.1952 63.5716 77.1986 63.5948 77.2069 63.6164L77.3062 63.9409C77.5252 64.1076 77.755 64.2596 77.9941 64.3961C78.8206 64.488 79.6325 64.6819 80.4114 64.9735L80.7654 65.1078C80.8643 65.1437 80.9601 65.1877 81.0519 65.2392L81.6595 65.5466C82.6097 66.0961 83.4725 66.7844 84.2193 67.5889C85.976 69.6164 87.1741 72.0667 87.6955 74.6983C87.8493 75.4265 87.9643 76.1623 88.0398 76.9027L88.0998 77.4564L88.1072 77.5255C88.1116 77.5862 88.1218 77.6463 88.1377 77.705C88.1781 77.8551 88.2646 77.9887 88.3851 78.087C88.5055 78.1853 88.6537 78.2433 88.8088 78.2528C88.964 78.2623 89.1182 78.2228 89.2497 78.14C89.3812 78.0571 89.4834 77.9351 89.5418 77.791C89.5763 77.7055 89.5963 77.6148 89.601 77.5226L89.6037 77.488L89.6248 77.2119L89.7094 76.1157C89.8661 74.7414 90.166 73.3873 90.604 72.0753C91.2197 70.1792 92.2577 68.4476 93.6399 67.011C94.7726 65.8465 96.1689 64.9718 97.7109 64.4609C98.7512 64.1078 99.3572 64.0702 99.4618 63.959C99.5247 63.9134 99.4053 63.7267 99.5322 63.728C99.6467 63.7045 99.7474 63.6372 99.813 63.5404C99.8786 63.4437 99.9038 63.3252 99.8832 63.2101C99.8672 63.1052 99.817 63.0084 99.7404 62.9348C99.6873 62.8836 99.624 62.8444 99.5546 62.8195Z" fill="#6775F4"/>
<path d="M284.172 225.908C284.112 225.804 284.015 225.726 283.9 225.691C283.757 225.661 283.853 225.67 283.818 225.657L283.789 225.612C283.766 225.581 283.741 225.553 283.712 225.528C283.647 225.47 283.572 225.425 283.491 225.394C283.248 225.33 283.01 225.249 282.778 225.153C282.211 224.886 281.716 224.486 281.336 223.987C281.211 223.826 281.096 223.657 280.991 223.482L280.83 223.2L280.633 222.785C280.532 222.528 280.449 222.264 280.384 221.996C280.309 221.698 280.221 221.475 280.156 221.096C280.086 220.746 280.016 220.392 279.944 220.036C279.928 219.917 279.905 219.927 279.884 219.905L279.82 219.849L279.69 219.737L279.564 219.632L279.497 219.603L279.373 219.552L279.315 219.529L279.301 219.524C279.292 219.521 279.246 219.524 279.258 219.525L279.23 219.532C279.213 219.532 279.114 219.564 279.016 219.593C278.927 219.649 278.843 219.712 278.764 219.781C278.713 219.816 278.667 219.858 278.627 219.904L278.474 220.341C278.414 221.146 278.248 221.94 277.981 222.702C277.825 223.064 277.802 223.106 277.732 223.243L277.53 223.594C277.267 224.02 276.931 224.396 276.536 224.703C276.492 224.74 276.446 224.774 276.397 224.803L276.178 224.95C275.891 225.089 275.59 225.196 275.28 225.27C275.129 225.31 274.98 225.36 274.835 225.419L274.446 225.574C274.244 225.691 274.097 225.833 274.138 225.894L274.064 226.102L274.056 226.189C274.053 226.254 274.057 226.318 274.068 226.382L274.136 226.559L274.164 226.629L274.18 226.669L274.285 226.734C274.434 226.824 274.611 226.932 274.823 227.061C275.147 227.131 275.462 227.236 275.856 227.342C276.03 227.39 276.194 227.469 276.341 227.574L276.534 227.696C276.834 227.916 277.107 228.172 277.344 228.459C277.481 228.629 277.607 228.808 277.72 228.994C277.895 229.268 278.04 229.56 278.153 229.864C278.503 230.732 278.608 232.407 279.082 232.59C279.111 232.648 279.156 232.697 279.212 232.73C279.268 232.764 279.332 232.781 279.397 232.779C279.576 232.778 279.892 232.862 280.12 231.733C280.322 230.732 280.394 230.202 280.567 229.623C280.691 229.319 280.741 229.232 280.79 229.12L280.967 228.805C281.153 228.489 281.381 228.198 281.644 227.942C282.293 227.403 283.039 226.993 283.842 226.733C283.864 226.696 283.79 226.504 283.895 226.513C283.96 226.503 284.022 226.477 284.074 226.437C284.127 226.397 284.169 226.345 284.196 226.285C284.224 226.225 284.236 226.159 284.232 226.094C284.227 226.028 284.207 225.964 284.172 225.908Z" fill="#6775F4"/>
<path d="M276.67 236.184C276.637 236.173 276.603 236.164 276.569 236.159L276.56 236.152L276.481 236.099C276.414 236.06 276.345 236.025 276.274 235.994C276.081 235.914 275.882 235.85 275.679 235.802C274.235 235.487 272.885 234.839 271.735 233.91C269.154 231.645 267.487 228.516 267.046 225.11C266.956 224.62 266.89 224.126 266.85 223.629L266.814 223.254L266.795 223.066L266.786 222.972L266.784 222.949C266.779 222.881 266.767 222.814 266.747 222.749C266.701 222.592 266.609 222.453 266.483 222.349C266.357 222.245 266.203 222.181 266.04 222.166C265.877 222.151 265.714 222.184 265.571 222.263C265.428 222.341 265.311 222.461 265.237 222.606C265.179 222.721 265.147 222.845 265.141 222.973L265.133 223.059C265.055 223.064 265.063 223.064 265.133 223.059L265.132 223.067L265.116 223.256L265.083 223.634C265.003 224.644 264.842 225.647 264.603 226.632C264.16 228.54 263.35 230.343 262.218 231.942C261.213 233.334 259.881 234.457 258.34 235.213L257.559 235.528C257.181 235.667 256.657 235.774 256.374 235.898L255.394 236.252L254.917 236.424C254.836 236.467 254.879 236.489 254.855 236.523L254.803 236.703L254.778 236.79C254.775 236.826 254.773 236.862 254.774 236.898C254.773 236.921 254.776 236.944 254.784 236.965L254.881 237.282C255.096 237.446 255.321 237.595 255.555 237.728C256.365 237.818 257.16 238.008 257.923 238.294L258.269 238.425C258.366 238.461 258.46 238.504 258.55 238.554L259.145 238.855C260.075 239.393 260.92 240.067 261.652 240.855C263.372 242.841 264.546 245.241 265.056 247.818C265.207 248.531 265.319 249.252 265.393 249.977L265.452 250.519L265.459 250.587C265.464 250.646 265.474 250.705 265.489 250.762C265.529 250.909 265.614 251.04 265.732 251.137C265.849 251.233 265.995 251.29 266.147 251.299C266.299 251.308 266.45 251.27 266.578 251.188C266.707 251.107 266.807 250.988 266.864 250.847C266.898 250.763 266.918 250.674 266.922 250.584L266.925 250.55L266.946 250.279L267.028 249.206C267.182 247.86 267.476 246.534 267.905 245.249C268.508 243.392 269.524 241.696 270.878 240.289C271.987 239.149 273.355 238.292 274.865 237.792C275.884 237.446 276.477 237.409 276.58 237.3C276.641 237.256 276.524 237.073 276.648 237.074C276.761 237.051 276.859 236.985 276.923 236.89C276.988 236.796 277.012 236.679 276.992 236.567C276.977 236.464 276.927 236.369 276.852 236.297C276.8 236.247 276.738 236.209 276.67 236.184Z" fill="#6775F4"/>
<path d="M261.307 129.767L256.023 114.932L251.471 116.5C233.386 100.821 198.354 97.2833 162.996 109.625C127.639 121.927 102.563 146.411 98.418 169.808L93.8662 171.376L99.1495 186.211C99.3527 186.854 99.5153 187.497 99.7591 188.141C109.635 215.88 153.974 225.73 198.76 210.131C243.546 194.533 271.873 159.396 261.997 131.616C261.754 130.973 261.51 130.37 261.266 129.767H261.307Z" fill="#D2D2D2"/>
<g opacity="0.7">
<mask id="mask0_3963_11792" style="mask-type:luminance" maskUnits="userSpaceOnUse" x="93" y="102" width="171" height="116">
<path d="M261.307 129.767L256.023 114.932L251.471 116.5C233.386 100.821 198.354 97.2833 162.996 109.625C127.639 121.927 102.563 146.411 98.418 169.808L93.8662 171.376L99.1495 186.211C99.3527 186.854 99.5153 187.497 99.7591 188.141C109.635 215.88 153.974 225.73 198.76 210.131C243.546 194.533 271.873 159.396 261.997 131.616C261.754 130.973 261.51 130.37 261.266 129.767H261.307Z" fill="white"/>
</mask>
<g mask="url(#mask0_3963_11792)">
<path d="M69.9697 99.0925L127.924 261.912" stroke="#B5B5B5" stroke-width="0.5" stroke-miterlimit="10"/>
<path d="M72.6123 98.1677L130.566 260.987" stroke="#B5B5B5" stroke-width="0.5" stroke-miterlimit="10"/>
<path d="M75.2939 97.2427L133.248 260.062" stroke="#B5B5B5" stroke-width="0.5" stroke-miterlimit="10"/>
<path d="M77.9365 96.3186L135.89 259.138" stroke="#B5B5B5" stroke-width="0.5" stroke-miterlimit="10"/>
<path d="M80.6172 95.3936L138.571 258.213" stroke="#B5B5B5" stroke-width="0.5" stroke-miterlimit="10"/>
<path d="M83.2598 94.4688L141.214 257.288" stroke="#B5B5B5" stroke-width="0.5" stroke-miterlimit="10"/>
<path d="M85.9414 93.5447L143.895 256.364" stroke="#B5B5B5" stroke-width="0.5" stroke-miterlimit="10"/>
<path d="M88.584 92.6196L146.538 255.439" stroke="#B5B5B5" stroke-width="0.5" stroke-miterlimit="10"/>
<path d="M91.2646 91.6948L149.219 254.514" stroke="#B5B5B5" stroke-width="0.5" stroke-miterlimit="10"/>
<path d="M93.9482 90.7302L151.902 253.55" stroke="#B5B5B5" stroke-width="0.5" stroke-miterlimit="10"/>
<path d="M96.5889 89.8054L154.543 252.625" stroke="#B5B5B5" stroke-width="0.5" stroke-miterlimit="10"/>
<path d="M99.2725 88.8811L157.226 251.701" stroke="#B5B5B5" stroke-width="0.5" stroke-miterlimit="10"/>
<path d="M101.912 87.9563L159.866 250.776" stroke="#B5B5B5" stroke-width="0.5" stroke-miterlimit="10"/>
<path d="M104.596 87.0312L162.55 249.851" stroke="#B5B5B5" stroke-width="0.5" stroke-miterlimit="10"/>
<path d="M107.239 86.1072L165.193 248.927" stroke="#B5B5B5" stroke-width="0.5" stroke-miterlimit="10"/>
<path d="M109.92 85.1821L167.874 248.002" stroke="#B5B5B5" stroke-width="0.5" stroke-miterlimit="10"/>
<path d="M112.562 84.2573L170.516 247.077" stroke="#B5B5B5" stroke-width="0.5" stroke-miterlimit="10"/>
<path d="M115.243 83.333L173.197 246.152" stroke="#B5B5B5" stroke-width="0.5" stroke-miterlimit="10"/>
<path d="M117.928 82.4082L175.882 245.228" stroke="#B5B5B5" stroke-width="0.5" stroke-miterlimit="10"/>
<path d="M120.567 81.4839L178.521 244.303" stroke="#B5B5B5" stroke-width="0.5" stroke-miterlimit="10"/>
<path d="M123.251 80.5591L181.205 243.379" stroke="#B5B5B5" stroke-width="0.5" stroke-miterlimit="10"/>
<path d="M125.891 79.5938L183.844 242.413" stroke="#B5B5B5" stroke-width="0.5" stroke-miterlimit="10"/>
<path d="M128.575 78.6697L186.529 241.489" stroke="#B5B5B5" stroke-width="0.5" stroke-miterlimit="10"/>
<path d="M131.215 77.7446L189.169 240.564" stroke="#B5B5B5" stroke-width="0.5" stroke-miterlimit="10"/>
<path d="M133.898 76.8198L191.852 239.639" stroke="#B5B5B5" stroke-width="0.5" stroke-miterlimit="10"/>
<path d="M136.538 75.8955L194.492 238.715" stroke="#B5B5B5" stroke-width="0.5" stroke-miterlimit="10"/>
<path d="M139.223 74.9707L197.177 237.79" stroke="#B5B5B5" stroke-width="0.5" stroke-miterlimit="10"/>
<path d="M141.903 74.0464L199.857 236.866" stroke="#B5B5B5" stroke-width="0.5" stroke-miterlimit="10"/>
<path d="M144.546 73.1216L202.5 235.941" stroke="#B5B5B5" stroke-width="0.5" stroke-miterlimit="10"/>
<path d="M147.227 72.1968L205.18 235.016" stroke="#B5B5B5" stroke-width="0.5" stroke-miterlimit="10"/>
<path d="M149.87 71.2725L207.824 234.092" stroke="#B5B5B5" stroke-width="0.5" stroke-miterlimit="10"/>
<path d="M152.551 70.3477L210.505 233.167" stroke="#B5B5B5" stroke-width="0.5" stroke-miterlimit="10"/>
<path d="M155.193 69.4226L213.147 232.242" stroke="#B5B5B5" stroke-width="0.5" stroke-miterlimit="10"/>
<path d="M157.877 68.4985L215.831 231.278" stroke="#B5B5B5" stroke-width="0.5" stroke-miterlimit="10"/>
<path d="M160.559 67.5332L218.472 230.353" stroke="#B5B5B5" stroke-width="0.5" stroke-miterlimit="10"/>
<path d="M163.201 66.6091L221.155 229.429" stroke="#B5B5B5" stroke-width="0.5" stroke-miterlimit="10"/>
<path d="M165.882 65.6841L223.836 228.504" stroke="#B5B5B5" stroke-width="0.5" stroke-miterlimit="10"/>
<path d="M168.524 64.7593L226.478 227.579" stroke="#B5B5B5" stroke-width="0.5" stroke-miterlimit="10"/>
<path d="M171.206 63.835L229.16 226.654" stroke="#B5B5B5" stroke-width="0.5" stroke-miterlimit="10"/>
<path d="M173.849 62.9102L231.802 225.73" stroke="#B5B5B5" stroke-width="0.5" stroke-miterlimit="10"/>
<path d="M176.529 61.9851L234.483 224.805" stroke="#B5B5B5" stroke-width="0.5" stroke-miterlimit="10"/>
<path d="M179.172 61.061L237.126 223.88" stroke="#B5B5B5" stroke-width="0.5" stroke-miterlimit="10"/>
<path d="M181.854 60.136L239.807 222.955" stroke="#B5B5B5" stroke-width="0.5" stroke-miterlimit="10"/>
<path d="M184.537 59.2119L242.45 222.031" stroke="#B5B5B5" stroke-width="0.5" stroke-miterlimit="10"/>
<path d="M187.177 58.2869L245.131 221.106" stroke="#B5B5B5" stroke-width="0.5" stroke-miterlimit="10"/>
<path d="M189.86 57.3621L247.814 220.141" stroke="#B5B5B5" stroke-width="0.5" stroke-miterlimit="10"/>
<path d="M192.501 56.3975L250.455 219.217" stroke="#B5B5B5" stroke-width="0.5" stroke-miterlimit="10"/>
<path d="M195.185 55.4727L253.138 218.292" stroke="#B5B5B5" stroke-width="0.5" stroke-miterlimit="10"/>
<path d="M197.827 54.5476L255.781 217.367" stroke="#B5B5B5" stroke-width="0.5" stroke-miterlimit="10"/>
<path d="M200.508 53.6235L258.462 216.443" stroke="#B5B5B5" stroke-width="0.5" stroke-miterlimit="10"/>
<path d="M203.151 52.6985L261.105 215.518" stroke="#B5B5B5" stroke-width="0.5" stroke-miterlimit="10"/>
<path d="M205.832 51.7744L263.786 214.594" stroke="#B5B5B5" stroke-width="0.5" stroke-miterlimit="10"/>
<path d="M208.516 50.8494L266.429 213.669" stroke="#B5B5B5" stroke-width="0.5" stroke-miterlimit="10"/>
<path d="M211.155 49.9246L269.109 212.744" stroke="#B5B5B5" stroke-width="0.5" stroke-miterlimit="10"/>
<path d="M213.84 49.0005L271.794 211.82" stroke="#B5B5B5" stroke-width="0.5" stroke-miterlimit="10"/>
<path d="M216.479 48.0754L274.433 210.895" stroke="#B5B5B5" stroke-width="0.5" stroke-miterlimit="10"/>
<path d="M219.163 47.1506L277.117 209.97" stroke="#B5B5B5" stroke-width="0.5" stroke-miterlimit="10"/>
<path d="M221.803 46.2263L279.757 209.046" stroke="#B5B5B5" stroke-width="0.5" stroke-miterlimit="10"/>
<path d="M224.487 45.2612L282.441 208.081" stroke="#B5B5B5" stroke-width="0.5" stroke-miterlimit="10"/>
<path d="M227.127 44.3369L285.081 207.156" stroke="#B5B5B5" stroke-width="0.5" stroke-miterlimit="10"/>
<path d="M229.811 43.4121L287.764 206.232" stroke="#B5B5B5" stroke-width="0.5" stroke-miterlimit="10"/>
</g>
</g>
<g style="mix-blend-mode:multiply" opacity="0.5">
<path d="M108.375 185.166C108.132 184.523 107.969 183.88 107.766 183.236L102.482 168.402L107.034 166.834C111.017 144.401 134.264 120.963 167.345 108.219C165.923 108.661 164.46 109.143 163.037 109.626C127.68 121.928 102.604 146.411 98.459 169.809L93.9072 171.377L99.1905 186.211C99.3937 186.855 99.5563 187.498 99.8001 188.141C109.676 215.881 154.015 225.73 198.801 210.132C200.224 209.649 201.646 209.127 203.069 208.564C159.786 222.072 117.926 212.021 108.375 185.166Z" fill="#D2D2D2"/>
</g>
<g style="mix-blend-mode:screen" opacity="0.5">
<path d="M253.461 134.631C253.217 133.988 252.973 133.385 252.729 132.782L247.446 117.947L242.894 119.515C225.54 104.48 192.621 100.62 158.768 111.194C160.19 110.671 161.572 110.108 163.035 109.626C198.392 97.3237 233.425 100.862 251.51 116.5L256.062 114.932L261.345 129.767C261.589 130.37 261.873 131.013 262.077 131.616C271.952 159.356 243.626 194.493 198.839 210.131C197.417 210.614 195.954 211.096 194.532 211.539C236.839 195.257 263.052 161.446 253.501 134.591L253.461 134.631Z" fill="#D2D2D2"/>
</g>
<path d="M193.447 195.139C238.245 179.534 266.552 144.388 256.674 116.639C246.795 88.8904 202.472 79.0463 157.674 94.6519C112.876 110.257 84.5686 145.403 94.4471 173.152C104.326 200.901 148.649 210.745 193.447 195.139Z" fill="#BFBFBF"/>
<g style="mix-blend-mode:multiply" opacity="0.5">
<path d="M192.787 193.287C148.488 208.725 104.677 199.237 94.1514 172.221C94.2326 172.543 94.3139 172.824 94.4359 173.146C104.312 200.885 148.651 210.735 193.437 195.136C238.223 179.538 266.55 144.401 256.674 116.621C256.552 116.3 256.43 116.018 256.308 115.737C265.249 143.316 237.085 177.89 192.787 193.287Z" fill="#BFBFBF"/>
</g>
<g style="mix-blend-mode:multiply" opacity="0.2">
<path d="M98.7828 171.618C89.0696 144.32 116.34 109.867 159.866 93.9065C159.134 94.1477 158.403 94.3889 157.671 94.6301C112.885 110.229 84.5585 145.365 94.4342 173.145C104.31 200.885 148.649 210.734 193.435 195.136C194.167 194.895 194.858 194.613 195.589 194.332C151.535 208.885 108.496 198.915 98.7828 171.618Z" fill="#BFBFBF"/>
</g>
<g style="mix-blend-mode:screen" opacity="0.5">
<path d="M252.364 118.149C242.651 90.8514 199.572 80.9214 155.558 95.4345C156.289 95.153 156.98 94.9118 157.712 94.6304C202.498 79.0319 246.837 88.8815 256.713 116.621C266.588 144.361 238.262 179.498 193.476 195.136C192.744 195.377 192.012 195.619 191.281 195.86C234.807 179.9 262.077 145.446 252.364 118.149Z" fill="#BFBFBF"/>
</g>
<g style="mix-blend-mode:screen">
<path d="M158.241 96.1581C202.621 80.6802 246.513 90.2081 256.957 117.385C256.876 117.144 256.795 116.862 256.714 116.621C246.838 88.8815 202.499 79.0319 157.712 94.6304C112.926 110.229 84.5995 145.366 94.4752 173.146C94.5565 173.387 94.6784 173.628 94.7597 173.909C85.6562 146.29 113.861 111.636 158.241 96.1983V96.1581Z" fill="#BFBFBF"/>
</g>
<g style="mix-blend-mode:screen" opacity="0.7">
<path d="M190.676 187.269C228.508 174.09 252.662 145.104 244.625 122.528C236.588 99.9522 199.404 92.3346 161.571 105.514C123.739 118.693 99.5846 147.678 107.622 170.254C115.659 192.83 152.843 200.448 190.676 187.269Z" fill="#BFBFBF"/>
</g>
<path d="M189.447 183.921C227.28 170.742 251.434 141.756 243.397 119.18C235.36 96.6043 198.175 88.9867 160.343 102.166C122.51 115.345 98.3561 144.33 106.393 166.906C114.43 189.482 151.615 197.1 189.447 183.921Z" fill="#B5B5B5"/>
<g style="mix-blend-mode:multiply" opacity="0.2">
<path d="M160.355 102.188C131.581 112.198 110.732 131.375 105.937 149.908C114.349 134.752 132.678 120.319 156.331 112.078C194.168 98.8912 231.354 106.53 239.36 129.083C241.271 134.47 241.352 140.259 239.848 146.089C244.888 137.003 246.391 127.676 243.384 119.193C235.337 96.6399 198.191 89.0015 160.355 102.188Z" fill="#B5B5B5"/>
</g>
<path d="M162.306 107.655C198.598 95.0319 234.281 101.504 244.197 122.008C243.994 121.083 243.71 120.118 243.385 119.234C235.338 96.6802 198.192 89.0417 160.355 102.228C122.519 115.414 98.378 144.4 106.425 166.954C106.75 167.879 107.156 168.763 107.563 169.647C102.361 147.536 126.014 120.359 162.306 107.696V107.655Z" fill="#A7A7A7"/>
<path d="M135.117 160.442L152.634 117.304L190.226 131.737L183.155 150.994C182.789 151.959 182.383 152.964 181.854 153.969C181.326 154.974 180.757 155.979 180.107 156.944C179.457 157.909 179.253 158.23 178.481 159.034L171.288 157.828L169.865 157.587C170.719 156.301 171.532 154.894 172.304 153.366C173.076 151.838 173.767 150.23 174.336 148.662L178.928 136.159L156.576 128.119L145.074 164.1L135.036 160.482L135.117 160.442ZM150.927 166.11L163.241 137.205L169.947 140.541L162.144 161.768L172.385 165.467C175.84 166.753 179.091 166.834 182.098 165.708C185.106 164.623 187.26 162.291 188.56 158.713L199.289 134.069L205.995 137.406L197.095 161.567C195.713 165.427 193.681 168.482 190.999 170.693C188.316 172.904 185.146 174.191 181.489 174.553C177.79 174.914 173.767 174.311 169.337 172.743L150.845 166.11H150.927Z" fill="#A7A7A7"/>
<path d="M136.906 160.16L152.634 117.304L192.015 131.456L184.944 150.713C184.578 151.677 184.172 152.683 183.643 153.688C183.115 154.693 182.546 155.698 181.896 156.663C181.245 157.627 180.555 158.472 179.823 159.276L172.02 157.828L171.735 157.306C172.589 156.019 173.402 154.612 174.174 153.085C174.946 151.557 175.637 149.949 176.206 148.381L180.798 135.878L158.446 127.837L145.441 163.256L136.947 160.2L136.906 160.16ZM152.716 165.829L163.242 137.205L171.735 140.26L163.932 161.487L174.174 165.185C177.628 166.472 180.88 166.552 183.887 165.427C186.895 164.341 189.048 162.009 190.349 158.431L199.29 134.069L207.784 137.124L198.884 161.286C197.502 165.145 195.47 168.201 192.787 170.412C190.105 172.623 186.935 173.909 183.277 174.271C179.579 174.633 175.556 174.03 171.126 172.462L152.634 165.829H152.716Z" fill="#D2D2D2"/>
<defs>
<clipPath id="clip0_3963_11792">
<rect width="270" height="256" fill="white" transform="translate(102.873 0.814941) rotate(23.4766)"/>
</clipPath>
</defs>
</svg>
