<svg width="70" height="61" viewBox="0 0 70 61" fill="none" xmlns="http://www.w3.org/2000/svg">
<path d="M64.7311 29.0464L62.976 24.1047L61.4639 24.627C55.4559 19.4041 43.818 18.2256 32.0722 22.337C20.3263 26.435 11.9962 34.5907 10.619 42.3849L9.10693 42.9072L10.8621 47.8488C10.9296 48.0631 10.9836 48.2774 11.0646 48.4916C14.3453 57.7322 29.0749 61.0132 43.9531 55.8171C58.8312 50.621 68.2414 38.9163 64.9606 29.6624C64.8796 29.4482 64.7986 29.2473 64.7176 29.0464H64.7311Z" fill="#D2D2D2"/>
<g opacity="0.7">
<mask id="mask0_1392_13985" style="mask-type:luminance" maskUnits="userSpaceOnUse" x="9" y="19" width="57" height="40">
<path d="M64.7311 29.0464L62.976 24.1047L61.4639 24.627C55.4559 19.4041 43.818 18.2256 32.0722 22.337C20.3263 26.435 11.9962 34.5907 10.619 42.3849L9.10693 42.9072L10.8621 47.8488C10.9296 48.0631 10.9836 48.2774 11.0646 48.4916C14.3453 57.7322 29.0749 61.0132 43.9531 55.8171C58.8312 50.621 68.2414 38.9163 64.9606 29.6624C64.8796 29.4482 64.7986 29.2473 64.7176 29.0464H64.7311Z" fill="white"/>
</mask>
<g mask="url(#mask0_1392_13985)">
<path d="M1.16846 18.8281L20.4209 73.0659" stroke="#B5B5B5" stroke-width="0.5" stroke-miterlimit="10"/>
<path d="M2.04614 18.52L21.2986 72.7578" stroke="#B5B5B5" stroke-width="0.5" stroke-miterlimit="10"/>
<path d="M2.93701 18.2124L22.1895 72.4502" stroke="#B5B5B5" stroke-width="0.5" stroke-miterlimit="10"/>
<path d="M3.8147 17.9043L23.0671 72.1421" stroke="#B5B5B5" stroke-width="0.5" stroke-miterlimit="10"/>
<path d="M4.70581 17.5962L23.9583 71.8339" stroke="#B5B5B5" stroke-width="0.5" stroke-miterlimit="10"/>
<path d="M5.58325 17.2881L24.8357 71.5258" stroke="#B5B5B5" stroke-width="0.5" stroke-miterlimit="10"/>
<path d="M6.47437 16.98L25.7268 71.2177" stroke="#B5B5B5" stroke-width="0.5" stroke-miterlimit="10"/>
<path d="M7.35181 16.6724L26.6043 70.9101" stroke="#B5B5B5" stroke-width="0.5" stroke-miterlimit="10"/>
<path d="M8.24292 16.3643L27.4954 70.602" stroke="#B5B5B5" stroke-width="0.5" stroke-miterlimit="10"/>
<path d="M9.13403 16.0425L28.3865 70.2802" stroke="#B5B5B5" stroke-width="0.5" stroke-miterlimit="10"/>
<path d="M10.0117 15.7349L29.2642 69.9726" stroke="#B5B5B5" stroke-width="0.5" stroke-miterlimit="10"/>
<path d="M10.9026 15.4268L30.155 69.6645" stroke="#B5B5B5" stroke-width="0.5" stroke-miterlimit="10"/>
<path d="M11.7803 15.1187L31.0327 69.3564" stroke="#B5B5B5" stroke-width="0.5" stroke-miterlimit="10"/>
<path d="M12.6714 14.8105L31.9238 69.0483" stroke="#B5B5B5" stroke-width="0.5" stroke-miterlimit="10"/>
<path d="M13.5488 14.5024L32.8013 68.7402" stroke="#B5B5B5" stroke-width="0.5" stroke-miterlimit="10"/>
<path d="M14.4399 14.1948L33.6924 68.4326" stroke="#B5B5B5" stroke-width="0.5" stroke-miterlimit="10"/>
<path d="M15.3176 13.8867L34.5701 68.1245" stroke="#B5B5B5" stroke-width="0.5" stroke-miterlimit="10"/>
<path d="M16.2085 13.5786L35.4609 67.8164" stroke="#B5B5B5" stroke-width="0.5" stroke-miterlimit="10"/>
<path d="M17.0996 13.2705L36.3521 67.5083" stroke="#B5B5B5" stroke-width="0.5" stroke-miterlimit="10"/>
<path d="M17.9773 12.9624L37.2297 67.2002" stroke="#B5B5B5" stroke-width="0.5" stroke-miterlimit="10"/>
<path d="M18.8684 12.6543L38.1209 66.8921" stroke="#B5B5B5" stroke-width="0.5" stroke-miterlimit="10"/>
<path d="M19.7458 12.333L38.9983 66.5708" stroke="#B5B5B5" stroke-width="0.5" stroke-miterlimit="10"/>
<path d="M20.637 12.0249L39.8894 66.2627" stroke="#B5B5B5" stroke-width="0.5" stroke-miterlimit="10"/>
<path d="M21.5144 11.7173L40.7669 65.955" stroke="#B5B5B5" stroke-width="0.5" stroke-miterlimit="10"/>
<path d="M22.4055 11.4092L41.658 65.6469" stroke="#B5B5B5" stroke-width="0.5" stroke-miterlimit="10"/>
<path d="M23.2832 11.1011L42.5357 65.3388" stroke="#B5B5B5" stroke-width="0.5" stroke-miterlimit="10"/>
<path d="M24.1741 10.793L43.4265 65.0307" stroke="#B5B5B5" stroke-width="0.5" stroke-miterlimit="10"/>
<path d="M25.0652 10.4849L44.3176 64.7226" stroke="#B5B5B5" stroke-width="0.5" stroke-miterlimit="10"/>
<path d="M25.9429 10.1768L45.1953 64.4145" stroke="#B5B5B5" stroke-width="0.5" stroke-miterlimit="10"/>
<path d="M26.834 9.86914L46.0864 64.1069" stroke="#B5B5B5" stroke-width="0.5" stroke-miterlimit="10"/>
<path d="M27.7114 9.56104L46.9639 63.7988" stroke="#B5B5B5" stroke-width="0.5" stroke-miterlimit="10"/>
<path d="M28.6025 9.25293L47.855 63.4907" stroke="#B5B5B5" stroke-width="0.5" stroke-miterlimit="10"/>
<path d="M29.48 8.94482L48.7324 63.1826" stroke="#B5B5B5" stroke-width="0.5" stroke-miterlimit="10"/>
<path d="M30.3711 8.63672L49.6235 62.8611" stroke="#B5B5B5" stroke-width="0.5" stroke-miterlimit="10"/>
<path d="M31.2622 8.31543L50.5012 62.5532" stroke="#B5B5B5" stroke-width="0.5" stroke-miterlimit="10"/>
<path d="M32.1399 8.00732L51.3923 62.2451" stroke="#B5B5B5" stroke-width="0.5" stroke-miterlimit="10"/>
<path d="M33.0308 7.69922L52.2832 61.937" stroke="#B5B5B5" stroke-width="0.5" stroke-miterlimit="10"/>
<path d="M33.9084 7.3916L53.1609 61.6294" stroke="#B5B5B5" stroke-width="0.5" stroke-miterlimit="10"/>
<path d="M34.7996 7.0835L54.052 61.3213" stroke="#B5B5B5" stroke-width="0.5" stroke-miterlimit="10"/>
<path d="M35.677 6.77539L54.9295 61.0131" stroke="#B5B5B5" stroke-width="0.5" stroke-miterlimit="10"/>
<path d="M36.5681 6.46729L55.8206 60.705" stroke="#B5B5B5" stroke-width="0.5" stroke-miterlimit="10"/>
<path d="M37.4458 6.15918L56.6983 60.3969" stroke="#B5B5B5" stroke-width="0.5" stroke-miterlimit="10"/>
<path d="M38.3367 5.85156L57.5891 60.0893" stroke="#B5B5B5" stroke-width="0.5" stroke-miterlimit="10"/>
<path d="M39.2278 5.54346L58.4667 59.7812" stroke="#B5B5B5" stroke-width="0.5" stroke-miterlimit="10"/>
<path d="M40.1055 5.23535L59.3579 59.4731" stroke="#B5B5B5" stroke-width="0.5" stroke-miterlimit="10"/>
<path d="M40.9963 4.92725L60.2488 59.1516" stroke="#B5B5B5" stroke-width="0.5" stroke-miterlimit="10"/>
<path d="M41.874 4.60596L61.1265 58.8437" stroke="#B5B5B5" stroke-width="0.5" stroke-miterlimit="10"/>
<path d="M42.7651 4.29785L62.0176 58.5356" stroke="#B5B5B5" stroke-width="0.5" stroke-miterlimit="10"/>
<path d="M43.6426 3.98975L62.895 58.2275" stroke="#B5B5B5" stroke-width="0.5" stroke-miterlimit="10"/>
<path d="M44.5337 3.68164L63.7861 57.9194" stroke="#B5B5B5" stroke-width="0.5" stroke-miterlimit="10"/>
<path d="M45.4114 3.37402L64.6638 57.6118" stroke="#B5B5B5" stroke-width="0.5" stroke-miterlimit="10"/>
<path d="M46.3022 3.06592L65.5547 57.3037" stroke="#B5B5B5" stroke-width="0.5" stroke-miterlimit="10"/>
<path d="M47.1934 2.75781L66.4323 56.9956" stroke="#B5B5B5" stroke-width="0.5" stroke-miterlimit="10"/>
<path d="M48.071 2.44971L67.3235 56.6875" stroke="#B5B5B5" stroke-width="0.5" stroke-miterlimit="10"/>
<path d="M48.9622 2.1416L68.2146 56.3794" stroke="#B5B5B5" stroke-width="0.5" stroke-miterlimit="10"/>
<path d="M49.8396 1.83398L69.092 56.0717" stroke="#B5B5B5" stroke-width="0.5" stroke-miterlimit="10"/>
<path d="M50.7307 1.52588L69.9832 55.7636" stroke="#B5B5B5" stroke-width="0.5" stroke-miterlimit="10"/>
<path d="M51.6082 1.21777L70.8606 55.4555" stroke="#B5B5B5" stroke-width="0.5" stroke-miterlimit="10"/>
<path d="M52.4993 0.896484L71.7517 55.1342" stroke="#B5B5B5" stroke-width="0.5" stroke-miterlimit="10"/>
<path d="M53.377 0.588379L72.6294 54.8261" stroke="#B5B5B5" stroke-width="0.5" stroke-miterlimit="10"/>
<path d="M54.2681 0.280273L73.5205 54.518" stroke="#B5B5B5" stroke-width="0.5" stroke-miterlimit="10"/>
</g>
</g>
<g style="mix-blend-mode:multiply" opacity="0.5">
<path d="M13.9267 47.5005C13.8457 47.2863 13.7917 47.072 13.7242 46.8577L11.9691 41.916L13.4812 41.3938C14.8043 33.921 22.5269 26.1134 33.5167 21.8682C33.0442 22.0155 32.5581 22.1762 32.0856 22.3369C20.3397 26.4348 12.0096 34.5906 10.6325 42.3848L9.12036 42.9071L10.8755 47.8487C10.943 48.063 10.997 48.2773 11.078 48.4915C14.3588 57.732 29.0884 61.0131 43.9665 55.817C44.439 55.6563 44.9116 55.4822 45.3841 55.2947C31.0055 59.7944 17.0995 56.4464 13.9267 47.5005Z" fill="#D2D2D2"/>
</g>
<g style="mix-blend-mode:screen" opacity="0.5">
<path d="M62.1253 30.6664C62.0443 30.4521 61.9633 30.2513 61.8823 30.0504L60.1272 25.1087L58.6151 25.631C52.8501 20.6224 41.9143 19.3368 30.668 22.8589C31.1405 22.6848 31.5995 22.4973 32.0856 22.3366C43.8315 18.2386 55.4693 19.4171 61.4773 24.6266L62.9894 24.1043L64.7445 29.046C64.8255 29.2469 64.92 29.4611 64.9876 29.662C68.2683 38.9025 58.8581 50.6072 43.98 55.8167C43.5074 55.9774 43.0214 56.1381 42.5489 56.2854C56.6034 50.8616 65.3116 39.5989 62.1388 30.653L62.1253 30.6664Z" fill="#D2D2D2"/>
</g>
<path d="M42.188 50.823C57.0699 45.6246 66.4738 33.917 63.1921 24.6734C59.9105 15.4298 45.186 12.1506 30.304 17.3491C15.4221 22.5475 6.01823 34.2551 9.29989 43.4987C12.5816 52.7423 27.3061 56.0215 42.188 50.823Z" fill="#BFBFBF"/>
<g style="mix-blend-mode:multiply" opacity="0.5">
<path d="M41.9684 50.2058C27.2523 55.3483 12.6982 52.1878 9.20142 43.1884C9.22842 43.2955 9.25542 43.3893 9.29592 43.4964C12.5767 52.7369 27.3063 56.0179 42.1844 50.8218C57.0625 45.6257 66.4727 33.9211 63.192 24.6672C63.1515 24.56 63.111 24.4663 63.0705 24.3726C66.0407 33.5595 56.6845 45.0767 41.9684 50.2058Z" fill="#BFBFBF"/>
</g>
<g style="mix-blend-mode:multiply" opacity="0.2">
<path d="M10.7405 42.9874C7.51378 33.8942 16.573 22.4172 31.0326 17.1006C30.7895 17.1809 30.5465 17.2613 30.3035 17.3416C15.4254 22.5378 6.01517 34.2424 9.29592 43.4963C12.5767 52.7368 27.3063 56.0179 42.1844 50.8217C42.4274 50.7414 42.6569 50.6476 42.9 50.5539C28.2648 55.4018 13.9673 52.0806 10.7405 42.9874Z" fill="#BFBFBF"/>
</g>
<g style="mix-blend-mode:screen" opacity="0.5">
<path d="M61.7607 25.176C58.534 16.0828 44.2229 12.775 29.6013 17.6095C29.8443 17.5158 30.0739 17.4354 30.3169 17.3417C45.195 12.1456 59.9246 15.4266 63.2054 24.6671C66.4861 33.9076 57.0759 45.6123 42.1978 50.8218C41.9548 50.9021 41.7117 50.9825 41.4687 51.0628C55.9283 45.7462 64.9875 34.2692 61.7607 25.176Z" fill="#BFBFBF"/>
</g>
<g style="mix-blend-mode:screen">
<path d="M30.4924 17.8506C45.2355 12.6946 59.8167 15.8685 63.2864 24.9216C63.2594 24.8412 63.2324 24.7475 63.2054 24.6671C59.9247 15.4266 45.195 12.1456 30.3169 17.3417C15.4388 22.5378 6.0286 34.2424 9.30935 43.4963C9.33635 43.5767 9.37685 43.657 9.40385 43.7508C6.37963 34.5504 15.7493 23.0065 30.4924 17.864V17.8506Z" fill="#BFBFBF"/>
</g>
<g style="mix-blend-mode:screen" opacity="0.7">
<path d="M41.2671 48.2008C53.8352 43.8106 61.8592 34.1551 59.1893 26.6347C56.5194 19.1143 44.1666 16.5767 31.5985 20.9669C19.0305 25.3571 11.0064 35.0125 13.6763 42.533C16.3463 50.0534 28.6991 52.591 41.2671 48.2008Z" fill="#BFBFBF"/>
</g>
<path d="M40.8594 47.0855C53.4275 42.6953 61.4515 33.0399 58.7816 25.5194C56.1117 17.999 43.7589 15.4615 31.1908 19.8516C18.6228 24.2418 10.5987 33.8973 13.2686 41.4177C15.9385 48.9382 28.2914 51.4757 40.8594 47.0855Z" fill="#B5B5B5"/>
<g style="mix-blend-mode:multiply" opacity="0.2">
<path d="M31.1946 19.8592C21.6358 23.1938 14.7098 29.5818 13.1167 35.7556C15.9114 30.7068 22.0004 25.899 29.858 23.1537C42.4274 18.7611 54.7808 21.3056 57.4405 28.8185C58.0751 30.613 58.1021 32.5415 57.6026 34.4833C59.2767 31.4567 59.7762 28.3498 58.7771 25.5241C56.1039 18.0111 43.764 15.4666 31.1946 19.8592Z" fill="#B5B5B5"/>
</g>
<path d="M31.8425 21.6808C43.8989 17.4757 55.7528 19.6318 59.047 26.4618C58.9795 26.1538 58.885 25.8323 58.777 25.5377C56.1038 18.0248 43.7639 15.4803 31.1944 19.8729C18.625 24.2655 10.6054 33.9211 13.2786 41.4341C13.3866 41.7421 13.5216 42.0367 13.6566 42.3313C11.9285 34.9657 19.7861 25.9127 31.8425 21.6942V21.6808Z" fill="#A7A7A7"/>
<path d="M22.8104 39.2642L28.6294 24.8945L41.1178 29.7023L38.7687 36.1171C38.6471 36.4385 38.5121 36.7733 38.3366 37.1081C38.1611 37.4429 37.9721 37.7777 37.7561 38.0991C37.5401 38.4205 37.4726 38.5276 37.216 38.7955L34.8264 38.3937L34.3538 38.3134C34.6373 37.8848 34.9074 37.4161 35.1639 36.9072C35.4204 36.3983 35.6499 35.8626 35.8389 35.3403L37.3645 31.1754L29.939 28.497L26.1182 40.4829L22.7834 39.2776L22.8104 39.2642ZM28.0623 41.1525L32.1532 31.5236L34.3808 32.6351L31.7886 39.7061L35.1909 40.9382C36.3385 41.3667 37.4185 41.3935 38.4176 41.0185C39.4167 40.657 40.1323 39.8802 40.5643 38.6883L44.1286 30.479L46.3562 31.5906L43.3995 39.6392C42.9405 40.9248 42.2654 41.9426 41.3743 42.6792C40.4833 43.4157 39.4302 43.8443 38.2151 43.9648C36.9865 44.0853 35.6499 43.8844 34.1783 43.3622L28.0353 41.1525H28.0623Z" fill="#A7A7A7"/>
<path d="M23.4045 39.1704L28.6294 24.8945L41.7119 29.6085L39.3627 36.0233C39.2412 36.3447 39.1062 36.6795 38.9307 37.0143C38.7552 37.3491 38.5662 37.6839 38.3502 38.0053C38.1342 38.3267 37.9046 38.608 37.6616 38.8758L35.0694 38.3937L34.9749 38.2196C35.2584 37.7911 35.5285 37.3223 35.785 36.8134C36.0415 36.3046 36.271 35.7689 36.46 35.2466L37.9856 31.0817L30.5601 28.4032L26.2398 40.2016L23.418 39.1838L23.4045 39.1704ZM28.6564 41.0587L32.1532 31.5236L34.9749 32.5414L32.3827 39.6124L35.785 40.8445C36.9326 41.273 38.0126 41.2998 39.0117 40.9248C40.0108 40.5632 40.7263 39.7865 41.1584 38.5946L44.1286 30.479L46.9503 31.4968L43.9936 39.5454C43.5346 40.8311 42.8595 41.8489 41.9684 42.5854C41.0774 43.322 40.0243 43.7505 38.8092 43.8711C37.5806 43.9916 36.244 43.7907 34.7724 43.2684L28.6294 41.0587H28.6564Z" fill="#D2D2D2"/>
</svg>
