<svg width="72" height="42" viewBox="0 0 72 42" fill="none" xmlns="http://www.w3.org/2000/svg">
<g clip-path="url(#clip0_1392_13580)">
<path opacity="0.91" d="M57.6175 7.64938C53.4975 7.15938 49.3975 6.43938 45.3175 5.63938C40.4575 4.68938 35.6075 3.62937 30.7375 2.71937C24.1175 1.49937 17.4675 0.559375 10.7075 0.599375C9.66752 0.599375 8.62752 0.629375 7.58752 0.689375L3.70752 33.5194C8.41752 33.2794 13.0775 33.5494 17.6975 34.1194C24.5275 34.9494 31.2775 36.4194 38.0475 37.7994C42.8675 38.7794 47.6875 39.7194 52.5475 40.3394C56.5375 40.8494 60.5375 41.1594 64.5875 41.1094C65.4775 41.0994 66.3675 41.0694 67.2575 41.0294C68.5475 30.0894 69.8375 19.1394 71.1375 8.19938C66.5775 8.42938 62.0775 8.18937 57.6075 7.65938L57.6175 7.64938Z" fill="#DFB108"/>
<path d="M37.3474 34.4396L36.7674 31.6796C36.5674 31.6696 36.3574 31.6496 36.1474 31.6196C33.1774 31.2696 30.6174 29.7396 28.9074 27.5696C27.1874 25.3896 26.2974 22.5496 26.6474 19.5796C26.9974 16.6096 28.5274 14.0496 30.6974 12.3396C31.2574 11.8996 31.8474 11.5196 32.4874 11.1896L31.4274 6.11959C28.1774 5.52959 24.9274 5.00959 21.6574 4.61959C19.6574 4.37959 17.6474 4.19959 15.6374 4.07959C14.9874 5.87959 13.8274 7.39959 12.3574 8.50959L13.7674 15.2396C14.7974 14.0796 16.3474 13.4196 18.0074 13.6196C20.6874 13.9396 22.6074 16.3696 22.2874 19.0496C21.9674 21.7296 19.5374 23.6496 16.8574 23.3296C16.3274 23.2696 15.8274 23.1196 15.3674 22.9096L17.0674 31.0396C17.5574 31.0896 18.0474 31.1496 18.5274 31.1996C24.8474 31.9496 31.0974 33.1996 37.3474 34.4196V34.4396Z" fill="#FDD510"/>
<path d="M21.7675 3.79938C24.9475 4.17938 28.1075 4.67938 31.2575 5.23938L30.7275 2.71937C24.1175 1.49937 17.4675 0.559375 10.7075 0.599375L11.2375 3.12937C14.7775 3.12937 18.2875 3.38937 21.7675 3.79938Z" fill="#FDD510"/>
<path d="M28.5775 19.8098C28.9175 16.9298 30.5975 14.5298 32.9175 13.1698L32.6875 12.0498C32.1775 12.3298 31.6975 12.6398 31.2375 12.9998C29.2275 14.5898 27.8175 16.9398 27.4975 19.6798C27.1775 22.4298 27.9875 25.0398 29.5775 27.0498C31.1675 29.0598 33.5175 30.4698 36.2575 30.7898C36.3675 30.7998 36.4875 30.8198 36.5975 30.8198L36.3675 29.6998C31.4875 29.1098 28.0075 24.6898 28.5775 19.7998V19.8098Z" fill="#FDD510"/>
<path d="M18.4373 32.0494C18.0373 31.9994 17.6473 31.9594 17.2473 31.9194L17.7073 34.1194C24.5373 34.9494 31.2873 36.4194 38.0573 37.7994L37.5473 35.3294C31.1873 34.0994 24.8373 32.8094 18.4473 32.0594L18.4373 32.0494Z" fill="#FDD510"/>
<path d="M56.4274 9.65965C56.9774 9.71965 57.5274 9.78965 58.0674 9.83965L57.6074 7.64965C53.4874 7.15965 49.3874 6.43965 45.3074 5.63965L45.7974 8.00965C49.3274 8.65965 52.8674 9.23965 56.4174 9.65965H56.4274Z" fill="#FDD510"/>
<path d="M48.1773 19.3394L51.8473 36.9094C52.2973 36.9694 52.7473 37.0194 53.1973 37.0794C54.7473 37.2594 56.3073 37.4194 57.8673 37.5294C58.9673 35.4794 60.7773 33.8994 62.9273 33.0794L61.4173 25.8594C60.4373 27.3794 58.6473 28.2894 56.7373 28.0694C54.0573 27.7494 52.1373 25.3194 52.4573 22.6394C52.7773 19.9594 55.2073 18.0394 57.8873 18.3594C58.6773 18.4494 59.3973 18.7294 60.0173 19.1394L58.2573 10.7094C57.6173 10.6494 56.9773 10.5794 56.3373 10.4994C52.8773 10.0894 49.4273 9.52941 45.9973 8.89941L47.8873 17.9494C48.0173 18.3994 48.1073 18.8694 48.1773 19.3394Z" fill="#FDD510"/>
<path d="M53.0973 37.9098C52.7373 37.8698 52.3873 37.8198 52.0273 37.7798L52.5573 40.3398C56.5473 40.8498 60.5473 41.1598 64.5973 41.1098L64.0673 38.5898C60.3773 38.6098 56.7173 38.3498 53.0873 37.9198L53.0973 37.9098Z" fill="#FDD510"/>
<g opacity="0.31">
<path d="M69.7075 10.2794L69.2175 10.2994C65.4775 10.4194 61.7575 10.2294 58.0675 9.84941C57.5175 9.78941 56.9675 9.72941 56.4275 9.66941C52.8775 9.24941 49.3375 8.66941 45.8075 8.01941C40.9575 7.12941 36.1175 6.11941 31.2575 5.25941C28.1075 4.69941 24.9475 4.18941 21.7675 3.81941C18.2775 3.40941 14.7775 3.14941 11.2375 3.14941C10.4475 3.14941 9.64746 3.14941 8.84746 3.17941H8.48746L5.14746 31.4494L5.63746 31.4294C9.53746 31.3094 13.3975 31.5194 17.2475 31.9294C17.6475 31.9694 18.0375 32.0194 18.4375 32.0594C24.8275 32.8094 31.1775 34.0994 37.5375 35.3294C42.3475 36.2594 47.1675 37.1594 52.0175 37.7794C52.3775 37.8294 52.7275 37.8694 53.0875 37.9094C56.7175 38.3394 60.3775 38.5994 64.0675 38.5794C64.7175 38.5794 65.3575 38.5694 66.0075 38.5494H66.3675L66.4075 38.1794C66.9475 33.6094 67.4875 29.0394 68.0275 24.4694C68.5675 19.8994 69.1075 15.3294 69.6475 10.7594L69.7075 10.2794ZM7.54746 25.1594C7.29746 25.0194 7.04746 24.8794 6.77746 24.7594L8.48746 10.2694C8.76746 10.2094 9.04746 10.1394 9.32746 10.0594L7.54746 25.1594ZM64.6375 32.5894C64.0475 32.6994 63.4675 32.8594 62.9175 33.0694C60.7675 33.8894 58.9575 35.4694 57.8575 37.5194C56.2975 37.4094 54.7375 37.2594 53.1875 37.0694C52.7375 37.0194 52.2875 36.9594 51.8375 36.8994C46.9975 36.2694 42.1775 35.3594 37.3475 34.4294C31.1075 33.2194 24.8475 31.9594 18.5275 31.2094C18.0375 31.1494 17.5475 31.0994 17.0675 31.0494C15.3575 30.8694 13.6475 30.7294 11.9375 30.6494C11.3075 28.6094 10.0075 26.8394 8.27746 25.6194L10.1475 9.77941C10.9475 9.45941 11.6875 9.03941 12.3675 8.52941C13.8475 7.41941 14.9975 5.88941 15.6475 4.09941C17.6575 4.20941 19.6675 4.39941 21.6675 4.63941C24.9375 5.02941 28.1875 5.54941 31.4375 6.13941C36.2875 7.00941 41.1275 8.01941 45.9875 8.90941C49.4175 9.52941 52.8575 10.0994 56.3275 10.5094C56.9675 10.5894 57.6075 10.6594 58.2475 10.7194C59.1275 10.8094 60.0075 10.8894 60.8875 10.9494C61.5575 13.9094 63.6075 16.4094 66.4075 17.6394L65.6275 24.2094C65.2975 27.0094 64.9675 29.8094 64.6375 32.6194V32.5894ZM66.2475 32.4394C65.9775 32.4394 65.6975 32.4594 65.4275 32.4794L66.3975 24.2694L67.1475 17.8994C67.4075 17.9894 67.6675 18.0694 67.9375 18.1294L67.1975 24.3594L66.2475 32.4294V32.4394Z" fill="#96750C"/>
<path d="M47.8776 17.9493C47.4876 16.5493 46.8276 15.2593 45.9376 14.1393C44.2176 11.9593 41.6676 10.4393 38.6976 10.0893C36.4876 9.82931 34.3476 10.2493 32.4976 11.1993C31.8676 11.5193 31.2676 11.9093 30.7076 12.3493C28.5276 14.0693 27.0076 16.6193 26.6576 19.5893C26.3076 22.5593 27.1976 25.3993 28.9176 27.5793C30.6376 29.7593 33.1876 31.2793 36.1576 31.6293C36.3676 31.6493 36.5676 31.6693 36.7776 31.6893C39.5276 31.8593 42.1176 30.9793 44.1476 29.3793C46.3276 27.6593 47.8476 25.1093 48.1976 22.1393C48.3076 21.1893 48.2976 20.2593 48.1676 19.3493C48.0976 18.8793 48.0076 18.4093 47.8776 17.9593V17.9493ZM43.6276 28.7093C41.6976 30.2293 39.2176 31.0493 36.5976 30.8293C36.4876 30.8293 36.3676 30.8093 36.2576 30.7993C33.5076 30.4793 31.1576 29.0693 29.5776 27.0593C27.9876 25.0493 27.1676 22.4293 27.4976 19.6893C27.8176 16.9393 29.2276 14.5893 31.2376 13.0093C31.6876 12.6493 32.1776 12.3293 32.6876 12.0593C34.4376 11.1093 36.4876 10.6793 38.6176 10.9293C41.3676 11.2493 43.7176 12.6593 45.2976 14.6693C46.8876 16.6793 47.7076 19.2993 47.3776 22.0393C47.0576 24.7893 45.6476 27.1393 43.6376 28.7193L43.6276 28.7093Z" fill="#96750C"/>
<path d="M38.4774 11.9996C36.4674 11.7596 34.5374 12.2096 32.9174 13.1696C30.5974 14.5396 28.9174 16.9296 28.5774 19.8096C27.9974 24.6896 31.4874 29.1196 36.3674 29.7096C36.3674 29.7096 36.3774 29.7096 36.3874 29.7096C41.2774 30.2896 45.7074 26.7896 46.2874 21.8996C46.8674 17.0096 43.3674 12.5796 38.4774 11.9996Z" fill="#96750C"/>
<path d="M60.0175 19.1293C59.3975 18.7193 58.6775 18.4393 57.8875 18.3493C55.2075 18.0293 52.7775 19.9493 52.4575 22.6293C52.1375 25.3093 54.0575 27.7393 56.7375 28.0593C58.6575 28.2893 60.4375 27.3693 61.4175 25.8493C61.8075 25.2393 62.0675 24.5393 62.1575 23.7793C62.3775 21.8893 61.4975 20.1293 60.0175 19.1393V19.1293Z" fill="#96750C"/>
<path d="M18.0075 13.6395C16.3575 13.4395 14.7975 14.0995 13.7675 15.2595C13.1275 15.9795 12.6975 16.8895 12.5775 17.9195C12.3275 20.0695 13.5075 22.0595 15.3675 22.9195C15.8275 23.1295 16.3275 23.2795 16.8575 23.3395C19.5375 23.6595 21.9675 21.7395 22.2875 19.0595C22.6075 16.3795 20.6875 13.9495 18.0075 13.6295V13.6395Z" fill="#96750C"/>
</g>
<path d="M9.81738 22.8997L14.0074 23.7997L9.81738 24.6997L8.91738 28.8897L8.01738 24.6997L3.81738 23.7997L8.01738 22.8997L8.91738 18.6997L9.81738 22.8997Z" fill="white"/>
<path d="M4.5374 31.1696L7.6574 31.8396L4.5374 32.5096L3.8774 35.6296L3.2074 32.5096L0.0874023 31.8396L3.2074 31.1696L3.8774 28.0596L4.5374 31.1696Z" fill="white"/>
<path d="M66.8575 8.21937L69.9775 8.88937L66.8575 9.55937L66.1875 12.6794L65.5175 9.55937L62.4075 8.88937L65.5175 8.21937L66.1875 5.10938L66.8575 8.21937Z" fill="white"/>
</g>
<defs>
<clipPath id="clip0_1392_13580">
<rect width="71.06" height="40.51" fill="white" transform="translate(0.0874023 0.599609)"/>
</clipPath>
</defs>
</svg>
