<svg width="29" height="25" viewBox="0 0 29 25" fill="none" xmlns="http://www.w3.org/2000/svg">
<path id="sort btn" d="M6.01777 0.775828L0.423691 6.77556L0.307295 6.91693C-0.119453 7.50558 -0.0802109 8.35637 0.424741 8.89679L0.556691 9.02149C1.10612 9.47864 1.90023 9.43664 2.40464 8.89566L5.61557 5.45072L5.61558 22.836L5.625 23.0109C5.70587 23.7568 6.2976 24.3359 7.01558 24.3359L7.17885 24.3257C7.87513 24.2392 8.41558 23.6052 8.41558 22.836L8.41557 5.46122L11.6263 8.89692L11.7582 9.02161C12.3077 9.47879 13.1018 9.43664 13.6062 8.89553C14.1525 8.30938 14.1519 7.35968 13.6049 6.7743L7.99756 0.774567L7.86559 0.649893C7.31616 0.192788 6.52214 0.234876 6.01777 0.775828ZM21.0142 0.340697L20.8509 0.350791C20.1546 0.437443 19.6142 1.07142 19.6142 1.84063V19.2096L16.4037 15.774L16.2717 15.6494C15.7223 15.192 14.9282 15.234 14.4238 15.7751C13.8773 16.3611 13.8777 17.3108 14.4247 17.8963L20.03 23.896L20.1619 24.0207C20.7114 24.478 21.5054 24.436 22.0099 23.895L27.6045 17.8952L27.721 17.7539C28.1477 17.1652 28.1085 16.3144 27.6037 15.774L27.4717 15.6494C26.9223 15.192 26.1282 15.234 25.6238 15.7751L22.4142 19.2156V1.84063L22.4048 1.66571C22.3239 0.919731 21.7321 0.340697 21.0142 0.340697Z" fill="#6775F4"/>
</svg>
