<svg width="13" height="15" viewBox="0 0 13 15" fill="none" xmlns="http://www.w3.org/2000/svg">
<path d="M2.28855 13.6022C2.33039 14.2814 2.90516 14.8326 3.57158 14.8326H10.1555C10.8219 14.8326 11.3965 14.2814 11.4385 13.6022L12.0061 4.33263H1.72042L2.28855 13.6022ZM12.4347 1.70763H9.43471L9.12453 1.07435C9.05197 0.926145 8.90355 0.83252 8.74123 0.83252H4.9856C4.82325 0.83252 4.67489 0.926145 4.6023 1.07435L4.29185 1.70763H1.29185C1.05517 1.70763 0.863281 1.90346 0.863281 2.14513V3.02013C0.863281 3.26174 1.05517 3.45763 1.29185 3.45763H12.4347C12.6714 3.45763 12.8633 3.26174 12.8633 3.02013V2.14513C12.8633 1.90341 12.6704 1.70763 12.4347 1.70763Z" fill="#F95050"/>
</svg>
