<svg width="351" height="344" viewBox="0 0 351 344" fill="none" xmlns="http://www.w3.org/2000/svg">
<g clip-path="url(#clip0_3963_12699)">
<path opacity="0.64" d="M266.672 246.002C268.808 234.514 268.929 222.637 272.359 211.445C279.611 187.77 300.86 169.732 305.465 145.41C309.91 121.999 295.7 96.4242 273.482 87.844C265.444 84.7364 256.771 83.6994 248.482 81.3386C225.064 74.6568 205.902 57.7988 183.34 48.619C171.381 43.7567 157.77 41.1505 145.62 45.4715C134.431 49.4648 125.898 58.7872 120.071 69.1149C114.243 79.4426 110.735 90.8812 106.536 101.975C98.536 123.06 87.1866 143.945 68.6088 156.732C59.897 162.731 49.6467 166.94 42.836 175.048C38.5195 180.13 36.0854 186.244 34.9914 192.77C33.2813 203.159 43.0785 226.057 48.1282 234.994C51.4873 240.945 73.2122 262.938 84.9499 270.212C101.524 280.494 137.124 296.318 161.46 299.156L189.942 302.482C259.163 304.638 258.974 283.168 266.271 248.012C266.417 247.337 266.55 246.672 266.672 246.002Z" fill="#D7D9EF"/>
<path d="M253.668 223.423L265.316 196.604" stroke="#F2E9DA" stroke-width="1.3" stroke-miterlimit="10" stroke-linecap="round"/>
<path d="M242.593 226.322L248.508 212.705" stroke="#F2E9DA" stroke-width="1.3" stroke-miterlimit="10" stroke-linecap="round"/>
<path d="M215.002 238.603L224.723 216.222" stroke="#F2E9DA" stroke-width="1.3" stroke-miterlimit="10" stroke-linecap="round"/>
<path d="M242.552 213.733L250.202 196.119" stroke="#F2E9DA" stroke-width="1.3" stroke-miterlimit="10" stroke-linecap="round"/>
</g>
<path d="M106.952 52.3269C106.891 52.2204 106.791 52.1412 106.674 52.1055C106.528 52.0743 106.627 52.0833 106.59 52.0703L106.561 52.0243C106.538 51.993 106.511 51.9642 106.482 51.9382C106.416 51.8794 106.34 51.8333 106.257 51.8021C106.009 51.7364 105.765 51.6539 105.528 51.5553C104.949 51.2827 104.444 50.8745 104.056 50.3652C103.928 50.2007 103.811 50.0286 103.704 49.8496L103.539 49.562L103.338 49.1376C103.236 48.875 103.151 48.6057 103.084 48.3317C103.008 48.0275 102.917 47.7999 102.851 47.4128C102.78 47.0553 102.708 46.6948 102.635 46.3311C102.619 46.2089 102.595 46.2191 102.574 46.1968L102.508 46.1399L102.375 46.0258L102.247 45.9184L102.178 45.8888L102.051 45.8363L101.993 45.8132L101.978 45.8079C101.969 45.8048 101.922 45.8081 101.935 45.8089L101.905 45.8161C101.888 45.8163 101.787 45.8484 101.687 45.8782C101.597 45.936 101.511 46.0004 101.43 46.0708C101.378 46.1063 101.331 46.1486 101.29 46.1964L101.133 46.6418C101.072 47.4641 100.903 48.2748 100.63 49.0531C100.472 49.4231 100.448 49.4657 100.376 49.6052L100.17 49.9643C99.9016 50.3991 99.5578 50.7824 99.1546 51.0961C99.1104 51.1342 99.0631 51.1684 99.0131 51.1984L98.7893 51.3489C98.4961 51.49 98.1888 51.5995 97.8725 51.6756C97.7178 51.7164 97.566 51.7669 97.4177 51.8269L97.0209 51.9853C96.8147 52.1046 96.6647 52.2505 96.7061 52.3126L96.6311 52.5251L96.623 52.6137C96.6198 52.6796 96.6237 52.7457 96.6347 52.8108L96.7046 52.9915L96.7329 53.0627L96.7492 53.1038L96.8562 53.1697C97.0084 53.2623 97.1889 53.3721 97.4058 53.5041C97.7368 53.5749 98.0584 53.6822 98.4603 53.7909C98.6381 53.8399 98.8057 53.9202 98.9553 54.0281L99.1529 54.1526C99.4597 54.377 99.7375 54.6386 99.9801 54.9313C100.12 55.1049 100.248 55.2875 100.364 55.4778C100.543 55.7573 100.691 56.0553 100.806 56.3665C101.163 57.2527 101.27 58.9631 101.754 59.1493C101.784 59.2089 101.83 59.2587 101.887 59.293C101.944 59.3272 102.01 59.3444 102.076 59.3425C102.259 59.341 102.582 59.4269 102.814 58.2741C103.021 57.252 103.095 56.7107 103.271 56.1204C103.398 55.8097 103.448 55.7212 103.499 55.6066L103.679 55.2849C103.87 54.9618 104.102 54.6653 104.37 54.4031C105.033 53.8528 105.795 53.434 106.615 53.1694C106.638 53.1309 106.562 52.9353 106.669 52.9439C106.735 52.9337 106.798 52.9071 106.852 52.8666C106.906 52.826 106.949 52.7728 106.977 52.7116C107.005 52.6505 107.017 52.5833 107.013 52.5162C107.008 52.449 106.988 52.384 106.952 52.3269Z" fill="#6775F4"/>
<path d="M237.503 72.9575C237.442 72.851 237.342 72.7718 237.225 72.7361C237.079 72.7049 237.177 72.7139 237.141 72.7009L237.111 72.655C237.088 72.6236 237.062 72.5948 237.033 72.5688C236.967 72.51 236.89 72.4639 236.808 72.4327C236.559 72.367 236.316 72.2845 236.079 72.1859C235.5 71.9133 234.995 71.5051 234.607 70.9958C234.479 70.8314 234.361 70.6592 234.254 70.4803L234.09 70.1926L233.889 69.7682C233.786 69.5056 233.701 69.2363 233.635 68.9623C233.558 68.6581 233.468 68.4305 233.402 68.0434C233.331 67.686 233.259 67.3254 233.186 66.9617C233.169 66.8395 233.146 66.8497 233.124 66.8274L233.059 66.7705L232.926 66.6564L232.798 66.549L232.729 66.5194L232.602 66.4669L232.543 66.4438L232.529 66.4385C232.519 66.4354 232.473 66.4387 232.486 66.4395L232.456 66.4467C232.439 66.447 232.338 66.479 232.238 66.5088C232.147 66.5666 232.062 66.631 231.981 66.7014C231.929 66.7369 231.881 66.7792 231.84 66.8271L231.684 67.2724C231.623 68.0947 231.454 68.9054 231.181 69.6837C231.022 70.0537 230.999 70.0963 230.927 70.2358L230.721 70.595C230.452 71.0297 230.109 71.413 229.705 71.7268C229.661 71.7648 229.614 71.799 229.564 71.829L229.34 71.9795C229.047 72.1206 228.74 72.2301 228.423 72.3062C228.269 72.347 228.117 72.3975 227.969 72.4575L227.572 72.6159C227.366 72.7352 227.215 72.8812 227.257 72.9432L227.182 73.1557L227.174 73.2443C227.171 73.3102 227.174 73.3763 227.186 73.4414L227.255 73.6221L227.284 73.6933L227.3 73.7344L227.407 73.8003C227.559 73.8929 227.74 74.0027 227.957 74.1347C228.288 74.2056 228.609 74.3128 229.011 74.4215C229.189 74.4705 229.357 74.5508 229.506 74.6587L229.704 74.7832C230.01 75.0076 230.288 75.2692 230.531 75.5619C230.671 75.7356 230.799 75.9181 230.915 76.1084C231.094 76.388 231.242 76.6859 231.357 76.9971C231.714 77.8833 231.821 79.5937 232.305 79.7799C232.335 79.8395 232.381 79.8894 232.438 79.9236C232.495 79.9578 232.561 79.975 232.627 79.9731C232.81 79.9716 233.133 80.0575 233.365 78.9047C233.571 77.8826 233.645 77.3414 233.822 76.7511C233.949 76.4403 233.999 76.3518 234.049 76.2372L234.23 75.9155C234.42 75.5924 234.653 75.2959 234.921 75.0337C235.584 74.4834 236.346 74.0646 237.166 73.8C237.188 73.7616 237.113 73.5659 237.22 73.5745C237.286 73.5643 237.349 73.5377 237.403 73.4972C237.457 73.4567 237.499 73.4034 237.527 73.3423C237.555 73.2811 237.568 73.2139 237.564 73.1468C237.559 73.0796 237.538 73.0146 237.503 72.9575Z" fill="#6775F4"/>
<path d="M99.2919 62.8195C99.2582 62.8078 99.2235 62.7991 99.1882 62.7935L99.1794 62.7868L99.0984 62.7327C99.0304 62.6924 98.9598 62.6566 98.887 62.6256C98.6903 62.5434 98.4871 62.4778 98.2795 62.4296C96.8051 62.1073 95.4262 61.4456 94.2524 60.497C91.6165 58.1842 89.9144 54.9897 89.465 51.512C89.3724 51.0118 89.3054 50.5071 89.2644 50L89.2272 49.6167L89.2085 49.4247L89.1991 49.3286L89.1966 49.3047C89.1918 49.2355 89.1792 49.1671 89.1593 49.1007C89.1123 48.9407 89.0184 48.7985 88.8897 48.6924C88.761 48.5863 88.6035 48.5212 88.4375 48.5056C88.2714 48.4899 88.1045 48.5244 87.9582 48.6046C87.812 48.6848 87.6932 48.807 87.6171 48.9554C87.5586 49.0719 87.5252 49.1993 87.519 49.3295L87.5113 49.4178C87.4316 49.4229 87.4402 49.423 87.5113 49.4178L87.5106 49.4258L87.4938 49.6187L87.4604 50.0049C87.378 51.0364 87.2142 52.0597 86.9703 53.0654C86.5176 55.0136 85.6904 56.8551 84.5346 58.4875C83.5085 59.9087 82.1487 61.0559 80.5749 61.828L79.7778 62.1494C79.3911 62.2908 78.856 62.4005 78.5675 62.5274L77.5665 62.8884L77.0798 63.064C76.9976 63.1085 77.0412 63.131 77.016 63.1652L76.9636 63.3492L76.9383 63.4382C76.9346 63.4748 76.9332 63.5116 76.9341 63.5485C76.9325 63.5716 76.9359 63.5948 76.9442 63.6164L77.0435 63.9409C77.2625 64.1076 77.4923 64.2596 77.7314 64.3961C78.5579 64.488 79.3699 64.6819 80.1487 64.9735L80.5027 65.1078C80.6016 65.1437 80.6974 65.1877 80.7892 65.2392L81.3968 65.5466C82.347 66.0961 83.2098 66.7844 83.9566 67.5889C85.7134 69.6164 86.9115 72.0667 87.4328 74.6983C87.5866 75.4265 87.7016 76.1623 87.7771 76.9027L87.8371 77.4564L87.8445 77.5255C87.8489 77.5862 87.8591 77.6463 87.8751 77.705C87.9154 77.8551 88.002 77.9887 88.1224 78.087C88.2428 78.1853 88.391 78.2433 88.5462 78.2528C88.7013 78.2623 88.8555 78.2228 88.987 78.14C89.1185 78.0571 89.2207 77.9351 89.2791 77.791C89.3136 77.7055 89.3336 77.6148 89.3383 77.5226L89.341 77.488L89.3621 77.2119L89.4467 76.1157C89.6034 74.7414 89.9033 73.3873 90.3413 72.0753C90.957 70.1792 91.995 68.4476 93.3773 67.011C94.5099 65.8465 95.9062 64.9718 97.4483 64.4609C98.4885 64.1078 99.0945 64.0702 99.1991 63.959C99.262 63.9134 99.1426 63.7267 99.2695 63.728C99.384 63.7045 99.4847 63.6372 99.5503 63.5404C99.6159 63.4437 99.6411 63.3252 99.6205 63.2101C99.6045 63.1052 99.5543 63.0084 99.4777 62.9348C99.4246 62.8836 99.3613 62.8444 99.2919 62.8195Z" fill="#6775F4"/>
<path d="M283.909 225.908C283.849 225.804 283.752 225.726 283.637 225.691C283.494 225.661 283.591 225.67 283.555 225.657L283.526 225.612C283.503 225.581 283.478 225.553 283.449 225.528C283.385 225.47 283.31 225.425 283.229 225.394C282.986 225.33 282.747 225.249 282.515 225.153C281.948 224.886 281.453 224.486 281.074 223.987C280.948 223.826 280.833 223.657 280.728 223.482L280.567 223.2L280.37 222.785C280.27 222.528 280.186 222.264 280.121 221.996C280.046 221.698 279.958 221.475 279.893 221.096C279.823 220.746 279.753 220.392 279.682 220.036C279.665 219.917 279.643 219.927 279.622 219.905L279.557 219.849L279.427 219.737L279.302 219.632L279.234 219.603L279.11 219.552L279.052 219.529L279.038 219.524C279.029 219.521 278.984 219.524 278.996 219.525L278.967 219.532C278.95 219.532 278.851 219.564 278.753 219.593C278.665 219.649 278.58 219.712 278.501 219.781C278.45 219.816 278.404 219.858 278.364 219.904L278.211 220.341C278.151 221.146 277.985 221.94 277.718 222.702C277.563 223.064 277.54 223.106 277.469 223.243L277.267 223.594C277.005 224.02 276.668 224.396 276.273 224.703C276.23 224.74 276.183 224.774 276.134 224.803L275.915 224.95C275.628 225.089 275.327 225.196 275.017 225.27C274.866 225.31 274.717 225.36 274.572 225.419L274.183 225.574C273.981 225.691 273.835 225.833 273.875 225.894L273.802 226.102L273.794 226.189C273.791 226.254 273.794 226.318 273.805 226.382L273.874 226.559L273.901 226.629L273.917 226.669L274.022 226.734C274.171 226.824 274.348 226.932 274.56 227.061C274.884 227.131 275.199 227.236 275.593 227.342C275.767 227.39 275.931 227.469 276.078 227.574L276.271 227.696C276.572 227.916 276.844 228.172 277.081 228.459C277.218 228.629 277.344 228.808 277.458 228.994C277.633 229.268 277.778 229.56 277.891 229.864C278.24 230.732 278.345 232.407 278.819 232.59C278.848 232.648 278.893 232.697 278.949 232.73C279.005 232.764 279.069 232.781 279.134 232.779C279.313 232.778 279.63 232.862 279.857 231.733C280.059 230.732 280.132 230.202 280.305 229.623C280.429 229.319 280.478 229.232 280.527 229.12L280.704 228.805C280.891 228.489 281.118 228.198 281.381 227.942C282.03 227.403 282.776 226.993 283.579 226.733C283.602 226.696 283.527 226.504 283.632 226.513C283.697 226.503 283.759 226.477 283.811 226.437C283.864 226.397 283.906 226.345 283.933 226.285C283.961 226.225 283.973 226.159 283.969 226.094C283.965 226.028 283.944 225.964 283.909 225.908Z" fill="#6775F4"/>
<path d="M276.408 236.184C276.375 236.173 276.341 236.164 276.306 236.159L276.298 236.152L276.218 236.099C276.152 236.06 276.082 236.025 276.011 235.994C275.819 235.914 275.62 235.85 275.416 235.802C273.972 235.487 272.622 234.839 271.472 233.91C268.891 231.645 267.224 228.516 266.784 225.11C266.693 224.62 266.627 224.126 266.587 223.629L266.551 223.254L266.533 223.066L266.523 222.972L266.521 222.949C266.516 222.881 266.504 222.814 266.484 222.749C266.438 222.592 266.346 222.453 266.22 222.349C266.094 222.245 265.94 222.181 265.777 222.166C265.615 222.151 265.451 222.184 265.308 222.263C265.165 222.341 265.048 222.461 264.974 222.606C264.917 222.721 264.884 222.845 264.878 222.973L264.87 223.059C264.792 223.064 264.801 223.064 264.87 223.059L264.87 223.067L264.853 223.256L264.821 223.634C264.74 224.644 264.579 225.647 264.341 226.632C263.897 228.54 263.087 230.343 261.955 231.942C260.95 233.334 259.618 234.457 258.077 235.213L257.297 235.528C256.918 235.667 256.394 235.774 256.111 235.898L255.131 236.252L254.654 236.424C254.574 236.467 254.617 236.489 254.592 236.523L254.54 236.703L254.516 236.79C254.512 236.826 254.511 236.862 254.512 236.898C254.51 236.921 254.513 236.944 254.522 236.965L254.619 237.282C254.833 237.446 255.058 237.595 255.292 237.728C256.102 237.818 256.897 238.008 257.66 238.294L258.007 238.425C258.103 238.461 258.197 238.504 258.287 238.554L258.882 238.855C259.813 239.393 260.658 240.067 261.389 240.855C263.11 242.841 264.283 245.241 264.793 247.818C264.944 248.531 265.057 249.252 265.131 249.977L265.189 250.519L265.197 250.587C265.201 250.646 265.211 250.705 265.227 250.762C265.266 250.909 265.351 251.04 265.469 251.137C265.587 251.233 265.732 251.29 265.884 251.299C266.036 251.308 266.187 251.27 266.316 251.188C266.444 251.107 266.544 250.988 266.602 250.847C266.635 250.763 266.655 250.674 266.66 250.584L266.662 250.55L266.683 250.279L266.766 249.206C266.919 247.86 267.213 246.534 267.642 245.249C268.245 243.392 269.262 241.696 270.615 240.289C271.724 239.149 273.092 238.292 274.602 237.792C275.621 237.446 276.214 237.409 276.317 237.3C276.378 237.256 276.262 237.073 276.386 237.074C276.498 237.051 276.597 236.985 276.661 236.89C276.725 236.796 276.75 236.679 276.73 236.567C276.714 236.464 276.665 236.369 276.59 236.297C276.538 236.247 276.476 236.209 276.408 236.184Z" fill="#6775F4"/>
<g clip-path="url(#clip1_3963_12699)">
<path opacity="0.91" d="M216.301 144.427C207.094 143.327 197.932 141.712 188.815 139.918C177.955 137.787 167.118 135.409 156.235 133.368C141.465 130.609 126.605 128.523 111.499 128.612C109.175 128.612 106.851 128.68 104.528 128.814L95.8574 202.457C106.382 201.918 116.795 202.524 127.119 203.802C142.381 205.664 157.464 208.962 172.592 212.057C183.363 214.255 194.134 216.364 204.994 217.755C213.91 218.899 222.848 219.594 231.898 219.482C233.887 219.46 235.875 219.392 237.864 219.303C240.747 194.763 243.629 170.2 246.534 145.66C236.345 146.176 226.289 145.638 216.301 144.449V144.427Z" fill="#DFB108"/>
<path d="M171.028 204.52L169.732 198.329C169.285 198.307 168.816 198.262 168.347 198.195C161.71 197.409 155.99 193.977 152.169 189.11C148.325 184.22 146.336 177.849 147.119 171.187C147.901 164.525 151.319 158.783 156.168 154.947C157.42 153.96 158.738 153.107 160.168 152.367L157.8 140.994C150.537 139.671 143.275 138.505 135.968 137.63C131.499 137.091 127.007 136.688 122.516 136.418C121.063 140.456 118.471 143.866 115.187 146.356L118.337 161.452C120.639 158.85 124.102 157.369 127.812 157.818C133.8 158.536 138.091 163.987 137.376 169.998C136.661 176.01 131.231 180.317 125.242 179.599C124.058 179.464 122.94 179.128 121.913 178.657L125.711 196.894C126.806 197.006 127.901 197.14 128.974 197.252C143.096 198.935 157.062 201.739 171.028 204.475V204.52Z" fill="#FDD510"/>
<path d="M136.191 135.79C143.297 136.643 150.358 137.764 157.397 139.021L156.213 133.368C141.442 130.609 126.582 128.523 111.477 128.612L112.661 134.288C120.571 134.288 128.415 134.871 136.191 135.79Z" fill="#FDD510"/>
<path d="M151.408 171.703C152.168 165.243 155.922 159.859 161.106 156.809L160.592 154.296C159.453 154.924 158.38 155.62 157.352 156.427C152.861 159.994 149.71 165.265 148.995 171.412C148.28 177.58 150.09 183.435 153.643 187.943C157.196 192.452 162.447 195.615 168.57 196.333C168.816 196.355 169.084 196.4 169.33 196.4L168.816 193.888C157.911 192.564 150.135 182.65 151.408 171.681V171.703Z" fill="#FDD510"/>
<path d="M128.75 199.159C127.856 199.047 126.985 198.957 126.091 198.867L127.119 203.802C142.381 205.664 157.464 208.962 172.592 212.057L171.453 206.517C157.241 203.757 143.051 200.864 128.772 199.181L128.75 199.159Z" fill="#FDD510"/>
<path d="M213.641 148.935C214.87 149.07 216.099 149.227 217.306 149.339L216.278 144.426C207.072 143.327 197.91 141.712 188.793 139.918L189.888 145.234C197.776 146.692 205.686 147.993 213.619 148.935H213.641Z" fill="#FDD510"/>
<path d="M195.206 170.649L203.407 210.061C204.413 210.195 205.418 210.308 206.424 210.442C209.887 210.846 213.373 211.205 216.859 211.452C219.317 206.853 223.362 203.309 228.166 201.47L224.792 185.274C222.602 188.684 218.602 190.725 214.334 190.231C208.346 189.514 204.055 184.063 204.77 178.051C205.485 172.04 210.915 167.733 216.904 168.451C218.669 168.652 220.278 169.281 221.664 170.2L217.731 151.291C216.301 151.156 214.871 150.999 213.44 150.819C205.709 149.9 198 148.644 190.335 147.23L194.558 167.531C194.849 168.54 195.05 169.595 195.206 170.649Z" fill="#FDD510"/>
<path d="M206.201 212.304C205.396 212.214 204.614 212.102 203.81 212.012L204.994 217.755C213.91 218.899 222.848 219.594 231.898 219.482L230.714 213.829C222.468 213.874 214.29 213.291 206.178 212.326L206.201 212.304Z" fill="#FDD510"/>
<g opacity="0.31">
<path d="M243.316 150.326L242.221 150.371C233.864 150.64 225.552 150.214 217.306 149.361C216.077 149.227 214.848 149.092 213.641 148.958C205.709 148.015 197.798 146.714 189.91 145.256C179.073 143.26 168.257 140.994 157.397 139.065C150.358 137.809 143.297 136.665 136.191 135.835C128.393 134.915 120.572 134.332 112.661 134.332C110.896 134.332 109.108 134.332 107.321 134.4H106.516L99.0527 197.813L100.148 197.768C108.862 197.499 117.488 197.97 126.091 198.89C126.985 198.98 127.856 199.092 128.75 199.181C143.029 200.864 157.219 203.757 171.43 206.517C182.179 208.603 192.949 210.621 203.787 212.012C204.591 212.124 205.373 212.214 206.178 212.304C214.289 213.268 222.468 213.852 230.713 213.807C232.166 213.807 233.596 213.784 235.049 213.739H235.853L235.942 212.909C237.149 202.658 238.356 192.407 239.562 182.156C240.769 171.905 241.976 161.654 243.182 151.403L243.316 150.326ZM104.416 183.704C103.857 183.39 103.298 183.076 102.695 182.807L106.516 150.303C107.142 150.169 107.768 150.012 108.393 149.832L104.416 183.704ZM231.987 200.37C230.669 200.617 229.373 200.976 228.144 201.447C223.339 203.286 219.295 206.831 216.837 211.429C213.351 211.182 209.865 210.846 206.401 210.42C205.396 210.307 204.39 210.173 203.385 210.038C192.569 208.625 181.799 206.584 171.006 204.498C157.062 201.783 143.074 198.957 128.951 197.275C127.856 197.14 126.761 197.028 125.689 196.916C121.868 196.512 118.047 196.198 114.225 196.019C112.818 191.443 109.913 187.472 106.047 184.736L110.226 149.204C112.013 148.486 113.667 147.544 115.186 146.4C118.493 143.91 121.063 140.478 122.516 136.463C127.007 136.71 131.499 137.136 135.968 137.675C143.275 138.549 150.537 139.716 157.8 141.039C168.637 142.991 179.452 145.256 190.312 147.253C197.977 148.644 205.664 149.922 213.418 150.842C214.848 151.021 216.278 151.178 217.708 151.313C219.675 151.515 221.641 151.694 223.608 151.829C225.105 158.468 229.686 164.076 235.942 166.835L234.199 181.573L231.987 200.438V200.37ZM235.585 200.034C234.981 200.034 234.356 200.079 233.752 200.124C234.468 193.977 235.205 187.854 235.92 181.707C236.479 176.952 237.037 172.174 237.596 167.419C238.177 167.62 238.758 167.8 239.361 167.935L237.708 181.909L235.585 200.011V200.034Z" fill="#96750C"/>
<path d="M194.536 167.531C193.664 164.39 192.19 161.497 190.201 158.984C186.357 154.094 180.659 150.685 174.023 149.9C169.084 149.316 164.302 150.259 160.168 152.39C158.761 153.107 157.42 153.982 156.168 154.969C151.297 158.827 147.901 164.547 147.118 171.209C146.336 177.872 148.325 184.242 152.169 189.132C156.012 194.022 161.71 197.432 168.347 198.217C168.816 198.262 169.263 198.307 169.732 198.351C175.877 198.733 181.665 196.759 186.201 193.17C191.072 189.312 194.469 183.592 195.251 176.929C195.497 174.799 195.474 172.712 195.184 170.671C195.028 169.617 194.826 168.563 194.536 167.553V167.531ZM185.039 191.667C180.726 195.077 175.185 196.916 169.33 196.422C169.084 196.422 168.816 196.378 168.57 196.355C162.425 195.637 157.174 192.474 153.643 187.966C150.09 183.457 148.258 177.58 148.995 171.434C149.711 165.265 152.861 159.994 157.353 156.45C158.358 155.642 159.453 154.924 160.593 154.319C164.503 152.188 169.084 151.223 173.844 151.784C179.989 152.502 185.24 155.665 188.771 160.173C192.324 164.682 194.156 170.559 193.419 176.705C192.704 182.874 189.553 188.145 185.061 191.689L185.039 191.667Z" fill="#96750C"/>
<path d="M173.531 154.184C169.039 153.646 164.726 154.655 161.106 156.809C155.922 159.882 152.168 165.243 151.408 171.703C150.112 182.65 157.911 192.587 168.816 193.91C168.816 193.91 168.838 193.91 168.86 193.91C179.787 195.211 189.686 187.36 190.983 176.391C192.279 165.422 184.458 155.485 173.531 154.184Z" fill="#96750C"/>
<path d="M221.664 170.178C220.278 169.258 218.669 168.63 216.904 168.428C210.915 167.71 205.485 172.017 204.77 178.029C204.055 184.04 208.346 189.491 214.334 190.209C218.625 190.725 222.602 188.661 224.792 185.252C225.663 183.883 226.244 182.313 226.446 180.608C226.937 176.369 224.971 172.421 221.664 170.2V170.178Z" fill="#96750C"/>
<path d="M127.789 157.863C124.102 157.414 120.616 158.895 118.315 161.497C116.884 163.112 115.924 165.153 115.655 167.463C115.097 172.286 117.734 176.75 121.89 178.679C122.918 179.15 124.035 179.487 125.219 179.621C131.208 180.339 136.638 176.032 137.353 170.021C138.068 164.009 133.778 158.558 127.789 157.84V157.863Z" fill="#96750C"/>
</g>
<path opacity="0.91" d="M238.624 136.329C229.619 134.153 220.725 131.439 211.854 128.567C201.329 125.158 190.849 121.479 180.279 118.182C165.934 113.695 151.431 109.837 136.415 108.11C134.113 107.841 131.789 107.639 129.465 107.482L112.147 179.576C122.672 180.294 132.929 182.134 143.029 184.624C157.956 188.302 172.548 193.372 187.184 198.239C197.62 201.716 208.077 205.081 218.692 207.773C227.406 209.971 236.211 211.721 245.216 212.708C247.182 212.932 249.171 213.089 251.16 213.224C256.925 189.2 262.713 165.176 268.478 141.129C258.311 140.434 248.389 138.684 238.602 136.306L238.624 136.329Z" fill="#DFB108"/>
<path d="M186.537 190.59L186 184.31C185.553 184.22 185.107 184.13 184.637 184.018C178.135 182.448 172.883 178.365 169.643 173.049C166.403 167.733 165.197 161.183 166.761 154.655C168.325 148.128 172.392 142.856 177.688 139.604C179.029 138.774 180.459 138.078 181.956 137.518L180.95 125.966C173.889 123.79 166.805 121.748 159.677 120.021C155.297 118.967 150.895 118.025 146.449 117.217C144.527 121.053 141.555 124.149 137.979 126.212L139.298 141.578C141.89 139.267 145.51 138.213 149.13 139.088C154.985 140.501 158.605 146.423 157.174 152.322C155.767 158.199 149.867 161.833 143.99 160.398C142.829 160.106 141.756 159.658 140.795 159.052L142.404 177.625C143.477 177.872 144.549 178.119 145.622 178.388C159.454 181.73 172.995 186.216 186.514 190.568L186.537 190.59Z" fill="#FDD510"/>
<path d="M160.101 118.204C167.051 119.887 173.933 121.861 180.771 123.947L180.28 118.204C165.934 113.696 151.431 109.837 136.415 108.11L136.907 113.875C144.75 114.84 152.459 116.342 160.101 118.182V118.204Z" fill="#FDD510"/>
<path d="M170.961 155.665C172.48 149.339 176.838 144.449 182.357 142.026L182.134 139.469C180.927 139.94 179.765 140.524 178.67 141.196C173.776 144.202 170.045 149.047 168.592 155.081C167.14 161.116 168.257 167.15 171.251 172.062C174.246 176.975 179.072 180.721 185.083 182.179C185.329 182.246 185.575 182.291 185.821 182.336L185.597 179.778C174.916 177.176 168.369 166.387 170.939 155.665H170.961Z" fill="#FDD510"/>
<path d="M145.197 180.227C144.325 180.025 143.476 179.823 142.604 179.621L143.029 184.624C157.956 188.302 172.548 193.372 187.184 198.239L186.693 192.609C172.905 188.168 159.163 183.614 145.174 180.227H145.197Z" fill="#FDD510"/>
<path d="M235.451 140.478C236.657 140.77 237.842 141.039 239.048 141.331L238.624 136.329C229.618 134.153 220.725 131.439 211.854 128.567L212.323 133.973C219.987 136.351 227.674 138.594 235.451 140.478Z" fill="#FDD510"/>
<path d="M214.558 159.837L218.021 199.944C219.005 200.191 219.988 200.438 220.971 200.684C224.368 201.514 227.786 202.255 231.205 202.927C234.177 198.643 238.624 195.615 243.607 194.359L242.177 177.872C239.607 180.99 235.384 182.56 231.205 181.528C225.351 180.115 221.731 174.193 223.161 168.293C224.569 162.416 230.468 158.782 236.345 160.218C238.065 160.644 239.607 161.452 240.881 162.529L239.205 143.282C237.797 142.968 236.389 142.632 235.004 142.295C227.429 140.456 219.943 138.28 212.502 135.992L214.29 156.652C214.446 157.706 214.535 158.76 214.558 159.814V159.837Z" fill="#FDD510"/>
<path d="M220.546 202.524C219.764 202.344 218.982 202.143 218.2 201.941L218.714 207.773C227.429 209.971 236.233 211.721 245.238 212.708L244.747 206.943C236.546 206.001 228.502 204.431 220.569 202.524H220.546Z" fill="#FDD510"/>
<g opacity="0.31">
<path d="M264.746 145.391L263.673 145.301C255.338 144.561 247.16 143.148 239.048 141.331C237.842 141.062 236.635 140.77 235.451 140.479C227.674 138.594 219.987 136.351 212.323 133.973C201.798 130.698 191.34 127.177 180.771 123.947C173.933 121.861 167.051 119.887 160.101 118.204C152.481 116.365 144.772 114.862 136.906 113.897C135.141 113.673 133.376 113.494 131.588 113.337L130.783 113.269L115.879 175.315L116.951 175.404C125.644 176.167 134.158 177.67 142.582 179.621C143.453 179.823 144.325 180.025 145.174 180.227C159.162 183.614 172.905 188.168 186.692 192.609C197.105 195.974 207.563 199.249 218.177 201.941C218.96 202.143 219.742 202.322 220.524 202.524C228.479 204.453 236.501 206.001 244.702 206.943C246.132 207.1 247.562 207.257 249.014 207.391L249.819 207.459L249.998 206.674C252.411 196.647 254.824 186.598 257.238 176.571C259.651 166.544 262.064 156.495 264.478 146.468L264.723 145.413L264.746 145.391ZM122.895 161.968C122.381 161.587 121.845 161.228 121.309 160.869L128.951 129.039C129.599 128.994 130.225 128.904 130.873 128.792L122.918 161.945L122.895 161.968ZM247.584 193.753C246.244 193.843 244.925 194.045 243.651 194.359C238.646 195.615 234.222 198.666 231.25 202.928C227.808 202.255 224.412 201.514 221.015 200.684C220.032 200.438 219.049 200.191 218.066 199.944C207.474 197.252 197.038 193.955 186.581 190.568C173.039 186.194 159.52 181.73 145.688 178.388C144.615 178.118 143.543 177.872 142.47 177.625C138.739 176.773 134.984 176.01 131.186 175.359C130.337 170.649 127.923 166.364 124.393 163.179L132.75 128.388C134.605 127.895 136.37 127.154 138.001 126.212C141.576 124.149 144.548 121.053 146.47 117.217C150.917 118.002 155.319 118.944 159.699 120.021C166.849 121.748 173.933 123.79 180.972 125.965C191.497 129.196 201.977 132.74 212.524 136.015C219.965 138.325 227.451 140.501 235.026 142.318C236.434 142.654 237.819 142.991 239.227 143.305C241.149 143.731 243.071 144.135 245.015 144.516C245.707 151.291 249.595 157.414 255.472 160.891L252.009 175.315C250.534 181.461 249.059 187.629 247.584 193.776V193.753ZM251.182 193.843C250.579 193.776 249.953 193.731 249.35 193.731L253.685 175.718L257.037 161.744C257.573 162.013 258.154 162.259 258.712 162.461L255.428 176.145L251.16 193.865L251.182 193.843Z" fill="#96750C"/>
<path d="M214.289 156.674C213.798 153.466 212.658 150.393 211.004 147.679C207.764 142.363 202.513 138.303 196.01 136.71C191.161 135.544 186.312 135.925 181.955 137.518C180.458 138.078 179.028 138.774 177.687 139.604C172.391 142.856 168.346 148.128 166.76 154.655C165.196 161.183 166.402 167.733 169.643 173.049C172.883 178.365 178.134 182.425 184.636 184.018C185.083 184.13 185.53 184.22 186 184.309C192.055 185.409 198.044 184.152 202.96 181.124C208.256 177.872 212.3 172.6 213.887 166.073C214.379 163.987 214.602 161.9 214.557 159.859C214.557 158.782 214.446 157.728 214.289 156.696V156.674ZM201.977 179.509C197.284 182.38 191.564 183.524 185.821 182.335C185.575 182.291 185.329 182.223 185.083 182.178C179.072 180.72 174.246 176.974 171.251 172.062C168.257 167.149 167.14 161.115 168.592 155.081C170.045 149.047 173.776 144.202 178.67 141.196C179.765 140.523 180.927 139.94 182.134 139.469C186.268 137.832 190.938 137.405 195.586 138.527C201.597 139.985 206.424 143.731 209.418 148.643C212.412 153.556 213.529 159.59 212.077 165.624C210.624 171.658 206.893 176.503 201.999 179.509H201.977Z" fill="#96750C"/>
<path d="M195.005 140.905C190.603 139.851 186.201 140.322 182.358 142.026C176.838 144.449 172.481 149.339 170.961 155.665C168.392 166.387 174.939 177.176 185.62 179.779C185.62 179.779 185.642 179.779 185.665 179.779C196.368 182.358 207.117 175.763 209.709 165.019C212.279 154.274 205.709 143.485 195.005 140.882V140.905Z" fill="#96750C"/>
<path d="M240.881 162.551C239.607 161.474 238.087 160.644 236.344 160.241C230.49 158.827 224.591 162.439 223.161 168.316C221.753 174.193 225.35 180.115 231.205 181.55C235.384 182.56 239.607 181.012 242.177 177.894C243.205 176.638 243.964 175.157 244.367 173.475C245.372 169.325 243.875 165.153 240.836 162.573L240.881 162.551Z" fill="#96750C"/>
<path d="M149.151 139.11C145.531 138.235 141.911 139.267 139.319 141.6C137.71 143.036 136.526 144.942 135.99 147.208C134.85 151.919 136.951 156.674 140.839 159.097C141.8 159.702 142.872 160.151 144.034 160.443C149.889 161.856 155.788 158.244 157.218 152.367C158.626 146.49 155.028 140.568 149.174 139.133L149.151 139.11Z" fill="#96750C"/>
</g>
<path d="M265.93 129.196L276.857 131.551L265.93 133.906L263.584 144.875L261.238 133.906L250.311 131.551L261.238 129.196L263.584 118.227L265.93 129.196Z" fill="white"/>
<path d="M252.188 150.842L260.322 152.591L252.188 154.341L250.445 162.484L248.702 154.341L240.591 152.591L248.702 150.842L250.445 142.677L252.188 150.842Z" fill="white"/>
</g>
<defs>
<clipPath id="clip0_3963_12699">
<rect width="270" height="256" fill="white" transform="translate(102.61 0.814941) rotate(23.4766)"/>
</clipPath>
<clipPath id="clip1_3963_12699">
<rect width="181" height="112" fill="white" transform="translate(95.8574 107.482)"/>
</clipPath>
</defs>
</svg>
