<svg width="32" height="32" viewBox="0 0 32 32" fill="none" xmlns="http://www.w3.org/2000/svg">
<g clip-path="url(#clip0_3829_21335)">
<path d="M24 29H8C6.67392 29 5.40215 28.4732 4.46447 27.5355C3.52678 26.5979 3 25.3261 3 24V10C3 9.73478 3.10536 9.48043 3.29289 9.29289C3.48043 9.10536 3.73478 9 4 9H24C25.3261 9 26.5979 9.52678 27.5355 10.4645C28.4732 11.4021 29 12.6739 29 14V24C29 25.3261 28.4732 26.5979 27.5355 27.5355C26.5979 28.4732 25.3261 29 24 29ZM5 11V24C5 24.7956 5.31607 25.5587 5.87868 26.1213C6.44129 26.6839 7.20435 27 8 27H24C24.7956 27 25.5587 26.6839 26.1213 26.1213C26.6839 25.5587 27 24.7956 27 24V14C27 13.2044 26.6839 12.4413 26.1213 11.8787C25.5587 11.3161 24.7956 11 24 11H5Z" fill="black"/>
<path d="M26.0001 11.0002C25.7349 11.0002 25.4805 10.8949 25.293 10.7073C25.1055 10.5198 25.0001 10.2654 25.0001 10.0002V7.25021C25.0193 6.8999 24.9591 6.54978 24.824 6.22599C24.689 5.90219 24.4825 5.61308 24.2201 5.38021C23.9843 5.20357 23.7114 5.08294 23.422 5.0275C23.1327 4.97205 22.8345 4.98324 22.5501 5.06021L5.78011 8.87021C5.55453 8.92101 5.35352 9.04842 5.21131 9.23075C5.0691 9.41307 4.99446 9.63905 5.00011 9.87021C5.00011 10.1354 4.89475 10.3898 4.70722 10.5773C4.51968 10.7649 4.26533 10.8702 4.00011 10.8702C3.73489 10.8702 3.48054 10.7649 3.293 10.5773C3.10547 10.3898 3.00011 10.1354 3.00011 9.87021C2.99424 9.1866 3.22203 8.52149 3.64576 7.98501C4.06949 7.44853 4.66374 7.07286 5.33011 6.92021L22.1101 3.11021C22.6872 2.96429 23.2901 2.9524 23.8725 3.07547C24.4549 3.19854 25.0014 3.45329 25.4701 3.82021C25.9657 4.24085 26.3605 4.76746 26.6254 5.36114C26.8902 5.95482 27.0182 6.6004 27.0001 7.25021V10.0002C27.0001 10.2654 26.8948 10.5198 26.7072 10.7073C26.5197 10.8949 26.2653 11.0002 26.0001 11.0002Z" fill="black"/>
<path d="M28 23H21C19.9391 23 18.9217 22.5786 18.1716 21.8284C17.4214 21.0783 17 20.0609 17 19C17 17.9391 17.4214 16.9217 18.1716 16.1716C18.9217 15.4214 19.9391 15 21 15H28C28.2652 15 28.5196 15.1054 28.7071 15.2929C28.8946 15.4804 29 15.7348 29 16V22C29 22.2652 28.8946 22.5196 28.7071 22.7071C28.5196 22.8946 28.2652 23 28 23ZM21 17C20.4696 17 19.9609 17.2107 19.5858 17.5858C19.2107 17.9609 19 18.4696 19 19C19 19.5304 19.2107 20.0391 19.5858 20.4142C19.9609 20.7893 20.4696 21 21 21H27V17H21Z" fill="black"/>
</g>
<defs>
<clipPath id="clip0_3829_21335">
<rect width="32" height="32" fill="white"/>
</clipPath>
</defs>
</svg>
